<?xml version="1.0" encoding="utf-8"?>
<!-- Generator: Adobe Illustrator 24.0.2, SVG Export Plug-In . SVG Version: 6.00 Build 0)  -->
<svg version="1.1" xmlns="http://www.w3.org/2000/svg" xmlns:xlink="http://www.w3.org/1999/xlink" x="0px" y="0px"
	 viewBox="0 0 538.58 362.16" style="enable-background:new 0 0 538.58 362.16;" xml:space="preserve">
<style type="text/css">
	.st0{fill-rule:evenodd;clip-rule:evenodd;fill:#FAF8F4;}
	.st1{fill-rule:evenodd;clip-rule:evenodd;fill:#BFAD96;}
	.st2{fill-rule:evenodd;clip-rule:evenodd;fill:#D4BE98;}
	.st3{fill-rule:evenodd;clip-rule:evenodd;fill:#DFD4C6;}
</style>
<g id="Layer_1">
	<path class="st0" d="M525.22,99.86c-19.92,34.69-35.2,69-48.95,101.91c-7.69,18.5-14.88,36.75-21.88,54.9
		c-7.06,18.11-13.39,36-21.78,55.2c-5.05,11.69-10.67,23.74-16.85,35.96h-3.59c5.8-11.42,11.13-22.73,15.96-33.78
		c8.24-18.62,14.64-36.38,21.91-54.79c7.16-18.29,14.52-36.73,22.41-55.46c14.64-34.56,30.96-70.82,52.77-107.89V99.86L525.22,99.86
		z M18.55,15.13h2.02c5.98,21.66,14.75,44.92,26.18,67.79c19.75,40.09,43.69,76.68,67.36,111.03
		c11.92,17.23,23.94,34.02,36.02,50.64c11.99,16.62,24.3,32.7,36.37,50.8c11.05,16.41,21.91,34.06,32.1,52.44h-3.65
		c-9.37-16.89-19.37-33.22-29.61-48.56c-11.63-17.59-23.77-33.62-35.89-50.58c-12.1-16.8-24.18-33.82-36.17-51.31
		c-23.82-34.9-48.09-72.24-68.35-113.7C34.89,63.1,26.35,41.74,20.47,21.82C19.8,19.57,19.16,17.34,18.55,15.13L18.55,15.13z
		 M34.05,15.13c0.24,0.91,0.48,1.83,0.72,2.75c5.33,20,13.26,41.49,22.71,62.23c19.08,41.76,42.3,79.47,65.13,114.73
		c11.49,17.67,23.1,34.88,34.72,51.86c11.64,17.13,23.33,33.35,34.46,51.12c9.99,15.81,19.71,32.63,28.76,50.01h3.62
		c-9.81-18.88-20.35-37.02-31.11-53.88c-11.56-18.28-23.41-34.55-34.94-51.35c-11.6-16.8-23.16-33.77-34.58-51.18
		c-22.69-34.71-45.59-71.66-64.21-112.04C49.2,57.72,41.42,35.75,36.06,15.13H34.05L34.05,15.13z M49.43,15.13
		c4.77,19.8,12,41.05,20.72,61.59c17.9,42.05,40.05,80.11,61.88,115.72c10.99,17.85,22.11,35.23,33.25,52.39
		c11.16,17.31,22.38,33.7,33.01,51.64c9.71,16.24,19.11,33.52,27.79,51.37h3.59c-9.39-19.33-19.57-37.93-30.01-55.21
		c-11.04-18.46-22.43-34.9-33.48-51.88c-11.12-16.97-22.2-34.12-33.13-51.71c-21.7-35.05-43.57-72.35-61.04-113.01
		C63.05,55.5,56.19,34.75,51.43,15.13H49.43L49.43,15.13z M64.68,15.13C68.91,34,75.23,54.08,82.9,73.54
		c16.71,42.32,37.79,80.71,58.61,116.65c10.49,18.02,21.11,35.56,31.77,52.89c10.67,17.48,21.43,34.04,31.55,52.14
		c9.4,16.64,18.44,34.34,26.71,52.62h3.57c-8.94-19.75-18.71-38.77-28.8-56.43c-10.52-18.62-21.44-35.24-32.01-52.39
		c-10.64-17.14-21.23-34.46-31.67-52.21c-20.71-35.38-41.52-73.01-57.85-113.94C76.9,53.42,70.87,33.8,66.68,15.13H64.68
		L64.68,15.13z M79.82,15.13c3.7,17.98,9.21,36.96,15.92,55.41c15.52,42.57,35.51,81.27,55.32,117.53
		c9.98,18.17,20.1,35.88,30.27,53.37c10.18,17.64,20.47,34.36,30.08,52.62c9.05,17,17.7,35.11,25.54,53.76h3.54
		c-8.46-20.13-17.8-39.53-27.49-57.56c-9.99-18.78-20.45-35.57-30.53-52.87c-10.16-17.3-20.26-34.78-30.19-52.69
		c-19.71-35.7-39.46-73.64-54.63-114.81c-6.92-18.44-12.18-37.02-15.82-54.77H79.82L79.82,15.13z M94.86,15.13
		c3.2,17.13,7.96,35.1,13.8,52.63c14.32,42.8,33.21,81.81,51.99,118.36c9.47,18.33,19.09,36.18,28.76,53.83
		c9.67,17.79,19.5,34.68,28.59,53.07c8.67,17.34,16.9,35.8,24.27,54.81h3.52c-7.95-20.48-16.83-40.22-26.1-58.58
		c-9.46-18.93-19.44-35.88-29.03-53.34c-9.67-17.46-19.27-35.09-28.7-53.14c-18.7-35.99-37.37-74.23-51.38-115.63
		c-6.04-17.51-10.6-35.11-13.73-52.01H94.86L94.86,15.13z M109.8,15.13c2.73,16.33,6.8,33.38,11.86,50.04
		c13.11,43.01,30.9,82.3,48.65,119.14c8.95,18.47,18.07,36.47,27.24,54.26c9.17,17.94,18.52,34.97,27.09,53.5
		c8.26,17.65,16.04,36.43,22.93,55.75h3.5c-7.42-20.78-15.8-40.84-24.63-59.49c-8.92-19.08-18.42-36.17-27.53-53.77
		c-9.18-17.6-18.28-35.38-27.2-53.58c-17.69-36.27-35.28-74.79-48.11-116.4c-5.25-16.64-9.16-33.36-11.82-49.45H109.8L109.8,15.13z
		 M124.64,15.13c2.28,15.59,5.74,31.79,10.09,47.65c11.89,43.2,28.58,82.76,45.28,119.87c8.43,18.6,17.04,36.74,25.7,54.67
		c8.66,18.08,17.53,35.25,25.57,53.91c7.83,17.92,15.14,36.99,21.52,56.59h3.48c-6.87-21.05-14.73-41.39-23.1-60.31
		c-8.39-19.21-17.4-36.44-26.01-54.19c-8.68-17.74-17.28-35.66-25.68-53.99c-16.66-36.54-33.16-75.32-44.83-117.12
		c-4.53-15.85-7.86-31.74-10.07-47.1H124.64L124.64,15.13z M139.4,15.13c1.86,14.9,4.75,30.33,8.46,45.47
		c10.67,43.38,26.24,83.19,41.9,120.54c7.9,18.73,16,37,24.16,55.06c8.16,18.21,16.53,35.51,24.05,54.3
		c7.37,18.17,14.19,37.49,20.05,57.33h3.46c-6.3-21.28-13.63-41.86-21.5-61.01c-7.84-19.33-16.37-36.71-24.47-54.58
		c-8.17-17.87-16.27-35.91-24.16-54.37c-15.63-36.79-31.03-75.82-41.52-117.79c-3.88-15.13-6.67-30.27-8.47-44.95H139.4L139.4,15.13
		z M154.08,15.13c1.46,14.28,3.84,29.01,6.97,43.49c9.45,43.53,23.89,83.58,38.49,121.17c7.37,18.85,14.95,37.24,22.6,55.42
		c7.64,18.33,15.53,35.76,22.52,54.66c6.9,18.38,13.2,37.92,18.51,57.96h3.45c-5.71-21.47-12.49-42.26-19.85-61.61
		c-7.3-19.45-15.34-36.95-22.93-54.95c-7.67-17.99-15.26-36.16-22.62-54.74c-14.59-37.02-28.89-76.29-38.19-118.41
		c-3.29-14.47-5.6-28.95-7-43H154.08L154.08,15.13z M168.69,15.13c1.09,13.71,3,27.82,5.6,41.71
		c8.22,43.67,21.53,83.93,35.07,121.74c6.84,18.96,13.9,37.46,21.04,55.76c7.12,18.45,14.52,35.99,20.97,54.99
		c6.41,18.56,12.18,38.28,16.94,58.49h3.44c-5.12-21.63-11.32-42.59-18.16-62.11c-6.75-19.56-14.29-37.18-21.38-55.29
		c-7.16-18.11-14.24-36.38-21.07-55.07c-13.54-37.24-26.74-76.71-34.85-118.97c-2.75-13.89-4.61-27.76-5.65-41.25H168.69
		L168.69,15.13z M183.25,15.13c0.73,13.21,2.21,26.77,4.34,40.14c6.99,43.79,19.16,84.25,31.63,122.25
		c6.3,19.06,12.84,37.67,19.46,56.07c6.6,18.55,13.5,36.21,19.42,55.31c5.9,18.71,11.13,38.58,15.33,58.92h3.42
		c-4.51-21.75-10.13-42.84-16.43-62.5c-6.19-19.66-13.24-37.4-19.82-55.61c-6.65-18.22-13.21-36.6-19.52-55.39
		c-12.49-37.44-24.57-77.11-31.49-119.48c-2.27-13.37-3.71-26.72-4.41-39.72H183.25L183.25,15.13z M197.75,15.13
		c0.4,12.77,1.48,25.86,3.17,38.78c5.75,43.89,16.79,84.52,28.19,122.72c5.76,19.15,11.78,37.86,17.88,56.36
		c6.08,18.65,12.48,36.41,17.85,55.6c5.38,18.83,10.05,38.8,13.68,59.24h3.41c-3.9-21.83-8.93-43.02-14.68-62.79
		c-5.64-19.75-12.18-37.59-18.25-55.9c-6.13-18.32-12.17-36.8-17.95-55.68c-11.43-37.63-22.39-77.48-28.12-119.95
		c-1.82-12.92-2.88-25.82-3.25-38.38H197.75L197.75,15.13z M212.22,15.13c0.08,12.39,0.79,25.08,2.07,37.63
		c4.52,43.97,14.4,84.77,24.72,123.13c5.22,19.24,10.71,38.03,16.29,56.63c5.55,18.74,11.45,36.6,16.29,55.86
		c4.85,18.91,8.96,38.96,12.01,59.46H287c-3.28-21.87-7.71-43.12-12.9-62.97c-5.08-19.84-11.12-37.77-16.67-56.17
		c-5.62-18.41-11.14-36.98-16.38-55.94c-10.37-37.8-20.2-77.81-24.73-120.35c-1.41-12.55-2.11-25.06-2.16-37.26H212.22L212.22,15.13
		z M226.66,15.13h1.93c-0.25,11.9,0.1,24.09,1.14,36.34c3.33,42.61,12.04,82.76,21.34,120.71c4.71,19.05,9.71,37.69,14.8,56.18
		c5.03,18.48,10.56,36.51,15.08,56.42c4.62,19.88,8.44,41.16,11.11,63.04h-3.4c-2.47-20.52-6.02-40.61-10.32-59.57
		c-4.29-19.33-9.69-37.28-14.71-56.1c-5.05-18.67-10.01-37.55-14.69-56.87c-9.24-38.51-17.97-79.45-21.25-123.48
		C226.78,39.58,226.43,27.22,226.66,15.13L226.66,15.13z M241.07,15.13H243c-0.55,11.67-0.53,23.62,0.15,35.63
		c2.13,42.65,9.7,82.93,17.94,121.02c4.17,19.11,8.64,37.84,13.22,56.4c4.5,18.56,9.53,36.67,13.49,56.64
		c4.05,19.89,7.26,41.16,9.31,63h-3.39c-1.9-20.5-4.87-40.59-8.64-59.58c-3.74-19.4-8.63-37.42-13.12-56.32
		c-4.53-18.75-8.95-37.7-13.08-57.08c-8.15-38.65-15.73-79.72-17.77-123.79C240.56,39.08,240.54,26.97,241.07,15.13L241.07,15.13z
		 M255.49,15.13h1.93c-0.85,11.5-1.15,23.28-0.82,35.13c0.93,42.67,7.36,83.06,14.52,121.27c3.63,19.18,7.57,37.96,11.62,56.6
		c3.98,18.62,8.49,36.81,11.89,56.84c3.47,19.87,6.08,41.09,7.52,62.87h-3.39c-1.32-20.45-3.72-40.51-6.94-59.48
		c-3.2-19.45-7.58-37.55-11.53-56.51c-4-18.82-7.88-37.83-11.47-57.27c-7.06-38.77-13.48-79.94-14.28-124.03
		C254.33,38.72,254.65,26.79,255.49,15.13L255.49,15.13z M269.9,15.13h1.93c-1.16,11.4-1.78,23.08-1.78,34.84
		c-0.27,42.68,5.02,83.16,11.1,121.47c3.09,19.23,6.5,38.07,10.03,56.76c3.46,18.68,7.46,36.93,10.29,57.01
		c2.9,19.81,4.9,40.95,5.74,62.62h-3.39c-0.75-20.37-2.58-40.35-5.25-59.28c-2.65-19.49-6.52-37.66-9.94-56.67
		c-3.46-18.87-6.81-37.94-9.85-57.44c-5.97-38.87-11.23-80.13-10.78-124.23C268.12,38.5,268.75,26.68,269.9,15.13L269.9,15.13z
		 M284.34,15.13h1.93c-1.47,11.36-2.42,23.01-2.76,34.75c-1.48,42.67,2.68,83.22,7.68,121.61c2.55,19.27,5.43,38.16,8.43,56.91
		c2.93,18.73,6.42,37.04,8.68,57.16c2.32,19.72,3.73,40.74,3.97,62.27h-3.38c-0.19-20.25-1.45-40.13-3.58-58.98
		c-2.1-19.53-5.46-37.75-8.34-56.81c-2.94-18.92-5.75-38.04-8.24-57.58c-4.87-38.95-8.97-80.29-7.28-124.37
		C281.9,38.41,282.87,26.64,284.34,15.13L284.34,15.13z M298.8,15.13c-1.8,11.52-3.11,23.33-3.9,35.06
		c-2.93,44.04,0,85.43,3.78,124.45c1.94,19.57,4.22,38.73,6.62,57.69c2.35,19.11,5.19,37.37,6.74,56.93
		c1.58,18.74,2.29,38.48,1.92,58.57h3.38c0.35-21.36-0.47-42.21-2.22-61.81c-1.7-20.15-4.67-38.51-7.07-57.28
		c-2.47-18.78-4.82-37.72-6.82-57.02c-3.92-38.46-6.93-79.07-4.26-121.7c0.67-11.79,1.96-23.49,3.76-34.88H298.8L298.8,15.13z
		 M313.3,15.13c-2.16,11.61-3.82,23.52-4.95,35.36c-4.17,43.99-2.4,85.42,0.27,124.48c1.39,19.6,3.12,38.79,4.99,57.78
		c1.81,19.14,4.14,37.44,5.14,57.02c1.05,18.59,1.2,38.16,0.3,58.05h3.38c0.92-21.14,0.68-41.81-0.51-61.25
		c-1.13-20.17-3.58-38.57-5.46-57.38c-1.94-18.82-3.75-37.79-5.22-57.12c-2.83-38.51-4.7-79.16-0.83-121.74
		c1.01-11.92,2.66-23.73,4.82-35.21H313.3L313.3,15.13z M327.87,15.13h1.96c-2.55,11.64-4.58,23.64-5.95,35.75
		c-5.08,42.51-4.35,83.18-2.6,121.73c0.92,19.35,2.2,38.34,3.61,57.19c1.34,18.83,3.28,37.26,3.84,57.45
		c0.63,19.25,0.3,39.69-1.17,60.58h-3.39c1.42-19.67,1.81-39.02,1.29-57.43c-0.45-19.59-2.26-37.93-3.53-57.09
		c-1.33-19.02-2.52-38.23-3.36-57.85c-1.57-39.1-2.17-80.55,3.23-124.46C323.28,38.98,325.32,26.89,327.87,15.13L327.87,15.13z
		 M342.5,15.13c-2.97,11.98-5.42,24.31-7.29,36.58c-6.64,43.82-7.21,85.27-6.74,124.38c0.28,19.62,0.94,38.85,1.73,57.89
		c0.73,19.18,2.03,37.54,1.92,57.13c0,18.2-0.91,37.31-2.84,56.71h3.39c2.01-20.61,2.9-40.78,2.81-59.81
		c0.01-20.19-1.41-38.65-2.22-57.49c-0.88-18.86-1.62-37.87-2-57.23c-0.66-38.57-0.24-79.24,6.03-121.66
		c1.75-12.39,4.19-24.63,7.16-36.5H342.5L342.5,15.13z M357.22,15.13h1.97c-3.44,12.15-6.33,24.73-8.49,37.46
		c-7.47,42.32-9.03,82.97-9.46,121.54c-0.17,19.36,0.03,38.38,0.38,57.25c0.28,18.85,1.17,37.33,0.6,57.52
		c-0.44,18.78-1.86,38.64-4.39,58.93h-3.39c2.42-19.11,3.83-37.93,4.34-55.89c0.66-19.59-0.12-37.96-0.31-57.15
		c-0.26-19.05-0.37-38.28-0.1-57.9c0.63-39.11,2.36-80.54,10.24-124.25C350.9,40.04,353.79,27.39,357.22,15.13L357.22,15.13z
		 M372.04,15.13h1.99c-3.96,12.5-7.34,25.47-9.96,38.62c-8.66,42.2-11.37,82.82-12.87,121.37c-0.72,19.36-1.05,38.37-1.23,57.24
		c-0.25,18.85,0.12,37.34-1.02,57.51c-0.95,18.49-2.89,38.02-5.91,57.95h-3.4c2.88-18.77,4.78-37.28,5.78-54.96
		c1.21-19.57,0.95-37.96,1.3-57.14c0.28-19.05,0.71-38.28,1.53-57.89c1.73-39.1,4.63-80.49,13.74-124.07
		C364.71,40.78,368.1,27.73,372.04,15.13L372.04,15.13z M386.98,15.13c-4.52,12.99-8.45,26.51-11.66,39.98
		c-10.33,43.42-14.4,84.77-17.23,123.82c-1.37,19.6-2.34,38.82-3.16,57.85c-0.89,19.18-1.15,37.56-2.91,57.11
		c-1.47,17.37-3.84,35.52-7.16,53.93h3.41c3.49-19.54,5.91-38.7,7.36-56.87c1.71-20.15,1.86-38.64,2.64-57.49
		c0.71-18.87,1.58-37.87,2.84-57.21c2.59-38.52,6.45-79.09,16.29-121.14c3.11-13.65,7.04-27.09,11.58-39.99H386.98L386.98,15.13z
		 M402.06,15.13c-5.16,13.45-9.69,27.5-13.45,41.52c-11.55,43.26-16.78,84.52-20.71,123.53c-1.93,19.57-3.44,38.77-4.79,57.79
		c-1.43,19.16-2.2,37.53-4.51,57.05c-1.93,17.02-4.73,34.79-8.47,52.8h3.42c3.92-19.12,6.82-37.87,8.74-55.68
		c2.28-20.12,2.94-38.6,4.26-57.43c1.25-18.85,2.64-37.84,4.45-57.16c3.68-38.47,8.67-78.97,19.7-120.86
		c3.65-14.22,8.2-28.2,13.38-41.57H402.06L402.06,15.13z M417.3,15.13c-5.87,13.95-11.08,28.63-15.43,43.27
		c-12.76,43.07-19.16,84.24-24.19,123.18c-2.47,19.54-4.53,38.71-6.41,57.7c-1.97,19.13-3.26,37.49-6.12,56.97
		c-2.35,16.65-5.58,33.99-9.69,51.57h3.42c4.33-18.66,7.66-36.97,10.04-54.39c2.85-20.08,4.03-38.55,5.88-57.35
		c1.77-18.83,3.71-37.79,6.06-57.07c4.76-38.41,10.9-78.82,23.1-120.54c4.25-14.87,9.49-29.46,15.39-43.35H417.3L417.3,15.13z
		 M432.72,15.13c-6.66,14.51-12.63,29.88-17.65,45.23c-13.98,42.86-21.53,83.93-27.65,122.78c-3.03,19.49-5.62,38.63-8.04,57.59
		c-2.51,19.1-4.32,37.44-7.72,56.87c-2.76,16.23-6.37,33.13-10.83,50.23h3.43c4.71-18.16,8.45-36,11.25-52.99
		c3.41-20.03,5.11-38.48,7.49-57.25c2.31-18.8,4.77-37.72,7.67-56.97c5.84-38.33,13.12-78.64,26.49-120.15
		c4.92-15.61,10.93-30.88,17.63-45.34H432.72L432.72,15.13z M448.33,15.13c-7.55,15.12-14.38,31.26-20.13,47.39
		c-15.18,42.63-23.88,83.58-31.1,122.33c-3.57,19.44-6.7,38.54-9.66,57.46c-3.05,19.05-5.37,37.36-9.32,56.73
		c-3.14,15.79-7.1,32.19-11.88,48.8h3.45c5.04-17.63,9.16-34.96,12.37-51.5c3.97-19.98,6.2-38.39,9.1-57.12
		c2.83-18.76,5.84-37.64,9.27-56.83c6.92-38.23,15.33-78.42,29.87-119.71c5.67-16.42,12.55-32.45,20.14-47.53H448.33L448.33,15.13z
		 M464.18,15.13c-8.54,15.76-16.32,32.75-22.9,49.75c-16.38,42.39-26.24,83.19-34.54,121.82c-4.12,19.38-7.79,38.42-11.28,57.29
		c-3.58,19-6.42,37.27-10.92,56.57c-3.48,15.31-7.77,31.19-12.83,47.26h3.46c5.34-17.07,9.8-33.85,13.38-49.9
		c4.53-19.91,7.28-38.29,10.71-56.97c3.36-18.71,6.89-37.54,10.87-56.68c8-38.11,17.53-78.16,33.23-119.22
		c6.51-17.32,14.35-34.19,22.95-49.93H464.18L464.18,15.13z M480.28,15.13c-9.64,16.43-18.5,34.36-26,52.32
		c-17.57,42.13-28.57,82.76-37.96,121.26c-4.67,19.31-8.87,38.29-12.89,57.11c-4.12,18.94-7.47,37.16-12.51,56.39
		c-3.8,14.8-8.36,30.13-13.67,45.63h3.47c5.61-16.47,10.37-32.68,14.27-48.2c5.1-19.83,8.36-38.16,12.31-56.79
		c3.89-18.65,7.95-37.43,12.46-56.5c9.07-37.98,19.73-77.87,36.58-118.68c7.44-18.31,16.37-36.09,26.08-52.52H480.28L480.28,15.13z
		 M496.68,15.13c-10.86,17.13-20.93,36.07-29.46,55.08c-18.75,41.85-30.89,82.31-41.37,120.64c-5.21,19.24-9.95,38.15-14.49,56.89
		c-4.65,18.88-8.52,37.04-14.09,56.19c-4.08,14.26-8.88,28.99-14.39,43.89h3.49c5.82-15.85,10.85-31.44,15.05-46.41
		c5.65-19.75,9.43-38.03,13.9-56.59c4.41-18.59,9-37.29,14.05-56.29c10.13-37.83,21.92-77.55,39.92-118.09
		c8.48-19.4,18.64-38.15,29.58-55.32H496.68L496.68,15.13z M513.39,15.13c-12.22,17.84-23.65,37.89-33.33,58.05
		c-19.92,41.55-33.21,81.81-44.76,119.98c-5.75,19.15-11.02,37.99-16.09,56.66c-5.18,18.8-9.56,36.9-15.67,55.96
		c-4.32,13.68-9.32,27.79-14.99,42.06h3.51c5.99-15.18,11.24-30.13,15.7-44.51c6.21-19.66,10.5-37.87,15.49-56.36
		c4.93-18.51,10.05-37.15,15.63-56.06c11.2-37.67,24.1-77.2,43.23-117.45c9.64-20.58,21.18-40.4,33.49-58.32H513.39L513.39,15.13z
		 M525.22,22.44c-11.76,16.72-22.83,35.26-32.39,53.91c-21.09,41.23-35.5,81.28-48.13,119.26c-6.29,19.06-12.08,37.81-17.68,56.4
		c-5.71,18.71-10.59,36.74-17.25,55.7c-4.51,13.07-9.68,26.53-15.45,40.14h3.53c6.12-14.49,11.53-28.76,16.21-42.52
		c6.76-19.56,11.56-37.7,17.08-56.11c5.46-18.43,11.09-36.98,17.21-55.81c12.26-37.49,26.26-76.8,46.53-116.75
		c8.94-17.87,19.31-35.12,30.34-51.03V22.44L525.22,22.44z M525.22,46.72c-7,10.7-13.63,21.81-19.71,32.98
		c-22.25,40.89-37.79,80.71-51.48,118.48c-6.82,18.96-13.15,37.61-19.27,56.11c-6.23,18.62-11.63,36.57-18.81,55.42
		c-4.67,12.43-9.94,25.21-15.77,38.11h3.54c6.19-13.76,11.73-27.33,16.58-40.43c7.31-19.45,12.62-37.51,18.66-55.83
		c5.97-18.35,12.13-36.8,18.78-55.53c13.31-37.29,28.42-76.38,49.81-116.01c5.47-10.27,11.41-20.32,17.68-30.03V46.72L525.22,46.72z
		 M525.22,71.3c-2.45,3.97-4.83,7.96-7.14,11.96c-23.39,40.54-40.05,80.11-54.8,117.66c-7.36,18.85-14.21,37.4-20.84,55.8
		c-6.76,18.52-12.65,36.38-20.37,55.12c-4.77,11.75-10.1,23.81-15.94,35.99h3.57c6.21-13.01,11.82-25.83,16.79-38.24
		c7.86-19.33,13.67-37.31,20.23-55.53c6.49-18.25,13.17-36.61,20.33-55.23c14.36-37.07,30.57-75.92,53.06-115.21
		c1.67-2.95,3.37-5.88,5.11-8.78V71.3L525.22,71.3z M525.22,120.02c-17.08,29.7-30.96,58.81-43.69,86.79
		c-8.41,18.61-16.3,36.93-23.97,55.11c-7.79,18.29-14.69,35.96-23.45,54.44c-4.83,10.31-10.11,20.84-15.8,31.47h3.61
		c6.08-11.4,11.66-22.65,16.73-33.58c8.93-19.07,15.76-36.85,23.33-54.85c7.51-18.03,15.21-36.17,23.43-54.55
		c11.74-26.15,24.48-53.18,39.81-80.55V120.02L525.22,120.02z M525.22,143.31c-12.92,22.71-24.16,45.02-34.69,66.66
		c-8.93,18.47-17.33,36.67-25.51,54.72c-8.31,18.17-15.7,35.72-24.98,54.07c-4.77,9.53-9.93,19.26-15.47,29.07h3.64
		c5.92-10.55,11.41-20.96,16.43-31.11c9.47-18.93,16.8-36.6,24.87-54.48c8.02-17.91,16.23-35.92,24.96-54.17
		c9.44-19.64,19.46-39.78,30.75-60.16V143.31L525.22,143.31z M525.22,165.56c-9.22,16.18-17.69,32.11-25.78,47.7
		c-9.45,18.33-18.36,36.39-27.05,54.31c-8.82,18.04-16.7,35.47-26.5,53.67c-4.65,8.73-9.64,17.62-14.95,26.58h3.67
		c5.7-9.67,11.02-19.22,15.94-28.55c10-18.78,17.82-36.33,26.4-54.08c8.52-17.78,17.24-35.66,26.48-53.78
		c6.9-13.47,14.09-27.17,21.79-41.02V165.56L525.22,165.56z M525.22,186.59c-5.88,10.16-11.5,20.2-16.96,30.11
		c-9.97,18.18-19.38,36.1-28.58,53.88c-9.32,17.9-17.7,35.21-28,53.25c-4.46,7.89-9.21,15.92-14.23,24h3.69
		c5.41-8.76,10.51-17.42,15.25-25.9c10.53-18.62,18.84-36.05,27.92-53.66c9.02-17.65,18.24-35.39,27.99-53.35
		c4.2-7.7,8.49-15.48,12.93-23.31V186.59L525.22,186.59z M525.22,206.27c-2.79,4.69-5.54,9.36-8.25,14
		c-10.48,18.02-20.4,35.79-30.09,53.43c-9.82,17.75-18.69,34.92-29.5,52.8c-4.21,7.03-8.65,14.16-13.31,21.34h3.73
		c5.06-7.82,9.85-15.56,14.35-23.16c11.05-18.45,19.85-35.75,29.42-53.22c9.52-17.5,19.23-35.1,29.48-52.91
		c1.38-2.38,2.76-4.77,4.16-7.17V206.27L525.22,206.27z M525.22,224.56c-10.85,17.65-21.15,35.07-31.22,52.36
		c-10.32,17.59-19.66,34.62-30.98,52.33c-3.88,6.13-7.94,12.33-12.18,18.58h3.76c4.63-6.86,9.05-13.64,13.23-20.33
		c11.57-18.28,20.86-35.43,30.91-52.75c8.6-14.91,17.35-29.89,26.47-45.01V224.56L525.22,224.56z M525.22,241.59
		c-8.28,12.99-16.3,25.86-24.19,38.66c-10.82,17.43-20.63,34.31-32.45,51.84c-3.47,5.2-7.08,10.45-10.81,15.73h3.79
		c4.13-5.86,8.09-11.67,11.89-17.41c12.08-18.09,21.85-35.1,32.39-52.26c6.36-10.42,12.8-20.88,19.38-31.38V241.59L525.22,241.59z
		 M525.22,257.41c-5.85,8.81-11.59,17.57-17.27,26.29c-11.3,17.26-21.59,33.99-33.9,51.32c-2.98,4.24-6.05,8.51-9.21,12.81h3.82
		c3.55-4.84,6.99-9.65,10.3-14.4c12.58-17.9,22.83-34.76,33.86-51.75c4.1-6.36,8.22-12.73,12.4-19.11V257.41L525.22,257.41z
		 M525.22,272.1c-3.51,5.06-6.98,10.11-10.44,15.15c-11.79,17.08-22.55,33.64-35.33,50.79c-2.4,3.25-4.86,6.51-7.37,9.79h3.86
		c2.9-3.8,5.72-7.57,8.46-11.31c13.09-17.7,23.81-34.39,35.31-51.21c1.83-2.7,3.67-5.39,5.51-8.09V272.1L525.22,272.1z
		 M525.22,285.77c-1.24,1.71-2.48,3.42-3.71,5.14c-12.27,16.89-23.49,33.29-36.76,50.23c-1.73,2.22-3.48,4.46-5.26,6.7h3.9
		c2.16-2.73,4.28-5.44,6.36-8.14c13.1-16.88,23.98-32.85,35.48-48.89V285.77L525.22,285.77z M525.22,298.49
		c-11.63,15.36-22.57,30.37-35.25,45.82c-0.95,1.17-1.91,2.34-2.88,3.52h3.94c1.34-1.63,2.67-3.26,3.98-4.88
		c11.05-13.57,20.6-26.56,30.22-39.47V298.49L525.22,298.49z M525.22,310.41c-9.76,12.38-19.35,24.63-30.13,37.16l-0.22,0.26h3.98
		c0.44-0.52,0.88-1.03,1.31-1.55c9.04-10.59,17.13-20.84,25.06-30.97V310.41L525.22,310.41z M525.22,321.57
		c-7.23,8.74-14.51,17.44-22.35,26.27h4.02c6.46-7.3,12.49-14.44,18.33-21.5V321.57L525.22,321.57z M525.22,331.99
		c-4.61,5.27-9.28,10.54-14.14,15.84h4.07c3.46-3.78,6.8-7.53,10.07-11.25V331.99L525.22,331.99z M525.22,341.73
		c-1.88,2.03-3.78,4.06-5.7,6.1h4.11c0.53-0.56,1.06-1.13,1.59-1.69V341.73L525.22,341.73z M212.93,347.83
		c-10.53-17.85-21.68-34.98-32.97-50.91c-12.58-17.91-25.33-33.79-37.79-50.23c-12.54-16.42-25.04-33.03-37.43-50.07
		c-24.62-33.98-49.59-70.19-70.47-109.96c-8.33-15.65-15.39-31.51-21.14-46.92v5.32c5.49,14.03,12.07,28.4,19.34,42.39
		c21.42,41.14,46.74,78.09,71.54,112.61c12.48,17.3,25.04,34.13,37.6,50.74c12.6,16.76,25.19,32.6,37.31,50.01
		c10.44,14.86,20.67,30.66,30.33,47.01H212.93L212.93,347.83z M207.18,347.83c-10.82-17.28-22.21-33.85-33.7-49.28
		c-13.08-17.71-26.28-33.39-39.2-49.63c-13-16.23-25.96-32.63-38.84-49.48c-25.57-33.59-51.56-69.4-73.55-108.84
		c-3.08-5.45-6-10.93-8.77-16.4v4.08c2.25,4.4,4.59,8.79,6.99,13.14c22.57,40.8,48.93,77.35,74.69,111.48
		c12.96,17.1,25.99,33.73,39.03,50.15c13.07,16.56,26.1,32.2,38.71,49.42c10.59,14.34,21.02,29.58,30.92,45.36H207.18L207.18,347.83
		z M201.33,347.83c-11.07-16.68-22.64-32.66-34.28-47.54c-13.57-17.5-27.22-32.98-40.59-49.01c-13.45-16.02-26.87-32.22-40.22-48.87
		c-25.19-31.53-50.8-65.05-73.1-101.85v3.79c22.46,36.92,47.8,70.25,72.57,101.52c13.44,16.9,26.94,33.33,40.43,49.53
		c13.53,16.35,27,31.79,40.09,48.81c10.7,13.79,21.26,28.44,31.35,43.62H201.33L201.33,347.83z M195.37,347.83
		c-11.26-16.04-22.97-31.39-34.71-45.71c-14.06-17.29-28.14-32.55-41.96-48.38c-13.9-15.81-27.78-31.8-41.59-48.23
		c-21.71-25.92-43.74-53.21-63.98-82.66v3.6c20.3,29.55,42.14,56.75,63.54,82.52c13.91,16.69,27.87,32.9,41.82,48.9
		c13.99,16.14,27.89,31.36,41.46,48.18c10.75,13.21,21.4,27.23,31.63,41.77H195.37L195.37,347.83z M189.29,347.83
		c-11.39-15.36-23.18-30.06-34.97-43.78c-14.55-17.07-29.05-32.1-43.32-47.71c-14.34-15.59-28.67-31.36-42.94-47.58
		c-18.45-21.04-37.16-43.02-54.94-66.36v3.49c17.8,23.44,36.36,45.38,54.6,66.35c14.38,16.47,28.79,32.46,43.19,48.24
		c14.44,15.92,28.77,30.92,42.8,47.53c10.75,12.61,21.42,25.97,31.73,39.83H189.29L189.29,347.83z M183.08,347.83
		c-11.46-14.64-23.26-28.65-35.04-41.74c-15.02-16.84-29.95-31.65-44.65-47.03c-14.78-15.37-29.54-30.91-44.27-46.9
		c-15.36-16.73-30.9-34.07-46-52.26v3.42c15.1,18.26,30.55,35.6,45.76,52.32c14.84,16.24,29.7,32.01,44.54,47.56
		c14.88,15.69,29.63,30.47,44.13,46.85c10.68,11.97,21.32,24.64,31.63,37.79H183.08L183.08,347.83z M176.74,347.83
		c-11.46-13.89-23.21-27.18-34.91-39.62c-15.5-16.6-30.83-31.18-45.97-46.33c-15.21-15.13-30.41-30.45-45.58-46.21
		c-12.36-12.88-24.84-26.13-37.16-39.87v3.37c12.31,13.81,24.74,27.09,37.01,39.98c15.3,16.01,30.6,31.54,45.86,46.86
		c15.32,15.46,30.49,30.01,45.44,46.16c10.56,11.31,21.09,23.26,31.34,35.66H176.74L176.74,347.83z M170.24,347.83
		c-11.38-13.1-23.01-25.64-34.57-37.39c-15.96-16.36-31.7-30.7-47.26-45.61c-15.63-14.89-31.26-29.97-46.87-45.49
		c-9.44-9.41-18.95-19.03-28.41-28.9v3.33c9.47,9.94,18.97,19.6,28.37,29.05c15.74,15.77,31.48,31.06,47.17,46.14
		c15.76,15.22,31.32,29.53,46.74,45.44c10.36,10.61,20.71,21.81,30.83,33.43H170.24L170.24,347.83z M163.57,347.83
		c-11.23-12.28-22.65-24.04-33.99-35.08c-16.42-16.1-32.56-30.2-48.53-44.86c-16.05-14.65-32.1-29.48-48.14-44.75
		c-6.57-6.27-13.17-12.64-19.78-19.11v3.3c6.63,6.54,13.25,12.97,19.83,19.3c16.19,15.52,32.35,30.57,48.46,45.39
		c16.18,14.97,32.15,29.04,48,44.71c10.08,9.89,20.18,20.31,30.09,31.11H163.57L163.57,347.83z M156.73,347.83
		c-10.99-11.42-22.13-22.37-33.17-32.67c-16.87-15.85-33.4-29.69-49.78-44.1c-16.45-14.4-32.92-28.97-49.39-44
		c-3.74-3.42-7.49-6.87-11.25-10.35v3.27c3.81,3.56,7.61,7.08,11.4,10.57c16.62,15.27,33.2,30.06,49.73,44.63
		c16.6,14.71,32.96,28.53,49.25,43.96c9.73,9.14,19.48,18.74,29.09,28.7H156.73L156.73,347.83z M149.68,347.83
		c-10.66-10.53-21.42-20.63-32.09-30.16c-17.31-15.58-34.23-29.16-51.02-43.32c-16.86-14.14-33.73-28.46-50.62-43.22l-2.83-2.48
		v3.24c1.03,0.91,2.05,1.82,3.08,2.72c17.04,15.01,34.04,29.54,50.98,43.86c17.01,14.45,33.76,28.01,50.48,43.18
		c9.29,8.36,18.6,17.12,27.82,26.19H149.68L149.68,347.83z M142.42,347.83c-10.22-9.61-20.52-18.83-30.71-27.57
		c-17.74-15.31-35.04-28.63-52.23-42.52c-15.43-12.41-30.88-24.97-46.36-37.86v3.22c15.74,13.22,31.43,26.07,47.08,38.74
		c17.41,14.19,34.54,27.49,51.68,42.39c8.75,7.55,17.54,15.44,26.25,23.6H142.42L142.42,347.83z M134.92,347.83
		c-9.68-8.66-19.4-16.98-29.02-24.88c-18.17-15.03-35.84-28.08-53.41-41.71c-13.1-10.11-26.22-20.31-39.36-30.73v3.2
		c13.44,10.74,26.84,21.24,40.19,31.62c17.81,13.92,35.3,26.95,52.87,41.58c8.11,6.71,16.26,13.7,24.37,20.91H134.92L134.92,347.83z
		 M127.16,347.83c-9.02-7.67-18.05-15.06-27-22.1c-18.59-14.75-36.63-27.51-54.58-40.87c-10.81-8-21.63-16.06-32.46-24.24v3.17
		c11.17,8.5,22.3,16.86,33.41,25.14c18.2,13.64,36.06,26.39,54.03,40.75c7.37,5.84,14.76,11.9,22.14,18.14H127.16L127.16,347.83z
		 M119.12,347.83c-8.23-6.66-16.46-13.08-24.61-19.24c-19-14.46-37.39-26.94-55.71-40.01c-8.55-6.07-17.1-12.17-25.67-18.34v3.15
		c8.93,6.48,17.84,12.89,26.73,19.24c18.58,13.35,36.79,25.83,55.16,39.91c6.5,4.94,13.02,10.04,19.54,15.29H119.12L119.12,347.83z
		 M110.76,347.83c-7.31-5.62-14.6-11.05-21.82-16.29c-19.41-14.16-38.15-26.36-56.83-39.14c-6.32-4.3-12.65-8.62-18.98-12.98v3.13
		c6.73,4.66,13.45,9.29,20.16,13.89c18.95,13.06,37.51,25.25,56.27,39.04c5.49,4.01,11.01,8.13,16.53,12.34H110.76L110.76,347.83z
		 M102.05,347.83c-6.23-4.55-12.44-8.97-18.6-13.25c-19.8-13.86-38.88-25.76-57.92-38.25c-4.13-2.7-8.27-5.4-12.4-8.12v3.11
		c4.57,3.02,9.13,6.03,13.69,9.03c19.31,12.77,38.21,24.67,57.36,38.17c4.35,3.04,8.71,6.15,13.08,9.32H102.05L102.05,347.83z
		 M92.96,347.83c-4.99-3.46-9.97-6.84-14.91-10.13c-20.19-13.55-39.6-25.15-58.98-37.35c-1.98-1.24-3.96-2.48-5.94-3.72v3.09
		c2.45,1.55,4.9,3.09,7.34,4.63c19.67,12.46,38.9,24.07,58.42,37.27c3.04,2.04,6.08,4.11,9.14,6.21H92.96L92.96,347.83z
		 M83.43,347.83c-3.58-2.35-7.15-4.66-10.69-6.93c-20.42-13.14-40.02-24.37-59.61-36.18v3.06l1.1,0.67
		c20.01,12.16,39.57,23.46,59.46,36.36c1.55,1,3.1,2,4.66,3.02H83.43L83.43,347.83z M73.42,347.83c-1.97-1.23-3.94-2.44-5.91-3.64
		c-18.62-11.48-36.53-21.45-54.38-31.67v3.05c18.47,10.68,36.6,20.82,55.05,32.26H73.42L73.42,347.83z M62.86,347.83l-0.47-0.28
		c-16.85-9.96-33.11-18.72-49.26-27.53v3.03c14.84,8.17,29.49,16.13,44.33,24.78H62.86L62.86,347.83z M51.71,347.83
		c-13.12-7.29-25.9-13.96-38.58-20.57v3.01c11.01,5.79,21.94,11.52,32.95,17.56H51.71L51.71,347.83z M39.83,347.83
		c-9.02-4.71-17.89-9.17-26.71-13.57v2.99c6.95,3.5,13.88,6.99,20.82,10.58H39.83L39.83,347.83z M27.14,347.83
		c-4.7-2.3-9.37-4.56-14.01-6.78v2.97c2.63,1.27,5.25,2.54,7.88,3.81H27.14L27.14,347.83z M13.53,347.83h-0.4v-0.19L13.53,347.83z"
		/>
	<path class="st1" d="M2.81,0h532.96h2.81v2.81v356.55v2.81h-2.81H2.81H0l0-2.81V2.81L0,0H2.81L2.81,0z M532.96,5.61H5.61v350.93
		h527.35V5.61z"/>
</g>
<g id="_x33_21353356351_1">
	<path class="st2" d="M14.61,12.54h509.36h2.78v2.78v331.5v2.79h-2.78H14.61h-2.78v-2.79V15.33v-2.78H14.61L14.61,12.54z
		 M521.19,18.11H17.39v325.93h503.81V18.11z"/>
	<g>
		<path class="st3" d="M504.32,22.61h12.15v12.15h-12.15V22.61L504.32,22.61z M507.02,25.3v6.76h6.76V25.3H507.02z"/>
		<rect x="511.48" y="35.95" class="st3" width="4.98" height="4.98"/>
		<rect x="511.48" y="41.72" class="st3" width="4.98" height="35.97"/>
		<rect x="507.24" y="35.95" class="st3" width="3.23" height="28.29"/>
		<rect x="507.24" y="65.23" class="st3" width="3.23" height="61.37"/>
		<rect x="511.46" y="78.93" class="st3" width="5.12" height="21.35"/>
		<rect x="498.02" y="22.73" class="st3" width="4.98" height="4.98"/>
		<rect x="461.26" y="22.73" class="st3" width="35.97" height="4.98"/>
		<rect x="474.71" y="28.73" class="st3" width="28.29" height="3.23"/>
		<rect x="445.43" y="28.73" class="st3" width="28.29" height="3.23"/>
		<rect x="438.68" y="22.61" class="st3" width="21.35" height="5.12"/>
		<rect x="498.53" y="35.62" class="st3" width="4.98" height="4.98"/>
		<rect x="492.78" y="41.37" class="st3" width="4.98" height="4.98"/>
		<rect x="499.36" y="42.2" class="st3" width="3.33" height="3.33"/>
		<rect x="493.81" y="36.65" class="st3" width="3.33" height="3.33"/>
		<rect x="462.82" y="32.77" class="st3" width="40.18" height="1.99"/>
		<rect x="504.32" y="35.95" class="st3" width="1.99" height="40.18"/>
		<path class="st3" d="M34.26,339.55H22.11v-12.15h12.15V339.55L34.26,339.55z M24.8,330.1v6.76h6.76v-6.76H24.8z"/>
		<rect x="22.11" y="321.23" class="st3" width="4.98" height="4.98"/>
		<rect x="22.11" y="284.47" class="st3" width="4.98" height="35.97"/>
		<rect x="28.11" y="297.92" class="st3" width="3.23" height="28.29"/>
		<rect x="28.11" y="233.86" class="st3" width="3.23" height="63.07"/>
		<rect x="21.99" y="261.89" class="st3" width="5.12" height="21.35"/>
		<rect x="35.57" y="334.45" class="st3" width="4.98" height="4.98"/>
		<rect x="41.34" y="334.45" class="st3" width="35.97" height="4.98"/>
		<rect x="35.57" y="330.21" class="st3" width="28.29" height="3.23"/>
		<rect x="64.85" y="330.21" class="st3" width="28.29" height="3.23"/>
		<rect x="78.55" y="334.43" class="st3" width="21.35" height="5.12"/>
		<rect x="35.06" y="321.55" class="st3" width="4.98" height="4.98"/>
		<rect x="40.81" y="315.81" class="st3" width="4.98" height="4.98"/>
		<rect x="35.89" y="316.64" class="st3" width="3.32" height="3.33"/>
		<rect x="41.45" y="322.19" class="st3" width="3.32" height="3.33"/>
		<rect x="35.57" y="327.41" class="st3" width="40.18" height="1.99"/>
		<rect x="32.27" y="286.03" class="st3" width="1.99" height="40.18"/>
		<rect x="22.08" y="22.61" class="st3" width="411.32" height="3.23"/>
		<rect x="102.89" y="336.32" class="st3" width="413.76" height="3.23"/>
		<rect x="22.08" y="22.61" class="st3" width="3.23" height="237.05"/>
		<rect x="513.42" y="102.84" class="st3" width="3.23" height="236.71"/>
	</g>
</g>
</svg>
