<?xml version="1.0" encoding="utf-8"?>
<!-- Generator: Adobe Illustrator 24.0.3, SVG Export Plug-In . SVG Version: 6.00 Build 0)  -->
<svg version="1.1" id="Laag_1" xmlns="http://www.w3.org/2000/svg" xmlns:xlink="http://www.w3.org/1999/xlink" x="0px" y="0px"
	 viewBox="0 0 538.6 362.2" style="enable-background:new 0 0 538.6 362.2;" xml:space="preserve">
<style type="text/css">
	.st0{fill-rule:evenodd;clip-rule:evenodd;fill:#FFFFFF;}
	.st1{fill-rule:evenodd;clip-rule:evenodd;fill:#967EA7;}
	.st2{fill:#1E46A0;}
	.st3{fill:#4E4E4D;}
	.st4{fill:#B19AC6;}
</style>
<g id="Layer_1">
	<path class="st0" d="M525.2,99.9c-19.9,34.7-35.2,69-49,101.9c-7.7,18.5-14.9,36.8-21.9,54.9c-7.1,18.1-13.4,36-21.8,55.2
		c-5,11.7-10.7,23.7-16.9,36h-3.6c5.8-11.4,11.1-22.7,16-33.8c8.2-18.6,14.6-36.4,21.9-54.8c7.2-18.3,14.5-36.7,22.4-55.5
		c14.6-34.6,31-70.8,52.8-107.9V99.9L525.2,99.9z M18.5,15.1h2c6,21.7,14.8,44.9,26.2,67.8c19.8,40.1,43.7,76.7,67.4,111
		c11.9,17.2,23.9,34,36,50.6c12,16.6,24.3,32.7,36.4,50.8c11.1,16.4,21.9,34.1,32.1,52.4H215c-9.4-16.9-19.4-33.2-29.6-48.6
		c-11.6-17.6-23.8-33.6-35.9-50.6c-12.1-16.8-24.2-33.8-36.2-51.3c-23.8-34.9-48.1-72.2-68.3-113.7c-10-20.6-18.6-41.9-24.5-61.9
		C19.8,19.6,19.2,17.3,18.5,15.1L18.5,15.1z M34,15.1c0.2,0.9,0.5,1.8,0.7,2.8c5.3,20,13.3,41.5,22.7,62.2
		c19.1,41.8,42.3,79.5,65.1,114.7c11.5,17.7,23.1,34.9,34.7,51.9c11.6,17.1,23.3,33.3,34.5,51.1c10,15.8,19.7,32.6,28.8,50h3.6
		c-9.8-18.9-20.4-37-31.1-53.9c-11.6-18.3-23.4-34.5-34.9-51.4c-11.6-16.8-23.2-33.8-34.6-51.2c-22.7-34.7-45.6-71.7-64.2-112
		C49.2,57.7,41.4,35.8,36.1,15.1H34L34,15.1z M49.4,15.1c4.8,19.8,12,41,20.7,61.6c17.9,42.1,40,80.1,61.9,115.7
		c11,17.9,22.1,35.2,33.2,52.4c11.2,17.3,22.4,33.7,33,51.6c9.7,16.2,19.1,33.5,27.8,51.4h3.6c-9.4-19.3-19.6-37.9-30-55.2
		c-11-18.5-22.4-34.9-33.5-51.9c-11.1-17-22.2-34.1-33.1-51.7C111.3,154,89.5,116.7,72,76c-9-20.5-15.8-41.3-20.6-60.9H49.4
		L49.4,15.1z M64.7,15.1c4.2,18.9,10.6,39,18.2,58.4c16.7,42.3,37.8,80.7,58.6,116.7c10.5,18,21.1,35.6,31.8,52.9
		c10.7,17.5,21.4,34,31.6,52.1c9.4,16.6,18.4,34.3,26.7,52.6h3.6c-8.9-19.8-18.7-38.8-28.8-56.4c-10.5-18.6-21.4-35.2-32-52.4
		c-10.6-17.1-21.2-34.5-31.7-52.2c-20.7-35.4-41.5-73-57.8-113.9c-7.9-19.4-13.9-39.1-18.1-57.7H64.7L64.7,15.1z M79.8,15.1
		c3.7,18,9.2,37,15.9,55.4c15.5,42.6,35.5,81.3,55.3,117.5c10,18.2,20.1,35.9,30.3,53.4c10.2,17.6,20.5,34.4,30.1,52.6
		c9.1,17,17.7,35.1,25.5,53.8h3.5c-8.5-20.1-17.8-39.5-27.5-57.6c-10-18.8-20.4-35.6-30.5-52.9c-10.2-17.3-20.3-34.8-30.2-52.7
		c-19.7-35.7-39.5-73.6-54.6-114.8c-6.9-18.4-12.2-37-15.8-54.8L79.8,15.1L79.8,15.1z M94.9,15.1c3.2,17.1,8,35.1,13.8,52.6
		c14.3,42.8,33.2,81.8,52,118.4c9.5,18.3,19.1,36.2,28.8,53.8c9.7,17.8,19.5,34.7,28.6,53.1c8.7,17.3,16.9,35.8,24.3,54.8h3.5
		c-7.9-20.5-16.8-40.2-26.1-58.6c-9.5-18.9-19.4-35.9-29-53.3c-9.7-17.5-19.3-35.1-28.7-53.1c-18.7-36-37.4-74.2-51.4-115.6
		c-6-17.5-10.6-35.1-13.7-52L94.9,15.1L94.9,15.1z M109.8,15.1c2.7,16.3,6.8,33.4,11.9,50c13.1,43,30.9,82.3,48.6,119.1
		c8.9,18.5,18.1,36.5,27.2,54.3c9.2,17.9,18.5,35,27.1,53.5c8.3,17.6,16,36.4,22.9,55.8h3.5c-7.4-20.8-15.8-40.8-24.6-59.5
		c-8.9-19.1-18.4-36.2-27.5-53.8c-9.2-17.6-18.3-35.4-27.2-53.6c-17.7-36.3-35.3-74.8-48.1-116.4c-5.2-16.6-9.2-33.4-11.8-49.5
		L109.8,15.1L109.8,15.1z M124.6,15.1c2.3,15.6,5.7,31.8,10.1,47.7c11.9,43.2,28.6,82.8,45.3,119.9c8.4,18.6,17,36.7,25.7,54.7
		c8.7,18.1,17.5,35.2,25.6,53.9c7.8,17.9,15.1,37,21.5,56.6h3.5c-6.9-21-14.7-41.4-23.1-60.3c-8.4-19.2-17.4-36.4-26-54.2
		c-8.7-17.7-17.3-35.7-25.7-54c-16.7-36.5-33.2-75.3-44.8-117.1c-4.5-15.8-7.9-31.7-10.1-47.1L124.6,15.1L124.6,15.1z M139.4,15.1
		c1.9,14.9,4.8,30.3,8.5,45.5c10.7,43.4,26.2,83.2,41.9,120.5c7.9,18.7,16,37,24.2,55.1c8.2,18.2,16.5,35.5,24.1,54.3
		c7.4,18.2,14.2,37.5,20.1,57.3h3.5c-6.3-21.3-13.6-41.9-21.5-61c-7.8-19.3-16.4-36.7-24.5-54.6c-8.2-17.9-16.3-35.9-24.2-54.4
		c-15.6-36.8-31-75.8-41.5-117.8c-3.9-15.1-6.7-30.3-8.5-45L139.4,15.1L139.4,15.1z M154.1,15.1c1.5,14.3,3.8,29,7,43.5
		c9.4,43.5,23.9,83.6,38.5,121.2c7.4,18.9,14.9,37.2,22.6,55.4c7.6,18.3,15.5,35.8,22.5,54.7c6.9,18.4,13.2,37.9,18.5,58h3.5
		c-5.7-21.5-12.5-42.3-19.9-61.6c-7.3-19.5-15.3-36.9-22.9-54.9c-7.7-18-15.3-36.2-22.6-54.7c-14.6-37-28.9-76.3-38.2-118.4
		c-3.3-14.5-5.6-29-7-43L154.1,15.1L154.1,15.1z M168.7,15.1c1.1,13.7,3,27.8,5.6,41.7c8.2,43.7,21.5,83.9,35.1,121.7
		c6.8,19,13.9,37.5,21,55.8c7.1,18.4,14.5,36,21,55c6.4,18.6,12.2,38.3,16.9,58.5h3.4c-5.1-21.6-11.3-42.6-18.2-62.1
		c-6.8-19.6-14.3-37.2-21.4-55.3c-7.2-18.1-14.2-36.4-21.1-55.1c-13.5-37.2-26.7-76.7-34.9-119c-2.8-13.9-4.6-27.8-5.6-41.2
		L168.7,15.1L168.7,15.1z M183.2,15.1c0.7,13.2,2.2,26.8,4.3,40.1c7,43.8,19.2,84.2,31.6,122.2c6.3,19.1,12.8,37.7,19.5,56.1
		c6.6,18.6,13.5,36.2,19.4,55.3c5.9,18.7,11.1,38.6,15.3,58.9h3.4c-4.5-21.8-10.1-42.8-16.4-62.5c-6.2-19.7-13.2-37.4-19.8-55.6
		c-6.6-18.2-13.2-36.6-19.5-55.4c-12.5-37.4-24.6-77.1-31.5-119.5c-2.3-13.4-3.7-26.7-4.4-39.7L183.2,15.1L183.2,15.1z M197.8,15.1
		c0.4,12.8,1.5,25.9,3.2,38.8c5.8,43.9,16.8,84.5,28.2,122.7c5.8,19.1,11.8,37.9,17.9,56.4c6.1,18.6,12.5,36.4,17.8,55.6
		c5.4,18.8,10,38.8,13.7,59.2h3.4c-3.9-21.8-8.9-43-14.7-62.8c-5.6-19.8-12.2-37.6-18.2-55.9c-6.1-18.3-12.2-36.8-17.9-55.7
		c-11.4-37.6-22.4-77.5-28.1-119.9c-1.8-12.9-2.9-25.8-3.2-38.4L197.8,15.1L197.8,15.1z M212.2,15.1c0.1,12.4,0.8,25.1,2.1,37.6
		c4.5,44,14.4,84.8,24.7,123.1c5.2,19.2,10.7,38,16.3,56.6c5.5,18.7,11.5,36.6,16.3,55.9c4.9,18.9,9,39,12,59.5h3.4
		c-3.3-21.9-7.7-43.1-12.9-63c-5.1-19.8-11.1-37.8-16.7-56.2c-5.6-18.4-11.1-37-16.4-55.9c-10.4-37.8-20.2-77.8-24.7-120.3
		c-1.4-12.5-2.1-25.1-2.2-37.3L212.2,15.1L212.2,15.1z M226.7,15.1h1.9c-0.2,11.9,0.1,24.1,1.1,36.3c3.3,42.6,12,82.8,21.3,120.7
		c4.7,19.1,9.7,37.7,14.8,56.2c5,18.5,10.6,36.5,15.1,56.4c4.6,19.9,8.4,41.2,11.1,63h-3.4c-2.5-20.5-6-40.6-10.3-59.6
		c-4.3-19.3-9.7-37.3-14.7-56.1c-5-18.7-10-37.6-14.7-56.9c-9.2-38.5-18-79.4-21.2-123.5C226.8,39.6,226.4,27.2,226.7,15.1
		L226.7,15.1z M241.1,15.1h1.9c-0.6,11.7-0.5,23.6,0.1,35.6c2.1,42.7,9.7,82.9,17.9,121c4.2,19.1,8.6,37.8,13.2,56.4
		c4.5,18.6,9.5,36.7,13.5,56.6c4,19.9,7.3,41.2,9.3,63h-3.4c-1.9-20.5-4.9-40.6-8.6-59.6c-3.7-19.4-8.6-37.4-13.1-56.3
		c-4.5-18.8-9-37.7-13.1-57.1c-8.1-38.7-15.7-79.7-17.8-123.8C240.6,39.1,240.5,27,241.1,15.1L241.1,15.1z M255.5,15.1h1.9
		c-0.9,11.5-1.1,23.3-0.8,35.1c0.9,42.7,7.4,83.1,14.5,121.3c3.6,19.2,7.6,38,11.6,56.6c4,18.6,8.5,36.8,11.9,56.8
		c3.5,19.9,6.1,41.1,7.5,62.9h-3.4c-1.3-20.5-3.7-40.5-6.9-59.5c-3.2-19.5-7.6-37.6-11.5-56.5c-4-18.8-7.9-37.8-11.5-57.3
		c-7.1-38.8-13.5-79.9-14.3-124C254.3,38.7,254.6,26.8,255.5,15.1L255.5,15.1z M269.9,15.1h1.9C270.7,26.5,270,38.2,270,50
		c-0.3,42.7,5,83.2,11.1,121.5c3.1,19.2,6.5,38.1,10,56.8c3.5,18.7,7.5,36.9,10.3,57c2.9,19.8,4.9,41,5.7,62.6h-3.4
		c-0.8-20.4-2.6-40.4-5.2-59.3c-2.6-19.5-6.5-37.7-9.9-56.7c-3.5-18.9-6.8-37.9-9.9-57.4c-6-38.9-11.2-80.1-10.8-124.2
		C268.1,38.5,268.8,26.7,269.9,15.1L269.9,15.1z M284.3,15.1h1.9c-1.5,11.4-2.4,23-2.8,34.8c-1.5,42.7,2.7,83.2,7.7,121.6
		c2.5,19.3,5.4,38.2,8.4,56.9c2.9,18.7,6.4,37,8.7,57.2c2.3,19.7,3.7,40.7,4,62.3h-3.4c-0.2-20.2-1.5-40.1-3.6-59
		c-2.1-19.5-5.5-37.8-8.3-56.8c-2.9-18.9-5.8-38-8.2-57.6c-4.9-38.9-9-80.3-7.3-124.4C281.9,38.4,282.9,26.6,284.3,15.1L284.3,15.1z
		 M298.8,15.1c-1.8,11.5-3.1,23.3-3.9,35.1c-2.9,44,0,85.4,3.8,124.4c1.9,19.6,4.2,38.7,6.6,57.7c2.4,19.1,5.2,37.4,6.7,56.9
		c1.6,18.7,2.3,38.5,1.9,58.6h3.4c0.4-21.4-0.5-42.2-2.2-61.8c-1.7-20.1-4.7-38.5-7.1-57.3c-2.5-18.8-4.8-37.7-6.8-57
		c-3.9-38.5-6.9-79.1-4.3-121.7c0.7-11.8,2-23.5,3.8-34.9L298.8,15.1L298.8,15.1z M313.3,15.1c-2.2,11.6-3.8,23.5-5,35.4
		c-4.2,44-2.4,85.4,0.3,124.5c1.4,19.6,3.1,38.8,5,57.8c1.8,19.1,4.1,37.4,5.1,57c1,18.6,1.2,38.2,0.3,58h3.4
		c0.9-21.1,0.7-41.8-0.5-61.2c-1.1-20.2-3.6-38.6-5.5-57.4c-1.9-18.8-3.8-37.8-5.2-57.1c-2.8-38.5-4.7-79.2-0.8-121.7
		c1-11.9,2.7-23.7,4.8-35.2L313.3,15.1L313.3,15.1z M327.9,15.1h2c-2.5,11.6-4.6,23.6-6,35.8c-5.1,42.5-4.4,83.2-2.6,121.7
		c0.9,19.4,2.2,38.3,3.6,57.2c1.3,18.8,3.3,37.3,3.8,57.4c0.6,19.2,0.3,39.7-1.2,60.6h-3.4c1.4-19.7,1.8-39,1.3-57.4
		c-0.5-19.6-2.3-37.9-3.5-57.1c-1.3-19-2.5-38.2-3.4-57.9c-1.6-39.1-2.2-80.6,3.2-124.5C323.3,39,325.3,26.9,327.9,15.1L327.9,15.1z
		 M342.5,15.1c-3,12-5.4,24.3-7.3,36.6c-6.6,43.8-7.2,85.3-6.7,124.4c0.3,19.6,0.9,38.9,1.7,57.9c0.7,19.2,2,37.5,1.9,57.1
		c0,18.2-0.9,37.3-2.8,56.7h3.4c2-20.6,2.9-40.8,2.8-59.8c0-20.2-1.4-38.6-2.2-57.5c-0.9-18.9-1.6-37.9-2-57.2
		c-0.7-38.6-0.2-79.2,6-121.7c1.8-12.4,4.2-24.6,7.2-36.5L342.5,15.1L342.5,15.1z M357.2,15.1h2c-3.4,12.1-6.3,24.7-8.5,37.5
		c-7.5,42.3-9,83-9.5,121.5c-0.2,19.4,0,38.4,0.4,57.2c0.3,18.9,1.2,37.3,0.6,57.5c-0.4,18.8-1.9,38.6-4.4,58.9h-3.4
		c2.4-19.1,3.8-37.9,4.3-55.9c0.7-19.6-0.1-38-0.3-57.1c-0.3-19.1-0.4-38.3-0.1-57.9c0.6-39.1,2.4-80.5,10.2-124.2
		C350.9,40,353.8,27.4,357.2,15.1L357.2,15.1z M372,15.1h2c-4,12.5-7.3,25.5-10,38.6c-8.7,42.2-11.4,82.8-12.9,121.4
		c-0.7,19.4-1,38.4-1.2,57.2c-0.2,18.9,0.1,37.3-1,57.5c-1,18.5-2.9,38-5.9,58h-3.4c2.9-18.8,4.8-37.3,5.8-55
		c1.2-19.6,1-38,1.3-57.1c0.3-19.1,0.7-38.3,1.5-57.9c1.7-39.1,4.6-80.5,13.7-124.1C364.7,40.8,368.1,27.7,372,15.1L372,15.1z
		 M387,15.1c-4.5,13-8.5,26.5-11.7,40c-10.3,43.4-14.4,84.8-17.2,123.8c-1.4,19.6-2.3,38.8-3.2,57.9c-0.9,19.2-1.1,37.6-2.9,57.1
		c-1.5,17.4-3.8,35.5-7.2,53.9h3.4c3.5-19.5,5.9-38.7,7.4-56.9c1.7-20.1,1.9-38.6,2.6-57.5c0.7-18.9,1.6-37.9,2.8-57.2
		c2.6-38.5,6.5-79.1,16.3-121.1c3.1-13.7,7-27.1,11.6-40L387,15.1L387,15.1z M402.1,15.1c-5.2,13.4-9.7,27.5-13.5,41.5
		c-11.5,43.3-16.8,84.5-20.7,123.5c-1.9,19.6-3.4,38.8-4.8,57.8c-1.4,19.2-2.2,37.5-4.5,57c-1.9,17-4.7,34.8-8.5,52.8h3.4
		c3.9-19.1,6.8-37.9,8.7-55.7c2.3-20.1,2.9-38.6,4.3-57.4c1.2-18.9,2.6-37.8,4.5-57.2c3.7-38.5,8.7-79,19.7-120.9
		c3.6-14.2,8.2-28.2,13.4-41.6L402.1,15.1L402.1,15.1z M417.3,15.1c-5.9,13.9-11.1,28.6-15.4,43.3c-12.8,43.1-19.2,84.2-24.2,123.2
		c-2.5,19.5-4.5,38.7-6.4,57.7c-2,19.1-3.3,37.5-6.1,57c-2.4,16.6-5.6,34-9.7,51.6h3.4c4.3-18.7,7.7-37,10-54.4
		c2.9-20.1,4-38.6,5.9-57.4c1.8-18.8,3.7-37.8,6.1-57.1c4.8-38.4,10.9-78.8,23.1-120.5c4.2-14.9,9.5-29.5,15.4-43.3L417.3,15.1
		L417.3,15.1z M432.7,15.1c-6.7,14.5-12.6,29.9-17.6,45.2c-14,42.9-21.5,83.9-27.6,122.8c-3,19.5-5.6,38.6-8,57.6
		c-2.5,19.1-4.3,37.4-7.7,56.9c-2.8,16.2-6.4,33.1-10.8,50.2h3.4c4.7-18.2,8.5-36,11.2-53c3.4-20,5.1-38.5,7.5-57.2
		c2.3-18.8,4.8-37.7,7.7-57c5.8-38.3,13.1-78.6,26.5-120.2c4.9-15.6,10.9-30.9,17.6-45.3L432.7,15.1L432.7,15.1z M448.3,15.1
		c-7.5,15.1-14.4,31.3-20.1,47.4c-15.2,42.6-23.9,83.6-31.1,122.3c-3.6,19.4-6.7,38.5-9.7,57.5c-3,19-5.4,37.4-9.3,56.7
		c-3.1,15.8-7.1,32.2-11.9,48.8h3.5c5-17.6,9.2-35,12.4-51.5c4-20,6.2-38.4,9.1-57.1c2.8-18.8,5.8-37.6,9.3-56.8
		c6.9-38.2,15.3-78.4,29.9-119.7c5.7-16.4,12.5-32.5,20.1-47.5L448.3,15.1L448.3,15.1z M464.2,15.1c-8.5,15.8-16.3,32.8-22.9,49.7
		c-16.4,42.4-26.2,83.2-34.5,121.8c-4.1,19.4-7.8,38.4-11.3,57.3c-3.6,19-6.4,37.3-10.9,56.6c-3.5,15.3-7.8,31.2-12.8,47.3h3.5
		c5.3-17.1,9.8-33.9,13.4-49.9c4.5-19.9,7.3-38.3,10.7-57c3.4-18.7,6.9-37.5,10.9-56.7c8-38.1,17.5-78.2,33.2-119.2
		c6.5-17.3,14.4-34.2,23-49.9L464.2,15.1L464.2,15.1z M480.3,15.1c-9.6,16.4-18.5,34.4-26,52.3c-17.6,42.1-28.6,82.8-38,121.3
		c-4.7,19.3-8.9,38.3-12.9,57.1c-4.1,18.9-7.5,37.2-12.5,56.4c-3.8,14.8-8.4,30.1-13.7,45.6h3.5c5.6-16.5,10.4-32.7,14.3-48.2
		c5.1-19.8,8.4-38.2,12.3-56.8c3.9-18.6,8-37.4,12.5-56.5c9.1-38,19.7-77.9,36.6-118.7c7.4-18.3,16.4-36.1,26.1-52.5L480.3,15.1
		L480.3,15.1z M496.7,15.1c-10.9,17.1-20.9,36.1-29.5,55.1c-18.8,41.8-30.9,82.3-41.4,120.6c-5.2,19.2-10,38.1-14.5,56.9
		c-4.6,18.9-8.5,37-14.1,56.2c-4.1,14.3-8.9,29-14.4,43.9h3.5c5.8-15.9,10.9-31.4,15-46.4c5.6-19.8,9.4-38,13.9-56.6
		c4.4-18.6,9-37.3,14-56.3c10.1-37.8,21.9-77.6,39.9-118.1c8.5-19.4,18.6-38.2,29.6-55.3L496.7,15.1L496.7,15.1z M513.4,15.1
		c-12.2,17.8-23.6,37.9-33.3,58c-19.9,41.5-33.2,81.8-44.8,120c-5.8,19.1-11,38-16.1,56.7c-5.2,18.8-9.6,36.9-15.7,56
		c-4.3,13.7-9.3,27.8-15,42.1h3.5c6-15.2,11.2-30.1,15.7-44.5c6.2-19.7,10.5-37.9,15.5-56.4c4.9-18.5,10-37.2,15.6-56.1
		c11.2-37.7,24.1-77.2,43.2-117.4c9.6-20.6,21.2-40.4,33.5-58.3L513.4,15.1L513.4,15.1z M525.2,22.4c-11.8,16.7-22.8,35.3-32.4,53.9
		c-21.1,41.2-35.5,81.3-48.1,119.3c-6.3,19.1-12.1,37.8-17.7,56.4c-5.7,18.7-10.6,36.7-17.2,55.7c-4.5,13.1-9.7,26.5-15.5,40.1h3.5
		c6.1-14.5,11.5-28.8,16.2-42.5c6.8-19.6,11.6-37.7,17.1-56.1c5.5-18.4,11.1-37,17.2-55.8c12.3-37.5,26.3-76.8,46.5-116.8
		c8.9-17.9,19.3-35.1,30.3-51L525.2,22.4L525.2,22.4z M525.2,46.7c-7,10.7-13.6,21.8-19.7,33c-22.2,40.9-37.8,80.7-51.5,118.5
		c-6.8,19-13.1,37.6-19.3,56.1c-6.2,18.6-11.6,36.6-18.8,55.4c-4.7,12.4-9.9,25.2-15.8,38.1h3.5c6.2-13.8,11.7-27.3,16.6-40.4
		c7.3-19.5,12.6-37.5,18.7-55.8c6-18.4,12.1-36.8,18.8-55.5c13.3-37.3,28.4-76.4,49.8-116c5.5-10.3,11.4-20.3,17.7-30L525.2,46.7
		L525.2,46.7z M525.2,71.3c-2.5,4-4.8,8-7.1,12c-23.4,40.5-40,80.1-54.8,117.7c-7.4,18.9-14.2,37.4-20.8,55.8
		c-6.8,18.5-12.6,36.4-20.4,55.1c-4.8,11.8-10.1,23.8-15.9,36h3.6c6.2-13,11.8-25.8,16.8-38.2c7.9-19.3,13.7-37.3,20.2-55.5
		c6.5-18.2,13.2-36.6,20.3-55.2c14.4-37.1,30.6-75.9,53.1-115.2c1.7-2.9,3.4-5.9,5.1-8.8V71.3L525.2,71.3z M525.2,120
		c-17.1,29.7-31,58.8-43.7,86.8c-8.4,18.6-16.3,36.9-24,55.1c-7.8,18.3-14.7,36-23.5,54.4c-4.8,10.3-10.1,20.8-15.8,31.5h3.6
		c6.1-11.4,11.7-22.6,16.7-33.6c8.9-19.1,15.8-36.9,23.3-54.9c7.5-18,15.2-36.2,23.4-54.6c11.7-26.1,24.5-53.2,39.8-80.6V120
		L525.2,120z M525.2,143.3c-12.9,22.7-24.2,45-34.7,66.7c-8.9,18.5-17.3,36.7-25.5,54.7c-8.3,18.2-15.7,35.7-25,54.1
		c-4.8,9.5-9.9,19.3-15.5,29.1h3.6c5.9-10.5,11.4-21,16.4-31.1c9.5-18.9,16.8-36.6,24.9-54.5c8-17.9,16.2-35.9,25-54.2
		c9.4-19.6,19.5-39.8,30.8-60.2V143.3L525.2,143.3z M525.2,165.6c-9.2,16.2-17.7,32.1-25.8,47.7c-9.5,18.3-18.4,36.4-27,54.3
		c-8.8,18-16.7,35.5-26.5,53.7c-4.6,8.7-9.6,17.6-15,26.6h3.7c5.7-9.7,11-19.2,15.9-28.5c10-18.8,17.8-36.3,26.4-54.1
		c8.5-17.8,17.2-35.7,26.5-53.8c6.9-13.5,14.1-27.2,21.8-41V165.6L525.2,165.6z M525.2,186.6c-5.9,10.2-11.5,20.2-17,30.1
		c-10,18.2-19.4,36.1-28.6,53.9c-9.3,17.9-17.7,35.2-28,53.2c-4.5,7.9-9.2,15.9-14.2,24h3.7c5.4-8.8,10.5-17.4,15.2-25.9
		c10.5-18.6,18.8-36,27.9-53.7c9-17.6,18.2-35.4,28-53.4c4.2-7.7,8.5-15.5,12.9-23.3L525.2,186.6L525.2,186.6z M525.2,206.3
		c-2.8,4.7-5.5,9.4-8.2,14c-10.5,18-20.4,35.8-30.1,53.4c-9.8,17.8-18.7,34.9-29.5,52.8c-4.2,7-8.6,14.2-13.3,21.3h3.7
		c5.1-7.8,9.9-15.6,14.4-23.2c11-18.5,19.9-35.8,29.4-53.2c9.5-17.5,19.2-35.1,29.5-52.9c1.4-2.4,2.8-4.8,4.2-7.2L525.2,206.3
		L525.2,206.3z M525.2,224.6c-10.8,17.6-21.1,35.1-31.2,52.4c-10.3,17.6-19.7,34.6-31,52.3c-3.9,6.1-7.9,12.3-12.2,18.6h3.8
		c4.6-6.9,9-13.6,13.2-20.3c11.6-18.3,20.9-35.4,30.9-52.8c8.6-14.9,17.3-29.9,26.5-45L525.2,224.6L525.2,224.6z M525.2,241.6
		c-8.3,13-16.3,25.9-24.2,38.7c-10.8,17.4-20.6,34.3-32.5,51.8c-3.5,5.2-7.1,10.5-10.8,15.7h3.8c4.1-5.9,8.1-11.7,11.9-17.4
		c12.1-18.1,21.9-35.1,32.4-52.3c6.4-10.4,12.8-20.9,19.4-31.4V241.6L525.2,241.6z M525.2,257.4c-5.8,8.8-11.6,17.6-17.3,26.3
		c-11.3,17.3-21.6,34-33.9,51.3c-3,4.2-6,8.5-9.2,12.8h3.8c3.5-4.8,7-9.6,10.3-14.4c12.6-17.9,22.8-34.8,33.9-51.8
		c4.1-6.4,8.2-12.7,12.4-19.1L525.2,257.4L525.2,257.4z M525.2,272.1c-3.5,5.1-7,10.1-10.4,15.1c-11.8,17.1-22.5,33.6-35.3,50.8
		c-2.4,3.2-4.9,6.5-7.4,9.8h3.9c2.9-3.8,5.7-7.6,8.5-11.3c13.1-17.7,23.8-34.4,35.3-51.2c1.8-2.7,3.7-5.4,5.5-8.1V272.1L525.2,272.1
		z M525.2,285.8c-1.2,1.7-2.5,3.4-3.7,5.1c-12.3,16.9-23.5,33.3-36.8,50.2c-1.7,2.2-3.5,4.5-5.3,6.7h3.9c2.2-2.7,4.3-5.4,6.4-8.1
		c13.1-16.9,24-32.9,35.5-48.9L525.2,285.8L525.2,285.8z M525.2,298.5c-11.6,15.4-22.6,30.4-35.2,45.8c-1,1.2-1.9,2.3-2.9,3.5h3.9
		c1.3-1.6,2.7-3.3,4-4.9c11-13.6,20.6-26.6,30.2-39.5L525.2,298.5L525.2,298.5z M525.2,310.4c-9.8,12.4-19.4,24.6-30.1,37.2
		l-0.2,0.3h4c0.4-0.5,0.9-1,1.3-1.5c9-10.6,17.1-20.8,25.1-31V310.4L525.2,310.4z M525.2,321.6c-7.2,8.7-14.5,17.4-22.4,26.3h4
		c6.5-7.3,12.5-14.4,18.3-21.5V321.6L525.2,321.6z M525.2,332c-4.6,5.3-9.3,10.5-14.1,15.8h4.1c3.5-3.8,6.8-7.5,10.1-11.2V332
		L525.2,332z M525.2,341.7c-1.9,2-3.8,4.1-5.7,6.1h4.1c0.5-0.6,1.1-1.1,1.6-1.7V341.7L525.2,341.7z M212.9,347.8
		c-10.5-17.9-21.7-35-33-50.9c-12.6-17.9-25.3-33.8-37.8-50.2c-12.5-16.4-25-33-37.4-50.1c-24.6-34-49.6-70.2-70.5-110
		C25.9,71,18.9,55.1,13.1,39.7v5.3c5.5,14,12.1,28.4,19.3,42.4c21.4,41.1,46.7,78.1,71.5,112.6c12.5,17.3,25,34.1,37.6,50.7
		c12.6,16.8,25.2,32.6,37.3,50c10.4,14.9,20.7,30.7,30.3,47L212.9,347.8L212.9,347.8z M207.2,347.8c-10.8-17.3-22.2-33.9-33.7-49.3
		c-13.1-17.7-26.3-33.4-39.2-49.6c-13-16.2-26-32.6-38.8-49.5C69.9,165.8,43.9,130,21.9,90.6c-3.1-5.4-6-10.9-8.8-16.4v4.1
		c2.2,4.4,4.6,8.8,7,13.1c22.6,40.8,48.9,77.3,74.7,111.5c13,17.1,26,33.7,39,50.1c13.1,16.6,26.1,32.2,38.7,49.4
		c10.6,14.3,21,29.6,30.9,45.4L207.2,347.8L207.2,347.8z M201.3,347.8c-11.1-16.7-22.6-32.7-34.3-47.5c-13.6-17.5-27.2-33-40.6-49
		c-13.4-16-26.9-32.2-40.2-48.9c-25.2-31.5-50.8-65.1-73.1-101.8v3.8c22.5,36.9,47.8,70.2,72.6,101.5c13.4,16.9,26.9,33.3,40.4,49.5
		c13.5,16.4,27,31.8,40.1,48.8c10.7,13.8,21.3,28.4,31.4,43.6H201.3L201.3,347.8z M195.4,347.8c-11.3-16-23-31.4-34.7-45.7
		c-14.1-17.3-28.1-32.5-42-48.4c-13.9-15.8-27.8-31.8-41.6-48.2c-21.7-25.9-43.7-53.2-64-82.7v3.6C33.4,156,55.3,183.2,76.7,209
		c13.9,16.7,27.9,32.9,41.8,48.9c14,16.1,27.9,31.4,41.5,48.2c10.8,13.2,21.4,27.2,31.6,41.8L195.4,347.8L195.4,347.8z M189.3,347.8
		c-11.4-15.4-23.2-30.1-35-43.8c-14.6-17.1-29.1-32.1-43.3-47.7c-14.3-15.6-28.7-31.4-42.9-47.6c-18.5-21-37.2-43-54.9-66.4v3.5
		c17.8,23.4,36.4,45.4,54.6,66.3c14.4,16.5,28.8,32.5,43.2,48.2c14.4,15.9,28.8,30.9,42.8,47.5c10.8,12.6,21.4,26,31.7,39.8
		L189.3,347.8L189.3,347.8z M183.1,347.8c-11.5-14.6-23.3-28.6-35-41.7c-15-16.8-29.9-31.6-44.7-47c-14.8-15.4-29.5-30.9-44.3-46.9
		c-15.4-16.7-30.9-34.1-46-52.3v3.4c15.1,18.3,30.5,35.6,45.8,52.3c14.8,16.2,29.7,32,44.5,47.6c14.9,15.7,29.6,30.5,44.1,46.9
		c10.7,12,21.3,24.6,31.6,37.8L183.1,347.8L183.1,347.8z M176.7,347.8c-11.5-13.9-23.2-27.2-34.9-39.6c-15.5-16.6-30.8-31.2-46-46.3
		c-15.2-15.1-30.4-30.4-45.6-46.2c-12.4-12.9-24.8-26.1-37.2-39.9v3.4c12.3,13.8,24.7,27.1,37,40c15.3,16,30.6,31.5,45.9,46.9
		c15.3,15.5,30.5,30,45.4,46.2c10.6,11.3,21.1,23.3,31.3,35.7L176.7,347.8L176.7,347.8z M170.2,347.8c-11.4-13.1-23-25.6-34.6-37.4
		c-16-16.4-31.7-30.7-47.3-45.6c-15.6-14.9-31.3-30-46.9-45.5c-9.4-9.4-19-19-28.4-28.9v3.3c9.5,9.9,19,19.6,28.4,29.1
		C57.2,238.6,73,253.9,88.7,269c15.8,15.2,31.3,29.5,46.7,45.4c10.4,10.6,20.7,21.8,30.8,33.4L170.2,347.8L170.2,347.8z
		 M163.6,347.8c-11.2-12.3-22.6-24-34-35.1c-16.4-16.1-32.6-30.2-48.5-44.9C65,253.2,49,238.4,32.9,223.1
		c-6.6-6.3-13.2-12.6-19.8-19.1v3.3c6.6,6.5,13.2,13,19.8,19.3c16.2,15.5,32.3,30.6,48.5,45.4c16.2,15,32.2,29,48,44.7
		c10.1,9.9,20.2,20.3,30.1,31.1L163.6,347.8L163.6,347.8z M156.7,347.8c-11-11.4-22.1-22.4-33.2-32.7
		c-16.9-15.9-33.4-29.7-49.8-44.1c-16.5-14.4-32.9-29-49.4-44c-3.7-3.4-7.5-6.9-11.2-10.4v3.3c3.8,3.6,7.6,7.1,11.4,10.6
		c16.6,15.3,33.2,30.1,49.7,44.6c16.6,14.7,33,28.5,49.2,44c9.7,9.1,19.5,18.7,29.1,28.7L156.7,347.8L156.7,347.8z M149.7,347.8
		c-10.7-10.5-21.4-20.6-32.1-30.2c-17.3-15.6-34.2-29.2-51-43.3c-16.9-14.1-33.7-28.5-50.6-43.2l-2.8-2.5v3.2c1,0.9,2.1,1.8,3.1,2.7
		c17,15,34,29.5,51,43.9c17,14.5,33.8,28,50.5,43.2c9.3,8.4,18.6,17.1,27.8,26.2L149.7,347.8L149.7,347.8z M142.4,347.8
		c-10.2-9.6-20.5-18.8-30.7-27.6c-17.7-15.3-35-28.6-52.2-42.5c-15.4-12.4-30.9-25-46.4-37.9v3.2c15.7,13.2,31.4,26.1,47.1,38.7
		c17.4,14.2,34.5,27.5,51.7,42.4c8.8,7.5,17.5,15.4,26.2,23.6H142.4L142.4,347.8z M134.9,347.8c-9.7-8.7-19.4-17-29-24.9
		c-18.2-15-35.8-28.1-53.4-41.7c-13.1-10.1-26.2-20.3-39.4-30.7v3.2c13.4,10.7,26.8,21.2,40.2,31.6c17.8,13.9,35.3,27,52.9,41.6
		c8.1,6.7,16.3,13.7,24.4,20.9L134.9,347.8L134.9,347.8z M127.2,347.8c-9-7.7-18.1-15.1-27-22.1c-18.6-14.8-36.6-27.5-54.6-40.9
		c-10.8-8-21.6-16.1-32.5-24.2v3.2c11.2,8.5,22.3,16.9,33.4,25.1c18.2,13.6,36.1,26.4,54,40.8c7.4,5.8,14.8,11.9,22.1,18.1
		L127.2,347.8L127.2,347.8z M119.1,347.8c-8.2-6.7-16.5-13.1-24.6-19.2c-19-14.5-37.4-26.9-55.7-40c-8.5-6.1-17.1-12.2-25.7-18.3
		v3.1c8.9,6.5,17.8,12.9,26.7,19.2C58.4,306,76.7,318.5,95,332.5c6.5,4.9,13,10,19.5,15.3H119.1L119.1,347.8z M110.8,347.8
		c-7.3-5.6-14.6-11-21.8-16.3c-19.4-14.2-38.2-26.4-56.8-39.1c-6.3-4.3-12.6-8.6-19-13v3.1c6.7,4.7,13.5,9.3,20.2,13.9
		c19,13.1,37.5,25.2,56.3,39c5.5,4,11,8.1,16.5,12.3L110.8,347.8L110.8,347.8z M102.1,347.8c-6.2-4.5-12.4-9-18.6-13.2
		c-19.8-13.9-38.9-25.8-57.9-38.2c-4.1-2.7-8.3-5.4-12.4-8.1v3.1c4.6,3,9.1,6,13.7,9C46.1,313.1,65,325,84.2,338.5
		c4.3,3,8.7,6.1,13.1,9.3L102.1,347.8L102.1,347.8z M93,347.8c-5-3.5-10-6.8-14.9-10.1c-20.2-13.5-39.6-25.1-59-37.4
		c-2-1.2-4-2.5-5.9-3.7v3.1c2.4,1.5,4.9,3.1,7.3,4.6c19.7,12.5,38.9,24.1,58.4,37.3c3,2,6.1,4.1,9.1,6.2L93,347.8L93,347.8z
		 M83.4,347.8c-3.6-2.4-7.2-4.7-10.7-6.9c-20.4-13.1-40-24.4-59.6-36.2v3.1l1.1,0.7c20,12.2,39.6,23.5,59.5,36.4c1.6,1,3.1,2,4.7,3
		H83.4L83.4,347.8z M73.4,347.8c-2-1.2-3.9-2.4-5.9-3.6c-18.6-11.5-36.5-21.5-54.4-31.7v3c18.5,10.7,36.6,20.8,55,32.3L73.4,347.8
		L73.4,347.8z M62.9,347.8l-0.5-0.3c-16.8-10-33.1-18.7-49.3-27.5v3c14.8,8.2,29.5,16.1,44.3,24.8H62.9L62.9,347.8z M51.7,347.8
		c-13.1-7.3-25.9-14-38.6-20.6v3c11,5.8,21.9,11.5,33,17.6H51.7L51.7,347.8z M39.8,347.8c-9-4.7-17.9-9.2-26.7-13.6v3
		c7,3.5,13.9,7,20.8,10.6L39.8,347.8L39.8,347.8z M27.1,347.8c-4.7-2.3-9.4-4.6-14-6.8v3c2.6,1.3,5.2,2.5,7.9,3.8H27.1L27.1,347.8z
		 M13.5,347.8h-0.4v-0.2L13.5,347.8z"/>
	<path class="st1" d="M2.8,0h533h2.8v2.8v356.5v2.8h-2.8H2.8H0v-2.8V2.8V0H2.8L2.8,0z M533,5.6H5.6v350.9H533L533,5.6L533,5.6z"/>
</g>
<g id="_x33_21353356351_1">
	<path class="st1" d="M14.6,12.5H524h2.8v2.8v331.5v2.8H524H14.6h-2.8v-2.8V15.3v-2.8L14.6,12.5L14.6,12.5z M521.2,18.1H17.4V344
		h503.8L521.2,18.1L521.2,18.1z"/>
</g>
<g>
	<path class="st2" d="M304.9,289.7l-2.7,13.2h-7.8l11.3-50.6h9.4l10.4,50.6h-7.8l-2.7-13.2H304.9 M314.1,283.5l-2.1-11.6
		c-0.6-3.3-1.3-8-1.9-11.5h-0.2c-0.5,3.5-1.3,8.3-1.9,11.5l-2.2,11.6H314.1z"/>
	<path class="st2" d="M266.8,286.4v-33.3c2.8-0.7,6.3-1,9.7-1c5.2,0,9.5,0.9,12.5,3.7c2.8,2.7,3.8,6.1,3.8,10.3
		c0,5.9-2.9,10.4-8,12.8v0.1c3.5,1.3,5.4,4.7,6.4,10.7c1.1,6.2,2.3,11.6,3.2,13.3h-8.3c-0.7-1.4-1.7-6.4-2.6-12.3
		c-1-6.5-2.9-8.7-6.8-8.7h-1.9v4.7c0,11-3.6,16.3-3.6,16.3h-8.4C262.7,302.9,266.8,297.2,266.8,286.4 M274.7,275.7h2.1
		c4.8,0,7.8-3.8,7.8-8.9c0-5-2-8.3-7.2-8.4c-1,0-2,0.1-2.7,0.3V275.7z"/>
	<path class="st3" d="M262.3,272.1l-1,1.3c0,10.2,0.2,20.2-5.7,29.5h-10.2c-0.2,0.3-0.4,0.6-0.6,0.9h11.5
		C262.6,293.9,262.3,283,262.3,272.1"/>
	<path class="st4" d="M261.3,273.4c0-0.7,0-1.4,0-2.1l-5.8,7.2l-5.8-7.2c0,11.6,1.1,21.8-5.9,31.6h11.7
		C261.5,293.6,261.4,283.6,261.3,273.4"/>
	<path class="st3" d="M258.4,263h0.8c0.1-3.3,0.4-6.9-2.9-10.8h-0.8C258.6,256.3,258.4,259.6,258.4,263"/>
	<polygon class="st3" points="255.5,271.8 255.6,271.8 256.1,272.6 261.9,263.8 260.8,263.8 255.6,271.8 	"/>
	<path class="st2" d="M249.8,263l5.7,8.7l0,0l5.2-7.9l0.5-0.8h-2h-0.8c0-3.4,0.2-6.8-2.9-10.8c-0.1-0.2-0.3-0.3-0.4-0.5h-6.6
		c3.8,4,4.6,7.9,4.6,11.3H249.8"/>
	<path class="st2" d="M245.4,276.9c0,19.1-6.7,26.6-15.6,26.6c-10.1,0-15.1-10.7-15.1-26c0-15.2,5.7-25.8,15.8-25.8
		C241.2,251.7,245.4,263.4,245.4,276.9 M223,277.6c0,11,2.1,18.9,7.2,18.9c5.2,0,6.8-9.1,6.8-19.2c0-9.2-1.5-18.6-6.9-18.6
		C225.1,258.7,223,267,223,277.6"/>
</g>
</svg>
