<?xml version="1.0" encoding="utf-8"?>
<!-- Generator: Adobe Illustrator 24.0.2, SVG Export Plug-In . SVG Version: 6.00 Build 0)  -->
<svg version="1.1" xmlns="http://www.w3.org/2000/svg" xmlns:xlink="http://www.w3.org/1999/xlink" x="0px" y="0px"
	 viewBox="0 0 538.58 362.16" style="enable-background:new 0 0 538.58 362.16;" xml:space="preserve">
<style type="text/css">
	.st0{fill-rule:evenodd;clip-rule:evenodd;fill:url(#SVGID_1_);}
	.st1{fill-rule:evenodd;clip-rule:evenodd;fill:url(#SVGID_2_);}
	.st2{fill-rule:evenodd;clip-rule:evenodd;fill:#A3958A;}
</style>
<g id="Layer_1">
	<linearGradient id="SVGID_1_" gradientUnits="userSpaceOnUse" x1="269.2024" y1="486.457" x2="269.2024" y2="238.8156">
		<stop  offset="0" style="stop-color:#EFEDE8"/>
		<stop  offset="1" style="stop-color:#FFFFFF"/>
	</linearGradient>
	<path class="st0" d="M536.65,218.66v2.57l-2.89-2.57H536.65L536.65,218.66z M536.65,222.93L536.65,222.93l-4.81-4.27h-4.09
		l8.9,7.91V222.93L536.65,222.93z M536.65,228.27L536.65,228.27l-10.82-9.61h-4.09l14.91,13.25V228.27L536.65,228.27z
		 M536.65,233.61L536.65,233.61l-16.83-14.95h-4.09l20.92,18.59V233.61L536.65,233.61z M536.65,238.95L536.65,238.95l-22.84-20.29
		h-4.09l26.93,23.93V238.95L536.65,238.95z M536.65,244.29L536.65,244.29l-28.85-25.63h-4.09l32.94,29.27V244.29L536.65,244.29z
		 M536.65,249.63L536.65,249.63l-34.86-30.97h-4.09l38.95,34.61V249.63L536.65,249.63z M536.65,254.97L536.65,254.97l-40.87-36.31
		h-4.09l44.97,39.94V254.97L536.65,254.97z M536.65,260.31L536.65,260.31l-46.88-41.65h-4.09l50.98,45.28V260.31L536.65,260.31z
		 M536.65,265.65L536.65,265.65l-52.89-46.99h-4.09l56.99,50.62V265.65L536.65,265.65z M536.65,270.98L536.65,270.98l-58.9-52.33
		h-4.09l63,55.96V270.98L536.65,270.98z M536.65,276.32L536.65,276.32l-64.91-57.66h-4.09l69.01,61.3V276.32L536.65,276.32z
		 M536.65,281.66L536.65,281.66l-70.93-63h-4.09l75.02,66.64V281.66L536.65,281.66z M536.65,287L536.65,287l-76.94-68.34h-4.09
		l81.03,71.98V287L536.65,287z M536.65,292.34L536.65,292.34l-82.95-73.68h-4.09l87.04,77.32V292.34L536.65,292.34z M536.65,297.68
		L536.65,297.68l-88.96-79.02h-4.09l93.05,82.66V297.68L536.65,297.68z M536.65,303.02L536.65,303.02l-94.97-84.36h-4.09l99.06,88
		V303.02L536.65,303.02z M536.65,308.36L536.65,308.36l-100.98-89.7h-4.09L536.65,312V308.36L536.65,308.36z M536.65,313.7
		L536.65,313.7l-106.99-95.04h-4.09l111.08,98.68V313.7L536.65,313.7z M536.65,319.04L536.65,319.04l-113-100.38h-4.09
		l117.09,104.02V319.04L536.65,319.04z M536.65,324.38L536.65,324.38L417.63,218.66h-4.09l123.11,109.36V324.38L536.65,324.38z
		 M536.65,329.72L536.65,329.72L411.62,218.66h-4.09l129.12,114.7V329.72L536.65,329.72z M536.65,335.06L536.65,335.06
		l-131.03-116.4h-4.09L536.65,338.7V335.06L536.65,335.06z M536.65,340.4L536.65,340.4L399.6,218.66h-4.09l141.14,125.38V340.4
		L536.65,340.4z M536.65,345.74L536.65,345.74L393.59,218.66h-4.09l147.15,130.72V345.74L536.65,345.74z M536.65,351.08
		L536.65,351.08L387.58,218.66h-4.09l153.16,136.05V351.08L536.65,351.08z M536.65,356.42L536.65,356.42L381.57,218.66h-4.09
		l159.17,141.39V356.42L536.65,356.42z M536.65,361.76L536.65,361.76l-161.09-143.1h-4.09l161.54,143.5h3.64V361.76L536.65,361.76z
		 M531.09,362.16L531.09,362.16H527l-161.54-143.5h4.09L531.09,362.16L531.09,362.16z M525.08,362.16L525.08,362.16h-4.09
		l-161.54-143.5h4.09L525.08,362.16L525.08,362.16z M519.07,362.16L519.07,362.16h-4.09l-161.54-143.5h4.09L519.07,362.16
		L519.07,362.16z M513.06,362.16L513.06,362.16h-4.09l-161.54-143.5h4.09L513.06,362.16L513.06,362.16z M507.05,362.16
		L507.05,362.16h-4.09l-161.54-143.5h4.09L507.05,362.16L507.05,362.16z M501.04,362.16L501.04,362.16h-4.09L335.4,218.66h4.09
		L501.04,362.16L501.04,362.16z M495.03,362.16L495.03,362.16h-4.09l-161.54-143.5h4.09L495.03,362.16L495.03,362.16z
		 M489.02,362.16L489.02,362.16h-4.09l-161.54-143.5h4.09L489.02,362.16L489.02,362.16z M483.01,362.16L483.01,362.16h-4.09
		l-161.54-143.5h4.09L483.01,362.16L483.01,362.16z M476.99,362.16L476.99,362.16h-4.09l-161.54-143.5h4.09L476.99,362.16
		L476.99,362.16z M470.98,362.16L470.98,362.16h-4.09l-161.54-143.5h4.09L470.98,362.16L470.98,362.16z M464.97,362.16
		L464.97,362.16h-4.09l-161.54-143.5h4.09L464.97,362.16L464.97,362.16z M458.96,362.16L458.96,362.16h-4.09l-161.54-143.5h4.09
		L458.96,362.16L458.96,362.16z M452.95,362.16L452.95,362.16h-4.09l-161.54-143.5h4.09L452.95,362.16L452.95,362.16z
		 M446.94,362.16L446.94,362.16h-4.09L281.3,218.66h4.09L446.94,362.16L446.94,362.16z M440.93,362.16L440.93,362.16h-4.09
		L275.3,218.66h4.09L440.93,362.16L440.93,362.16z M434.92,362.16L434.92,362.16h-4.09l-161.54-143.5h4.09L434.92,362.16
		L434.92,362.16z M428.91,362.16L428.91,362.16h-4.09l-161.54-143.5h4.09L428.91,362.16L428.91,362.16z M422.9,362.16L422.9,362.16
		h-4.09l-161.54-143.5h4.09L422.9,362.16L422.9,362.16z M416.89,362.16L416.89,362.16h-4.09l-161.54-143.5h4.09L416.89,362.16
		L416.89,362.16z M410.88,362.16L410.88,362.16h-4.09l-161.54-143.5h4.09L410.88,362.16L410.88,362.16z M404.87,362.16
		L404.87,362.16h-4.09l-161.54-143.5h4.09L404.87,362.16L404.87,362.16z M398.86,362.16L398.86,362.16h-4.09l-161.54-143.5h4.09
		L398.86,362.16L398.86,362.16z M392.85,362.16L392.85,362.16h-4.09l-161.54-143.5h4.09L392.85,362.16L392.85,362.16z
		 M386.83,362.16L386.83,362.16h-4.09L221.2,218.66h4.09L386.83,362.16L386.83,362.16z M380.82,362.16L380.82,362.16h-4.09
		l-161.54-143.5h4.09L380.82,362.16L380.82,362.16z M374.81,362.16L374.81,362.16h-4.09l-161.54-143.5h4.09L374.81,362.16
		L374.81,362.16z M368.8,362.16L368.8,362.16l-161.54-143.5h-4.09l161.54,143.5H368.8L368.8,362.16z M362.79,362.16L362.79,362.16
		l-161.54-143.5h-4.09l161.54,143.5H362.79L362.79,362.16z M356.78,362.16L356.78,362.16l-161.54-143.5h-4.09l161.54,143.5H356.78
		L356.78,362.16z M350.77,362.16L350.77,362.16l-161.54-143.5h-4.09l161.54,143.5H350.77L350.77,362.16z M344.76,362.16
		L344.76,362.16l-161.54-143.5h-4.09l161.54,143.5H344.76L344.76,362.16z M338.75,362.16L338.75,362.16l-161.54-143.5h-4.09
		l161.54,143.5H338.75L338.75,362.16z M332.74,362.16L332.74,362.16L171.2,218.66h-4.09l161.54,143.5H332.74L332.74,362.16z
		 M326.73,362.16L326.73,362.16l-161.54-143.5h-4.09l161.54,143.5H326.73L326.73,362.16z M320.72,362.16L320.72,362.16
		l-161.54-143.5h-4.09l161.54,143.5H320.72L320.72,362.16z M314.71,362.16L314.71,362.16l-161.54-143.5h-4.09l161.54,143.5H314.71
		L314.71,362.16z M308.69,362.16L308.69,362.16l-161.54-143.5h-4.09l161.54,143.5H308.69L308.69,362.16z M302.69,362.16
		L302.69,362.16l-161.54-143.5h-4.09l161.54,143.5H302.69L302.69,362.16z M296.67,362.16L296.67,362.16l-161.54-143.5h-4.09
		l161.54,143.5H296.67L296.67,362.16z M290.66,362.16L290.66,362.16l-161.54-143.5h-4.09l161.54,143.5H290.66L290.66,362.16z
		 M284.65,362.16L284.65,362.16l-161.54-143.5h-4.09l161.54,143.5H284.65L284.65,362.16z M278.64,362.16L278.64,362.16L117.1,218.66
		h-4.09l161.54,143.5H278.64L278.64,362.16z M272.63,362.16L272.63,362.16l-161.54-143.5H107l161.54,143.5H272.63L272.63,362.16z
		 M266.62,362.16L266.62,362.16l-161.54-143.5h-4.09l161.54,143.5H266.62L266.62,362.16z M260.61,362.16L260.61,362.16L99.07,218.66
		h-4.09l161.54,143.5H260.61L260.61,362.16z M254.6,362.16L254.6,362.16L93.06,218.66h-4.09l161.54,143.5H254.6L254.6,362.16z
		 M248.59,362.16L248.59,362.16L87.05,218.66h-4.09l161.54,143.5H248.59L248.59,362.16z M242.58,362.16L242.58,362.16L81.04,218.66
		h-4.09l161.54,143.5H242.58L242.58,362.16z M236.57,362.16L236.57,362.16L75.02,218.66h-4.09l161.54,143.5H236.57L236.57,362.16z
		 M230.56,362.16L230.56,362.16L69.01,218.66h-4.09l161.54,143.5H230.56L230.56,362.16z M224.55,362.16L224.55,362.16L63,218.66
		h-4.09l161.54,143.5H224.55L224.55,362.16z M218.54,362.16L218.54,362.16L56.99,218.66H52.9l161.54,143.5H218.54L218.54,362.16z
		 M212.52,362.16L212.52,362.16L50.98,218.66h-4.09l161.54,143.5H212.52L212.52,362.16z M206.51,362.16L206.51,362.16h-4.09
		L40.88,218.66h4.09L206.51,362.16L206.51,362.16z M200.5,362.16L200.5,362.16h-4.09L34.87,218.66h4.09L200.5,362.16L200.5,362.16z
		 M194.49,362.16L194.49,362.16h-4.09L28.86,218.66h4.09L194.49,362.16L194.49,362.16z M188.48,362.16L188.48,362.16h-4.09
		L22.84,218.66h4.09L188.48,362.16L188.48,362.16z M182.47,362.16L182.47,362.16h-4.09L16.83,218.66h4.09L182.47,362.16
		L182.47,362.16z M176.46,362.16L176.46,362.16h-4.09L10.82,218.66h4.09L176.46,362.16L176.46,362.16z M170.45,362.16L170.45,362.16
		h-4.09L4.81,218.66h4.09L170.45,362.16L170.45,362.16z M164.44,362.16L164.44,362.16h-4.09L1.76,221.29v-2.63H2.9L164.44,362.16
		L164.44,362.16z M158.43,362.16L158.43,362.16h-4.09L1.76,226.62v-3.64L158.43,362.16L158.43,362.16z M152.42,362.16L152.42,362.16
		h-4.09L1.76,231.96v-3.64L152.42,362.16L152.42,362.16z M146.41,362.16L146.41,362.16h-4.09L1.76,237.3v-3.64L146.41,362.16
		L146.41,362.16z M140.4,362.16L140.4,362.16h-4.09L1.76,242.64v-3.64L140.4,362.16L140.4,362.16z M134.39,362.16L134.39,362.16
		h-4.09L1.76,247.98v-3.64L134.39,362.16L134.39,362.16z M128.37,362.16L128.37,362.16h-4.09L1.76,253.32v-3.64L128.37,362.16
		L128.37,362.16z M122.36,362.16L122.36,362.16h-4.09L1.76,258.66v-3.64L122.36,362.16L122.36,362.16z M116.35,362.16L116.35,362.16
		h-4.09L1.76,264v-3.64L116.35,362.16L116.35,362.16z M110.34,362.16L110.34,362.16h-4.09L1.76,269.34v-3.64L110.34,362.16
		L110.34,362.16z M104.33,362.16L104.33,362.16h-4.09L1.76,274.68v-3.64L104.33,362.16L104.33,362.16z M98.32,362.16L98.32,362.16
		h-4.09L1.76,280.02v-3.64L98.32,362.16L98.32,362.16z M92.31,362.16L92.31,362.16h-4.09l-86.46-76.8v-3.64L92.31,362.16
		L92.31,362.16z M86.3,362.16L86.3,362.16h-4.09L1.76,290.7v-3.64L86.3,362.16L86.3,362.16z M80.29,362.16L80.29,362.16h-4.09
		L1.76,296.04v-3.64L80.29,362.16L80.29,362.16z M74.28,362.16L74.28,362.16h-4.09L1.76,301.38v-3.64L74.28,362.16L74.28,362.16z
		 M68.27,362.16L68.27,362.16h-4.09L1.76,306.72v-3.64L68.27,362.16L68.27,362.16z M62.26,362.16L62.26,362.16h-4.09l-56.4-50.1
		v-3.64L62.26,362.16L62.26,362.16z M56.25,362.16L56.25,362.16h-4.09L1.76,317.4v-3.64L56.25,362.16L56.25,362.16z M50.24,362.16
		L50.24,362.16h-4.09L1.76,322.74v-3.64L50.24,362.16L50.24,362.16z M44.22,362.16L44.22,362.16L1.76,324.44v3.64l38.37,34.09H44.22
		L44.22,362.16z M38.21,362.16L38.21,362.16L1.76,329.78v3.64l32.36,28.75H38.21L38.21,362.16z M32.2,362.16L32.2,362.16
		L1.76,335.12v3.64l26.35,23.41H32.2L32.2,362.16z M26.19,362.16L26.19,362.16l-24.43-21.7v3.64l20.34,18.07H26.19L26.19,362.16z
		 M20.18,362.16L20.18,362.16L1.76,345.8v3.64l14.33,12.73H20.18L20.18,362.16z M14.17,362.16L14.17,362.16L1.76,351.14v3.64
		l8.32,7.39H14.17L14.17,362.16z M8.16,362.16L8.16,362.16l-6.4-5.69v3.64l2.31,2.05H8.16L8.16,362.16z M2.15,362.16L2.15,362.16
		l-0.39-0.35v0.35H2.15z"/>
	<linearGradient id="SVGID_2_" gradientUnits="userSpaceOnUse" x1="269.2024" y1="-123.0288" x2="269.2024" y2="124.6126">
		<stop  offset="0" style="stop-color:#EFEDE8"/>
		<stop  offset="1" style="stop-color:#FFFFFF"/>
	</linearGradient>
	<path class="st1" d="M536.65,144.77v-2.57l-2.89,2.57H536.65L536.65,144.77z M536.65,140.5L536.65,140.5l-4.81,4.27h-4.1l8.9-7.91
		V140.5L536.65,140.5z M536.65,135.16L536.65,135.16l-10.82,9.61h-4.09l14.91-13.25V135.16L536.65,135.16z M536.65,129.82
		L536.65,129.82l-16.83,14.95h-4.09l20.92-18.59V129.82L536.65,129.82z M536.65,124.48L536.65,124.48l-22.84,20.29h-4.09
		l26.93-23.93V124.48L536.65,124.48z M536.65,119.14L536.65,119.14l-28.85,25.63h-4.09l32.94-29.27V119.14L536.65,119.14z
		 M536.65,113.8L536.65,113.8l-34.86,30.97h-4.09l38.95-34.6V113.8L536.65,113.8z M536.65,108.46L536.65,108.46l-40.87,36.31h-4.09
		l44.97-39.94V108.46L536.65,108.46z M536.65,103.12L536.65,103.12l-46.88,41.65h-4.09l50.98-45.28V103.12L536.65,103.12z
		 M536.65,97.78L536.65,97.78l-52.89,46.99h-4.09l56.99-50.62V97.78L536.65,97.78z M536.65,92.44L536.65,92.44l-58.9,52.33h-4.09
		l63-55.96V92.44L536.65,92.44z M536.65,87.1L536.65,87.1l-64.91,57.67h-4.09l69.01-61.3V87.1L536.65,87.1z M536.65,81.76
		L536.65,81.76l-70.93,63h-4.09l75.02-66.64V81.76L536.65,81.76z M536.65,76.42L536.65,76.42l-76.94,68.34h-4.09l81.03-71.98V76.42
		L536.65,76.42z M536.65,71.09L536.65,71.09l-82.95,73.68h-4.09l87.04-77.32V71.09L536.65,71.09z M536.65,65.75L536.65,65.75
		l-88.96,79.02h-4.09l93.05-82.66V65.75L536.65,65.75z M536.65,60.41L536.65,60.41l-94.97,84.36h-4.09l99.06-88V60.41L536.65,60.41z
		 M536.65,55.07L536.65,55.07l-100.98,89.7h-4.09l105.07-93.34V55.07L536.65,55.07z M536.65,49.73L536.65,49.73l-106.99,95.04h-4.09
		l111.08-98.68V49.73L536.65,49.73z M536.65,44.39L536.65,44.39l-113,100.38h-4.09L536.65,40.75V44.39L536.65,44.39z M536.65,39.05
		L536.65,39.05L417.63,144.77h-4.09L536.65,35.41V39.05L536.65,39.05z M536.65,33.71L536.65,33.71L411.62,144.77h-4.09l129.12-114.7
		V33.71L536.65,33.71z M536.65,28.37L536.65,28.37l-131.03,116.4h-4.09L536.65,24.73V28.37L536.65,28.37z M536.65,23.03
		L536.65,23.03L399.6,144.77h-4.09L536.65,19.39V23.03L536.65,23.03z M536.65,17.69L536.65,17.69L393.59,144.77h-4.09L536.65,14.05
		V17.69L536.65,17.69z M536.65,12.35L536.65,12.35L387.58,144.77h-4.09L536.65,8.71V12.35L536.65,12.35z M536.65,7.01L536.65,7.01
		L381.57,144.77h-4.09L536.65,3.38V7.01L536.65,7.01z M536.65,1.67L536.65,1.67l-161.09,143.1h-4.09L533.01,1.27h3.64V1.67
		L536.65,1.67z M531.09,1.27L531.09,1.27H527l-161.54,143.5h4.09L531.09,1.27L531.09,1.27z M525.08,1.27L525.08,1.27h-4.09
		l-161.54,143.5h4.09L525.08,1.27L525.08,1.27z M519.07,1.27L519.07,1.27h-4.09l-161.54,143.5h4.09L519.07,1.27L519.07,1.27z
		 M513.06,1.27L513.06,1.27h-4.09l-161.54,143.5h4.09L513.06,1.27L513.06,1.27z M507.05,1.27L507.05,1.27h-4.09l-161.54,143.5h4.09
		L507.05,1.27L507.05,1.27z M501.04,1.27L501.04,1.27h-4.09L335.4,144.77h4.09L501.04,1.27L501.04,1.27z M495.03,1.27L495.03,1.27
		h-4.09l-161.54,143.5h4.09L495.03,1.27L495.03,1.27z M489.02,1.27L489.02,1.27h-4.09l-161.54,143.5h4.09L489.02,1.27L489.02,1.27z
		 M483.01,1.27L483.01,1.27h-4.09l-161.54,143.5h4.09L483.01,1.27L483.01,1.27z M477,1.27L477,1.27h-4.09l-161.54,143.5h4.09
		L477,1.27L477,1.27z M470.98,1.27L470.98,1.27h-4.09l-161.54,143.5h4.09L470.98,1.27L470.98,1.27z M464.97,1.27L464.97,1.27h-4.09
		l-161.54,143.5h4.09L464.97,1.27L464.97,1.27z M458.96,1.27L458.96,1.27h-4.09l-161.54,143.5h4.09L458.96,1.27L458.96,1.27z
		 M452.95,1.27L452.95,1.27h-4.09l-161.54,143.5h4.09L452.95,1.27L452.95,1.27z M446.94,1.27L446.94,1.27h-4.09L281.3,144.77h4.09
		L446.94,1.27L446.94,1.27z M440.93,1.27L440.93,1.27h-4.09L275.3,144.77h4.09L440.93,1.27L440.93,1.27z M434.92,1.27L434.92,1.27
		h-4.09l-161.54,143.5h4.09L434.92,1.27L434.92,1.27z M428.91,1.27L428.91,1.27h-4.09l-161.54,143.5h4.09L428.91,1.27L428.91,1.27z
		 M422.9,1.27L422.9,1.27h-4.09l-161.54,143.5h4.09L422.9,1.27L422.9,1.27z M416.89,1.27L416.89,1.27h-4.09l-161.54,143.5h4.09
		L416.89,1.27L416.89,1.27z M410.88,1.27L410.88,1.27h-4.09l-161.54,143.5h4.09L410.88,1.27L410.88,1.27z M404.87,1.27L404.87,1.27
		h-4.09l-161.54,143.5h4.09L404.87,1.27L404.87,1.27z M398.86,1.27L398.86,1.27h-4.09l-161.54,143.5h4.09L398.86,1.27L398.86,1.27z
		 M392.85,1.27L392.85,1.27h-4.09l-161.54,143.5h4.09L392.85,1.27L392.85,1.27z M386.83,1.27L386.83,1.27h-4.09L221.2,144.77h4.09
		L386.83,1.27L386.83,1.27z M380.82,1.27L380.82,1.27h-4.09l-161.54,143.5h4.09L380.82,1.27L380.82,1.27z M374.81,1.27L374.81,1.27
		h-4.09l-161.54,143.5h4.09L374.81,1.27L374.81,1.27z M368.8,1.27L368.8,1.27l-161.54,143.5h-4.09L364.71,1.27H368.8L368.8,1.27z
		 M362.79,1.27L362.79,1.27l-161.54,143.5h-4.09L358.7,1.27H362.79L362.79,1.27z M356.78,1.27L356.78,1.27l-161.54,143.5h-4.09
		L352.69,1.27H356.78L356.78,1.27z M350.77,1.27L350.77,1.27l-161.54,143.5h-4.09L346.68,1.27H350.77L350.77,1.27z M344.76,1.27
		L344.76,1.27l-161.54,143.5h-4.09L340.67,1.27H344.76L344.76,1.27z M338.75,1.27L338.75,1.27l-161.54,143.5h-4.09L334.65,1.27
		H338.75L338.75,1.27z M332.74,1.27L332.74,1.27L171.2,144.77h-4.09L328.64,1.27H332.74L332.74,1.27z M326.73,1.27L326.73,1.27
		l-161.54,143.5h-4.09L322.63,1.27H326.73L326.73,1.27z M320.72,1.27L320.72,1.27l-161.54,143.5h-4.09L316.62,1.27H320.72
		L320.72,1.27z M314.71,1.27L314.71,1.27l-161.54,143.5h-4.09L310.61,1.27H314.71L314.71,1.27z M308.69,1.27L308.69,1.27
		l-161.54,143.5h-4.09L304.6,1.27H308.69L308.69,1.27z M302.69,1.27L302.69,1.27l-161.54,143.5h-4.09L298.59,1.27H302.69
		L302.69,1.27z M296.67,1.27L296.67,1.27l-161.54,143.5h-4.09L292.58,1.27H296.67L296.67,1.27z M290.66,1.27L290.66,1.27
		l-161.54,143.5h-4.09L286.57,1.27H290.66L290.66,1.27z M284.65,1.27L284.65,1.27l-161.54,143.5h-4.09L280.56,1.27H284.65
		L284.65,1.27z M278.64,1.27L278.64,1.27L117.1,144.77h-4.09L274.55,1.27H278.64L278.64,1.27z M272.63,1.27L272.63,1.27
		l-161.54,143.5H107L268.54,1.27H272.63L272.63,1.27z M266.62,1.27L266.62,1.27l-161.54,143.5h-4.09L262.53,1.27H266.62L266.62,1.27
		z M260.61,1.27L260.61,1.27L99.07,144.77h-4.09L256.52,1.27H260.61L260.61,1.27z M254.6,1.27L254.6,1.27L93.06,144.77h-4.09
		L250.51,1.27H254.6L254.6,1.27z M248.59,1.27L248.59,1.27L87.05,144.77h-4.09L244.5,1.27H248.59L248.59,1.27z M242.58,1.27
		L242.58,1.27L81.04,144.77h-4.09L238.48,1.27H242.58L242.58,1.27z M236.57,1.27L236.57,1.27L75.02,144.77h-4.09L232.47,1.27H236.57
		L236.57,1.27z M230.56,1.27L230.56,1.27L69.01,144.77h-4.09L226.46,1.27H230.56L230.56,1.27z M224.55,1.27L224.55,1.27L63,144.77
		h-4.09L220.45,1.27H224.55L224.55,1.27z M218.54,1.27L218.54,1.27L56.99,144.77H52.9L214.44,1.27H218.54L218.54,1.27z M212.52,1.27
		L212.52,1.27L50.98,144.77h-4.09L208.43,1.27H212.52L212.52,1.27z M206.51,1.27L206.51,1.27h-4.09L40.88,144.77h4.09L206.51,1.27
		L206.51,1.27z M200.5,1.27L200.5,1.27h-4.09L34.87,144.77h4.09L200.5,1.27L200.5,1.27z M194.49,1.27L194.49,1.27h-4.09
		L28.86,144.77h4.09L194.49,1.27L194.49,1.27z M188.48,1.27L188.48,1.27h-4.09L22.84,144.77h4.09L188.48,1.27L188.48,1.27z
		 M182.47,1.27L182.47,1.27h-4.09L16.83,144.77h4.09L182.47,1.27L182.47,1.27z M176.46,1.27L176.46,1.27h-4.09L10.82,144.77h4.09
		L176.46,1.27L176.46,1.27z M170.45,1.27L170.45,1.27h-4.09L4.81,144.77h4.09L170.45,1.27L170.45,1.27z M164.44,1.27L164.44,1.27
		h-4.09L1.76,142.14v2.63H2.9L164.44,1.27L164.44,1.27z M158.43,1.27L158.43,1.27h-4.09L1.76,136.8v3.64L158.43,1.27L158.43,1.27z
		 M152.42,1.27L152.42,1.27h-4.09L1.76,131.46v3.64L152.42,1.27L152.42,1.27z M146.41,1.27L146.41,1.27h-4.09L1.76,126.12v3.64
		L146.41,1.27L146.41,1.27z M140.4,1.27L140.4,1.27h-4.09L1.76,120.78v3.64L140.4,1.27L140.4,1.27z M134.39,1.27L134.39,1.27h-4.09
		L1.76,115.45v3.64L134.39,1.27L134.39,1.27z M128.37,1.27L128.37,1.27h-4.09L1.76,110.1v3.64L128.37,1.27L128.37,1.27z
		 M122.36,1.27L122.36,1.27h-4.09L1.76,104.77v3.64L122.36,1.27L122.36,1.27z M116.35,1.27L116.35,1.27h-4.09L1.76,99.43v3.64
		L116.35,1.27L116.35,1.27z M110.34,1.27L110.34,1.27h-4.09L1.76,94.09v3.64L110.34,1.27L110.34,1.27z M104.33,1.27L104.33,1.27
		h-4.09L1.76,88.75v3.64L104.33,1.27L104.33,1.27z M98.32,1.27L98.32,1.27h-4.09L1.76,83.41v3.64L98.32,1.27L98.32,1.27z
		 M92.31,1.27L92.31,1.27h-4.09L1.76,78.07v3.64L92.31,1.27L92.31,1.27z M86.3,1.27L86.3,1.27h-4.09L1.76,72.73v3.64L86.3,1.27
		L86.3,1.27z M80.29,1.27L80.29,1.27h-4.09L1.76,67.39v3.64L80.29,1.27L80.29,1.27z M74.28,1.27L74.28,1.27h-4.09L1.76,62.05v3.64
		L74.28,1.27L74.28,1.27z M68.27,1.27L68.27,1.27h-4.09L1.76,56.71v3.64L68.27,1.27L68.27,1.27z M62.26,1.27L62.26,1.27h-4.09
		l-56.4,50.1v3.64L62.26,1.27L62.26,1.27z M56.25,1.27L56.25,1.27h-4.09L1.76,46.03v3.64L56.25,1.27L56.25,1.27z M50.24,1.27
		L50.24,1.27h-4.09L1.76,40.69v3.64L50.24,1.27L50.24,1.27z M44.22,1.27L44.22,1.27L1.76,38.99v-3.64L40.13,1.27H44.22L44.22,1.27z
		 M38.21,1.27L38.21,1.27L1.76,33.65v-3.64L34.12,1.27H38.21L38.21,1.27z M32.2,1.27L32.2,1.27L1.76,28.31v-3.64L28.11,1.27H32.2
		L32.2,1.27z M26.19,1.27L26.19,1.27L1.76,22.97v-3.64L22.1,1.27H26.19L26.19,1.27z M20.18,1.27L20.18,1.27L1.76,17.63v-3.64
		L16.09,1.27H20.18L20.18,1.27z M14.17,1.27L14.17,1.27L1.76,12.29V8.66l8.32-7.39H14.17L14.17,1.27z M8.16,1.27L8.16,1.27
		l-6.4,5.69V3.32l2.31-2.05H8.16L8.16,1.27z M2.15,1.27L2.15,1.27L1.76,1.61V1.27H2.15z"/>
</g>
<g id="_x33_21353356351_1_1_">
	<g>
		<g>
			<path class="st2" d="M2.81,0h532.96h2.81v2.81v356.55v2.81h-2.81H2.81H0l0-2.81V2.81L0,0H2.81L2.81,0z M532.96,5.62H5.61v350.93
				h527.35V5.62z"/>
			<g>
				<path class="st2" d="M510.9,343.99h12.49V331.5H510.9V343.99L510.9,343.99z M523.51,101.3v159.56h-1.91V101.3H523.51
					L523.51,101.3z M16.98,101.3v159.56h-1.91V101.3H16.98L16.98,101.3z M98.38,342.08h340.58v1.91H98.38V342.08L98.38,342.08z
					 M98.38,18.17h340.58v1.91H98.38V18.17L98.38,18.17z M27.68,330.27h-2.05v-41.31h2.05V330.27L27.68,330.27z M29.03,333.55v-2.04
					h41.31v2.04H29.03L29.03,333.55z M35.07,326.14h3.42v3.42h-3.42V326.14L35.07,326.14z M29.36,320.43h3.42v3.42h-3.42V320.43
					L29.36,320.43z M34.42,319.58h5.12v5.12h-5.12V319.58L34.42,319.58z M33.63,330.61h-5.12v-5.12h5.12V330.61L33.63,330.61z
					 M73.21,343.99v-5.27h21.94v5.27H73.21L73.21,343.99z M59.13,337.7v-3.32h29.08v3.32H59.13L59.13,337.7z M29.03,337.7v-3.32
					h29.08v3.32H29.03L29.03,337.7z M34.97,338.74v5.12h36.98v-5.12H34.97L34.97,338.74z M29.03,338.74v5.12h5.12v-5.12H29.03
					L29.03,338.74z M15.07,286.09h5.27v-21.94h-5.27V286.09L15.07,286.09z M21.36,300.17h3.32v-64.83h-3.32V300.17L21.36,300.17z
					 M21.36,330.27h3.32v-29.08h-3.32V330.27L21.36,330.27z M20.32,324.34h-5.12v-36.98h5.12V324.34L20.32,324.34z M20.32,330.27
					h-5.12v-5.12h5.12V330.27L20.32,330.27z M27.68,343.99H15.19V331.5h12.49V343.99L27.68,343.99z M17.96,334.27v6.95h6.95v-6.95
					H17.96L17.96,334.27z M510.9,31.89h2.05V73.2h-2.05V31.89L510.9,31.89z M509.55,28.62v2.04h-41.31v-2.04H509.55L509.55,28.62z
					 M503.51,36.02h-3.42v-3.42h3.42V36.02L503.51,36.02z M509.22,41.73h-3.42v-3.42h3.42V41.73L509.22,41.73z M504.16,42.59h-5.12
					v-5.12h5.12V42.59L504.16,42.59z M504.95,31.56h5.12v5.12h-5.12V31.56L504.95,31.56z M465.37,18.17v5.27h-21.94v-5.27H465.37
					L465.37,18.17z M479.44,24.46v3.32h-29.08v-3.32H479.44L479.44,24.46z M509.55,24.46v3.32h-29.08v-3.32H509.55L509.55,24.46z
					 M503.61,23.42V18.3h-36.98v5.12H503.61L503.61,23.42z M509.55,23.42V18.3h-5.12v5.12H509.55L509.55,23.42z M523.51,76.07h-5.27
					v21.94h5.27V76.07L523.51,76.07z M517.22,61.99h-3.32v63.09h3.32V61.99L517.22,61.99z M517.22,31.89h-3.32v29.08h3.32V31.89
					L517.22,31.89z M518.26,37.82h5.12V74.8h-5.12V37.82L518.26,37.82z M518.26,31.89h5.12v5.12h-5.12V31.89L518.26,31.89z
					 M510.9,18.18h12.49v12.49H510.9V18.18L510.9,18.18z M513.67,20.94v6.95h6.95v-6.95H513.67L513.67,20.94z M27.68,31.89h-2.05
					V73.2h2.05V31.89L27.68,31.89z M29.03,28.62v2.04h41.31v-2.04H29.03L29.03,28.62z M35.07,36.02h3.42v-3.42h-3.42V36.02
					L35.07,36.02z M29.36,41.73h3.42v-3.42h-3.42V41.73L29.36,41.73z M34.42,42.59h5.12v-5.12h-5.12V42.59L34.42,42.59z
					 M33.63,31.56h-5.12v5.12h5.12V31.56L33.63,31.56z M73.21,18.17v5.27h21.94v-5.27H73.21L73.21,18.17z M59.13,24.46v3.32h29.08
					v-3.32H59.13L59.13,24.46z M29.03,24.46v3.32h29.08v-3.32H29.03L29.03,24.46z M34.97,23.42V18.3h36.98v5.12H34.97L34.97,23.42z
					 M29.03,23.42V18.3h5.12v5.12H29.03L29.03,23.42z M15.07,76.07h5.27v21.94h-5.27V76.07L15.07,76.07z M21.36,61.99h3.32v64.83
					h-3.32V61.99L21.36,61.99z M21.36,31.89h3.32v29.08h-3.32V31.89L21.36,31.89z M20.32,37.82h-5.12V74.8h5.12V37.82L20.32,37.82z
					 M20.32,31.89h-5.12v5.12h5.12V31.89L20.32,31.89z M27.68,18.18H15.19v12.49h12.49V18.18L27.68,18.18z M17.96,27.89v-6.95h6.95
					v6.95H17.96L17.96,27.89z M510.9,330.27h2.05v-41.31h-2.05V330.27L510.9,330.27z M509.55,333.55v-2.04h-41.31v2.04H509.55
					L509.55,333.55z M503.51,326.14h-3.42v3.42h3.42V326.14L503.51,326.14z M509.22,320.43h-3.42v3.42h3.42V320.43L509.22,320.43z
					 M504.16,319.58h-5.12v5.12h5.12V319.58L504.16,319.58z M504.95,330.61h5.12v-5.12h-5.12V330.61L504.95,330.61z M465.37,343.99
					v-5.27h-21.94v5.27H465.37L465.37,343.99z M479.44,337.7v-3.32h-29.08v3.32H479.44L479.44,337.7z M509.55,337.7v-3.32h-29.08
					v3.32H509.55L509.55,337.7z M503.61,338.74v5.12h-36.98v-5.12H503.61L503.61,338.74z M509.55,338.74v5.12h-5.12v-5.12H509.55
					L509.55,338.74z M523.51,286.09h-5.27v-21.94h5.27V286.09L523.51,286.09z M517.22,300.17h-3.32v-63.09h3.32V300.17
					L517.22,300.17z M517.22,330.27h-3.32v-29.08h3.32V330.27L517.22,330.27z M518.26,324.34h5.12v-36.98h-5.12V324.34
					L518.26,324.34z M518.26,330.27h5.12v-5.12h-5.12V330.27L518.26,330.27z M513.67,341.22v-6.95h6.95v6.95H513.67z"/>
				<g>
					<path class="st2" d="M31.85,210.04L31.85,210.04c0,0-0.82-0.08-1.63-0.7c0.87-1.74,1.49-3.5,1.34-5.05c0,0,0.06-1.74-1.65-3.21
						c0.22-0.18,0.43-0.44,0.64-0.79c1.04-1.77,0.05-4.32-1.54-5.31c-1.42-0.88-2.93-0.42-3.7,0.48c0.58-1.15,1.2-2.34,1.67-3.78
						c0.17,0.04,0.36,0.11,0.54,0.2c1.38,0.65,1.79,2.51,1.17,3.75c-0.62,1.24-1.52,1.8-2.63,1.56c-1.11-0.23-0.66-1.17-0.66-1.17
						s1.44-2.11,3.47-0.71c2.03,1.4,1.94,3.94,1.39,4.86c-0.54,0.92-1.23,0.94-1.23,0.94s0.57-1.06-0.48-1.84
						c-1.05-0.77-2.05-0.22-2.63,0.68c-0.58,0.9-0.28,2.33,0.75,3.04c1.03,0.71,2.1,0.28,2.1,0.28c-0.73,1.37-0.46,3.11-0.46,3.11
						c0.06,0.39,0.13,0.75,0.23,1.07c-1.95,3.29-5.19,7.5-5.01,12.1c0,0,0.01,5.57,3.52,5.26c2.04-0.19,2.23-2.54,2.23-2.54
						s-0.8,2.04-2.16,2.04c-1.36,0-3.15-0.98-3.15-4.88c0-4.16,2.99-7.87,4.89-11.12c0.18,0.39,0.38,0.71,0.6,0.98
						c-1.64,2.83-3.81,5.85-3.68,8.25c0.14,2.5,1.62,2.27,1.62,2.27s4.26-0.24,4.54-6.12c0,0,0.09-1.44-1.11-1.3
						c-1.21,0.14-3.86,2.31-3.99,7.84c-0.09,4.04,2.55,3.99,2.55,3.99s1.51,0.02,1.5-2.2c0,0-0.49,1.86-1.61,1.73
						c-1.11-0.12-1.98-1.24-1.92-3.77c0.06-2.54,1.61-7.23,3.65-7.23c0,0,1.05-0.19,0.31,2.6c-0.74,2.78-3.03,4.33-3.9,4.08
						c-0.87-0.25-1.34-1.04-1.3-2.04c0.08-1.63,2.27-4.54,3.85-7.55c0.93,0.79,1.89,0.78,1.89,0.78V210.04L31.85,210.04z
						 M29.69,208.86L29.69,208.86c-0.23-0.26-0.44-0.57-0.62-0.94c0.75-1.33,1.28-2.57,1.3-3.74l-0.07-2.03c0,0,0.82,0.6,0.88,2.42
						C31.21,205.83,30.56,207.31,29.69,208.86L29.69,208.86z M28.77,207.05L28.77,207.05c-0.62-2.43,0.83-4.49,0.83-4.49
						s-1.73,1.04-2.66,0.23c-0.93-0.8-1.39-1.75-0.65-2.87c0.87-1.3,2.01-0.42,2.01-0.42s1.11,0.5-0.13,1.89
						c0,0,0.81,0.41,1.66-0.27c0.07,0.36,0.25,1.54,0.1,2.98C29.85,204.96,29.39,205.95,28.77,207.05L28.77,207.05z M24.85,196.35
						L24.85,196.35c-0.64,1.33-1.14,2.67-1.2,4.35c-0.1,2.6,2.36,3.99,2.36,3.99s-2.78-0.85-2.78-3.99c0-3.53,1.95-5.95,3.15-9.1
						c-0.83-0.02-1.45,0.36-1.62,0.47l0.3-4.39c0,0-0.95,0.48-2.01-0.2c-1.06-0.67-0.98-2.03-0.52-2.74
						c0.47-0.71,1.82-1.58,3.26-0.52c1.72,1.27,1.61,3.57,0.76,4.68c-0.86,1.1-2.46,1.87-4.21,1.05c-1.75-0.82-3.56-3.58-1.73-6.44
						c1.84-2.86,5.13-1.24,5.13-1.24s0.25,0.16,0.54,0.38c-0.75-1.21-1.65-1.56-1.65-1.56s1-0.38,1.78-1.77
						c-0.36,0.3-0.76,0.55-0.76,0.55s-3.3,1.61-5.12-1.26c-1.82-2.87,0-5.62,1.75-6.43c1.75-0.81,3.35-0.04,4.21,1.07
						c0.85,1.11,0.95,3.41-0.78,4.68c-1.44,1.05-2.79,0.18-3.26-0.53c-0.46-0.71-0.53-2.07,0.53-2.74c1.06-0.67,2.01-0.19,2.01-0.19
						l-0.28-4.39c0.18,0.12,0.81,0.51,1.66,0.48c-1.2-3.13-3.13-5.55-3.13-9.06c0-3.15,2.78-3.99,2.78-3.99s-2.46,1.39-2.36,3.99
						c0.06,1.64,0.55,2.97,1.17,4.27c-0.03-0.73,0.82-1.09,0.82-1.09s1.78-0.93,3.21,1.44c1.43,2.37-0.46,4.09-1.2,4.52
						c-0.18,0.11-0.38,0.18-0.58,0.23c0.38,1.26,0.63,2.72,0.63,4.49c0,0,0.21,1.4-0.5,3.08c0.56,0.68,1.82,2.17,2.59,2.59
						c-0.79,0.44-2.08,2.1-2.57,2.76c0.7,1.67,0.49,3.04,0.49,3.04c0,1.75-0.24,3.19-0.61,4.44c0.22,0.05,0.43,0.13,0.62,0.25
						c0.74,0.43,2.62,2.16,1.18,4.53c-1.44,2.37-3.22,1.42-3.22,1.42S24.78,197.1,24.85,196.35L24.85,196.35z M26.51,191.19
						L26.51,191.19c0.45-1.28,0.76-2.7,0.76-4.36c0-1.39-0.23-2.46-0.56-3.28c-0.39-0.46-1.03-0.94-1.03-0.94s-3.2-1.62-4.85,1.19
						c-1.65,2.81,0.42,5.02,0.9,5.35c0.48,0.33,3.06,1.65,4.47-0.64c1.52-2.47-0.75-4.02-0.75-4.02c-1.29-1.1-2.65,0.36-2.65,0.36
						s-0.86,1.46,0.29,2.24c1.15,0.78,2.31-0.14,2.31-0.14l-0.21,4.44C25.3,191.3,25.86,191.15,26.51,191.19L26.51,191.19z
						 M26.84,178.31L26.84,178.31c0.26-0.77,0.44-1.74,0.44-2.95c0-1.68-0.32-3.1-0.77-4.4c-0.67,0.05-1.26-0.1-1.36-0.21l0.19,4.44
						c0,0-1.16-0.93-2.31-0.15c-1.15,0.77-0.3,2.24-0.3,2.24s1.35,1.47,2.65,0.37c0,0,2.28-1.53,0.77-4.01
						c-1.4-2.29-3.99-0.99-4.47-0.66c-0.48,0.33-2.56,2.53-0.92,5.34c1.64,2.82,4.84,1.21,4.84,1.21S26.54,178.83,26.84,178.31
						L26.84,178.31z M25.29,166.75L25.29,166.75c0.79,0.87,2.26,1.3,3.66,0.44c1.6-0.98,2.6-3.53,1.57-5.31
						c-0.2-0.34-0.41-0.59-0.62-0.78c1.72-1.47,1.66-3.21,1.66-3.21c0.15-1.55-0.47-3.31-1.34-5.05c0.82-0.62,1.63-0.7,1.63-0.7
						v-0.58c0,0-0.95-0.01-1.89,0.78c-1.58-3.02-3.77-5.92-3.85-7.55c-0.05-1,0.43-1.79,1.3-2.04c0.87-0.25,3.15,1.3,3.9,4.08
						c0.74,2.78-0.31,2.6-0.31,2.6c-2.04,0-3.59-4.7-3.65-7.23c-0.06-2.54,0.8-3.65,1.92-3.77c1.11-0.12,1.61,1.73,1.61,1.73
						c0.02-2.21-1.5-2.19-1.5-2.19s-2.64-0.05-2.55,3.99c0.13,5.52,2.78,7.7,3.99,7.84c1.21,0.14,1.11-1.3,1.11-1.3
						c-0.28-5.88-4.54-6.12-4.54-6.12s-1.48-0.23-1.62,2.27c-0.13,2.4,2.05,5.42,3.68,8.25c-0.21,0.27-0.42,0.6-0.6,0.99
						c-1.9-3.24-4.9-6.96-4.9-11.12c0-3.9,1.79-4.88,3.15-4.88c1.36,0,2.16,2.04,2.16,2.04c-0.3-3.82-5.74-3.75-5.75,2.72
						c-0.18,4.6,3.06,8.81,5.02,12.1c-0.09,0.32-0.17,0.67-0.22,1.05c0,0-0.28,1.75,0.45,3.12c0,0-1.06-0.43-2.1,0.27
						c-1.04,0.71-1.35,2.13-0.77,3.03c0.58,0.9,1.57,1.46,2.63,0.69c1.05-0.77,0.48-1.83,0.48-1.83s0.68,0.02,1.22,0.94
						c0.54,0.93,0.62,3.47-1.41,4.86c-2.03,1.39-3.47-0.72-3.47-0.72s-0.44-0.93,0.67-1.16c1.11-0.23,2,0.33,2.62,1.58
						c0.62,1.24,0.2,3.09-1.18,3.74c-0.17,0.08-0.34,0.14-0.5,0.18C26.48,169.06,25.86,167.89,25.29,166.75L25.29,166.75z
						 M29.84,161.06L29.84,161.06c0.07-0.36,0.26-1.54,0.1-2.98c-0.09-0.85-0.55-1.84-1.17-2.94c-0.61,2.42,0.82,4.48,0.82,4.48
						s-1.73-1.04-2.66-0.24c-0.93,0.8-1.4,1.75-0.66,2.87c0.86,1.31,2.01,0.43,2.01,0.43s1.11-0.49-0.12-1.9
						C28.16,160.78,28.98,160.36,29.84,161.06L29.84,161.06z M29.07,154.27L29.07,154.27c0.75,1.33,1.28,2.57,1.3,3.73l-0.07,2.03
						c0,0,0.82-0.6,0.88-2.42c0.04-1.26-0.62-2.74-1.49-4.29C29.46,153.59,29.25,153.9,29.07,154.27L29.07,154.27z M27.01,178.84
						L27.01,178.84c-0.38,0.75-0.94,1.53-1.8,2.26c0.87,0.75,1.44,1.55,1.82,2.31c0.19-0.26,1.33-1.8,2.21-2.32
						C28.43,180.6,27.34,179.25,27.01,178.84z"/>
					<path class="st2" d="M507.96,210.04L507.96,210.04c0,0,0.82-0.08,1.63-0.7c-0.87-1.74-1.49-3.5-1.33-5.05
						c0,0-0.06-1.74,1.65-3.21c-0.22-0.18-0.43-0.44-0.64-0.79c-1.04-1.77-0.05-4.32,1.54-5.31c1.42-0.88,2.93-0.42,3.7,0.48
						c-0.58-1.15-1.21-2.34-1.67-3.78c-0.17,0.04-0.36,0.11-0.54,0.2c-1.38,0.65-1.79,2.51-1.17,3.75c0.62,1.24,1.52,1.8,2.63,1.56
						c1.11-0.23,0.66-1.17,0.66-1.17s-1.45-2.11-3.47-0.71c-2.03,1.4-1.94,3.94-1.39,4.86c0.54,0.92,1.23,0.94,1.23,0.94
						s-0.57-1.06,0.48-1.84c1.05-0.77,2.05-0.22,2.63,0.68c0.58,0.9,0.28,2.33-0.75,3.04c-1.03,0.71-2.1,0.28-2.1,0.28
						c0.73,1.37,0.46,3.11,0.46,3.11c-0.06,0.39-0.13,0.75-0.23,1.07c1.95,3.29,5.19,7.5,5.01,12.1c0,0-0.01,5.57-3.53,5.26
						c-2.04-0.19-2.23-2.54-2.23-2.54s0.8,2.04,2.16,2.04c1.36,0,3.15-0.98,3.15-4.88c0-4.16-2.99-7.87-4.89-11.12
						c-0.18,0.39-0.38,0.71-0.6,0.98c1.64,2.83,3.82,5.85,3.68,8.25c-0.14,2.5-1.62,2.27-1.62,2.27s-4.26-0.24-4.54-6.12
						c0,0-0.09-1.44,1.11-1.3c1.21,0.14,3.86,2.31,3.99,7.84c0.09,4.04-2.55,3.99-2.55,3.99s-1.51,0.02-1.5-2.2
						c0,0,0.49,1.86,1.61,1.73c1.11-0.12,1.98-1.24,1.92-3.77c-0.06-2.54-1.61-7.23-3.65-7.23c0,0-1.05-0.19-0.31,2.6
						c0.74,2.78,3.03,4.33,3.9,4.08c0.87-0.25,1.34-1.04,1.3-2.04c-0.08-1.63-2.27-4.54-3.85-7.55c-0.93,0.79-1.89,0.78-1.89,0.78
						V210.04L507.96,210.04z M510.12,208.86L510.12,208.86c0.23-0.26,0.44-0.57,0.62-0.94c-0.75-1.33-1.28-2.57-1.3-3.74l0.07-2.03
						c0,0-0.83,0.6-0.88,2.42C508.6,205.83,509.25,207.31,510.12,208.86L510.12,208.86z M511.05,207.05L511.05,207.05
						c0.62-2.43-0.83-4.49-0.83-4.49s1.73,1.04,2.66,0.23c0.93-0.8,1.39-1.75,0.65-2.87c-0.87-1.3-2.01-0.42-2.01-0.42
						s-1.11,0.5,0.13,1.89c0,0-0.81,0.41-1.66-0.27c-0.07,0.36-0.25,1.54-0.1,2.98C509.96,204.96,510.42,205.95,511.05,207.05
						L511.05,207.05z M514.97,196.35L514.97,196.35c0.63,1.33,1.14,2.67,1.2,4.35c0.1,2.6-2.36,3.99-2.36,3.99s2.78-0.85,2.78-3.99
						c0-3.53-1.95-5.95-3.15-9.1c0.83-0.02,1.45,0.36,1.62,0.47l-0.3-4.39c0,0,0.95,0.48,2.01-0.2c1.06-0.67,0.98-2.03,0.52-2.74
						c-0.47-0.71-1.82-1.58-3.26-0.52c-1.72,1.27-1.61,3.57-0.76,4.68c0.86,1.1,2.46,1.87,4.21,1.05c1.75-0.82,3.56-3.58,1.73-6.44
						c-1.83-2.86-5.13-1.24-5.13-1.24s-0.25,0.16-0.54,0.38c0.75-1.21,1.65-1.56,1.65-1.56s-1-0.38-1.78-1.77
						c0.36,0.3,0.76,0.55,0.76,0.55s3.3,1.61,5.13-1.26c1.82-2.87,0-5.62-1.75-6.43c-1.75-0.81-3.35-0.04-4.21,1.07
						c-0.85,1.11-0.95,3.41,0.78,4.68c1.44,1.05,2.79,0.18,3.26-0.53c0.46-0.71,0.53-2.07-0.53-2.74c-1.06-0.67-2.01-0.19-2.01-0.19
						l0.28-4.39c-0.18,0.12-0.81,0.51-1.66,0.48c1.2-3.13,3.13-5.55,3.13-9.06c0-3.15-2.78-3.99-2.78-3.99s2.46,1.39,2.36,3.99
						c-0.06,1.64-0.55,2.97-1.17,4.27c0.03-0.73-0.82-1.09-0.82-1.09s-1.78-0.93-3.21,1.44c-1.43,2.37,0.46,4.09,1.2,4.52
						c0.18,0.11,0.38,0.18,0.58,0.23c-0.38,1.26-0.63,2.72-0.63,4.49c0,0-0.21,1.4,0.5,3.08c-0.56,0.68-1.83,2.17-2.59,2.59
						c0.79,0.44,2.08,2.1,2.57,2.76c-0.7,1.67-0.49,3.04-0.49,3.04c0,1.75,0.24,3.19,0.61,4.44c-0.22,0.05-0.43,0.13-0.62,0.25
						c-0.74,0.43-2.62,2.16-1.17,4.53c1.44,2.37,3.22,1.42,3.22,1.42S515.03,197.1,514.97,196.35L514.97,196.35z M513.3,191.19
						L513.3,191.19c-0.45-1.28-0.76-2.7-0.76-4.36c0-1.39,0.23-2.46,0.56-3.28c0.39-0.46,1.03-0.94,1.03-0.94s3.2-1.62,4.85,1.19
						c1.65,2.81-0.42,5.02-0.9,5.35c-0.48,0.33-3.06,1.65-4.47-0.64c-1.52-2.47,0.75-4.02,0.75-4.02c1.29-1.1,2.65,0.36,2.65,0.36
						s0.86,1.46-0.29,2.24c-1.15,0.78-2.31-0.14-2.31-0.14l0.21,4.44C514.52,191.3,513.95,191.15,513.3,191.19L513.3,191.19z
						 M512.97,178.31L512.97,178.31c-0.26-0.77-0.44-1.74-0.44-2.95c0-1.68,0.32-3.1,0.77-4.4c0.67,0.05,1.26-0.1,1.36-0.21
						l-0.19,4.44c0,0,1.16-0.93,2.31-0.15c1.15,0.77,0.3,2.24,0.3,2.24s-1.35,1.47-2.65,0.37c0,0-2.28-1.53-0.77-4.01
						c1.4-2.29,3.99-0.99,4.47-0.66c0.48,0.33,2.56,2.53,0.92,5.34c-1.64,2.82-4.84,1.21-4.84,1.21S513.27,178.83,512.97,178.31
						L512.97,178.31z M514.52,166.75L514.52,166.75c-0.79,0.87-2.26,1.3-3.66,0.44c-1.6-0.98-2.6-3.53-1.57-5.31
						c0.2-0.34,0.41-0.59,0.62-0.78c-1.72-1.47-1.66-3.21-1.66-3.21c-0.15-1.55,0.47-3.31,1.33-5.05c-0.82-0.62-1.63-0.7-1.63-0.7
						v-0.58c0,0,0.95-0.01,1.89,0.78c1.58-3.02,3.77-5.92,3.85-7.55c0.05-1-0.43-1.79-1.3-2.04c-0.87-0.25-3.15,1.3-3.9,4.08
						c-0.74,2.78,0.31,2.6,0.31,2.6c2.04,0,3.59-4.7,3.65-7.23c0.06-2.54-0.8-3.65-1.92-3.77c-1.11-0.12-1.61,1.73-1.61,1.73
						c-0.01-2.21,1.5-2.19,1.5-2.19s2.64-0.05,2.55,3.99c-0.13,5.52-2.78,7.7-3.99,7.84c-1.21,0.14-1.11-1.3-1.11-1.3
						c0.28-5.88,4.54-6.12,4.54-6.12s1.48-0.23,1.62,2.27c0.13,2.4-2.05,5.42-3.68,8.25c0.21,0.27,0.42,0.6,0.6,0.99
						c1.9-3.24,4.9-6.96,4.9-11.12c0-3.9-1.79-4.88-3.15-4.88c-1.36,0-2.16,2.04-2.16,2.04c0.3-3.82,5.74-3.75,5.75,2.72
						c0.18,4.6-3.06,8.81-5.02,12.1c0.09,0.32,0.17,0.67,0.22,1.05c0,0,0.28,1.75-0.45,3.12c0,0,1.06-0.43,2.1,0.27
						c1.04,0.71,1.35,2.13,0.77,3.03c-0.58,0.9-1.57,1.46-2.63,0.69c-1.05-0.77-0.49-1.83-0.49-1.83s-0.68,0.02-1.22,0.94
						c-0.54,0.93-0.62,3.47,1.41,4.86c2.03,1.39,3.47-0.72,3.47-0.72s0.44-0.93-0.67-1.16c-1.11-0.23-2,0.33-2.62,1.58
						c-0.62,1.24-0.2,3.09,1.18,3.74c0.17,0.08,0.34,0.14,0.5,0.18C513.33,169.06,513.95,167.89,514.52,166.75L514.52,166.75z
						 M509.97,161.06L509.97,161.06c-0.07-0.36-0.26-1.54-0.1-2.98c0.09-0.85,0.55-1.84,1.17-2.94c0.61,2.42-0.82,4.48-0.82,4.48
						s1.73-1.04,2.66-0.24c0.93,0.8,1.4,1.75,0.66,2.87c-0.86,1.31-2.01,0.43-2.01,0.43s-1.11-0.49,0.12-1.9
						C511.65,160.78,510.83,160.36,509.97,161.06L509.97,161.06z M510.74,154.27L510.74,154.27c-0.75,1.33-1.28,2.57-1.3,3.73
						l0.07,2.03c0,0-0.83-0.6-0.88-2.42c-0.04-1.26,0.62-2.74,1.49-4.29C510.35,153.59,510.56,153.9,510.74,154.27L510.74,154.27z
						 M512.8,178.84L512.8,178.84c0.38,0.75,0.94,1.53,1.8,2.26c-0.87,0.75-1.45,1.55-1.82,2.31c-0.19-0.26-1.33-1.8-2.21-2.32
						C511.38,180.6,512.48,179.25,512.8,178.84z"/>
				</g>
			</g>
		</g>
	</g>
</g>
</svg>
