<?xml version="1.0" encoding="utf-8"?>
<!-- Generator: Adobe Illustrator 26.5.0, SVG Export Plug-In . SVG Version: 6.00 Build 0)  -->
<svg version="1.1" id="Laag_1" xmlns="http://www.w3.org/2000/svg" xmlns:xlink="http://www.w3.org/1999/xlink" x="0px" y="0px"
	 viewBox="0 0 538.6 362.2" style="enable-background:new 0 0 538.6 362.2;" xml:space="preserve">
<style type="text/css">
	.st0{fill-rule:evenodd;clip-rule:evenodd;fill:#A3958A;}
</style>
<g id="_x33_21353356351_1_1_">
	<g>
		<g>
			<path class="st0" d="M2.8,0h533h2.8v2.8v356.5v2.8h-2.8H2.8H0v-2.8V2.8V0H2.8L2.8,0z M533,5.6H5.6v350.9H533L533,5.6L533,5.6z"/>
			<g>
				<path class="st0" d="M510.9,344h12.5v-12.5h-12.5V344L510.9,344z M523.5,101.3v159.6h-1.9V101.3H523.5L523.5,101.3z M17,101.3
					v159.6h-1.9V101.3H17L17,101.3z M98.4,342.1H439v1.9H98.4V342.1L98.4,342.1z M98.4,18.2H439v1.9H98.4V18.2L98.4,18.2z
					 M27.7,330.3h-2V289h2V330.3L27.7,330.3z M29,333.5v-2h41.3v2H29L29,333.5z M35.1,326.1h3.4v3.4h-3.4V326.1L35.1,326.1z
					 M29.4,320.4h3.4v3.4h-3.4L29.4,320.4L29.4,320.4z M34.4,319.6h5.1v5.1h-5.1V319.6L34.4,319.6z M33.6,330.6h-5.1v-5.1h5.1V330.6
					L33.6,330.6z M73.2,344v-5.3h21.9v5.3H73.2L73.2,344z M59.1,337.7v-3.3h29.1v3.3H59.1L59.1,337.7z M29,337.7v-3.3h29.1v3.3H29
					L29,337.7z M35,338.7v5.1h37v-5.1H35L35,338.7z M29,338.7v5.1h5.1v-5.1H29L29,338.7z M15.1,286.1h5.3v-21.9h-5.3V286.1
					L15.1,286.1z M21.4,300.2h3.3v-64.8h-3.3V300.2L21.4,300.2z M21.4,330.3h3.3v-29.1h-3.3V330.3L21.4,330.3z M20.3,324.3h-5.1v-37
					h5.1V324.3L20.3,324.3z M20.3,330.3h-5.1v-5.1h5.1V330.3L20.3,330.3z M27.7,344H15.2v-12.5h12.5V344L27.7,344z M18,334.3v7h7v-7
					H18L18,334.3z M510.9,31.9h2.1v41.3h-2L510.9,31.9L510.9,31.9z M509.5,28.6v2h-41.3v-2L509.5,28.6L509.5,28.6z M503.5,36h-3.4
					v-3.4h3.4V36L503.5,36z M509.2,41.7h-3.4v-3.4h3.4V41.7L509.2,41.7z M504.2,42.6H499v-5.1h5.1V42.6L504.2,42.6z M505,31.6h5.1
					v5.1H505V31.6L505,31.6z M465.4,18.2v5.3h-21.9v-5.3H465.4L465.4,18.2z M479.4,24.5v3.3h-29.1v-3.3H479.4L479.4,24.5z
					 M509.5,24.5v3.3h-29.1v-3.3H509.5L509.5,24.5z M503.6,23.4v-5.1h-37v5.1L503.6,23.4L503.6,23.4z M509.5,23.4v-5.1h-5.1v5.1
					L509.5,23.4L509.5,23.4z M523.5,76.1h-5.3V98h5.3V76.1L523.5,76.1z M517.2,62h-3.3v63.1h3.3V62L517.2,62z M517.2,31.9h-3.3V61
					h3.3V31.9L517.2,31.9z M518.3,37.8h5.1v37h-5.1V37.8L518.3,37.8z M518.3,31.9h5.1V37h-5.1V31.9L518.3,31.9z M510.9,18.2h12.5
					v12.5h-12.5V18.2L510.9,18.2z M513.7,20.9v6.9h7v-7L513.7,20.9L513.7,20.9z M27.7,31.9h-2v41.3h2V31.9L27.7,31.9z M29,28.6v2
					h41.3v-2L29,28.6L29,28.6z M35.1,36h3.4v-3.4h-3.4V36L35.1,36z M29.4,41.7h3.4v-3.4h-3.4L29.4,41.7L29.4,41.7z M34.4,42.6h5.1
					v-5.1h-5.1V42.6L34.4,42.6z M33.6,31.6h-5.1v5.1h5.1V31.6L33.6,31.6z M73.2,18.2v5.3h21.9v-5.3H73.2L73.2,18.2z M59.1,24.5v3.3
					h29.1v-3.3H59.1L59.1,24.5z M29,24.5v3.3h29.1v-3.3H29L29,24.5z M35,23.4v-5.1h37v5.1L35,23.4L35,23.4z M29,23.4v-5.1h5.1v5.1
					L29,23.4L29,23.4z M15.1,76.1h5.3V98h-5.3V76.1L15.1,76.1z M21.4,62h3.3v64.8h-3.3V62L21.4,62z M21.4,31.9h3.3V61h-3.3V31.9
					L21.4,31.9z M20.3,37.8h-5.1v37h5.1V37.8L20.3,37.8z M20.3,31.9h-5.1V37h5.1V31.9L20.3,31.9z M27.7,18.2H15.2v12.5h12.5V18.2
					L27.7,18.2z M18,27.9v-7h7v7H18L18,27.9z M510.9,330.3h2.1V289h-2L510.9,330.3L510.9,330.3z M509.5,333.5v-2h-41.3v2H509.5
					L509.5,333.5z M503.5,326.1h-3.4v3.4h3.4V326.1L503.5,326.1z M509.2,320.4h-3.4v3.4h3.4V320.4L509.2,320.4z M504.2,319.6H499
					v5.1h5.1V319.6L504.2,319.6z M505,330.6h5.1v-5.1H505V330.6L505,330.6z M465.4,344v-5.3h-21.9v5.3H465.4L465.4,344z
					 M479.4,337.7v-3.3h-29.1v3.3H479.4L479.4,337.7z M509.5,337.7v-3.3h-29.1v3.3H509.5L509.5,337.7z M503.6,338.7v5.1h-37v-5.1
					H503.6L503.6,338.7z M509.5,338.7v5.1h-5.1v-5.1H509.5L509.5,338.7z M523.5,286.1h-5.3v-21.9h5.3V286.1L523.5,286.1z
					 M517.2,300.2h-3.3v-63.1h3.3V300.2L517.2,300.2z M517.2,330.3h-3.3v-29.1h3.3V330.3L517.2,330.3z M518.3,324.3h5.1v-37h-5.1
					V324.3L518.3,324.3z M518.3,330.3h5.1v-5.1h-5.1V330.3L518.3,330.3z M513.7,341.2v-7h7v7H513.7z"/>
				<g>
					<path class="st0" d="M31.9,210L31.9,210c0,0-0.8-0.1-1.6-0.7c0.9-1.7,1.5-3.5,1.3-5.1c0,0,0.1-1.7-1.6-3.2
						c0.2-0.2,0.4-0.4,0.6-0.8c1-1.8,0-4.3-1.5-5.3c-1.4-0.9-2.9-0.4-3.7,0.5c0.6-1.1,1.2-2.3,1.7-3.8c0.2,0,0.4,0.1,0.5,0.2
						c1.4,0.6,1.8,2.5,1.2,3.8c-0.6,1.2-1.5,1.8-2.6,1.6c-1.1-0.2-0.7-1.2-0.7-1.2s1.4-2.1,3.5-0.7s1.9,3.9,1.4,4.9
						c-0.5,0.9-1.2,0.9-1.2,0.9s0.6-1.1-0.5-1.8c-1-0.8-2-0.2-2.6,0.7s-0.3,2.3,0.8,3c1,0.7,2.1,0.3,2.1,0.3
						c-0.7,1.4-0.5,3.1-0.5,3.1c0.1,0.4,0.1,0.8,0.2,1.1c-2,3.3-5.2,7.5-5,12.1c0,0,0,5.6,3.5,5.3c2-0.2,2.2-2.5,2.2-2.5
						s-0.8,2-2.2,2s-3.1-1-3.1-4.9c0-4.2,3-7.9,4.9-11.1c0.2,0.4,0.4,0.7,0.6,1c-1.6,2.8-3.8,5.9-3.7,8.2c0.1,2.5,1.6,2.3,1.6,2.3
						s4.3-0.2,4.5-6.1c0,0,0.1-1.4-1.1-1.3c-1.2,0.1-3.9,2.3-4,7.8c-0.1,4,2.5,4,2.5,4s1.5,0,1.5-2.2c0,0-0.5,1.9-1.6,1.7
						c-1.1-0.1-2-1.2-1.9-3.8c0.1-2.5,1.6-7.2,3.6-7.2c0,0,1.1-0.2,0.3,2.6c-0.7,2.8-3,4.3-3.9,4.1c-0.9-0.2-1.3-1-1.3-2
						c0.1-1.6,2.3-4.5,3.9-7.6c0.9,0.8,1.9,0.8,1.9,0.8L31.9,210L31.9,210z M29.7,208.9L29.7,208.9c-0.2-0.3-0.4-0.6-0.6-0.9
						c0.8-1.3,1.3-2.6,1.3-3.7l-0.1-2c0,0,0.8,0.6,0.9,2.4C31.2,205.8,30.6,207.3,29.7,208.9L29.7,208.9z M28.8,207.1L28.8,207.1
						c-0.6-2.4,0.8-4.5,0.8-4.5s-1.7,1-2.7,0.2c-0.9-0.8-1.4-1.8-0.6-2.9c0.9-1.3,2-0.4,2-0.4s1.1,0.5-0.1,1.9c0,0,0.8,0.4,1.7-0.3
						c0.1,0.4,0.2,1.5,0.1,3C29.9,205,29.4,205.9,28.8,207.1L28.8,207.1z M24.9,196.4L24.9,196.4c-0.6,1.3-1.1,2.7-1.2,4.4
						c-0.1,2.6,2.4,4,2.4,4s-2.8-0.9-2.8-4c0-3.5,2-5.9,3.1-9.1c-0.8,0-1.5,0.4-1.6,0.5l0.3-4.4c0,0-1,0.5-2-0.2
						c-1.1-0.7-1-2-0.5-2.7c0.5-0.7,1.8-1.6,3.3-0.5c1.7,1.3,1.6,3.6,0.8,4.7c-0.9,1.1-2.5,1.9-4.2,1.1c-1.8-0.8-3.6-3.6-1.7-6.4
						c1.8-2.9,5.1-1.2,5.1-1.2s0.2,0.2,0.5,0.4c-0.8-1.2-1.6-1.6-1.6-1.6s1-0.4,1.8-1.8c-0.4,0.3-0.8,0.6-0.8,0.6s-3.3,1.6-5.1-1.3
						c-1.8-2.9,0-5.6,1.8-6.4s3.4,0,4.2,1.1c0.9,1.1,1,3.4-0.8,4.7c-1.4,1.1-2.8,0.2-3.3-0.5c-0.5-0.7-0.5-2.1,0.5-2.7
						c1.1-0.7,2-0.2,2-0.2l-0.3-4.4c0.2,0.1,0.8,0.5,1.7,0.5c-1.2-3.1-3.1-5.6-3.1-9.1c0-3.1,2.8-4,2.8-4s-2.5,1.4-2.4,4
						c0.1,1.6,0.5,3,1.2,4.3c0-0.7,0.8-1.1,0.8-1.1s1.8-0.9,3.2,1.4c1.4,2.4-0.5,4.1-1.2,4.5c-0.2,0.1-0.4,0.2-0.6,0.2
						c0.4,1.3,0.6,2.7,0.6,4.5c0,0,0.2,1.4-0.5,3.1c0.6,0.7,1.8,2.2,2.6,2.6c-0.8,0.4-2.1,2.1-2.6,2.8c0.7,1.7,0.5,3,0.5,3
						c0,1.8-0.2,3.2-0.6,4.4c0.2,0.1,0.4,0.1,0.6,0.2c0.7,0.4,2.6,2.2,1.2,4.5c-1.4,2.4-3.2,1.4-3.2,1.4S24.8,197.1,24.9,196.4
						L24.9,196.4z M26.5,191.2L26.5,191.2c0.5-1.3,0.8-2.7,0.8-4.4c0-1.4-0.2-2.5-0.6-3.3c-0.4-0.5-1-0.9-1-0.9s-3.2-1.6-4.9,1.2
						s0.4,5,0.9,5.4s3.1,1.6,4.5-0.6c1.5-2.5-0.8-4-0.8-4c-1.3-1.1-2.6,0.4-2.6,0.4s-0.9,1.5,0.3,2.2c1.1,0.8,2.3-0.1,2.3-0.1
						l-0.2,4.4C25.3,191.3,25.9,191.1,26.5,191.2L26.5,191.2z M26.8,178.3L26.8,178.3c0.3-0.8,0.4-1.7,0.4-2.9
						c0-1.7-0.3-3.1-0.8-4.4c-0.7,0.1-1.3-0.1-1.4-0.2l0.2,4.4c0,0-1.2-0.9-2.3-0.1c-1.1,0.8-0.3,2.2-0.3,2.2s1.4,1.5,2.6,0.4
						c0,0,2.3-1.5,0.8-4c-1.4-2.3-4-1-4.5-0.7s-2.6,2.5-0.9,5.3c1.6,2.8,4.8,1.2,4.8,1.2S26.5,178.8,26.8,178.3L26.8,178.3z
						 M25.3,166.8L25.3,166.8c0.8,0.9,2.3,1.3,3.7,0.4c1.6-1,2.6-3.5,1.6-5.3c-0.2-0.3-0.4-0.6-0.6-0.8c1.7-1.5,1.7-3.2,1.7-3.2
						c0.1-1.6-0.5-3.3-1.3-5.1c0.8-0.6,1.6-0.7,1.6-0.7v-0.6c0,0-1,0-1.9,0.8c-1.6-3-3.8-5.9-3.9-7.6c0-1,0.4-1.8,1.3-2
						c0.9-0.2,3.1,1.3,3.9,4.1c0.7,2.8-0.3,2.6-0.3,2.6c-2,0-3.6-4.7-3.6-7.2c-0.1-2.5,0.8-3.6,1.9-3.8c1.1-0.1,1.6,1.7,1.6,1.7
						c0-2.2-1.5-2.2-1.5-2.2s-2.6-0.1-2.5,4c0.1,5.5,2.8,7.7,4,7.8s1.1-1.3,1.1-1.3c-0.3-5.9-4.5-6.1-4.5-6.1s-1.5-0.2-1.6,2.3
						c-0.1,2.4,2,5.4,3.7,8.2c-0.2,0.3-0.4,0.6-0.6,1c-1.9-3.2-4.9-7-4.9-11.1c0-3.9,1.8-4.9,3.1-4.9s2.2,2,2.2,2
						c-0.3-3.8-5.7-3.8-5.8,2.7c-0.2,4.6,3.1,8.8,5,12.1c-0.1,0.3-0.2,0.7-0.2,1.1c0,0-0.3,1.8,0.5,3.1c0,0-1.1-0.4-2.1,0.3
						c-1,0.7-1.4,2.1-0.8,3s1.6,1.5,2.6,0.7c1-0.8,0.5-1.8,0.5-1.8s0.7,0,1.2,0.9c0.5,0.9,0.6,3.5-1.4,4.9s-3.5-0.7-3.5-0.7
						s-0.4-0.9,0.7-1.2c1.1-0.2,2,0.3,2.6,1.6c0.6,1.2,0.2,3.1-1.2,3.7c-0.2,0.1-0.3,0.1-0.5,0.2C26.5,169.1,25.9,167.9,25.3,166.8
						L25.3,166.8z M29.8,161.1L29.8,161.1c0.1-0.4,0.3-1.5,0.1-3c-0.1-0.9-0.5-1.8-1.2-2.9c-0.6,2.4,0.8,4.5,0.8,4.5s-1.7-1-2.7-0.2
						c-0.9,0.8-1.4,1.8-0.7,2.9c0.9,1.3,2,0.4,2,0.4s1.1-0.5-0.1-1.9C28.2,160.8,29,160.4,29.8,161.1L29.8,161.1z M29.1,154.3
						L29.1,154.3c0.8,1.3,1.3,2.6,1.3,3.7l-0.1,2c0,0,0.8-0.6,0.9-2.4c0-1.3-0.6-2.7-1.5-4.3C29.5,153.6,29.2,153.9,29.1,154.3
						L29.1,154.3z M27,178.8L27,178.8c-0.4,0.8-0.9,1.5-1.8,2.3c0.9,0.8,1.4,1.6,1.8,2.3c0.2-0.3,1.3-1.8,2.2-2.3
						C28.4,180.6,27.3,179.2,27,178.8z"/>
					<path class="st0" d="M508,210L508,210c0,0,0.8-0.1,1.6-0.7c-0.9-1.7-1.5-3.5-1.3-5.1c0,0-0.1-1.7,1.6-3.2
						c-0.2-0.2-0.4-0.4-0.6-0.8c-1-1.8,0-4.3,1.5-5.3c1.4-0.9,2.9-0.4,3.7,0.5c-0.6-1.1-1.2-2.3-1.7-3.8c-0.2,0-0.4,0.1-0.5,0.2
						c-1.4,0.6-1.8,2.5-1.2,3.8s1.5,1.8,2.6,1.6c1.1-0.2,0.7-1.2,0.7-1.2s-1.5-2.1-3.5-0.7c-2,1.4-1.9,3.9-1.4,4.9
						c0.5,0.9,1.2,0.9,1.2,0.9s-0.6-1.1,0.5-1.8c1.1-0.8,2.1-0.2,2.6,0.7c0.6,0.9,0.3,2.3-0.8,3c-1,0.7-2.1,0.3-2.1,0.3
						c0.7,1.4,0.5,3.1,0.5,3.1c-0.1,0.4-0.1,0.8-0.2,1.1c1.9,3.3,5.2,7.5,5,12.1c0,0,0,5.6-3.5,5.3c-2-0.2-2.2-2.5-2.2-2.5
						s0.8,2,2.2,2c1.4,0,3.2-1,3.2-4.9c0-4.2-3-7.9-4.9-11.1c-0.2,0.4-0.4,0.7-0.6,1c1.6,2.8,3.8,5.9,3.7,8.2
						c-0.1,2.5-1.6,2.3-1.6,2.3s-4.3-0.2-4.5-6.1c0,0-0.1-1.4,1.1-1.3c1.2,0.1,3.9,2.3,4,7.8c0.1,4-2.5,4-2.5,4s-1.5,0-1.5-2.2
						c0,0,0.5,1.9,1.6,1.7c1.1-0.1,2-1.2,1.9-3.8c-0.1-2.5-1.6-7.2-3.6-7.2c0,0-1-0.2-0.3,2.6c0.7,2.8,3,4.3,3.9,4.1s1.3-1,1.3-2
						c-0.1-1.6-2.3-4.5-3.9-7.6c-0.9,0.8-1.9,0.8-1.9,0.8L508,210L508,210z M510.1,208.9L510.1,208.9c0.2-0.3,0.4-0.6,0.6-0.9
						c-0.8-1.3-1.3-2.6-1.3-3.7l0.1-2c0,0-0.8,0.6-0.9,2.4C508.6,205.8,509.2,207.3,510.1,208.9L510.1,208.9z M511,207.1L511,207.1
						c0.6-2.4-0.8-4.5-0.8-4.5s1.7,1,2.7,0.2c0.9-0.8,1.4-1.8,0.7-2.9c-0.9-1.3-2-0.4-2-0.4s-1.1,0.5,0.1,1.9c0,0-0.8,0.4-1.7-0.3
						c-0.1,0.4-0.2,1.5-0.1,3C510,205,510.4,205.9,511,207.1L511,207.1z M515,196.4L515,196.4c0.6,1.3,1.1,2.7,1.2,4.4
						c0.1,2.6-2.4,4-2.4,4s2.8-0.9,2.8-4c0-3.5-2-5.9-3.2-9.1c0.8,0,1.5,0.4,1.6,0.5l-0.3-4.4c0,0,1,0.5,2-0.2c1.1-0.7,1-2,0.5-2.7
						c-0.5-0.7-1.8-1.6-3.3-0.5c-1.7,1.3-1.6,3.6-0.8,4.7c0.9,1.1,2.5,1.9,4.2,1.1c1.8-0.8,3.6-3.6,1.7-6.4s-5.1-1.2-5.1-1.2
						s-0.2,0.2-0.5,0.4c0.8-1.2,1.7-1.6,1.7-1.6s-1-0.4-1.8-1.8c0.4,0.3,0.8,0.6,0.8,0.6s3.3,1.6,5.1-1.3c1.8-2.9,0-5.6-1.8-6.4
						s-3.3,0-4.2,1.1c-0.8,1.1-1,3.4,0.8,4.7c1.4,1.1,2.8,0.2,3.3-0.5c0.5-0.7,0.5-2.1-0.5-2.7c-1.1-0.7-2-0.2-2-0.2l0.3-4.4
						c-0.2,0.1-0.8,0.5-1.7,0.5c1.2-3.1,3.1-5.6,3.1-9.1c0-3.1-2.8-4-2.8-4s2.5,1.4,2.4,4c-0.1,1.6-0.5,3-1.2,4.3
						c0-0.7-0.8-1.1-0.8-1.1s-1.8-0.9-3.2,1.4c-1.4,2.4,0.5,4.1,1.2,4.5c0.2,0.1,0.4,0.2,0.6,0.2c-0.4,1.3-0.6,2.7-0.6,4.5
						c0,0-0.2,1.4,0.5,3.1c-0.6,0.7-1.8,2.2-2.6,2.6c0.8,0.4,2.1,2.1,2.6,2.8c-0.7,1.7-0.5,3-0.5,3c0,1.8,0.2,3.2,0.6,4.4
						c-0.2,0.1-0.4,0.1-0.6,0.2c-0.7,0.4-2.6,2.2-1.2,4.5c1.4,2.4,3.2,1.4,3.2,1.4S515,197.1,515,196.4L515,196.4z M513.3,191.2
						L513.3,191.2c-0.5-1.3-0.8-2.7-0.8-4.4c0-1.4,0.2-2.5,0.6-3.3c0.4-0.5,1-0.9,1-0.9s3.2-1.6,4.8,1.2c1.7,2.8-0.4,5-0.9,5.4
						c-0.5,0.3-3.1,1.6-4.5-0.6c-1.5-2.5,0.8-4,0.8-4c1.3-1.1,2.7,0.4,2.7,0.4s0.9,1.5-0.3,2.2c-1.2,0.8-2.3-0.1-2.3-0.1l0.2,4.4
						C514.5,191.3,514,191.1,513.3,191.2L513.3,191.2z M513,178.3L513,178.3c-0.3-0.8-0.4-1.7-0.4-2.9c0-1.7,0.3-3.1,0.8-4.4
						c0.7,0.1,1.3-0.1,1.4-0.2l-0.2,4.4c0,0,1.2-0.9,2.3-0.1c1.2,0.8,0.3,2.2,0.3,2.2s-1.3,1.5-2.7,0.4c0,0-2.3-1.5-0.8-4
						c1.4-2.3,4-1,4.5-0.7s2.6,2.5,0.9,5.3c-1.6,2.8-4.8,1.2-4.8,1.2S513.3,178.8,513,178.3L513,178.3z M514.5,166.8L514.5,166.8
						c-0.8,0.9-2.3,1.3-3.7,0.4c-1.6-1-2.6-3.5-1.6-5.3c0.2-0.3,0.4-0.6,0.6-0.8c-1.7-1.5-1.7-3.2-1.7-3.2c-0.1-1.6,0.5-3.3,1.3-5.1
						c-0.8-0.6-1.6-0.7-1.6-0.7v-0.6c0,0,1,0,1.9,0.8c1.6-3,3.8-5.9,3.9-7.6c0-1-0.4-1.8-1.3-2s-3.1,1.3-3.9,4.1
						c-0.7,2.8,0.3,2.6,0.3,2.6c2,0,3.6-4.7,3.6-7.2c0.1-2.5-0.8-3.6-1.9-3.8c-1.1-0.1-1.6,1.7-1.6,1.7c0-2.2,1.5-2.2,1.5-2.2
						s2.6-0.1,2.6,4c-0.1,5.5-2.8,7.7-4,7.8s-1.1-1.3-1.1-1.3c0.3-5.9,4.5-6.1,4.5-6.1s1.5-0.2,1.6,2.3c0.1,2.4-2,5.4-3.7,8.2
						c0.2,0.3,0.4,0.6,0.6,1c1.9-3.2,4.9-7,4.9-11.1c0-3.9-1.8-4.9-3.2-4.9c-1.4,0-2.2,2-2.2,2c0.3-3.8,5.7-3.8,5.8,2.7
						c0.2,4.6-3.1,8.8-5,12.1c0.1,0.3,0.2,0.7,0.2,1.1c0,0,0.3,1.8-0.5,3.1c0,0,1.1-0.4,2.1,0.3c1,0.7,1.3,2.1,0.8,3
						c-0.6,0.9-1.6,1.5-2.6,0.7c-1-0.8-0.5-1.8-0.5-1.8s-0.7,0-1.2,0.9c-0.5,0.9-0.6,3.5,1.4,4.9c2,1.4,3.5-0.7,3.5-0.7
						s0.4-0.9-0.7-1.2c-1.1-0.2-2,0.3-2.6,1.6c-0.6,1.2-0.2,3.1,1.2,3.7c0.2,0.1,0.3,0.1,0.5,0.2C513.3,169.1,514,167.9,514.5,166.8
						L514.5,166.8z M510,161.1L510,161.1c-0.1-0.4-0.3-1.5-0.1-3c0.1-0.9,0.5-1.8,1.2-2.9c0.6,2.4-0.8,4.5-0.8,4.5s1.7-1,2.7-0.2
						c0.9,0.8,1.4,1.8,0.7,2.9c-0.9,1.3-2,0.4-2,0.4s-1.1-0.5,0.1-1.9C511.6,160.8,510.8,160.4,510,161.1L510,161.1z M510.7,154.3
						L510.7,154.3c-0.8,1.3-1.3,2.6-1.3,3.7l0.1,2c0,0-0.8-0.6-0.9-2.4c0-1.3,0.6-2.7,1.5-4.3C510.4,153.6,510.6,153.9,510.7,154.3
						L510.7,154.3z M512.8,178.8L512.8,178.8c0.4,0.8,0.9,1.5,1.8,2.3c-0.9,0.8-1.5,1.6-1.8,2.3c-0.2-0.3-1.3-1.8-2.2-2.3
						C511.4,180.6,512.5,179.2,512.8,178.8z"/>
				</g>
			</g>
		</g>
	</g>
</g>
</svg>
