<?xml version="1.0" encoding="utf-8"?>
<!-- Generator: Adobe Illustrator 18.1.1, SVG Export Plug-In . SVG Version: 6.00 Build 0)  -->
<svg version="1.1" id="Laag_1" xmlns="http://www.w3.org/2000/svg" xmlns:xlink="http://www.w3.org/1999/xlink" x="0px" y="0px"
	 viewBox="0 0 96.1 45.3" enable-background="new 0 0 96.1 45.3" xml:space="preserve">
<g>
	<g>
		<path fill="#FFFFFF" d="M13.8,0.1C5,0.1,0,9.4,0,22.6c0,13.3,4.4,22.7,13.2,22.7c7.8,0,13.6-6.6,13.6-23.2
			C26.8,10.2,23.2,0.1,13.8,0.1z M13.6,39.2c-4.5,0-6.3-6.9-6.3-16.5c0-9.2,1.8-16.5,6.2-16.5c4.7,0,6,8.3,6,16.3
			C19.5,31.3,18.1,39.2,13.6,39.2z M87.7,0.6h-8.2l-9.8,44.2c-0.7-1.5-1.8-6.2-2.7-11.6c-0.9-5.2-2.5-8.2-5.6-9.3v-0.1
			c4.5-2,7-6,7-11.2c0-3.7-0.9-6.6-3.3-9c-2.6-2.4-6.4-3.2-11-3.2c-3,0-6,0.3-8.5,0.9c0,0,0,20.4,0,29.1c0,9.5-3.6,14.4-3.6,14.4
			h7.3c0,0,3.2-4.7,3.2-14.3c0-2.5,0-4.1,0-4.1h1.6c3.5,0,5.1,1.9,6,7.6c0.8,5.2,1.7,9.5,2.3,10.8h14.1l2.4-11.5h8.8L90,44.8h6.8
			L87.7,0.6z M54.4,21h-1.8V6.2C53.1,6,54,5.9,54.9,5.9c4.6,0.1,6.3,3,6.3,7.3C61.2,17.8,58.6,21,54.4,21z M79.7,27.8l2-10.2
			c0.5-2.8,1.2-7,1.6-10h0.2c0.5,3.1,1.1,7.1,1.6,10l1.8,10.2H79.7z M35.7,23.5l-5-6.3c0,10.1,1,19.1-5.1,27.6h10.2
			c5.5-8.7,5-18.1,5-27.6L35.7,23.5z M30.7,9.9l5,7.6l5-7.6l-2.5,0c0-3.1,0.2-6.2-2.9-9.9h-5.8c3.3,3.5,4,6.9,4,9.9H30.7z"/>
	</g>
</g>
</svg>
