<?xml version="1.0" encoding="UTF-8"?>
<svg id="OSHA" xmlns="http://www.w3.org/2000/svg" viewBox="0 0 844.24 277.76">
  <defs>
    <style>
      .cls-1 {
        fill: #039;
      }

      .cls-2 {
        fill: #fff;
      }

      .cls-3 {
        fill: #b1b3b4;
      }

      .cls-4 {
        fill: #58585a;
      }
    </style>
  </defs>
  <g id="EN">
    <path class="cls-1" d="M226.39,36.1h-17.23v25.8h19.58v6.83h-27.43V0h26.21v6.83h-18.35v22.64h17.23v6.63Z"/>
    <path class="cls-1" d="M264.65,55.27c0,5.51.31,9.79.41,13.46h-6.83l-.51-5.2h-.2c-1.53,2.45-5.3,6.02-10.61,6.02-8.67,0-12.03-6.73-12.03-18.97v-31.2h7.85v30.08c0,7.75,1.22,13.46,6.63,13.46,4.59,0,6.63-4.28,7.04-6.53.31-1.33.41-2.86.41-4.49V19.38h7.85v35.9Z"/>
    <path class="cls-1" d="M274.71,32.12c0-4.18-.31-9.08-.41-12.75h7.04l.41,7.75h.2c1.63-4.69,5.81-8.57,10.4-8.57.61,0,1.12.1,1.63.1v8.06c-.51-.1-1.02-.1-1.63-.1-5,0-8.67,4.59-9.48,10.3-.2,1.33-.31,2.85-.31,4.49v27.33h-7.85v-36.61Z"/>
    <path class="cls-1" d="M329.77,44.05c0,19.07-8.87,25.49-16.42,25.49-8.87,0-16.01-8.06-16.01-25.39s8.06-25.6,16.52-25.6,15.91,8.26,15.91,25.49ZM305.2,44.05c0,8.16,1.43,19.27,8.57,19.27,6.73,0,8.06-11.62,8.06-19.27s-1.33-19.17-8.26-19.17-8.36,11.62-8.36,19.17Z"/>
    <path class="cls-1" d="M337.7,34.77c0-7.55-.31-11.93-.41-15.4h7.04l.41,6.32h.2c2.65-5.3,6.53-7.14,10.4-7.14,8.57,0,14.28,9.18,14.28,25.39,0,18.25-7.55,25.6-15.3,25.6-4.59,0-7.24-2.96-8.57-5.71h-.2v24.47h-7.85v-53.54ZM345.55,50.58c0,1.53,0,2.96.31,4.08,1.53,7.04,5.1,8.36,7.24,8.36,6.53,0,8.57-8.97,8.57-18.97s-2.45-18.76-8.67-18.76c-3.57,0-6.73,4.49-7.24,8.97-.2,1.22-.2,2.45-.2,3.77v12.54Z"/>
    <path class="cls-1" d="M383.54,44.77c.1,15.09,6.02,18.36,11.73,18.36,3.37,0,6.22-.82,8.16-1.94l1.22,5.81c-2.75,1.53-6.93,2.35-10.81,2.35-11.83,0-17.95-9.69-17.95-24.78,0-16.01,6.73-26,16.62-26s14.07,10.61,14.07,21.82c0,1.84,0,3.16-.1,4.39h-22.94ZM399.04,38.95c.2-9.89-3.57-14.28-7.34-14.28-5.1,0-7.75,7.55-8.06,14.28h15.4Z"/>
    <path class="cls-1" d="M440.04,57.51c0,3.77,0,8.06.51,11.22h-7.14l-.51-5.2h-.31c-2.14,3.77-5.61,6.02-9.79,6.02-6.63,0-11.73-5.61-11.73-14.07,0-12.34,9.89-17.85,21.01-17.95v-1.53c0-6.63-1.63-11.22-7.85-11.22-3.06,0-5.81,1.02-8.16,2.55l-1.73-5.51c2.04-1.53,6.63-3.26,11.52-3.26,9.89,0,14.17,6.53,14.17,17.64v21.31ZM432.29,43.24c-4.08,0-13.56.71-13.56,11.42,0,6.42,3.26,8.77,6.02,8.77,3.47,0,6.42-2.55,7.34-7.44.2-.92.2-1.94.2-2.75v-9.99Z"/>
    <path class="cls-1" d="M449.89,32.12c0-5.81-.31-8.77-.41-12.75h6.83l.41,5.91h.2c2.14-3.98,6.12-6.73,11.32-6.73,6.83,0,11.93,5.1,11.93,17.03v33.14h-7.85v-31.82c0-5.81-1.12-11.73-6.83-11.73-3.26,0-6.42,2.75-7.44,8.06-.2,1.22-.31,2.75-.31,4.39v31.1h-7.85v-36.61Z"/>
    <path class="cls-1" d="M517.29,48.13l-4.59,20.6h-7.55L520.86,0h8.67l15.3,68.73h-7.75l-4.59-20.6h-15.19ZM531.46,41.81l-3.57-17.44c-1.02-4.89-1.94-10.61-2.75-15.7h-.41c-.82,5.2-1.83,11.12-2.75,15.7l-3.57,17.44h13.05Z"/>
    <path class="cls-1" d="M580.51,62.41c0,12.95-1.63,17.85-4.89,21.41-2.96,3.37-7.65,5.3-13.16,5.3-4.18,0-8.26-1.02-10.81-2.45l1.83-6.12c1.94,1.02,5.2,2.14,9.18,2.14,6.22,0,10.1-3.88,10.1-15.09v-5h-.2c-1.73,3.88-5.3,6.02-9.48,6.02-8.77,0-14.48-9.89-14.48-24.37,0-18.15,8.26-25.7,15.5-25.7,5.3,0,7.75,3.47,9.18,6.42h.2l.41-5.61h7.04c-.1,3.47-.41,7.85-.41,15.4v27.64ZM572.76,36.41c0-1.22-.1-2.55-.41-3.57-.92-3.37-2.65-7.55-7.14-7.55-5.71,0-8.77,7.65-8.77,18.56,0,12.65,3.98,18.36,8.77,18.36,2.34,0,5.4-1.12,7.04-7.04.41-1.53.51-3.06.51-4.49v-14.28Z"/>
    <path class="cls-1" d="M596.13,44.77c.1,15.09,6.02,18.36,11.73,18.36,3.37,0,6.22-.82,8.16-1.94l1.22,5.81c-2.75,1.53-6.93,2.35-10.81,2.35-11.83,0-17.95-9.69-17.95-24.78,0-16.01,6.73-26,16.62-26s14.07,10.61,14.07,21.82c0,1.84,0,3.16-.1,4.39h-22.94ZM611.63,38.95c.2-9.89-3.57-14.28-7.34-14.28-5.1,0-7.75,7.55-8.06,14.28h15.4Z"/>
    <path class="cls-1" d="M626.65,32.12c0-5.81-.31-8.77-.41-12.75h6.83l.41,5.91h.2c2.14-3.98,6.12-6.73,11.32-6.73,6.83,0,11.93,5.1,11.93,17.03v33.14h-7.85v-31.82c0-5.81-1.12-11.73-6.83-11.73-3.26,0-6.42,2.75-7.44,8.06-.2,1.22-.31,2.75-.31,4.39v31.1h-7.85v-36.61Z"/>
    <path class="cls-1" d="M690.94,67.51c-1.73,1.02-4.69,1.84-8.16,1.84-10.81,0-18.05-8.67-18.05-24.98,0-14.17,7.14-25.7,19.48-25.7,2.65,0,5.51.71,6.93,1.53l-1.53,6.42c-1.02-.51-3.06-1.33-5.61-1.33-7.85,0-11.42,9.38-11.42,19.07,0,11.52,4.39,18.46,11.62,18.46,2.14,0,3.88-.51,5.71-1.33l1.02,6.02Z"/>
    <path class="cls-1" d="M703.59,19.38l6.53,28.35c.92,3.88,1.43,7.14,2.04,10.2h.2c.51-2.75,1.33-6.53,2.14-10.1l5.81-28.45h7.75l-8.06,31.71c-3.06,12.44-6.42,24.37-12.24,31.82-3.47,4.39-7.14,6.73-8.87,7.55l-2.86-6.73c2.24-1.22,4.69-3.37,6.93-6.22,2.04-2.55,3.67-5.91,4.49-8.26.41-1.22.51-1.73.51-2.45,0-.61,0-1.22-.2-1.84l-12.44-45.58h8.26Z"/>
    <path class="cls-1" d="M202.32,171.51v-43.34h-6.22v-6.02h6.22v-2.96c0-5.3.82-10.81,4.38-14.89,2.86-3.16,6.83-4.18,9.89-4.18,2.65,0,4.69.51,6.12,1.22l-1.33,6.12c-.92-.41-2.24-.82-4.28-.82-5.61,0-6.93,6.02-6.93,12.44v3.06h8.97v6.02h-8.97v43.34h-7.85Z"/>
    <path class="cls-1" d="M254.06,146.84c0,19.07-8.87,25.49-16.42,25.49-8.87,0-16.01-8.06-16.01-25.39s8.06-25.59,16.52-25.59,15.91,8.26,15.91,25.49ZM229.49,146.84c0,8.16,1.43,19.27,8.57,19.27,6.73,0,8.06-11.62,8.06-19.27s-1.33-19.17-8.26-19.17-8.36,11.62-8.36,19.17Z"/>
    <path class="cls-1" d="M261.98,134.9c0-4.18-.31-9.08-.41-12.75h7.04l.41,7.75h.2c1.63-4.69,5.81-8.57,10.4-8.57.61,0,1.12.1,1.63.1v8.06c-.51-.1-1.02-.1-1.63-.1-5,0-8.67,4.59-9.48,10.3-.2,1.33-.31,2.85-.31,4.49v27.33h-7.85v-36.61Z"/>
    <path class="cls-1" d="M303.69,162.44c2.35,1.53,6.42,2.75,9.89,2.75,7.14,0,11.42-4.69,11.42-11.62,0-6.32-3.67-10.2-9.08-14.28-5.4-3.77-12.95-10.2-12.95-19.07,0-10.4,7.24-18.05,18.15-18.05,4.28,0,8.06,1.33,9.69,2.55l-1.94,6.73c-1.73-1.22-4.59-2.35-8.16-2.35-6.73,0-9.89,5.1-9.89,9.79,0,6.83,3.57,9.48,10.1,14.17,8.26,5.81,11.93,12.14,11.93,19.78,0,11.83-8.36,19.27-19.27,19.27-4.69,0-9.69-1.53-11.62-2.96l1.73-6.73Z"/>
    <path class="cls-1" d="M367.56,160.3c0,3.77,0,8.06.51,11.22h-7.14l-.51-5.2h-.31c-2.14,3.77-5.61,6.02-9.79,6.02-6.63,0-11.73-5.61-11.73-14.07,0-12.34,9.89-17.85,21.01-17.95v-1.53c0-6.63-1.63-11.22-7.85-11.22-3.06,0-5.81,1.02-8.16,2.55l-1.73-5.51c2.04-1.53,6.63-3.26,11.52-3.26,9.89,0,14.17,6.53,14.17,17.64v21.31ZM359.81,146.02c-4.08,0-13.56.71-13.56,11.42,0,6.42,3.26,8.77,6.02,8.77,3.47,0,6.42-2.55,7.34-7.44.2-.92.2-1.94.2-2.75v-9.99Z"/>
    <path class="cls-1" d="M379.19,171.51v-43.34h-6.22v-6.02h6.22v-2.96c0-5.3.82-10.81,4.38-14.89,2.86-3.16,6.83-4.18,9.89-4.18,2.65,0,4.69.51,6.12,1.22l-1.33,6.12c-.92-.41-2.24-.82-4.28-.82-5.61,0-6.93,6.02-6.93,12.44v3.06h8.97v6.02h-8.97v43.34h-7.85Z"/>
    <path class="cls-1" d="M406.04,147.55c.1,15.09,6.02,18.36,11.73,18.36,3.37,0,6.22-.82,8.16-1.94l1.22,5.81c-2.75,1.53-6.93,2.35-10.81,2.35-11.83,0-17.95-9.69-17.95-24.78,0-16.01,6.73-26,16.62-26s14.07,10.61,14.07,21.82c0,1.83,0,3.16-.1,4.38h-22.94ZM421.54,141.74c.2-9.89-3.57-14.28-7.34-14.28-5.1,0-7.75,7.55-8.06,14.28h15.4Z"/>
    <path class="cls-1" d="M446.8,110.63v11.52h9.48v6.02h-9.48v29.27c0,6.42,2.35,8.16,5.2,8.16,1.22,0,2.24-.1,3.16-.31l.31,6.02c-1.43.51-3.26.82-5.81.82-3.06,0-5.81-.82-7.75-2.96-1.94-2.24-2.96-5.61-2.96-12.44v-28.55h-6.02v-6.02h6.02v-8.36l7.85-3.16Z"/>
    <path class="cls-1" d="M468.98,122.16l6.53,28.35c.92,3.88,1.43,7.14,2.04,10.2h.2c.51-2.75,1.33-6.53,2.14-10.1l5.81-28.45h7.75l-8.06,31.71c-3.06,12.44-6.42,24.37-12.24,31.82-3.47,4.38-7.14,6.73-8.87,7.54l-2.86-6.73c2.24-1.22,4.69-3.37,6.93-6.22,2.04-2.55,3.67-5.91,4.49-8.26.41-1.22.51-1.73.51-2.45,0-.61,0-1.22-.2-1.84l-12.44-45.58h8.26Z"/>
    <path class="cls-1" d="M543.52,160.3c0,3.77,0,8.06.51,11.22h-7.14l-.51-5.2h-.31c-2.14,3.77-5.61,6.02-9.79,6.02-6.63,0-11.73-5.61-11.73-14.07,0-12.34,9.89-17.85,21.01-17.95v-1.53c0-6.63-1.63-11.22-7.85-11.22-3.06,0-5.81,1.02-8.16,2.55l-1.73-5.51c2.04-1.53,6.63-3.26,11.52-3.26,9.89,0,14.17,6.53,14.17,17.64v21.31ZM535.77,146.02c-4.08,0-13.56.71-13.56,11.42,0,6.42,3.26,8.77,6.02,8.77,3.47,0,6.42-2.55,7.34-7.44.2-.92.2-1.94.2-2.75v-9.99Z"/>
    <path class="cls-1" d="M553.37,134.9c0-5.81-.31-8.77-.41-12.75h6.83l.41,5.91h.2c2.14-3.98,6.12-6.73,11.32-6.73,6.83,0,11.93,5.1,11.93,17.03v33.14h-7.85v-31.82c0-5.81-1.12-11.73-6.83-11.73-3.26,0-6.42,2.75-7.44,8.06-.2,1.22-.31,2.75-.31,4.39v31.1h-7.85v-36.61Z"/>
    <path class="cls-1" d="M623.58,100.95v58.74c0,3.37.31,8.97.41,11.83h-6.73l-.51-6.22h-.31c-1.63,3.57-5.1,7.04-10.3,7.04-8.36,0-14.38-9.08-14.38-25.29,0-17.54,7.24-25.7,14.89-25.7,3.57,0,7.04,1.73,8.97,5.91h.2v-26.31h7.75ZM615.83,140.92c0-1.02,0-2.14-.1-3.26-.51-5.1-3.57-9.59-7.34-9.59-6.53,0-8.77,9.08-8.77,18.97,0,10.4,2.65,18.76,8.36,18.76,2.45,0,5.81-1.32,7.55-8.46.2-.92.31-2.04.31-3.26v-13.15Z"/>
    <path class="cls-1" d="M660.28,102.78v29.47h19.27v-29.47h7.85v68.73h-7.85v-32.12h-19.27v32.12h-7.85v-68.73h7.85Z"/>
    <path class="cls-1" d="M703.62,147.55c.1,15.09,6.02,18.36,11.73,18.36,3.37,0,6.22-.82,8.16-1.94l1.22,5.81c-2.75,1.53-6.93,2.35-10.81,2.35-11.83,0-17.95-9.69-17.95-24.78,0-16.01,6.73-26,16.62-26s14.07,10.61,14.07,21.82c0,1.83,0,3.16-.1,4.38h-22.94ZM719.12,141.74c.2-9.89-3.57-14.28-7.34-14.28-5.1,0-7.75,7.55-8.06,14.28h15.4Z"/>
    <path class="cls-1" d="M760.12,160.3c0,3.77,0,8.06.51,11.22h-7.14l-.51-5.2h-.31c-2.14,3.77-5.61,6.02-9.79,6.02-6.63,0-11.73-5.61-11.73-14.07,0-12.34,9.89-17.85,21.01-17.95v-1.53c0-6.63-1.63-11.22-7.85-11.22-3.06,0-5.81,1.02-8.16,2.55l-1.73-5.51c2.04-1.53,6.63-3.26,11.52-3.26,9.89,0,14.17,6.53,14.17,17.64v21.31ZM752.37,146.02c-4.08,0-13.56.71-13.56,11.42,0,6.42,3.26,8.77,6.02,8.77,3.47,0,6.42-2.55,7.34-7.44.2-.92.2-1.94.2-2.75v-9.99Z"/>
    <path class="cls-1" d="M770.01,100.95h7.85v70.57h-7.85v-70.57Z"/>
    <path class="cls-1" d="M798.16,110.63v11.52h9.48v6.02h-9.48v29.27c0,6.42,2.35,8.16,5.2,8.16,1.22,0,2.24-.1,3.16-.31l.31,6.02c-1.43.51-3.26.82-5.81.82-3.06,0-5.81-.82-7.75-2.96-1.94-2.24-2.96-5.61-2.96-12.44v-28.55h-6.02v-6.02h6.02v-8.36l7.85-3.16Z"/>
    <path class="cls-1" d="M813.96,100.95h7.85v26.51h.2c1.02-1.73,2.55-3.26,4.08-4.28,1.84-1.12,3.77-1.84,6.63-1.84,6.22,0,11.52,5,11.52,17.44v32.73h-7.85v-31.82c0-6.02-1.33-11.73-6.63-11.73-3.67,0-6.42,2.65-7.65,7.85-.2,1.12-.31,2.55-.31,3.77v31.92h-7.85v-70.57Z"/>
    <path class="cls-1" d="M226.8,263.08c0,3.77,0,8.05.51,11.22h-7.14l-.51-5.2h-.31c-2.14,3.77-5.61,6.02-9.79,6.02-6.63,0-11.73-5.61-11.73-14.07,0-12.34,9.89-17.85,21.01-17.95v-1.53c0-6.63-1.63-11.22-7.85-11.22-3.06,0-5.81,1.02-8.16,2.55l-1.73-5.51c2.04-1.53,6.63-3.26,11.52-3.26,9.89,0,14.17,6.53,14.17,17.64v21.31ZM219.04,248.8c-4.08,0-13.56.71-13.56,11.42,0,6.42,3.26,8.77,6.02,8.77,3.47,0,6.42-2.55,7.34-7.45.2-.92.2-1.94.2-2.75v-9.99Z"/>
    <path class="cls-1" d="M246.21,213.42v11.52h9.48v6.02h-9.48v29.27c0,6.42,2.35,8.16,5.2,8.16,1.22,0,2.24-.1,3.16-.31l.31,6.02c-1.43.51-3.26.82-5.81.82-3.06,0-5.81-.82-7.75-2.96-1.94-2.24-2.96-5.61-2.96-12.44v-28.55h-6.02v-6.02h6.02v-8.36l7.85-3.16Z"/>
    <path class="cls-1" d="M289.14,274.3l-13.26-68.73h8.16l5.81,33.14c1.43,8.67,2.55,16.32,3.37,24.78h.41c.82-8.67,2.45-16.11,4.08-24.88l6.32-33.04h6.73l6.32,32.32c1.53,8.16,3.06,16.01,3.98,25.6h.31c1.12-9.89,2.35-17.44,3.67-25.19l5.71-32.73h7.65l-13.36,68.73h-7.65l-6.63-33.45c-1.33-7.24-2.65-14.99-3.47-22.54h-.2c-1.02,7.75-2.14,15.19-3.77,22.84l-6.83,33.14h-7.34Z"/>
    <path class="cls-1" d="M372.91,249.62c0,19.07-8.87,25.49-16.42,25.49-8.87,0-16.01-8.05-16.01-25.39s8.06-25.6,16.52-25.6,15.91,8.26,15.91,25.49ZM348.33,249.62c0,8.16,1.43,19.27,8.57,19.27,6.73,0,8.06-11.62,8.06-19.27s-1.33-19.17-8.26-19.17-8.36,11.62-8.36,19.17Z"/>
    <path class="cls-1" d="M380.83,237.69c0-4.18-.31-9.08-.41-12.75h7.04l.41,7.75h.2c1.63-4.69,5.81-8.57,10.4-8.57.61,0,1.12.1,1.63.1v8.06c-.51-.1-1.02-.1-1.63-.1-5,0-8.67,4.59-9.48,10.3-.2,1.33-.31,2.86-.31,4.49v27.33h-7.85v-36.61Z"/>
    <path class="cls-1" d="M413.86,247.88h.2c.92-1.94,1.73-3.88,2.65-5.51l9.79-17.44h8.46l-13.05,20.8,14.17,28.55h-8.77l-10.71-23.25-2.75,4.59v18.66h-7.85v-70.57h7.85v44.15Z"/>
  </g>
  <path class="cls-2" d="M148.84,102.88l9.41,34.29c-34.29,34.54-77.36,73.48-126.39,73.48-45.38,0-33.13-38.71-2.94-73.48,0,0-33.69,52.91-1.96,52.91,41.88,0,85.36-41.66,121.88-87.2M149.71,98.66l-2.4,2.99c-21.14,26.35-40.31,46.09-58.6,60.35-22.23,17.32-43.01,26.11-61.75,26.11-5.25,0-8.62-1.5-10.32-4.58-5.67-10.33,8.13-36.21,13.93-45.31,0,0,.48-.72,2.06-3.36l-1.14-3.44c-1.74,1.89-4.04,4.46-4.04,4.46C5.12,161.58-4.41,185.22,1.92,199.11c4.09,8.96,14.16,13.5,29.93,13.5,22.51,0,45.34-7.89,69.8-24.12,21.65-14.36,41.46-33.3,57.97-49.94l.8-.8-10.72-39.09h0Z"/>
  <g>
    <path class="cls-2" d="M114.19,41.21c-12.44,0-27.08,6.94-34.33,17.58,10.95-7.26,17.56-10.13,22.3-10.13,2.73,0,4.83.95,6.8,2.55,7.16,5.82,1.57,27.42-34.98,62.05l20.18,16.85c15.06-17.27,46.28-53.35,40.4-75.17-2.59-9.64-10.84-13.73-20.38-13.73Z"/>
    <path class="cls-2" d="M136.46,54.43c-2.6-9.65-10.71-15.18-22.27-15.18h0s0,0,0,0h0c-13.56,0-28.67,7.75-35.94,18.43,0,0-.19.27-.51.8-.14,1.54-.18,2.99-.13,4.45,2.33-1.82,3.34-2.51,3.34-2.51,10.22-6.78,16.76-9.8,21.21-9.8,2.06,0,3.77.65,5.56,2.11,1.22.99,1.88,2.63,1.97,4.87.16,4.33-2.03,21.05-37.06,54.24l-1.6,1.52,23.52,19.5,1.22-1.45c12.05-13.81,21.89-25.07,28.55-35.8,10.75-17.32,14.83-31.18,12.14-41.18ZM94.17,130.11l-20.18-16.85c36.55-34.64,42.13-56.23,34.98-62.05-1.97-1.6-4.08-2.55-6.8-2.55-4.74,0-11.34,2.86-22.3,10.13,7.24-10.64,21.89-17.58,34.33-17.58,9.54,0,17.79,4.09,20.38,13.73,5.87,21.82-25.34,57.91-40.4,75.17Z"/>
  </g>
  <path class="cls-4" d="M82.51,102.03c-9.09-26.19-13.05-55.74,12.05-99.09h-4.61c-25.07,44.94-19.77,74.88-10.24,101.97.96-.97,1.89-1.93,2.8-2.88Z"/>
  <path class="cls-4" d="M97.31,154.93c1.14-.98,2.29-1.99,3.44-3.01-1.26-4.15-2.53-8.09-3.74-11.82-.79-2.42-1.56-4.85-2.45-7.25l-6.27-5.19c1.16,3.13,2.31,6.34,3.33,9.5,1.78,5.48,3.77,11.4,5.69,17.76Z"/>
  <path class="cls-4" d="M104.61,186.48c3.62,24.75,2.33,54.06-12.99,87.84h-38.66c-.49,1.14-.99,2.28-1.51,3.43h43.11c16.51-36.4,17.62-67.78,13.68-93.82-1.2.86-2.41,1.71-3.63,2.55Z"/>
  <path class="cls-3" d="M60.39,179.83c9.12-4.29,18.58-10.24,28.31-17.82,2.85-2.22,5.72-4.58,8.61-7.07-1.92-6.36-3.91-12.29-5.69-17.76-1.03-3.16-2.17-6.38-3.33-9.5l-15.56-12.9-1.69-1.41,1.6-1.52c2.53-2.4,4.88-4.7,7.08-6.93C69.97,77.24,64.65,46.59,91.62,0h-43.11c-37.65,65.02-12.39,98.99,0,137.17,3.91,12.06,8.85,26.3,11.88,42.66Z"/>
  <path class="cls-3" d="M101.66,188.49c-13.23,8.78-25.99,15.12-38.48,19.08.22,19.85-3.49,42.11-14.67,66.75h43.11c15.32-33.79,16.61-63.09,12.99-87.84-.98.67-1.96,1.35-2.95,2.01Z"/>
  <path class="cls-1" d="M134.57,54.94c-2.59-9.64-10.84-13.73-20.38-13.73-12.44,0-27.08,6.94-34.33,17.58,10.95-7.26,17.56-10.13,22.3-10.13,2.73,0,4.83.95,6.8,2.55,7.16,5.82,1.57,27.42-34.98,62.05l20.18,16.85c15.06-17.27,46.28-53.35,40.4-75.17Z"/>
  <path class="cls-1" d="M31.86,210.65c49.03,0,92.1-38.95,126.39-73.48l-9.41-34.29c-36.52,45.53-80,87.2-121.88,87.2-31.73,0,1.96-52.91,1.96-52.91-30.19,34.77-42.44,73.48,2.94,73.48Z"/>
</svg>