<svg xmlns="http://www.w3.org/2000/svg" viewBox="0 0 800 400">
<path fill="#d20000" d="m0,0h800v400h-800z"/>
<g fill="#ffe600">
<path d="M0,0 120,0 680,400 800,400 0,0z" transform="translate(0 .00001)"/>
<path d="m360,0 80,0-80,400 80,0-80-400z" transform="translate(0 .00001)"/>
<path d="M680,0 800,0 0,400 120,400 680,0z" transform="translate(0 .00001)"/>
<path d="m0,160 0,80 800-80 0,80-800-80z" transform="translate(0 .00001)"/>
</g>
<circle fill="#d20000" cx="400" cy="200" r="60" transform="matrix(1.19048 0 0 1.19048 -76.19052 -38.09524)"/>
<circle fill="#ffe600" cx="400" cy="200" r="50" transform="matrix(1.14286 0 0 1.14286 -57.14286 -28.57141)"/>
</svg>
