<svg xmlns="http://www.w3.org/2000/svg" viewBox="0 0 744.156 496.1254" xmlns:xlink="http://www.w3.org/1999/xlink">
<defs>
<linearGradient id="linearGradient561" x1="0" gradientUnits="objectBoundingBox" x2="1">
<stop offset="0"/>
<stop offset="1" stop-color="#fff"/>
</linearGradient>
<linearGradient gradientTransform="scale(.77466 1.29089)" id="linearGradient564" xlink:href="#linearGradient561" x1="359.593" gradientUnits="userSpaceOnUse" x2="4203.371"/>
</defs>
<g stroke-width="1.25" transform="matrix(.10009 0 0 .09987 -27.88083 649.1543)">
<path fill="#090" stroke="url(#linearGradient564)" d="m279.188-6499.49h2976.382v4960.63h-2976.382z"/>
<path fill="#f00" fill-rule="evenodd" d="m3249.01-6492.94h4464.57v4960.63h-4464.57z"/>
</g>
<g fill-rule="evenodd" stroke-width="1.25" transform="matrix(-.00535 .10777 .044 -.00435 272.87931 24.7841)">
<path d="m1528.25,376.913h171.54v2824.157h-171.54z"/>
<path fill="#efef00" d="m1548.33,404.601h131.38v2768.789h-131.38z"/>
</g>
<g fill-rule="evenodd" stroke-width="1.25" transform="matrix(-.00535 .10777 .044 -.00435 272.82915 25.79543)">
<path d="m1482.65,357.957h56.3v2852.693h-56.3z"/>
<path fill="#efef00" d="m1502.82,383.294h15.96v2802.016h-15.96z"/>
</g>
<g fill-rule="evenodd" stroke-width="1.25" transform="matrix(-.00535 .10777 .044 -.00435 271.82601 46.02195)">
<path d="m1482.65,357.957h56.3v2852.693h-56.3z"/>
<path fill="#efef00" d="m1502.82,383.294h15.96v2802.016h-15.96z"/>
</g>
<g fill-rule="evenodd" stroke-width="1.25" transform="matrix(-.00535 .10777 .044 -.00435 291.66352 83.82433)">
<path d="m1528.25,376.913h171.54v2824.157h-171.54z"/>
<path fill="#efef00" d="m1548.33,404.601h131.38v2768.789h-131.38z"/>
</g>
<g fill-rule="evenodd" stroke-width="1.25" transform="matrix(-.00535 .10777 .044 -.00435 291.61336 84.83565)">
<path d="m1482.65,357.957h56.3v2852.693h-56.3z"/>
<path fill="#efef00" d="m1502.82,383.294h15.96v2802.016h-15.96z"/>
</g>
<g fill-rule="evenodd" stroke-width="1.25" transform="matrix(-.00535 .10777 .044 -.00435 290.61022 105.06217)">
<path d="m1482.65,357.957h56.3v2852.693h-56.3z"/>
<path fill="#efef00" d="m1502.82,383.294h15.96v2802.016h-15.96z"/>
</g>
<g fill-rule="evenodd" stroke-width="1.25" transform="matrix(-.00535 .10777 .044 -.00435 284.14982 150.36174)">
<path d="m1528.25,376.913h171.54v2824.157h-171.54z"/>
<path fill="#efef00" d="m1548.33,404.601h131.38v2768.789h-131.38z"/>
</g>
<g fill-rule="evenodd" stroke-width="1.25" transform="matrix(-.00535 .10777 .044 -.00435 284.09966 151.37306)">
<path d="m1482.65,357.957h56.3v2852.693h-56.3z"/>
<path fill="#efef00" d="m1502.82,383.294h15.96v2802.016h-15.96z"/>
</g>
<g fill-rule="evenodd" stroke-width="1.25" transform="matrix(-.00535 .10777 .044 -.00435 283.09652 171.59959)">
<path d="m1482.65,357.957h56.3v2852.693h-56.3z"/>
<path fill="#efef00" d="m1502.82,383.294h15.96v2802.016h-15.96z"/>
</g>
<g fill-rule="evenodd" stroke-width="1.25" transform="matrix(.00535 .10777 -.044 -.00435 315.92225 145.67601)">
<path d="m1528.25,376.913h171.54v2824.157h-171.54z"/>
<path fill="#efef00" d="m1548.33,404.601h131.38v2768.789h-131.38z"/>
</g>
<g fill-rule="evenodd" stroke-width="1.25" transform="matrix(.00535 .10777 -.044 -.00435 315.97241 146.68733)">
<path d="m1482.65,357.957h56.3v2852.693h-56.3z"/>
<path fill="#efef00" d="m1502.82,383.294h15.96v2802.016h-15.96z"/>
</g>
<g fill-rule="evenodd" stroke-width="1.25" transform="matrix(.00535 .10777 -.044 -.00435 316.97555 166.91386)">
<path d="m1482.65,357.957h56.3v2852.693h-56.3z"/>
<path fill="#efef00" d="m1502.82,383.294h15.96v2802.016h-15.96z"/>
</g>
<g fill-rule="evenodd" stroke-width="1.25" transform="matrix(-.03188 .09718 -.04692 -.00499 365.24191 108.61864)">
<path d="m1528.25,376.913h171.54v2824.157h-171.54z"/>
<path fill="#efef00" d="m1548.33,404.601h131.38v2768.789h-131.38z"/>
</g>
<g fill-rule="evenodd" stroke-width="1.25" transform="matrix(-.03188 .09718 -.04692 -.00499 364.94276 109.5306)">
<path d="m1482.65,357.957h56.3v2852.693h-56.3z"/>
<path fill="#efef00" d="m1502.82,383.294h15.96v2802.016h-15.96z"/>
</g>
<g fill-rule="evenodd" stroke-width="1.25" transform="matrix(-.03188 .09718 -.04692 -.00499 358.95971 127.76973)">
<path d="m1482.65,357.957h56.3v2852.693h-56.3z"/>
<path fill="#efef00" d="m1502.82,383.294h15.96v2802.016h-15.96z"/>
</g>
<g fill-rule="evenodd" stroke-width="1.25" transform="matrix(-.07856 .08314 -.03451 -.02355 415.62141 134.4175)">
<path d="m1528.25,376.913h171.54v2824.157h-171.54z"/>
<path fill="#efef00" d="m1548.33,404.601h131.38v2768.789h-131.38z"/>
</g>
<g fill-rule="evenodd" stroke-width="1.25" transform="matrix(-.07856 .08314 -.03451 -.02355 414.88417 135.19765)">
<path d="m1482.65,357.957h56.3v2852.693h-56.3z"/>
<path fill="#efef00" d="m1502.82,383.294h15.96v2802.016h-15.96z"/>
</g>
<g fill-rule="evenodd" stroke-width="1.25" transform="matrix(-.07856 .08314 -.03451 -.02355 400.13944 150.80065)">
<path d="m1482.65,357.957h56.3v2852.693h-56.3z"/>
<path fill="#efef00" d="m1502.82,383.294h15.96v2802.016h-15.96z"/>
</g>
<g fill-rule="evenodd" stroke-width="1.25" transform="matrix(.10009 0 0 .09987 478.95579 151.93644)">
<path fill="#efef00" fill-opacity="1" d="m-576.023-680.034c.472,617.5829-500.337,1118.811-1117.917,1118.811-617.58,.981-1119.23-499.445-1119.7-1117.028-1.49-617.599 498.53-1119.609 1116.14-1120.589 617.58-1.96 1119.985,497.67 1121.451,1115.242 .026,1.253 .026,2.31 .026,3.564zm262.44-.001c.582,762.4487-617.702,1381.249-1380.147,1381.249-762.44,1.211-1381.76-616.5989-1382.34-1379.048-1.85-762.466 615.47-1382.236 1377.94-1383.446 762.448-2.42 1382.705,614.41 1384.515,1376.846 .032,1.547 .032,2.852 .032,4.399z" transform="translate(-149.8562 1690.535)"/>
<path d="m296.746,2625.13c.582,762.45-617.702,1381.25-1380.146,1381.25-762.45,1.21-1381.76-616.6-1382.35-1379.05-1.84-762.46 615.48-1382.23 1377.95-1383.44 762.447-2.42 1382.704,614.41 1384.514,1376.84 .032,1.55 .032,2.86 .032,4.4zm-27.624,0c.57,747.2-605.348,1353.63-1352.542,1353.63-747.2,1.18-1354.13-604.27-1354.7-1351.47-1.81-747.21 603.16-1354.59 1350.39-1355.77 747.195-2.38 1355.046,602.11 1356.82,1349.3 .032,1.52 .032,2.8 .032,4.31z" transform="matrix(.98 0 0 .98 -781.8751 -1562.132)"/>
<path d="m296.746,2625.13c.582,762.45-617.702,1381.25-1380.146,1381.25-762.45,1.21-1381.76-616.6-1382.35-1379.05-1.84-762.46 615.48-1382.23 1377.95-1383.44 762.447-2.42 1382.704,614.41 1384.514,1376.84 .032,1.55 .032,2.86 .032,4.4zm-27.624,0c.57,747.2-605.348,1353.63-1352.542,1353.63-747.2,1.18-1354.13-604.27-1354.7-1351.47-1.81-747.21 603.16-1354.59 1350.39-1355.77 747.195-2.38 1355.046,602.11 1356.82,1349.3 .032,1.52 .032,2.8 .032,4.31z" transform="matrix(.85016 0 0 .85016 -922.6873 -1221.285)"/>
</g>
<g fill-rule="evenodd" stroke-width="1.25" transform="matrix(.10009 0 0 .09823 135.20484 77.55267)">
<path d="m1528.25,376.913h171.54v2824.157h-171.54z"/>
<path fill="#efef00" d="m1548.33,404.601h131.38v2768.789h-131.38z"/>
</g>
<g fill-rule="evenodd" stroke-width="1.25" transform="matrix(.10009 0 0 .09823 136.14405 77.55267)">
<path d="m1482.65,357.957h56.3v2852.693h-56.3z"/>
<path fill="#efef00" d="m1502.82,383.294h15.96v2802.016h-15.96z"/>
</g>
<g fill-rule="evenodd" stroke-width="1.25" transform="matrix(.10009 0 0 .09823 154.92828 77.55267)">
<path d="m1482.65,357.957h56.3v2852.693h-56.3z"/>
<path fill="#efef00" d="m1502.82,383.294h15.96v2802.016h-15.96z"/>
</g>
<g fill-rule="evenodd" stroke-width="1.25" transform="matrix(.03717 .10133 -.04332 .00888 249.23322 118.40699)">
<path d="m1528.25,376.913h171.54v2824.157h-171.54z"/>
<path fill="#efef00" d="m1548.33,404.601h131.38v2768.789h-131.38z"/>
</g>
<g fill-rule="evenodd" stroke-width="1.25" transform="matrix(.03717 .10133 -.04332 .00888 249.58204 119.35785)">
<path d="m1482.65,357.957h56.3v2852.693h-56.3z"/>
<path fill="#efef00" d="m1502.82,383.294h15.96v2802.016h-15.96z"/>
</g>
<g fill-rule="evenodd" stroke-width="1.25" transform="matrix(.03717 .10133 -.04332 .00888 256.5586 138.3751)">
<path d="m1482.65,357.957h56.3v2852.693h-56.3z"/>
<path fill="#efef00" d="m1502.82,383.294h15.96v2802.016h-15.96z"/>
</g>
<g fill-rule="evenodd" stroke-width="1.25" transform="matrix(.00482 .10339 -.04542 .00492 292.98478 64.97686)">
<path d="m1528.25,376.913h171.54v2824.157h-171.54z"/>
<path fill="#efef00" d="m1548.33,404.601h131.38v2768.789h-131.38z"/>
</g>
<g fill-rule="evenodd" stroke-width="1.25" transform="matrix(.00482 .10339 -.04542 .00492 293.03003 65.94707)">
<path d="m1482.65,357.957h56.3v2852.693h-56.3z"/>
<path fill="#efef00" d="m1502.82,383.294h15.96v2802.016h-15.96z"/>
</g>
<g fill-rule="evenodd" stroke-width="1.25" transform="matrix(.00482 .10339 -.04542 .00492 293.93503 85.35119)">
<path d="m1482.65,357.957h56.3v2852.693h-56.3z"/>
<path fill="#efef00" d="m1502.82,383.294h15.96v2802.016h-15.96z"/>
</g>
<g fill-rule="evenodd" stroke-width="1.25" transform="matrix(-.06197 .09609 -.03825 -.01685 395.50893 80.92063)">
<path d="m1528.25,376.913h171.54v2824.157h-171.54z"/>
<path fill="#efef00" d="m1548.33,404.601h131.38v2768.789h-131.38z"/>
</g>
<g fill-rule="evenodd" stroke-width="1.25" transform="matrix(-.06197 .09609 -.03825 -.01685 394.92743 81.82236)">
<path d="m1482.65,357.957h56.3v2852.693h-56.3z"/>
<path fill="#efef00" d="m1502.82,383.294h15.96v2802.016h-15.96z"/>
</g>
<g fill-rule="evenodd" stroke-width="1.25" transform="matrix(-.06197 .09609 -.03825 -.01685 383.29756 99.85694)">
<path d="m1482.65,357.957h56.3v2852.693h-56.3z"/>
<path fill="#efef00" d="m1502.82,383.294h15.96v2802.016h-15.96z"/>
</g>
<g fill-rule="evenodd" stroke-width="1.25" transform="matrix(-.00134 .10333 -.04564 -.00221 453.61281 69.36883)">
<path d="m1528.25,376.913h171.54v2824.157h-171.54z"/>
<path fill="#efef00" d="m1548.33,404.601h131.38v2768.789h-131.38z"/>
</g>
<g fill-rule="evenodd" stroke-width="1.25" transform="matrix(-.00134 .10333 -.04564 -.00221 453.60023 70.33847)">
<path d="m1482.65,357.957h56.3v2852.693h-56.3z"/>
<path fill="#efef00" d="m1502.82,383.294h15.96v2802.016h-15.96z"/>
</g>
<g fill-rule="evenodd" stroke-width="1.25" transform="matrix(-.00134 .10333 -.04564 -.00221 453.3485 89.73123)">
<path d="m1482.65,357.957h56.3v2852.693h-56.3z"/>
<path fill="#efef00" d="m1502.82,383.294h15.96v2802.016h-15.96z"/>
</g>
<g fill-rule="evenodd" stroke-width="1.25" transform="matrix(.02944 .09253 -.03769 -.00119 380.33699 34.35936)">
<path d="m1528.25,376.913h171.54v2824.157h-171.54z"/>
<path fill="#efef00" d="m1548.33,404.601h131.38v2768.789h-131.38z"/>
</g>
<g fill-rule="evenodd" stroke-width="1.25" transform="matrix(.02944 .09253 -.03769 -.00119 380.61327 35.22768)">
<path d="m1482.65,357.957h56.3v2852.693h-56.3z"/>
<path fill="#efef00" d="m1502.82,383.294h15.96v2802.016h-15.96z"/>
</g>
<g fill-rule="evenodd" stroke-width="1.25" transform="matrix(.02944 .09253 -.03769 -.00119 386.13903 52.59413)">
<path d="m1482.65,357.957h56.3v2852.693h-56.3z"/>
<path fill="#efef00" d="m1502.82,383.294h15.96v2802.016h-15.96z"/>
</g>
<g fill-rule="evenodd" stroke-width="1.25" transform="matrix(-.04468 .09603 -.04201 -.01533 509.57441 159.84741)">
<path d="m1528.25,376.913h171.54v2824.157h-171.54z"/>
<path fill="#efef00" d="m1548.33,404.601h131.38v2768.789h-131.38z"/>
</g>
<g fill-rule="evenodd" stroke-width="1.25" transform="matrix(-.04468 .09603 -.04201 -.01533 509.15511 160.74854)">
<path d="m1482.65,357.957h56.3v2852.693h-56.3z"/>
<path fill="#efef00" d="m1502.82,383.294h15.96v2802.016h-15.96z"/>
</g>
<g fill-rule="evenodd" stroke-width="1.25" transform="matrix(-.04468 .09603 -.04201 -.01533 500.76895 178.77123)">
<path d="m1482.65,357.957h56.3v2852.693h-56.3z"/>
<path fill="#efef00" d="m1502.82,383.294h15.96v2802.016h-15.96z"/>
</g>
<g fill="#f6f6fb">
<g fill-rule="evenodd" stroke-width="1.25" transform="matrix(.10009 0 0 .09987 299.42766 875.52111)">
<path d="m-850.894-7147.04h1590.901v1171.08h-1590.901z"/>
<ellipse cx="2861.412" cy="4267.308" rx="740.211" ry="696.019" transform="matrix(1.07463 0 0 1.06349 -3130.393 -10547.35)"/>
</g>
<g fill-rule="evenodd" stroke-width="1.25" transform="matrix(.10009 0 0 .09987 -297.47415 529.62066)">
<path d="m5478.78-3340.72h859.09v632.38h-859.09z"/>
<ellipse cx="2861.412" cy="4267.308" rx="740.211" ry="696.019" transform="matrix(.5803 0 0 .57429 4247.852 -5088.506)"/>
</g>
</g>
<g fill="#f00" fill-rule="evenodd" stroke-width="1.25">
<g transform="matrix(.09508 0 0 .09487 299.15021 844.52216)">
<path d="m-850.894-7147.04h1590.901v1171.08h-1590.901z"/>
<ellipse cx="2861.412" cy="4267.308" rx="740.211" ry="696.019" transform="matrix(1.07463 0 0 1.06349 -3130.393 -10547.35)"/>
</g>
<g transform="matrix(.09508 0 0 .09487 -267.90651 515.91673)">
<path d="m5478.78-3340.72h859.09v632.38h-859.09z"/>
<ellipse cx="2861.412" cy="4267.308" rx="740.211" ry="696.019" transform="matrix(.5803 0 0 .57429 4247.852 -5088.506)"/>
</g>
</g>
<g fill="#400" fill-rule="evenodd" stroke-width="1.25">
<g transform="matrix(.05675 0 0 .05663 297.02475 607.07064)">
<path d="m-850.894-7147.04h1590.901v1171.08h-1590.901z"/>
<ellipse cx="2861.412" cy="4267.308" rx="740.211" ry="696.019" transform="matrix(1.07463 0 0 1.06349 -3130.393 -10547.35)"/>
</g>
<g transform="matrix(.05675 0 0 .05663 -41.41858 410.94509)">
<path d="m5478.78-3340.72h859.09v632.38h-859.09z"/>
<ellipse cx="2861.412" cy="4267.308" rx="740.211" ry="696.019" transform="matrix(.5803 0 0 .57429 4247.852 -5088.506)"/>
</g>
</g>
<g fill="#fff" fill-rule="evenodd" stroke-width="1.25">
<g transform="matrix(.05122 0 0 .0511 296.71808 572.79682)">
<path d="m-850.894-7147.04h1590.901v1171.08h-1590.901z"/>
<ellipse cx="2861.412" cy="4267.308" rx="740.211" ry="696.019" transform="matrix(1.07463 0 0 1.06349 -3130.393 -10547.35)"/>
</g>
<g transform="matrix(.05122 0 0 .0511 -8.72673 395.79368)">
<path d="m5478.78-3340.72h859.09v632.38h-859.09z"/>
<ellipse cx="2861.412" cy="4267.308" rx="740.211" ry="696.019" transform="matrix(.5803 0 0 .57429 4247.852 -5088.506)"/>
</g>
</g>
<g fill="#3b3bff" fill-rule="evenodd" stroke-width="1.25">
<g transform="matrix(.01501 0 0 .01498 295.32856 378.58897)">
<path d="m-850.894-7147.04h1590.901v1171.08h-1590.901z"/>
<ellipse cx="2861.412" cy="4267.308" rx="740.211" ry="696.019" transform="matrix(1.07463 0 0 1.06349 -3130.393 -10547.35)"/>
</g>
<g transform="matrix(.01501 0 0 .01498 205.79329 326.70391)">
<path d="m5478.78-3340.72h859.09v632.38h-859.09z"/>
<ellipse cx="2861.412" cy="4267.308" rx="740.211" ry="696.019" transform="matrix(.5803 0 0 .57429 4247.852 -5088.506)"/>
</g>
<g transform="matrix(.01426 0 0 .01423 295.28695 373.93913)">
<path d="m-850.894-7147.04h1590.901v1171.08h-1590.901z"/>
<ellipse cx="2861.412" cy="4267.308" rx="740.211" ry="696.019" transform="matrix(1.07463 0 0 1.06349 -3130.393 -10547.35)"/>
</g>
<g transform="matrix(.01426 0 0 .01423 210.22844 324.64832)">
<path d="m5478.78-3340.72h859.09v632.38h-859.09z"/>
<ellipse cx="2861.412" cy="4267.308" rx="740.211" ry="696.019" transform="matrix(.5803 0 0 .57429 4247.852 -5088.506)"/>
</g>
<g transform="matrix(.00851 0 0 .00849 294.96813 338.3214)">
<path d="m-850.894-7147.04h1590.901v1171.08h-1590.901z"/>
<ellipse cx="2861.412" cy="4267.308" rx="740.211" ry="696.019" transform="matrix(1.07463 0 0 1.06349 -3130.393 -10547.35)"/>
</g>
<g transform="matrix(.00851 0 0 .00849 244.20163 308.90257)">
<path d="m5478.78-3340.72h859.09v632.38h-859.09z"/>
<ellipse cx="2861.412" cy="4267.308" rx="740.211" ry="696.019" transform="matrix(.5803 0 0 .57429 4247.852 -5088.506)"/>
</g>
<g transform="matrix(.00768 0 0 .00767 294.92213 333.18033)">
<path d="m-850.894-7147.04h1590.901v1171.08h-1590.901z"/>
<ellipse cx="2861.412" cy="4267.308" rx="740.211" ry="696.019" transform="matrix(1.07463 0 0 1.06349 -3130.393 -10547.35)"/>
</g>
<g transform="matrix(.00768 0 0 .00767 249.10541 306.62986)">
<path d="m5478.78-3340.72h859.09v632.38h-859.09z"/>
<ellipse cx="2861.412" cy="4267.308" rx="740.211" ry="696.019" transform="matrix(.5803 0 0 .57429 4247.852 -5088.506)"/>
</g>
</g>
<g fill="#fff" fill-rule="evenodd" stroke-width="1.25" transform="matrix(.10009 0 0 .09987 -2.85783 462.49469)">
<ellipse cx="2903.017" cy="-1854.909" rx="35.688" ry="35.688" transform="translate(-3.78174 -7.5629)"/>
<ellipse cx="2903.017" cy="-1854.909" rx="35.688" ry="35.688" transform="translate(129.9891 -7.5629)"/>
<ellipse cx="2903.017" cy="-1854.909" rx="35.688" ry="35.688" transform="translate(61.92204 67.59457)"/>
<ellipse cx="2903.017" cy="-1854.909" rx="35.688" ry="35.688" transform="translate(1.41789 140.3885)"/>
<ellipse cx="2903.017" cy="-1854.909" rx="35.688" ry="35.688" transform="translate(128.5716 142.752)"/>
</g>
<g transform="matrix(.10009 0 0 .09987 134.26563 72.27898)">
<path fill="#ff0" fill-rule="evenodd" stroke-width="1.25" d="m-433.9,545.042v22.689h302.519l-0-22.689h-302.519zm26.249-62.601v63.152h257.143l-0-63.152h-257.143zm-22.688,207.619v22.692h302.519v-22.692h-302.519zm81.069-7.017c-.031-41.191 31.622-74.621 70.654-74.621 39.033-.066 70.737,33.311 70.768,74.502 0,.327-.001,.602-.004,.928m-149.275,3.292c-.034-45.769 35.136-82.913 78.505-82.913 43.37-.073 78.596,37.012 78.63,82.78 .001,.363 0,.669-.004,1.031m-207.654-114.089v113.445h257.142l0-113.445h-257.142zm-26.25-113.153v21.46h302.519l-0-21.46h-302.519zm-.027-30.268v30.484h23.308v-30.484h-23.308zm279.362,0v30.484h23.308v-30.484h-23.308zm-232.903,.612v30.484h23.308v-30.484h-23.308zm185.222-.618v30.484h23.308v-30.484h-23.308zm-139.987-28.725v30.484h23.308v-30.484h-23.308zm92.917-.006v30.484h23.308v-30.484h-23.308zm-45.236-.612v30.484h23.308v-30.484h-23.308zm-47.745,31.32v29.144h116.146v-29.144h-116.146z" transform="translate(1296.729 561.4097)"/>
</g>
<g fill="#f00" fill-rule="evenodd" stroke-width="1.25" transform="matrix(.10009 0 0 .09987 264.61564 128.4008)">
<path d="m-348.957,477.595h23.308v30.484h-23.308z"/>
<path d="m-244.426,476.984h23.309v30.484h-23.309z"/>
</g>
<g transform="matrix(.10009 0 0 .09987 134.26563 72.27898)">
<path fill="#ff0" fill-rule="evenodd" stroke-width="1.25" d="m-433.9,545.042v22.689h302.519l-0-22.689h-302.519zm26.249-62.601v63.152h257.143l-0-63.152h-257.143zm-22.688,207.619v22.692h302.519v-22.692h-302.519zm81.069-7.017c-.031-41.191 31.622-74.621 70.654-74.621 39.033-.066 70.737,33.311 70.768,74.502 0,.327-.001,.602-.004,.928m-149.275,3.292c-.034-45.769 35.136-82.913 78.505-82.913 43.37-.073 78.596,37.012 78.63,82.78 .001,.363 0,.669-.004,1.031m-207.654-114.089v113.445h257.142l0-113.445h-257.142zm-26.25-113.153v21.46h302.519l-0-21.46h-302.519zm-.027-30.268v30.484h23.308v-30.484h-23.308zm279.362,0v30.484h23.308v-30.484h-23.308zm-232.903,.612v30.484h23.308v-30.484h-23.308zm185.222-.618v30.484h23.308v-30.484h-23.308zm-139.987-28.725v30.484h23.308v-30.484h-23.308zm92.917-.006v30.484h23.308v-30.484h-23.308zm-45.236-.612v30.484h23.308v-30.484h-23.308zm-47.745,31.32v29.144h116.146v-29.144h-116.146z" transform="translate(2457.9 565.0376)"/>
</g>
<g fill="#f00" fill-rule="evenodd" stroke-width="1.25" transform="matrix(.10009 0 0 .09987 380.83492 128.7633)">
<path d="m-348.957,477.595h23.308v30.484h-23.308z"/>
<path d="m-244.426,476.984h23.309v30.484h-23.309z"/>
</g>
<g transform="matrix(.10009 0 0 .09987 134.26563 72.27898)">
<path fill="#ff0" fill-rule="evenodd" stroke-width="1.25" d="m-433.9,545.042v22.689h302.519l-0-22.689h-302.519zm26.249-62.601v63.152h257.143l-0-63.152h-257.143zm-22.688,207.619v22.692h302.519v-22.692h-302.519zm81.069-7.017c-.031-41.191 31.622-74.621 70.654-74.621 39.033-.066 70.737,33.311 70.768,74.502 0,.327-.001,.602-.004,.928m-149.275,3.292c-.034-45.769 35.136-82.913 78.505-82.913 43.37-.073 78.596,37.012 78.63,82.78 .001,.363 0,.669-.004,1.031m-207.654-114.089v113.445h257.142l0-113.445h-257.142zm-26.25-113.153v21.46h302.519l-0-21.46h-302.519zm-.027-30.268v30.484h23.308v-30.484h-23.308zm279.362,0v30.484h23.308v-30.484h-23.308zm-232.903,.612v30.484h23.308v-30.484h-23.308zm185.222-.618v30.484h23.308v-30.484h-23.308zm-139.987-28.725v30.484h23.308v-30.484h-23.308zm92.917-.006v30.484h23.308v-30.484h-23.308zm-45.236-.612v30.484h23.308v-30.484h-23.308zm-47.745,31.32v29.144h116.146v-29.144h-116.146z" transform="translate(1888.201 565.0376)"/>
</g>
<g fill="#f00" fill-rule="evenodd" stroke-width="1.25" transform="matrix(.10009 0 0 .09987 323.81489 128.7633)">
<path d="m-348.957,477.595h23.308v30.484h-23.308z"/>
<path d="m-244.426,476.984h23.309v30.484h-23.309z"/>
</g>
<g transform="matrix(.10009 0 0 .09987 134.26563 72.27898)">
<path fill="#ff0" fill-rule="evenodd" stroke-width="1.25" d="m-433.9,545.042v22.689h302.519l-0-22.689h-302.519zm26.249-62.601v63.152h257.143l-0-63.152h-257.143zm-22.688,207.619v22.692h302.519v-22.692h-302.519zm81.069-7.017c-.031-41.191 31.622-74.621 70.654-74.621 39.033-.066 70.737,33.311 70.768,74.502 0,.327-.001,.602-.004,.928m-149.275,3.292c-.034-45.769 35.136-82.913 78.505-82.913 43.37-.073 78.596,37.012 78.63,82.78 .001,.363 0,.669-.004,1.031m-207.654-114.089v113.445h257.142l0-113.445h-257.142zm-26.25-113.153v21.46h302.519l-0-21.46h-302.519zm-.027-30.268v30.484h23.308v-30.484h-23.308zm279.362,0v30.484h23.308v-30.484h-23.308zm-232.903,.612v30.484h23.308v-30.484h-23.308zm185.222-.618v30.484h23.308v-30.484h-23.308zm-139.987-28.725v30.484h23.308v-30.484h-23.308zm92.917-.006v30.484h23.308v-30.484h-23.308zm-45.236-.612v30.484h23.308v-30.484h-23.308zm-47.745,31.32v29.144h116.146v-29.144h-116.146z" transform="translate(1271.327 1272.627)"/>
</g>
<g fill="#f00" fill-rule="evenodd" stroke-width="1.25" transform="matrix(.10009 0 0 .09987 262.07321 199.42901)">
<path d="m-348.957,477.595h23.308v30.484h-23.308z"/>
<path d="m-244.426,476.984h23.309v30.484h-23.309z"/>
</g>
<g transform="matrix(.10009 0 0 .09987 134.26563 72.27898)">
<path fill="#ff0" fill-rule="evenodd" stroke-width="1.25" d="m-433.9,545.042v22.689h302.519l-0-22.689h-302.519zm26.249-62.601v63.152h257.143l-0-63.152h-257.143zm-22.688,207.619v22.692h302.519v-22.692h-302.519zm81.069-7.017c-.031-41.191 31.622-74.621 70.654-74.621 39.033-.066 70.737,33.311 70.768,74.502 0,.327-.001,.602-.004,.928m-149.275,3.292c-.034-45.769 35.136-82.913 78.505-82.913 43.37-.073 78.596,37.012 78.63,82.78 .001,.363 0,.669-.004,1.031m-207.654-114.089v113.445h257.142l0-113.445h-257.142zm-26.25-113.153v21.46h302.519l-0-21.46h-302.519zm-.027-30.268v30.484h23.308v-30.484h-23.308zm279.362,0v30.484h23.308v-30.484h-23.308zm-232.903,.612v30.484h23.308v-30.484h-23.308zm185.222-.618v30.484h23.308v-30.484h-23.308zm-139.987-28.725v30.484h23.308v-30.484h-23.308zm92.917-.006v30.484h23.308v-30.484h-23.308zm-45.236-.612v30.484h23.308v-30.484h-23.308zm-47.745,31.32v29.144h116.146v-29.144h-116.146z" transform="translate(2479.673 1265.37)"/>
</g>
<g fill="#f00" fill-rule="evenodd" stroke-width="1.25" transform="matrix(.10009 0 0 .09987 383.01414 198.70406)">
<path d="m-348.957,477.595h23.308v30.484h-23.308z"/>
<path d="m-244.426,476.984h23.309v30.484h-23.309z"/>
</g>
<g transform="matrix(.10009 0 0 .09987 134.26563 72.27898)">
<path fill="#ff0" fill-rule="evenodd" stroke-width="1.25" d="m-433.9,545.042v22.689h302.519l-0-22.689h-302.519zm26.249-62.601v63.152h257.143l-0-63.152h-257.143zm-22.688,207.619v22.692h302.519v-22.692h-302.519zm81.069-7.017c-.031-41.191 31.622-74.621 70.654-74.621 39.033-.066 70.737,33.311 70.768,74.502 0,.327-.001,.602-.004,.928m-149.275,3.292c-.034-45.769 35.136-82.913 78.505-82.913 43.37-.073 78.596,37.012 78.63,82.78 .001,.363 0,.669-.004,1.031m-207.654-114.089v113.445h257.142l0-113.445h-257.142zm-26.25-113.153v21.46h302.519l-0-21.46h-302.519zm-.027-30.268v30.484h23.308v-30.484h-23.308zm279.362,0v30.484h23.308v-30.484h-23.308zm-232.903,.612v30.484h23.308v-30.484h-23.308zm185.222-.618v30.484h23.308v-30.484h-23.308zm-139.987-28.725v30.484h23.308v-30.484h-23.308zm92.917-.006v30.484h23.308v-30.484h-23.308zm-45.236-.612v30.484h23.308v-30.484h-23.308zm-47.745,31.32v29.144h116.146v-29.144h-116.146z" transform="matrix(.65276 -.75757 .75757 .65276 969.5741 1819.323)"/>
</g>
<g fill="#f00" fill-rule="evenodd" stroke-width="1.25" transform="matrix(.06533 -.07566 .07582 .06519 231.71774 253.58157)">
<path d="m-348.957,477.595h23.308v30.484h-23.308z"/>
<path d="m-244.426,476.984h23.309v30.484h-23.309z"/>
</g>
<g transform="matrix(.10009 0 0 .09987 134.26563 72.27898)">
<path fill="#ff0" fill-rule="evenodd" stroke-width="1.25" d="m-433.9,545.042v22.689h302.519l-0-22.689h-302.519zm26.249-62.601v63.152h257.143l-0-63.152h-257.143zm-22.688,207.619v22.692h302.519v-22.692h-302.519zm81.069-7.017c-.031-41.191 31.622-74.621 70.654-74.621 39.033-.066 70.737,33.311 70.768,74.502 0,.327-.001,.602-.004,.928m-149.275,3.292c-.034-45.769 35.136-82.913 78.505-82.913 43.37-.073 78.596,37.012 78.63,82.78 .001,.363 0,.669-.004,1.031m-207.654-114.089v113.445h257.142l0-113.445h-257.142zm-26.25-113.153v21.46h302.519l-0-21.46h-302.519zm-.027-30.268v30.484h23.308v-30.484h-23.308zm279.362,0v30.484h23.308v-30.484h-23.308zm-232.903,.612v30.484h23.308v-30.484h-23.308zm185.222-.618v30.484h23.308v-30.484h-23.308zm-139.987-28.725v30.484h23.308v-30.484h-23.308zm92.917-.006v30.484h23.308v-30.484h-23.308zm-45.236-.612v30.484h23.308v-30.484h-23.308zm-47.745,31.32v29.144h116.146v-29.144h-116.146z" transform="matrix(-.65276 -.75757 -.75757 .65276 2231.024 1815.694)"/>
</g>
<g fill="#f00" fill-rule="evenodd" stroke-width="1.25" transform="matrix(-.06533 -.07566 -.07582 .06519 357.1552 253.21925)">
<path d="m-348.957,477.595h23.308v30.484h-23.308z"/>
<path d="m-244.426,476.984h23.309v30.484h-23.309z"/>
</g>
<g fill="#3b3bff" fill-rule="evenodd" stroke-width="1.25">
<g transform="matrix(.01501 0 0 .01498 294.94987 316.27622)">
<path d="m-850.894-7147.04h1590.901v1171.08h-1590.901z"/>
<ellipse cx="2861.412" cy="4267.308" rx="740.211" ry="696.019" transform="matrix(1.07463 0 0 1.06349 -3130.393 -10547.35)"/>
</g>
<g transform="matrix(.01501 0 0 .01498 205.4146 264.39115)">
<path d="m5478.78-3340.72h859.09v632.38h-859.09z"/>
<ellipse cx="2861.412" cy="4267.308" rx="740.211" ry="696.019" transform="matrix(.5803 0 0 .57429 4247.852 -5088.506)"/>
</g>
<g transform="matrix(.01426 0 0 .01423 294.90826 311.62638)">
<path d="m-850.894-7147.04h1590.901v1171.08h-1590.901z"/>
<ellipse cx="2861.412" cy="4267.308" rx="740.211" ry="696.019" transform="matrix(1.07463 0 0 1.06349 -3130.393 -10547.35)"/>
</g>
<g transform="matrix(.01426 0 0 .01423 209.84975 262.33556)">
<path d="m5478.78-3340.72h859.09v632.38h-859.09z"/>
<ellipse cx="2861.412" cy="4267.308" rx="740.211" ry="696.019" transform="matrix(.5803 0 0 .57429 4247.852 -5088.506)"/>
</g>
<g transform="matrix(.00851 0 0 .00849 294.58944 276.00865)">
<path d="m-850.894-7147.04h1590.901v1171.08h-1590.901z"/>
<ellipse cx="2861.412" cy="4267.308" rx="740.211" ry="696.019" transform="matrix(1.07463 0 0 1.06349 -3130.393 -10547.35)"/>
</g>
<g transform="matrix(.00851 0 0 .00849 243.82294 246.58982)">
<path d="m5478.78-3340.72h859.09v632.38h-859.09z"/>
<ellipse cx="2861.412" cy="4267.308" rx="740.211" ry="696.019" transform="matrix(.5803 0 0 .57429 4247.852 -5088.506)"/>
</g>
<g transform="matrix(.00768 0 0 .00767 294.54344 270.86757)">
<path d="m-850.894-7147.04h1590.901v1171.08h-1590.901z"/>
<ellipse cx="2861.412" cy="4267.308" rx="740.211" ry="696.019" transform="matrix(1.07463 0 0 1.06349 -3130.393 -10547.35)"/>
</g>
<g transform="matrix(.00768 0 0 .00767 248.72672 244.3171)">
<path d="m5478.78-3340.72h859.09v632.38h-859.09z"/>
<ellipse cx="2861.412" cy="4267.308" rx="740.211" ry="696.019" transform="matrix(.5803 0 0 .57429 4247.852 -5088.506)"/>
</g>
</g>
<g fill="#fff" fill-rule="evenodd" stroke-width="1.25" transform="matrix(.10009 0 0 .09987 -3.23652 400.18193)">
<ellipse cx="2903.017" cy="-1854.909" rx="35.688" ry="35.688" transform="translate(-3.78174 -7.5629)"/>
<ellipse cx="2903.017" cy="-1854.909" rx="35.688" ry="35.688" transform="translate(129.9891 -7.5629)"/>
<ellipse cx="2903.017" cy="-1854.909" rx="35.688" ry="35.688" transform="translate(61.92204 67.59457)"/>
<ellipse cx="2903.017" cy="-1854.909" rx="35.688" ry="35.688" transform="translate(1.41789 140.3885)"/>
<ellipse cx="2903.017" cy="-1854.909" rx="35.688" ry="35.688" transform="translate(128.5716 142.752)"/>
</g>
<g fill="#3b3bff" fill-rule="evenodd" stroke-width="1.25">
<g transform="matrix(.01501 0 0 .01498 294.9499 347.2437)">
<path d="m-850.894-7147.04h1590.901v1171.08h-1590.901z"/>
<ellipse cx="2861.412" cy="4267.308" rx="740.211" ry="696.019" transform="matrix(1.07463 0 0 1.06349 -3130.393 -10547.35)"/>
</g>
<g transform="matrix(.01501 0 0 .01498 205.41463 295.35863)">
<path d="m5478.78-3340.72h859.09v632.38h-859.09z"/>
<ellipse cx="2861.412" cy="4267.308" rx="740.211" ry="696.019" transform="matrix(.5803 0 0 .57429 4247.852 -5088.506)"/>
</g>
<g transform="matrix(.01426 0 0 .01423 294.90829 342.59386)">
<path d="m-850.894-7147.04h1590.901v1171.08h-1590.901z"/>
<ellipse cx="2861.412" cy="4267.308" rx="740.211" ry="696.019" transform="matrix(1.07463 0 0 1.06349 -3130.393 -10547.35)"/>
</g>
<g transform="matrix(.01426 0 0 .01423 209.84978 293.30305)">
<path d="m5478.78-3340.72h859.09v632.38h-859.09z"/>
<ellipse cx="2861.412" cy="4267.308" rx="740.211" ry="696.019" transform="matrix(.5803 0 0 .57429 4247.852 -5088.506)"/>
</g>
<g transform="matrix(.00851 0 0 .00849 294.58947 306.97613)">
<path d="m-850.894-7147.04h1590.901v1171.08h-1590.901z"/>
<ellipse cx="2861.412" cy="4267.308" rx="740.211" ry="696.019" transform="matrix(1.07463 0 0 1.06349 -3130.393 -10547.35)"/>
</g>
<g transform="matrix(.00851 0 0 .00849 243.82297 277.5573)">
<path d="m5478.78-3340.72h859.09v632.38h-859.09z"/>
<ellipse cx="2861.412" cy="4267.308" rx="740.211" ry="696.019" transform="matrix(.5803 0 0 .57429 4247.852 -5088.506)"/>
</g>
<g transform="matrix(.00768 0 0 .00767 294.54347 301.83506)">
<path d="m-850.894-7147.04h1590.901v1171.08h-1590.901z"/>
<ellipse cx="2861.412" cy="4267.308" rx="740.211" ry="696.019" transform="matrix(1.07463 0 0 1.06349 -3130.393 -10547.35)"/>
</g>
<g transform="matrix(.00768 0 0 .00767 248.72675 275.28459)">
<path d="m5478.78-3340.72h859.09v632.38h-859.09z"/>
<ellipse cx="2861.412" cy="4267.308" rx="740.211" ry="696.019" transform="matrix(.5803 0 0 .57429 4247.852 -5088.506)"/>
</g>
</g>
<g fill="#fff" fill-rule="evenodd" stroke-width="1.25" transform="matrix(.10009 0 0 .09987 -3.23649 431.14941)">
<ellipse cx="2903.017" cy="-1854.909" rx="35.688" ry="35.688" transform="translate(-3.78174 -7.5629)"/>
<ellipse cx="2903.017" cy="-1854.909" rx="35.688" ry="35.688" transform="translate(129.9891 -7.5629)"/>
<ellipse cx="2903.017" cy="-1854.909" rx="35.688" ry="35.688" transform="translate(61.92204 67.59457)"/>
<ellipse cx="2903.017" cy="-1854.909" rx="35.688" ry="35.688" transform="translate(1.41789 140.3885)"/>
<ellipse cx="2903.017" cy="-1854.909" rx="35.688" ry="35.688" transform="translate(128.5716 142.752)"/>
</g>
<g fill="#3b3bff" fill-rule="evenodd" stroke-width="1.25">
<g transform="matrix(.01501 0 0 .01498 321.44378 347.24371)">
<path d="m-850.894-7147.04h1590.901v1171.08h-1590.901z"/>
<ellipse cx="2861.412" cy="4267.308" rx="740.211" ry="696.019" transform="matrix(1.07463 0 0 1.06349 -3130.393 -10547.35)"/>
</g>
<g transform="matrix(.01501 0 0 .01498 231.9085 295.35864)">
<path d="m5478.78-3340.72h859.09v632.38h-859.09z"/>
<ellipse cx="2861.412" cy="4267.308" rx="740.211" ry="696.019" transform="matrix(.5803 0 0 .57429 4247.852 -5088.506)"/>
</g>
<g transform="matrix(.01426 0 0 .01423 321.40216 342.59387)">
<path d="m-850.894-7147.04h1590.901v1171.08h-1590.901z"/>
<ellipse cx="2861.412" cy="4267.308" rx="740.211" ry="696.019" transform="matrix(1.07463 0 0 1.06349 -3130.393 -10547.35)"/>
</g>
<g transform="matrix(.01426 0 0 .01423 236.34365 293.30306)">
<path d="m5478.78-3340.72h859.09v632.38h-859.09z"/>
<ellipse cx="2861.412" cy="4267.308" rx="740.211" ry="696.019" transform="matrix(.5803 0 0 .57429 4247.852 -5088.506)"/>
</g>
<g transform="matrix(.00851 0 0 .00849 321.08334 306.97614)">
<path d="m-850.894-7147.04h1590.901v1171.08h-1590.901z"/>
<ellipse cx="2861.412" cy="4267.308" rx="740.211" ry="696.019" transform="matrix(1.07463 0 0 1.06349 -3130.393 -10547.35)"/>
</g>
<g transform="matrix(.00851 0 0 .00849 270.31684 277.55731)">
<path d="m5478.78-3340.72h859.09v632.38h-859.09z"/>
<ellipse cx="2861.412" cy="4267.308" rx="740.211" ry="696.019" transform="matrix(.5803 0 0 .57429 4247.852 -5088.506)"/>
</g>
<g transform="matrix(.00768 0 0 .00767 321.03734 301.83507)">
<path d="m-850.894-7147.04h1590.901v1171.08h-1590.901z"/>
<ellipse cx="2861.412" cy="4267.308" rx="740.211" ry="696.019" transform="matrix(1.07463 0 0 1.06349 -3130.393 -10547.35)"/>
</g>
<g transform="matrix(.00768 0 0 .00767 275.22062 275.2846)">
<path d="m5478.78-3340.72h859.09v632.38h-859.09z"/>
<ellipse cx="2861.412" cy="4267.308" rx="740.211" ry="696.019" transform="matrix(.5803 0 0 .57429 4247.852 -5088.506)"/>
</g>
</g>
<g fill="#fff" fill-rule="evenodd" stroke-width="1.25" transform="matrix(.10009 0 0 .09987 23.25738 431.14942)">
<ellipse cx="2903.017" cy="-1854.909" rx="35.688" ry="35.688" transform="translate(-3.78174 -7.5629)"/>
<ellipse cx="2903.017" cy="-1854.909" rx="35.688" ry="35.688" transform="translate(129.9891 -7.5629)"/>
<ellipse cx="2903.017" cy="-1854.909" rx="35.688" ry="35.688" transform="translate(61.92204 67.59457)"/>
<ellipse cx="2903.017" cy="-1854.909" rx="35.688" ry="35.688" transform="translate(1.41789 140.3885)"/>
<ellipse cx="2903.017" cy="-1854.909" rx="35.688" ry="35.688" transform="translate(128.5716 142.752)"/>
</g>
<g fill="#3b3bff" fill-rule="evenodd" stroke-width="1.25">
<g transform="matrix(.01501 0 0 .01498 268.45606 347.24371)">
<path d="m-850.894-7147.04h1590.901v1171.08h-1590.901z"/>
<ellipse cx="2861.412" cy="4267.308" rx="740.211" ry="696.019" transform="matrix(1.07463 0 0 1.06349 -3130.393 -10547.35)"/>
</g>
<g transform="matrix(.01501 0 0 .01498 178.92079 295.35864)">
<path d="m5478.78-3340.72h859.09v632.38h-859.09z"/>
<ellipse cx="2861.412" cy="4267.308" rx="740.211" ry="696.019" transform="matrix(.5803 0 0 .57429 4247.852 -5088.506)"/>
</g>
<g transform="matrix(.01426 0 0 .01423 268.41444 342.59387)">
<path d="m-850.894-7147.04h1590.901v1171.08h-1590.901z"/>
<ellipse cx="2861.412" cy="4267.308" rx="740.211" ry="696.019" transform="matrix(1.07463 0 0 1.06349 -3130.393 -10547.35)"/>
</g>
<g transform="matrix(.01426 0 0 .01423 183.35593 293.30306)">
<path d="m5478.78-3340.72h859.09v632.38h-859.09z"/>
<ellipse cx="2861.412" cy="4267.308" rx="740.211" ry="696.019" transform="matrix(.5803 0 0 .57429 4247.852 -5088.506)"/>
</g>
<g transform="matrix(.00851 0 0 .00849 268.09562 306.97614)">
<path d="m-850.894-7147.04h1590.901v1171.08h-1590.901z"/>
<ellipse cx="2861.412" cy="4267.308" rx="740.211" ry="696.019" transform="matrix(1.07463 0 0 1.06349 -3130.393 -10547.35)"/>
</g>
<g transform="matrix(.00851 0 0 .00849 217.32912 277.55731)">
<path d="m5478.78-3340.72h859.09v632.38h-859.09z"/>
<ellipse cx="2861.412" cy="4267.308" rx="740.211" ry="696.019" transform="matrix(.5803 0 0 .57429 4247.852 -5088.506)"/>
</g>
<g transform="matrix(.00768 0 0 .00767 268.04962 301.83507)">
<path d="m-850.894-7147.04h1590.901v1171.08h-1590.901z"/>
<ellipse cx="2861.412" cy="4267.308" rx="740.211" ry="696.019" transform="matrix(1.07463 0 0 1.06349 -3130.393 -10547.35)"/>
</g>
<g transform="matrix(.00768 0 0 .00767 222.2329 275.2846)">
<path d="m5478.78-3340.72h859.09v632.38h-859.09z"/>
<ellipse cx="2861.412" cy="4267.308" rx="740.211" ry="696.019" transform="matrix(.5803 0 0 .57429 4247.852 -5088.506)"/>
</g>
</g>
<g fill="#fff" fill-rule="evenodd" stroke-width="1.25" transform="matrix(.10009 0 0 .09987 -29.73034 431.14942)">
<ellipse cx="2903.017" cy="-1854.909" rx="35.688" ry="35.688" transform="translate(-3.78174 -7.5629)"/>
<ellipse cx="2903.017" cy="-1854.909" rx="35.688" ry="35.688" transform="translate(129.9891 -7.5629)"/>
<ellipse cx="2903.017" cy="-1854.909" rx="35.688" ry="35.688" transform="translate(61.92204 67.59457)"/>
<ellipse cx="2903.017" cy="-1854.909" rx="35.688" ry="35.688" transform="translate(1.41789 140.3885)"/>
<ellipse cx="2903.017" cy="-1854.909" rx="35.688" ry="35.688" transform="translate(128.5716 142.752)"/>
</g>
</svg>
