<svg xmlns="http://www.w3.org/2000/svg" viewBox="0 0 900 600" xmlns:xlink="http://www.w3.org/1999/xlink">
<path fill="#002b7f" d="m0,0h900v600h-900z"/>
<path fill="#ce1126" d="m0,300h900v300h-900z"/>
<g fill="#ffd83d" stroke="#000" stroke-linejoin="round" stroke-linecap="round">
<g stroke-width="2">
<g id="half">
<path stroke="none" d="m216.3771,122.2886l-1.8382,62.5h-63.4191c-7.8025-15.1683-14.2463-28.0513-14.2463-45.4963 0-14.5996 11.4831-26.1949 28.0331-26.1949 17.5197,0 36.7687,5.9036 51.4706,9.1912z"/>
<g stroke-width="1.5">
<path d="m144.4561,125.1608v36.0754"/>
<path d="m149.5496,121.4793v48.034"/>
<path d="m154.643,118.9518v57.2252"/>
<path d="m159.7364,117.7708v44.8812"/>
<path d="m164.8299,117.5482v45.3265"/>
<path d="m169.9233,115.9646v46.8851"/>
<path d="m175.0168,115.9646v46.8851"/>
<path d="m180.1102,116.4242v46.8851"/>
<path d="m185.2037,116.8838v46.8851"/>
<path d="m190.2971,119.8709v46.8851"/>
<path d="m195.3906,120.3304v52.8594"/>
<path d="m200.484,120.3304v46.8851"/>
<path d="m205.5775,120.3304v46.8851"/>
<path fill="#000" d="m176.3954,117.9228c10.7635,1.7755 34.4061,12.8371 31.7096,27.8033-3.8213,21.2093-16.2078,12.6976-32.6287,9.6507l-12.4081,4.136c-4.4398,4.5318-10.9778,8.6835-15.3952,3.2169h-7.3529v28.7224h81.3419v-69.3934z"/>
</g>
<circle cx="212.815" cy="112.983" r="4.94" d="m 217.75575,112.98255 c 0,2.72843 -2.21183,4.94026 -4.94026,4.94026 -2.72843,0 -4.94026,-2.21183 -4.94026,-4.94026 0,-2.72843 2.21183,-4.94026 4.94026,-4.94026 2.72843,0 4.94026,2.21183 4.94026,4.94026 z"/>
<circle cx="201.713" cy="110.311" r="4.94" d="m 206.65326,110.31052 c 0,2.72843 -2.21183,4.94026 -4.94026,4.94026 -2.72843,0 -4.94026,-2.21183 -4.94026,-4.94026 0,-2.72843 2.21183,-4.94026 4.94026,-4.94026 2.72843,0 4.94026,2.21183 4.94026,4.94026 z"/>
<circle cx="190.45" cy="107.482" r="4.94" d="m 195.39,107.48178 c 0,2.72843 -2.21183,4.94026 -4.94026,4.94026 -2.72843,0 -4.94026,-2.21183 -4.94026,-4.94026 0,-2.72843 2.21183,-4.94026 4.94026,-4.94026 2.72843,0 4.94026,2.21183 4.94026,4.94026 z"/>
<circle cx="179.143" cy="105.596" r="4.94" d="m 184.0832,105.59596 c 0,2.72843 -2.21183,4.94026 -4.94026,4.94026 -2.72843,0 -4.94026,-2.21183 -4.94026,-4.94026 0,-2.72843 2.21183,-4.94026 4.94026,-4.94026 2.72843,0 4.94026,2.21183 4.94026,4.94026 z"/>
<circle cx="167.836" cy="104.481" r="4.94" d="m 172.77643,104.48071 c 0,2.72843 -2.21183,4.94026 -4.94026,4.94026 -2.72843,0 -4.94026,-2.21183 -4.94026,-4.94026 0,-2.72843 2.21183,-4.940257 4.94026,-4.940257 2.72843,0 4.94026,2.211827 4.94026,4.940257 z"/>
<circle cx="156.749" cy="105.113" r="4.94" d="m 161.68957,105.11261 c 0,2.72843 -2.21183,4.94026 -4.94026,4.94026 -2.72843,0 -4.94026,-2.21183 -4.94026,-4.94026 0,-2.72843 2.21183,-4.94026 4.94026,-4.94026 2.72843,0 4.94026,2.21183 4.94026,4.94026 z"/>
<circle cx="146.179" cy="108.732" r="4.94" d="m 151.11972,108.73163 c 0,2.72843 -2.21183,4.94026 -4.94026,4.94026 -2.72843,0 -4.94026,-2.21183 -4.94026,-4.94026 0,-2.72843 2.21183,-4.94026 4.94026,-4.94026 2.72843,0 4.94026,2.21183 4.94026,4.94026 z"/>
<circle cx="137.276" cy="115.28" r="4.94" d="m 142.21577,115.28035 c 0,2.72843 -2.21183,4.94026 -4.94026,4.94026 -2.72843,0 -4.94026,-2.21183 -4.94026,-4.94026 0,-2.72843 2.21183,-4.94026 4.94026,-4.94026 2.72843,0 4.94026,2.21183 4.94026,4.94026 z"/>
<circle cx="130.957" cy="124.414" r="4.94" d="m 135.89683,124.41408 c 0,2.72843 -2.21183,4.94026 -4.94026,4.94026 -2.72843,0 -4.94026,-2.21183 -4.94026,-4.94026 0,-2.72843 2.21183,-4.94026 4.94026,-4.94026 2.72843,0 4.94026,2.21183 4.94026,4.94026 z"/>
<circle cx="127.912" cy="135.156" r="4.94" d="m 132.85226,135.15627 c 0,2.72843 -2.21183,4.94026 -4.94026,4.94026 -2.72843,0 -4.94026,-2.21183 -4.94026,-4.94026 0,-2.72843 2.21183,-4.94026 4.94026,-4.94026 2.72843,0 4.94026,2.21183 4.94026,4.94026 z"/>
<circle cx="128.027" cy="146.301" r="4.94" d="m 132.96715,146.30057 c 0,2.72843 -2.21183,4.94026 -4.94026,4.94026 -2.72843,0 -4.94026,-2.21183 -4.94026,-4.94026 0,-2.72843 2.21183,-4.94026 4.94026,-4.94026 2.72843,0 4.94026,2.21183 4.94026,4.94026 z"/>
<circle cx="130.152" cy="157.215" r="4.94" d="m 135.09262,157.21509 c 0,2.72843 -2.21183,4.94026 -4.94026,4.94026 -2.72843,0 -4.94026,-2.21183 -4.94026,-4.94026 0,-2.72843 2.21183,-4.94026 4.94026,-4.94026 2.72843,0 4.94026,2.21183 4.94026,4.94026 z"/>
<path d="m214.9984,119.5312l-.4596,6.4338c-12.291-1.8831-29.7149-8.7316-45.9559-8.7316-15.0064,0-26.6544,6.0027-26.6544,21.1397 0,14.9185 6.3178,28.4852 14.7059,42.2794l-8.7316,4.136c-7.8025-15.1683-14.2463-28.0513-14.2463-45.4963 0-14.5996 11.4831-28.9522 31.25-28.9522 17.5197,0 35.39,5.9036 50.0919,9.1912z"/>
</g>
<use xlink:href="#half" transform="matrix(-1 0 0 1 443.9375 0)"/>
<path d="m221.9688,53.125l-5.1562,9.6562 5.1562,9.625 5.1562-9.625-5.1562-9.6562zm0,24.375l-5.1562,9.625 5.1562,9.6562 5.1562-9.6562-5.1562-9.625z"/>
<path d="m203.5873,74.9531l8.1315,5.1562 8.1052-5.1562-8.1052-5.1562-8.1315,5.1562zm20.5262,0l8.1052,5.1562 8.1315-5.1562-8.1315-5.1562-8.1052,5.1562z"/>
<circle cx="221.969" cy="75.069" r="3.906"/>
<circle cx="221.969" cy="100" r="10.455"/>
<path fill="none" stroke-width="1.5" d="m219.3438,89.875c0,3.1144-.0221,4.9241-.0312,6.625-2.5204,.1119-5.0057,.3767-7.4375,.7812m20.1875,0c-2.4318-.4045-4.9171-.6694-7.4375-.7812v-6.625m-12.7812,12.6875c3.2947-.5503 6.6741-.8438 10.125-.8438s6.8303,.2934 10.125,.8438"/>
<path d="m211.75,117.6875c-.9919,17.0822-3.0086,34.4792-9.6562,47.125l10.8125-4.375c3.7765-14.3288 4.5698-32.8426 5.7188-41.5938l-6.875-1.1562zm20.4375,0l-6.875,1.1562c1.1489,8.7512 1.9423,27.265 5.7188,41.5938l10.8125,4.375c-6.6477-12.6458-8.6644-30.0428-9.6562-47.125z"/>
<path d="m221.9531,154.6875c-12.9134,0-22.3991,6.0866-22.9688,21.5938-3.1567-5.5549-16.5102-23.0257-28.9688-20.6875-7.4099,1.3907-13.9571,11.6659-12.8438,23.4375-6.1349-17.6299-24.1068-20.519-37.2188-10.0938 11.6422,9.5725 16.8211,37.8347 26.625,50.0938h75.375 75.375c9.8039-12.259 15.0141-40.5212 26.6562-50.0938-13.112-10.4253-31.0839-7.5361-37.2188,10.0938 1.1133-11.7716-5.4651-22.0468-12.875-23.4375-12.4586-2.3382-25.7808,15.1326-28.9375,20.6875-.5696-15.5071-10.0866-21.5938-23-21.5938z"/>
</g>
<g stroke-width="1.5">
<path fill="#000" d="m297.1066,219.0257c0,5.5809-33.6618,11.7187-75.1379,11.7187-41.4761,0-75.1379-6.1378-75.1379-11.7187 0-5.5809 33.6618-8.5018 75.1379-8.5018 41.4761,0 75.1379,2.921 75.1379,8.5018z"/>
<circle cx="221.969" cy="114.445" r="3.504"/>
<circle cx="221.969" cy="122.027" r="3.734"/>
<circle cx="221.969" cy="130.184" r="4.079"/>
<circle cx="221.969" cy="139.261" r="4.653"/>
<circle cx="221.969" cy="149.371" r="5.113"/>
<path fill="#000" stroke="none" d="m219.9375,159.2059c-.553-.0069-1.0759,.459-.9375,1.3438 .163,1.0435 .3671,2.9952 .5625,4.3125 .2209,1.4932 1.0912,1.1302 1.3125-.0312 .2213-1.161 .1321-1.9059 .1875-4.0625 .0277-1.0781-.572-1.5556-1.125-1.5625zm4.0625,0c-.553,.0069-1.1527,.4844-1.125,1.5625 .0554,2.1566-.0338,2.9015 .1875,4.0625 .2213,1.1615 1.0916,1.5244 1.3125,.0312 .1954-1.3173 .3996-3.269 .5625-4.3125 .1384-.8847-.3845-1.3506-.9375-1.3438zm-7.6875,.5625c-.5058,.0704-1.0303,.5805-1,1.125 .055,.9952 .3304,2.1889 .4375,3.6875 .1104,1.5482 1.2017,.9468 1.3125,.0625 .1104-.8847 .2354-2.1922 .125-3.9062-.0414-.6429-.3222-.9256-.6562-.9688-.0696-.009-.1465-.0101-.2188,0zm11.0938,0c-.334,.0431-.6148,.3258-.6562,.9688-.1104,1.714 .0146,3.0215 .125,3.9062 .1108,.8843 1.2021,1.4857 1.3125-.0625 .1071-1.4986 .3825-2.6923 .4375-3.6875 .0303-.5445-.4941-1.0546-1-1.125-.0723-.0101-.1491-.009-.2188,0zm-15.4375,1.75c-.4631,.1197-.8884,.6766-.75,1.3125 .2763,1.2719 .5312,2.6781 .5312,3.9688 0,1.106 .9446,.7114 1-.0625 .055-.7743 .1562-2.4135 .1562-3.9062 0-1.1146-.4744-1.4322-.9375-1.3125zm19.6875,0c-.3288,.0911-.625,.4766-.625,1.3125 0,1.4928 .1012,3.132 .1562,3.9062 .0554,.7739 1,1.1685 1,.0625 0-1.2906 .255-2.6969 .5312-3.9688 .1384-.6359-.2869-1.1928-.75-1.3125-.1158-.0299-.2029-.0304-.3125,0zm-59.0938,.171c-.5541-.0184-.9428,.7332-.5625,1.5625 .608,1.3273 1.2541,2.1647 1.875,3.5938 .553,1.2719 1.4013,.4789 1.125-.4062-.2767-.8847-.5769-1.8701-1.4062-3.75-.3111-.7051-.6988-.9889-1.0312-1zm98.8125,0c-.3324,.0111-.7201,.2949-1.0312,1-.8293,1.8799-1.1295,2.8653-1.4062,3.75-.2763,.8851 .572,1.6781 1.125,.4062 .6209-1.429 1.267-2.2664 1.875-3.5938 .3803-.8293-.0084-1.5809-.5625-1.5625zm-94.8125,.0625c-.4078,.1245-.655,.6418-.4062,1.25 .498,1.2165 1.2166,2.4635 1.7188,3.7812 .4422,1.161 1.4259,.8319 1.0938-.2188-.3317-1.0506-.4303-1.6655-1.0938-3.6562-.3319-.9952-.9047-1.2807-1.3125-1.1562zm90.5,0c-.3487,.0745-.7511,.4099-1,1.1562-.6635,1.9907-.762,2.6057-1.0938,3.6562-.3321,1.0506 .6516,1.3798 1.0938,.2188 .5022-1.3177 1.2207-2.5648 1.7188-3.7812 .2488-.6082 .0016-1.1255-.4062-1.25-.102-.0311-.1963-.0248-.3125,0zm-85.5,.9688c-.5141,.0978-.9123,.8822-.5625,1.8438 .4426,1.2165 1.072,2.3677 1.625,3.75 .553,1.3823 1.4713,1.1035 1.25,.2188-.2213-.8847-.4924-2.3509-1.1562-4.5625-.2902-.9678-.7564-1.3261-1.1562-1.25zm80.8125,0c-.3999-.0761-.866,.2822-1.1562,1.25-.6639,2.2116-.935,3.6778-1.1562,4.5625-.2213,.8847 .697,1.1636 1.25-.2188 .553-1.3823 1.1824-2.5335 1.625-3.75 .3497-.9616-.0484-1.7459-.5625-1.8438zm-93.1875,.6875c-.5569,.0569-1.0641,.9652-.7188,1.6562 .5534,1.106 .9037,1.4823 1.4375,2.6562 .553,1.2165 1.1588,.2743 .9375-.5-.2213-.7743-.5049-1.6757-.7812-2.7812-.2025-.81-.5409-1.0654-.875-1.0312zm105.5625,0c-.3341-.0341-.6725,.2213-.875,1.0312-.2763,1.1056-.56,2.007-.7812,2.7812-.2213,.7743 .3845,1.7165 .9375,.5 .5338-1.1739 .8841-1.5502 1.4375-2.6562 .3454-.691-.1619-1.5994-.7188-1.6562zm-67.0312,2.7978c-.5838-.0005-1.2073,.7744-1,1.5 .3317,1.1615 .8445,2.191 1.2188,3.6875 .3317,1.3269 1.2742,.666 1.2188-.2188-.0554-.8847-.207-2.0884-.5938-3.9688-.1452-.705-.4935-.9997-.8438-1zm28.5,0c-.3503,.0003-.6986,.295-.8438,1-.3868,1.8803-.5383,3.084-.5938,3.9688-.0554,.8847 .887,1.5457 1.2188,.2188 .3742-1.4965 .887-2.526 1.2188-3.6875 .2073-.7256-.4162-1.5005-1-1.5zm-14.25,1.1875c-.7192,0-.8185,.9656-.8438,1.75-.0827,2.5713-1.1498,5.0685-2.0625,6.3125-.9122,1.2444-2.2556,.9135-3.5,.25-1.2444-.6634-1.9856-1.1607-3.3125-2.1562-1.3273-.9951-2.3336-.4133-.75,1.8438 4.6175,6.5803 9.625,12.2048 9.625,22.9375 0,1.3877 .2425,1.8125 .8438,1.8125s.875-.4248 .875-1.8125c0-10.7327 4.9763-16.3572 9.5938-22.9375 1.5836-2.257 .5773-2.8389-.75-1.8438-1.3269,.9956-2.0681,1.4928-3.3125,2.1562-1.2444,.6635-2.5877,.9944-3.5-.25-.9127-1.244-1.9798-3.7412-2.0625-6.3125-.0252-.7844-.1245-1.75-.8438-1.75zm-35.2812-1.6103c-.0629-.0017-.1315,.0136-.1875,.0312-.2686,.0846-.4475,.4088-.3438,.9688 .1855,1.0023 .88,2.9665 1.1562,3.9062 .2767,.9402 1.4325,.7402 1.1562-.5312-.2767-1.2719-.262-1.656-.5938-3.0938-.1814-.7863-.747-1.2692-1.1875-1.2812zm70.5625,0c-.4405,.0121-1.0061,.495-1.1875,1.2812-.3317,1.4377-.317,1.8219-.5938,3.0938-.2763,1.2715 .8795,1.4714 1.1562,.5312 .2763-.9397 .9708-2.904 1.1562-3.9062 .1038-.5599-.0752-.8841-.3438-.9688-.056-.0176-.1246-.033-.1875-.0312zm-91.5312,.4062c-.5788,.0453-.9939,.7725-.4062,1.8438 .6339,1.1569 1.7212,2.6082 2.2188,3.4375 .4976,.8293 1.3584,.2698 .75-.7812-.608-1.0506-.8124-2.2572-1.5312-3.75-.2696-.5599-.684-.7772-1.0312-.75zm112.5,0c-.3473-.0272-.7617,.1901-1.0312,.75-.7189,1.4928-.9232,2.6994-1.5312,3.75-.6084,1.051 .2524,1.6106 .75,.7812 .4976-.8293 1.5849-2.2806 2.2188-3.4375 .5876-1.0713 .1725-1.7984-.4062-1.8438zm-144.1875,3.329c-.6678-.0355-.8772,1.1703-.25,1.9688 .9127,1.161 1.5478,1.7769 2.5938,2.7188 .8297,.7464 1.0709-.2224 .6562-.9688-.4146-.7464-1.0144-1.5056-1.8438-2.75-.4546-.682-.8527-.9526-1.1562-.9688zm175.875,0c-.3035,.0161-.7016,.2867-1.1562,.9688-.8293,1.2444-1.4291,2.0036-1.8438,2.75-.4147,.7464-.1735,1.7151 .6562,.9688 1.046-.9418 1.6811-1.5577 2.5938-2.7188 .6272-.7985 .4178-2.0042-.25-1.9688zm-170.8438,1c-.5322,.0069-.8834,.4-.4688,1.3125 .5939,1.3061 1.377,2.7857 1.875,3.7812 .4976,.9952 2.0143,1.3294 1.4062-.2188-.6084-1.5482-.7282-2.3435-1.2812-3.7812-.2765-.7189-.999-1.1007-1.5312-1.0938zm165.8125,0c-.5322-.0069-1.2548,.3749-1.5312,1.0938-.553,1.4377-.6728,2.2331-1.2812,3.7812-.608,1.5482 .9087,1.2139 1.4062,.2188 .498-.9956 1.2811-2.4752 1.875-3.7812 .4146-.9125 .0635-1.3056-.4688-1.3125zm-175.5625,.3438c-.7738,.0079-.8404,.7837-.1562,1.2812 .9127,.6635 2.0002,1.3998 3.0625,2.25 1.244,.9952 1.7259,.0797 1.0625-.75-.6634-.8293-1.3097-1.6703-2.9688-2.5-.4147-.2073-.7421-.2839-1-.2812zm185.3125,0c-.2579-.0026-.5852,.0739-1,.2812-1.659,.8297-2.3053,1.6707-2.9688,2.5-.6634,.8297-.1815,1.7452 1.0625,.75 1.0623-.8502 2.1498-1.5865 3.0625-2.25 .6842-.4976 .6175-1.2733-.1562-1.2812zm-109.6562,.7188c-.433,.0606-.8064,.5523-.625,1.1875 .3317,1.161 .7083,2.3914 .9375,3.5938 .2213,1.1615 1.565,1.1756 1.3438,.125-.2209-1.0506-.332-2.3651-.7188-3.9688-.1452-.6013-.4483-.8902-.75-.9375-.0628-.0098-.1257-.0086-.1875,0zm33.8125,0c-.3017,.0473-.6048,.3362-.75,.9375-.3867,1.6036-.4979,2.9182-.7188,3.9688-.2213,1.0506 1.1225,1.0365 1.3438-.125 .2292-1.2023 .6058-2.4327 .9375-3.5938 .1814-.6352-.192-1.1269-.625-1.1875-.0618-.0086-.1246-.0098-.1875,0zm-63.9062-1.9853c-.34,.094-.5356,.744-.2812,1.6562 1.4102,5.0596 1.8425,7.7244 1.5938,8.9688-.2488,1.244-.9315,1.4146-1.8438,1-.9122-.4146-1.9832-1.0132-2.8125-1.5938-.8293-.5809-1.6919,.114-.5,1.0938 6.0548,4.9767 10.2518,10.6642 11.875,17.5625 .3317,1.4099 1.2175,1.5757 .9688,0-1.3723-8.6898-1.6362-15.8334 .4375-20.3125 .7793-1.6832-.0056-3.2996-1.25-.5625-.8293,1.8249-2.1715,2.5449-3.25,.9688-1.0781-1.5757-3.3053-5.7797-3.9688-7.6875-.2489-.7154-.556-1.0464-.8125-1.0938-.0534-.0099-.1077-.0134-.1562,0zm94.0312,0c-.2565,.0473-.5636,.3783-.8125,1.0938-.6634,1.9078-2.8906,6.1118-3.9688,7.6875-1.0785,1.5761-2.4207,.8562-3.25-.9688-1.2444-2.7371-2.0293-1.1207-1.25,.5625 2.0737,4.4791 1.8098,11.6227 .4375,20.3125-.2488,1.5757 .637,1.4099 .9688,0 1.6232-6.8983 5.8202-12.5858 11.875-17.5625 1.1919-.9797 .3293-1.6747-.5-1.0938-.8293,.5805-1.9003,1.1791-2.8125,1.5938-.9122,.4146-1.595,.244-1.8438-1-.2488-1.2444 .1835-3.9091 1.5938-8.9688 .2543-.9123 .0587-1.5623-.2812-1.6562-.0486-.0134-.1028-.0099-.1562,0zm-124.4688,2.4228c-.5461,.0069-.9988,.3894-.75,1.2188 .3988,1.3286 1.2237,2.7644 1.5,3.5938 .2767,.8293 1.1659,.4423 1-.7188-.1658-1.161-.2475-1.8531-.4688-3.125-.1106-.6357-.7352-.9757-1.2812-.9688zm155.0625,0c-.5461-.0069-1.1706,.333-1.2812,.9688-.2213,1.2719-.3029,1.964-.4688,3.125-.1659,1.161 .7233,1.5481 1,.7188 .2763-.8293 1.1012-2.2652 1.5-3.5938 .2488-.8293-.2039-1.2118-.75-1.2188zm-136.2812-1.7353c-.635-.114-.7263,1.5242-.1875,2.1875 .7189,.8852 1.7173,1.9548 2.7188,3.1562 .8293,.9956 1.3417,.1106 .8438-.7188-.4976-.8297-1.2356-1.7113-2.5625-3.8125-.3318-.5253-.6008-.7745-.8125-.8125zm117.5,0c-.2117,.038-.4807,.2872-.8125,.8125-1.3269,2.1012-2.0649,2.9828-2.5625,3.8125-.498,.8293 .0144,1.7143 .8438,.7188 1.0014-1.2015 1.9999-2.2711 2.7188-3.1562 .5388-.6633 .4475-2.3015-.1875-2.1875zm-132,3.954c-.394-.0276-.7284,.292-.5625,1.0938 .2313,1.1164 .567,2.0431 .8438,3.0938 .2763,1.0506 1,.8706 1-.125 0-.9952-.1779-2.1056-.3438-3.1562-.0829-.5253-.5435-.8786-.9375-.9062zm146.5,0c-.394,.0277-.8546,.381-.9375,.9062-.1659,1.0506-.3438,2.1611-.3438,3.1562 0,.9956 .7237,1.1756 1,.125 .2767-1.0506 .6125-1.9773 .8438-3.0938 .1659-.8018-.1685-1.1214-.5625-1.0938zm-133.4062,1.421c-.6189,.0935-1.1634,.6918-.4375,1.625 1.1611,1.4928 2.4324,2.5407 2.875,3.0938 .4422,.553 1.5626,.349 .8438-.8125-.7347-1.1865-1.8462-2.6153-2.3438-3.5-.1866-.3318-.5662-.4623-.9375-.4062zm120.0625,0c-.2722,.0286-.5476,.1574-.6875,.4062-.4976,.8847-1.6091,2.3135-2.3438,3.5-.7189,1.1615 .4016,1.3655 .8438,.8125 .4426-.553 1.7139-1.601 2.875-3.0938 .7259-.9332 .1814-1.5315-.4375-1.625-.0928-.014-.1593-.0095-.25,0zm-140.7188,4.1728c-.4883-.0443-.6569,.3496 0,1.25 1.4928,2.0458 3.1396,5.1419 3.25,6.4688 .1109,1.3273-.5453,1.3125-1.1562,1.3125-1.8249,0-2.7164-1.332-4.375-1.7188-1.659-.3871-1.8998,.4853-.7188,1.3438 6.0823,4.4237 12.1788,9.3592 14.625,13.8438 .9952,1.8249 2.3406,2.492 1.5938,.75-2.2871-5.3372-2.8413-9.8566-2.3438-12.5938 .498-2.7371 1.1767-4.5802 1.0938-6.1562-.0829-1.5757-.9766-1.4682-1.3438,0-.2488,.9956-.7308,2.3145-1.0625,2.8125-.3317,.4976-1.6656,.7765-2.9375-.9375-1.2719-1.714-4.4806-5.0144-5.5312-5.8438-.394-.311-.8008-.5046-1.0938-.5312zm161.625,0c-.293,.0266-.6998,.2203-1.0938,.5312-1.0506,.8293-4.2594,4.1297-5.5312,5.8438-1.2719,1.714-2.6058,1.4351-2.9375,.9375-.3317-.498-.8137-1.8169-1.0625-2.8125-.3671-1.4682-1.2608-1.5757-1.3438,0-.0829,1.5761 .5958,3.4191 1.0938,6.1562 .4976,2.7371-.0567,7.2566-2.3438,12.5938-.7468,1.742 .5986,1.0749 1.5938-.75 2.4463-4.4845 8.5427-9.4201 14.625-13.8438 1.181-.8585 .9403-1.7309-.7188-1.3438-1.6586,.3867-2.5501,1.7188-4.375,1.7188-.6109,0-1.2671,.0148-1.1562-1.3125 .1104-1.3269 1.7572-4.423 3.25-6.4688 .6569-.9004 .4883-1.2943 0-1.25z"/>
<path d="m150.1269,212.6511 1.9497,6.1742m2.0608-7.3444 1.7276,6.24m2.6046-6.9524 1.187,6.365m2.8332-7.1693 1.2705,6.3489m3.8851-6.8578 1.0329,6.3918m4.4516-6.3851 1.1124,6.3784m4.2413-8.1888 .8035,6.4247m4.2333-6.0997 .8035,6.4247m4.0708-7.0746 .8035,6.4247m4.0891-6.9296 .442,6.4596m4.7866-6.4615 .3835,6.4633m4.3568-6.7899 .3266,6.4665m4.9004-6.7927 .2713,6.469m5.7404-6.6315 .2713,6.469m79.0441,.1775-1.9497,6.1742m-2.0608-7.3444-1.7276,6.24m-2.6046-6.9524-1.187,6.365m-2.8332-7.1693-1.2705,6.3489m-3.8851-6.8578-1.033,6.3918m-4.4516-6.3851-1.1124,6.3784m-4.2413-8.1888-.8035,6.4247m-4.2333-6.0997-.8035,6.4247m-4.0708-7.0746-.8035,6.4247m-4.0891-6.9296-.442,6.4596m-4.7866-6.4615-.3835,6.4633m-4.3568-6.7899-.3266,6.4665m-4.9004-6.7927-.2713,6.469m-5.7404-6.6315-.2713,6.469m-7.2022-6.8899 0,7.1232"/>
</g>
</g>
</svg>
