<svg width="1000" xmlns="http://www.w3.org/2000/svg" height="500" viewBox="0 0 200 100">
<g fill-rule="evenodd">
<path fill="#161796" d="m0,0h200v100h-200z"/>
<path fill="#ffcd00" d="m53,0h100v100l-100-100z"/>
</g>
<g fill="#fff">
<g fill-rule="evenodd">
<path d="m81.5312,51.125h3.4688 3.4688l2.1152,6.5607-5.584-4.0607-5.584,4.0607 2.1152-6.5607z" transform="translate(-50 -51.125)"/>
<path d="m81.5312,51.125l-5.5663-4.0607 6.91-.0018 2.125-6.5625 2.125,6.5625 6.91,.0018-5.5663,4.0607h-3.4688-3.4688z" transform="translate(50 48.875)"/>
</g>
<path d="m79.416,57.6857l5.584-17.1857 5.584,17.1857-14.619-10.6213 18.0701,0-14.619,10.6213z" transform="translate(-37.5 -38.625)"/>
<path d="m79.416,57.6857l5.584-17.1857 5.584,17.1857-14.619-10.6213 18.0701,0-14.619,10.6213z" transform="translate(-25 -26.125)"/>
<path d="m79.416,57.6857l5.584-17.1857 5.584,17.1857-14.619-10.6213 18.0701,0-14.619,10.6213z" transform="translate(-12.5 -13.625)"/>
<path d="m79.416,57.6857l5.584-17.1857 5.584,17.1857-14.619-10.6213 18.0701,0-14.619,10.6213z" transform="translate(0 -1.125)"/>
<path d="m79.416,57.6857l5.584-17.1857 5.584,17.1857-14.619-10.6213 18.0701,0-14.619,10.6213z" transform="translate(12.5 11.375)"/>
<path d="m79.416,57.6857l5.584-17.1857 5.584,17.1857-14.619-10.6213 18.0701,0-14.619,10.6213z" transform="translate(25 23.875)"/>
<path d="m79.416,57.6857l5.584-17.1857 5.584,17.1857-14.619-10.6213 18.0701,0-14.619,10.6213z" transform="translate(37.5 36.375)"/>
</g>
</svg>
