<svg xmlns="http://www.w3.org/2000/svg" viewBox="0 0 315 217" xmlns:xlink="http://www.w3.org/1999/xlink">
<path fill="#de2110" fill-rule="evenodd" stroke-width="1.25" d="m0-0h315v217h-315z"/>
<path d="m114.94,42c3.54-.345 4.25-.298 6.84,.372-3.32,1.524-7.26,.762-9.7-1.401-3.69-3.35-12.477-9.141-9.34-4.206 16.3,18.062 30.34,5.85 38.88,16.25 2.91,3.543 5.48,8.298 3.95,12.969-.53,1.598-2.42,5.359-4.7,4.403-2.99-1.251 .57-11.083-1.61-14.282-4.95-7.263-13.91-5.32-21.26-6.105-2.13,5.784-7.27,4.912-12,1.995-6.026-3.725-5.84-12.884-11.234-15.909-5.616-3.152-4.701,7.406-3.796,9.914 3.92,10.87 15.46,14.932 26.03,13-7.82,12.108-20.214-7.838-26.353-2.953-3.896,3.1 2.985,8.739 5.368,10.033 6.595,3.58 14.515,1.782 20.985-1.08-3.69,4.01-10.48,6.47-16,5.657-2.848-.421-8.554-4-11.149-1.615-4.006,3.683 5.774,8.051 8.149,8.568 8.01,1.741 13.68-2.483 20-6.61-3.97,3.969-8.21,9.403-14,10.591-3.61,.741-11.58-2.944-13.914,.881-2.79,4.575 4.608,7.469 7.914,7.183 7.83-.677 15.1-6.979 21-11.655-4.05,5.748-10.31,11.83-17,14.428-3.514,1.363-9.554-.747-12.199,2.314-4.075,4.716 4.897,7.498 8.199,6.698 9.64-2.347 14.78-12.894 24-16.44-6.25,5.76-12.88,14.682-20.09,18.95-3.584,2.12-9.428-.48-12.263,2.65-6.406,7.08 9.645,8.59 14.183,4.84 7.59-6.28 11.23-15.273 20.17-20.44-5.96,8.107-13.51,20.21-21.09,26.76-3.613,3.11-11.538,.38-13.824,3.84-4.592,6.96 10.218,8.16 13.914,5.7 12.12-8.07 12.78-26.78 28-31.3-4.31,9.24-8.62,21.74-19,25 1.56,4.69 7.07,5.1 10.61,1.68 6.07-5.87 4.82-19.23 15.39-19.68l-7.62,10.69c.4,4.36 8.22-1.49 10.62-5.69h1c-4.17,9.94-11.52,15.49-21,20 .19,5.92-3.78,8.98-9,11-2.81-5.17-10.3-9.01-14-3 2.94,.4 5.56,.95 6,4-4.659-1.68-8.336-2.48-10,3 5.458-.9 7.32-.7 8.25,1.69-3.731,4.29-3.122,10.83 3.75,11.47-1.92-1.39-3.21-2.31-2.16-4.16 1.53-2.02 3.33,.02 4.22-1.18 1.65-2.41 .16-1.57 2.26-.6 1.73,1.23 4.53-3.93 8.52,4.78 4.8-3.45 .19-8.91-1.84-13l15-3 17-16 1,1c-5.5,8.65-13.4,16.07-24,17 3.55,6.43 10.51,3.12 16,1-2.39,4.66-8.59,4.69-10.67,8.54-4.27,7.92 13.56-.24 14.67-.54-1.42,5.02-7.04,6.03-8.5,10.28-1.14,3.3 3.49,3.63 5.46,2.67 3.79-1.85 6.27-6.88 9.04-9.95-1.3,6 1.16,10.75-5.45,17.69l10.14,12.47 11.57-12.49c-6.39-5.52-2.46-11.99-3.7-17.98 2.71,3.17 3.63,8.38 7.48,10.26 1.79,.88 5.49,.91 5.04-2.04-.64-4.19-6.78-6.33-8.08-10.91 1.28,.42 18.57,8.53 14.59,.54-1.88-3.78-8.26-4-10.59-8.54 5.56,2.14 11.26,4.84 16,0-8.81-3.06-21.91-8.27-23-19l17.28,14.88 14.72,5.12v1c-3.59,3.74-5.66,6.34-2.69,10.91l3.66,1.09c-2.35-2.58-1.56-3.92 0-4.94 2.65-1.26 4.24,1.19 5.26-1.34 .47-1.22 .63-1.8 .87-.3 .26,2.65 3.93,.61 5.21,.96 2.01,1.97-.98,3.95-1.31,5.62 5.68-1.99 6.76-5.48 5-11 .38-2.09 1.69-3.09 3-3 1.49,.18 2.67,.67 4,1-1.95-5.1-5.39-4.9-10-3 .42-3.05 1.93-4.54 5-4-2.31-6.93-10.66-1.37-13,3-5.44-1.8-10.64-4.75-9-11-9.19-4.37-17.74-9.79-21-20h1c2.4,4.2 10.06,7.08 9.53,3.19l-6.53-8.19c14.06,.6 8.46,26.17 26,21v-2c-10.09-5.62-14.24-15.8-19-26 14.97,4.45 15.46,23.01 27.09,31.12 3.72,2.59 19.37,1.9 14.77-5.52-2.07-3.33-10.32-.92-13.82-3.84-7.6-6.34-15.24-18.659-21.04-26.76 9.19,5.838 13.58,17.6 23,22.31 3.98,1.99 13.4,1.7 12.05-5.17-.96-4.88-8.79-2.16-12.03-3.55-7.28-3.12-15.19-14.009-21.02-19.59 8.73,3.835 13.91,13.603 23,16.35 3.35,1.01 11.99-.5 9.59-5.917-1.7-3.85-9.31-1.775-12.59-2.955-7.2-2.594-12.74-9.22-18-14.478 7.06,4.059 13.44,10.926 22,11.655 3.3,.282 11.88-3.64 7.38-7.823-2.93-2.721-8.85,.315-12.38-.085-5.68-.645-10.46-5.654-14-9.747 8.26,5.074 33.9,7.236 29.41-3.375-3.12-2.594-6.53,1.924-12.66,2.095-6.43,.014-12.8-1.51-18.06-5.564 6.7,2.262 14.39,4.663 21.29,1.427 2.46-1.151 11.25-8.435 5.57-10.936-4.43-1.949-8.99,4.328-12.55,5.916-4.41,1.969-9.55,.534-14-.563v-1c9.13-.485 18.2-1.004 24.21-9.04 1.97-2.639 7.12-13.448 1.37-15.208-2.29-.703-4.07,1.586-5.02,3.307-2.81,5.058-15.32,25.145-20.56,10.941-7.37,.786-16.29-1.152-21.26,6.105-2.2,3.22 1.2,13.103-1.77,14.282-8.41,3.333-2.79-15.031-.76-17.372 9.06-10.41 33.55-1.447 37.79-16.015 .46-3.863-5.04,3.05-7.64,4.726-2.8,1.73-6.37,1.843-9.36,1.274 3.17-1.662 5.72-1.136 7.72-1.469-1.88-3.298-6.18-2.879-7.28-4.706-1.44-2.593-7.17-3.349-10.42-2.835-6.19,1.367-8.57,3.213-20.02,.01l5,6-7.17,2.994 3.17,2.006-6,4c1,.333 3.38,.335 3.22,1.276l-4.83,8.221c-1.01-1.723-4.31-6.235-4.77-7.967-.23-.772 1.16-1.133 3.05-1.475l-5.67-4.055 3.66-2.141-7.66-2.859 4-6c-6.38,4.254-11.85-1.692-19.23,.047-3.15,.716-5.69,4.221-8.66,3.636-2.5-.428-5.41,1.059-7.17,4.317z"/>
<g fill="#de2110" fill-rule="evenodd">
<path d="m132.34,36.297c.66,.312 1.85,.156 2.03,.859-1.22,.443-2.68,.495-3.9,.391 .57-1.302 1.22-.808 1.87-1.25z"/>
<path d="m188.2,36.531c-.65,.312-1.84,.156-2.03,.859 1.23,.443 2.69,.495 3.91,.391-.57-1.302-1.23-.807-1.88-1.25z"/>
</g>
</svg>
