<?xml version="1.0" encoding="utf-8"?>
<!-- Generator: Adobe Illustrator 28.0.0, SVG Export Plug-In . SVG Version: 6.00 Build 0)  -->
<svg version="1.1" id="Laag_1" xmlns="http://www.w3.org/2000/svg" xmlns:xlink="http://www.w3.org/1999/xlink" x="0px" y="0px"
	 viewBox="0 0 1200 600" style="enable-background:new 0 0 1200 600;" xml:space="preserve">
<style type="text/css">
	.st0{fill:#DE6F10;}
	.st1{fill:#E30613;}
	.st2{fill:#E9B528;}
	.st3{fill:#005D95;}
	.st4{fill:#618D33;}
</style>
<g transform="matrix(0.64394391, 0, 0, 0.64394391, 426.45721436, 99.7333374)">
	<path class="st0" d="M314.9,158.1c-6.5,3.6-10.2,2.8-10,5.5c0.3,2.7,6.1,4.7,6.1,4.7s-6,6.4-10.6,9.3c-4.6,2.9-10.1,4.8-10.1,4.8
		s-1.9,0.3-0.8,3.2c1.1,2.9,2.9,4.9,4.4,5.7c1.5,0.8,2.3,1.1,2.3,1.1s-8.1,8.7-11.7,11.4c-3.6,2.8-5.6,3.7-8.5,4.9
		c-2.9,1.2-1.5,6-0.8,8.1c0.7,2.1,3.2,5.1,4.6,5.5c1.5,0.4,2,1.5,0.1,4.4c-1.4,2.2-6,8-8.2,11.2l-0.1,0.1c-2.2-3.2-6.9-9.1-8.3-11.3
		c-1.9-2.9-1.3-4,0.1-4.4c1.5-0.4,4-3.3,4.6-5.5c0.7-2.1,2.1-6.9-0.8-8.1c-2.9-1.2-4.9-2.1-8.5-4.9c-3.6-2.8-11.7-11.4-11.7-11.4
		s0.8-0.3,2.3-1.1c1.5-0.8,3.3-2.8,4.4-5.7c1.1-2.9-0.8-3.2-0.8-3.2s-5.4-1.9-10.1-4.8c-4.6-2.9-10.6-9.3-10.6-9.3s5.8-2,6.1-4.7
		c0.3-2.7-3.5-1.9-10-5.5c-6.5-3.6-8.6-8.1-8.6-8.1s7.6-2.5,11.3-10.1c1.3-2.7,1.6-5.1,1.5-7.2l0.3,0.1c12.1,3.9,26.2,5.5,38.8,5.5
		c12.6,0,26.7-1.6,38.8-5.5l0.3-0.1c-0.1,2.1,0.2,4.5,1.5,7.2c3.7,7.6,11.3,10.1,11.3,10.1S321.4,154.5,314.9,158.1 M226.9,94.7
		c-1.9,1.6-5.3,0.6-7.9-0.4c-2.6-1-5.4-1.7-5.4-1.7s0.6-0.6,1.3-1.9c0.7-1.3,0.7-3.4,0.2-7c-0.6-3.6-1.1-7.3-0.6-9.4
		c0.6-2.1,0.5-4.3,4.2-8.5c3.7-4.2,9.9-7.1,9.9-7.1s-0.8,1.3-2.3,4.2c-1.5,2.8-5,10.6-4.5,18.2c0.6,7.6,5,8.8,6.1,9.9
		C229.3,92,228.8,93.1,226.9,94.7 M250.7,58c6.6-6,11.2-7,11.2-7c-0.3,6.7-1.5,12-2.4,18.2c-1.1,7.4-0.5,10.8,0.9,14.4
		c1.4,3.6,5.3,5.8,5.3,5.8s-1.3,0.2-3.2,1.2c-1.9,1-3.9,2.5-7.3,2.7c-3.3,0.2-4.8-0.8-7-2.3c-2.2-1.5-4.6-2.5-4.6-2.5
		s1.1-2.6,0.8-5.5c-0.2-2.9-1.8-6.6-1.8-9.6C242.6,70.2,244.1,64,250.7,58 M282.9,83.6c1.4-3.6,2-7,0.9-14.4
		c-0.9-6.2-2.1-11.5-2.4-18.2c0,0,4.6,1,11.2,7c6.6,6,8.1,12.2,8.1,15.3c0,3-1.6,6.7-1.8,9.6c-0.2,2.9,0.8,5.5,0.8,5.5
		s-2.4,1-4.6,2.5c-2.2,1.5-3.7,2.4-7,2.3c-3.3-0.2-5.4-1.7-7.3-2.7c-1.9-1-3.2-1.2-3.2-1.2S281.5,87.2,282.9,83.6 M316.9,62.9
		c-1.5-2.8-2.3-4.2-2.3-4.2s6.2,2.9,9.9,7.1c3.7,4.2,3.6,6.4,4.2,8.5c0.6,2.1,0,5.8-0.5,9.4c-0.6,3.6-0.6,5.7,0.2,7
		c0.7,1.3,1.3,1.9,1.3,1.9s-2.8,0.7-5.4,1.7c-2.6,1-6,2-7.9,0.4c-1.9-1.6-2.4-2.7-1.2-3.7c1.2-1,5.6-2.3,6.1-9.9
		C321.9,73.5,318.4,65.8,316.9,62.9 M183.6,420.3c-3.1,5.7-11.4,11.7-17.5,14.4c-6.1,2.7-12.8,3.5-15.6,3.9
		c-2.8,0.4-0.4,3.8-0.4,3.8l2.9,4.2c0,0-0.4,1.3-4.9,2.5c-4.4,1.3-9.9,2.2-14.5,3.5c-4.6,1.3,1.3,5,3.9,6.4c2.6,1.4,1.9,2.9,0.6,4.3
		c-1.4,1.4-6.5,4.3-9.2,5.2c-2.6,0.8-2.2,2.2,0.4,3.4c2.6,1.1,9.9,2.5,9.9,2.5s-0.1,0.3-4.6,3.6c-4.4,3.3-12.2,5.6-17.4,5.9
		c-5.1,0.3-13.3,0.6-23.6,0.1c-10.3-0.5-11.5-0.7-11.5-0.7s-0.4-3.4-1.1-8.5c-0.7-5.1-3.8-12.3-6.2-15.6c-2.4-3.3-7.3-10-7.3-10
		s0.1-1.4,0.5-3.1c0.4-1.7,0.1-3.4-1.1-6.6c-1.2-3.1-7.2-7.7-7.2-7.7s-0.2-3.4-0.2-6.5c0-3.1-2.2-15.4-4.1-21.2
		c-1.9-5.8-11.3-21-15.7-28.2c-4.3-7.2-6.9-17.9-8.2-26.3c-1.3-8.3-0.8-11-0.4-13.2c0.2-1,0.6-1.8,1-2.6c1.8,2.3,4.1,4.5,7,6.3
		c12.6,7.7,37.7,8.4,37.7,8.4s-2.8,0.8-11.8,0.9c-9,0.1-21-2.9-21-2.9s-0.3,0.6-0.3,2.8c0,2.1,0.6,11.3,13.7,18
		c13.2,6.7,27.7,2.1,27.7,2.1s-1.2,1-4.9,2.4c-3.7,1.4-13.9,3.5-13.9,3.5c0,8.1,7.1,12.5,12.5,14.4c9.4,3.2,20,1,25.5-0.2
		c5.5-1.1,2.4,0.7-2.8,2.9c-5.2,2.2-12.5,2.6-12.5,2.6c1.1,5.9,12.8,11,17.2,11.9c11.1,2.4,19.3,0.9,22.6-0.4
		c3.3-1.3,2.7,0.2,1.7,1.3c-2,2-5.3,2.5-5.3,5.7c0,0.9-0.1,4.1,16.4,5.2c16.5,1.1,22-8.1,24.9-10.8c2.9-2.7,2.7-1.3,2-0.2
		c-0.7,1.1-3.6,4.3-6.1,7.9c-2.5,3.6-1.3,7,9.7,6.7c8.1-0.3,13.4-8.8,15.7-13.3l0.2,0.2c0.1,0.2,0.3,0.4,0.4,0.6
		C187.4,412.3,185.6,416.6,183.6,420.3 M29.6,330.1c-1.2,0.7-5.1,2.9-5.1,2.9s-2-4.1-2.5-5.3c-0.5-1.2-0.3-1.8,0.4-1.8
		c0.7,0,2.8-0.6,4.5-0.8c0.2,0,0.5-0.1,0.6-0.1c0.6,1.6,1.3,3.3,2.2,5C29.7,330.1,29.7,330.1,29.6,330.1 M481.3,301.3
		c5.6-1.6,25.2-7.3,39.1-18.5c13.8-11.2,16.5-20.2,17.6-25c1.1-4.9,1.6-8.7-2-5.9c-3.6,2.8-14.3,11.2-21.6,15.3
		c-7.3,4.1-14.1,6-18,7.1c-4,1.1-7.1,1.8-3.3,0.3c3.8-1.5,16.3-5.9,25.9-15.5c9.6-9.6,17.2-24,17.4-32.9c0.2-8.9-0.5-8.2-3.3-6
		c-2.8,2.2-13,14.7-18.7,19.4c-5.7,4.7-14.9,11.1-19.4,13.8c-4.6,2.7-11.1,5.7-2.1-0.5c9-6.2,26.1-20.7,33-39.5
		c7-18.8,5.7-29.9,5.5-31.8c-0.2-1.9-1.7-5.7-3.3-2.2c-1.6,3.5-13,26.2-22.1,36c-9.2,9.8-7,7.9-9,9.5c-2.1,1.6-5.5,4.4-1.1-1.1
		c4.4-5.5,13.6-18.3,18.3-31c4.7-12.6,6-25.3,6.2-32.6c0.2-7.3-3-17.4-4.4-20.4c-1.4-3-2.8-5.2-3.3-1.7c-0.5,3.5-7.7,25.9-11.7,36.8
		c-4,10.9-11.9,23.2-13.4,25.6c-1.6,2.4-5.7,7.3-1.3-0.9c4.4-8.2,13-32.4,14.1-55.3c1.1-22.9-2.1-35.6-5.2-41.9
		c-3.2-6.3-5.9-8.6-5.9-8.6s0.5,15.6-4.1,38.1c-4.7,22.5-11.5,34.3-11.5,34.3s-2.9,3.2-0.9-2.2c1.3-3.6,4.1-11.6,5.3-25.2
		c1.3-14.2,1.5-30.4-2.7-44.1c-4.5-15-12.3-22.6-12.3-22.6c-2.2,21.5-1.8,49.2-9.6,71.6c-1.5-1.3-3.4-3.8-4.2,1.2
		c-1.4,7.4-4.3,21.2-14,38.8c-9.7,17.6-13.6,20-13.6,20s-1.8-4.3-3.1-6.7c-1.3-2.3-2-3.6-3.6-0.4c-1.6,3.2-7,15.6-18.9,29.3
		c-11.9,13.7-18.5,20.3-18.1,30.6c0.4,10.3,5.7,15.5,12.9,20.1c7.2,4.7,8.4,7.2,7.4,12.8c-1.1,5.6-7.5,7.6-13.1,7.7
		c-5.6,0.2-12.6-0.4-15.1,1.1c-2.5,1.4-2.7,5-5.2,7.5c-2.5,2.5-3.6,4-5.9,4.3c-0.8,0.1-1.5,0.2-2,0.3c-0.5-27,10-39.1,10-39.1
		L337.4,237c-1.5,0.7-3,1.4-4.5,2.1c-0.2-0.4-0.5-0.8-0.9-1.3c-3.9-5-5.2-9.2-5.2-15.6c1.5,0.1,4.4,1.2,7,0.7
		c2.7-0.5,0.7-3.2-0.1-5.7c-0.8-2.5-1.6-11.3-1.1-14.6c0.5-3.3,0.8-4.7,0.8-4.7s4.3,4.7,6.9,4.7c2.7,0,2.4-2.7,2.8-5.6
		c0.6-4.4,2.7-10,6.1-13c0,0,4.6,3.2,10,3.2c5.3,0,12.5-1.5,18.2-6.9c5.7-5.5,5.6-6.8,5.6-6.8s10.6,3.7,18.7,4.1
		c8.1,0.4,16.7-0.9,20.8-9.5c4.1-8.5-1.2-16.4-2.1-17.7c-0.9-1.3-3.6-2.4-3.6,0c0,2.4,0.1,8.8-4.8,12c-4.9,3.2-8.8,3.1-13.4,1.6
		c-4.6-1.5-11.1-3.3-18.6-2.3c-6.7,1-7.6,1.5-7.7,1.6c0.3-0.4,6.4-6.6,12.3-8.4c6.1-1.9,9.7,0.7,11.7,3.1c2,2.4,3.7,6.3,5.3,0.7
		c1.6-5.6,0.7-12-2-16.1c-2.7-4.1-8.4-6.8-14.3-6.1c-6,0.7-8.1,1.6-8.1,1.6s-3.1-8.6-10.8-10.2c-9.4-2-19.7,1.6-27.9,6.1
		c0,0-6.4,1.5-12.9-0.4c-4.3-1.2-8.5-3.8-10.9-5.4c0.7-2.5,2.2-7.1,2.2-7.1s1.9-0.6,3.8-1.3c1.9-0.7,1.5-1.4,1.8-3
		c0.2-1.6-3.7-4.4-3.7-4.4s-0.6-4.9,5.8-8.2c6.4-3.3,5.7-2.8,5.7-2.8s3.8,0.7,5.3-0.4c1.5-1.1,1.5-1.8,1.5-1.8s2.8-0.9,3.9-2.6
		c1-1.7,1.2-4.2,0.5-6.2c-0.8-2-1.7-2.4-0.7-3.3c1-0.9,2-3.2,2.1-4.8c0.1-1.6,0.1-2,0.1-2s2.2-0.8,2.1-4.1c-0.1-3.3-1.9-4.7-2.9-4.9
		c-1-0.3-1.7-0.3-1.7-0.3s-0.2-2-1.9-4.6c-1.7-2.7-2.8-3.8-2.8-3.8s1.2-0.9,0.6-3.1c-0.7-2.2-2.2-3.5-3.7-4c-1.5-0.5-3.1,0-3.1,0
		s-5-3-7.4-4.3c-2.4-1.2-2.9-1.5-2.9-1.5s-0.1-2.1-0.9-3.2c-0.9-1.1-2.8-1.6-3.9-1.6s-2.2,0.6-2.2,0.6s-8.5-2.2-12-2.8
		c-3.5-0.6-3.7-0.9-3.7-0.9s-7.6-3.6-10.5-4.2c-2.9-0.6-3.8-0.9-3.8-0.9s3.1-3.7,3.2-8c0.2-4.3-2.6-8.3-5.7-10.1
		c-1.7-1-2.6-1.2-3.2-1.5l-0.1-2.9l5.7,0.6l0.5-9.2l-5.5,0.7l0.9-5.5l-11.6-0.1l0.9,5.5l-5.6-0.4l0.5,9l5.9-0.8l-0.6,3.4
		c0,0-2.1,0.4-4,1.7c-3,1.8-5.6,5.3-5.4,9.6c0.2,4.3,2.7,8.1,2.7,8.1s-0.8,0.2-3.7,0.8c-2.9,0.6-10.5,4.2-10.5,4.2s-0.2,0.3-3.7,0.9
		c-3.5,0.6-12,2.8-12,2.8s-1.1-0.6-2.2-0.6c-1,0-3,0.5-3.9,1.6c-0.9,1.1-0.9,3.2-0.9,3.2s-0.6,0.3-2.9,1.5c-2.4,1.2-7.4,4.3-7.4,4.3
		s-1.6-0.5-3.1,0c-1.5,0.5-3,1.8-3.7,4c-0.7,2.2,0.6,3.1,0.6,3.1s-1.1,1.1-2.8,3.8c-1.7,2.7-1.9,4.6-1.9,4.6s-0.7,0-1.7,0.3
		c-1,0.3-2.8,1.6-2.9,4.9c-0.1,3.3,2.1,4.1,2.1,4.1s0,0.4,0.1,2c0.1,1.6,1,3.9,2.1,4.8c1,1,0.1,1.3-0.7,3.3c-0.8,2-0.6,4.5,0.5,6.2
		c1,1.7,3.9,2.6,3.9,2.6s0,0.7,1.5,1.8c1.5,1.1,5.3,0.4,5.3,0.4s-0.7-0.6,5.7,2.8c6.4,3.3,5.8,8.2,5.8,8.2s-3.9,2.8-3.7,4.4
		c0.2,1.6-0.2,2.3,1.8,3c1.9,0.7,3.8,1.3,3.8,1.3s1.5,4.6,2.2,7.1c-2.4,1.6-6.7,4.2-10.9,5.4c-6.5,1.9-12.9,0.4-12.9,0.4
		c-8.1-4.5-18.5-8.1-27.9-6.1c-7.7,1.6-10.8,10.2-10.8,10.2s-2.1-0.9-8.1-1.6c-6-0.7-11.7,2-14.3,6.1c-2.7,4.1-3.6,10.5-2,16.1
		c1.6,5.6,3.3,1.7,5.3-0.7c2-2.4,5.6-4.9,11.7-3.1c5.9,1.8,12,8,12.3,8.4c-0.1-0.1-1-0.6-7.7-1.6c-7.4-1.1-13.9,0.8-18.6,2.3
		c-4.6,1.5-8.5,1.6-13.4-1.6c-4.9-3.2-4.8-9.6-4.8-12c0-2.4-2.7-1.3-3.6,0c-0.9,1.3-6.2,9.2-2.1,17.7c4.1,8.5,12.7,9.8,20.8,9.5
		c8.1-0.4,18.7-4.1,18.7-4.1s-0.1,1.3,5.6,6.8c5.7,5.5,12.9,6.9,18.2,6.9s9.9-3.2,9.9-3.2c3.4,3.1,5.5,8.6,6.1,13
		c0.4,2.9,0.1,5.6,2.8,5.6c2.7,0,6.9-4.7,6.9-4.7s0.3,1.3,0.8,4.7c0.5,3.3-0.3,12.1-1.1,14.6c-0.8,2.5-2.8,5.2-0.1,5.7
		c2.7,0.5,5.6-0.5,7-0.7c0,6.4-1.3,10.6-5.2,15.6c-0.3,0.4-0.6,0.8-0.8,1.2c-1.5-0.6-2.9-1.3-4.4-2l-29.3,34.4
		c0,0,10.5,12.1,10,39.3l0-0.2c-0.5,0-1.2-0.1-2.1-0.3c-2.3-0.4-3.4-1.8-5.9-4.3c-2.5-2.5-2.7-6.1-5.2-7.5
		c-2.5-1.4-9.5-0.9-15.1-1.1c-5.6-0.2-12-2.2-13.1-7.7c-1.1-5.6,0.2-8.1,7.4-12.8c7.2-4.7,12.6-9.9,12.9-20.1
		c0.4-10.2-6.3-16.9-18.1-30.6c-11.9-13.7-17.2-26.1-18.9-29.3c-1.6-3.2-2.3-2-3.6,0.4c-1.3,2.3-3.1,6.7-3.1,6.7s-4-2.3-13.6-20
		c-9.7-17.6-12.6-31.5-14-38.8c-0.8-5-2.7-2.5-4.2-1.2c-7.9-22.4-7.4-50.1-9.6-71.6c0,0-7.8,7.7-12.3,22.6
		c-4.1,13.8-4,29.9-2.7,44.1c1.3,13.5,4,21.5,5.3,25.2c2,5.4-0.9,2.2-0.9,2.2s-6.8-11.9-11.5-34.3c-4.7-22.5-4.1-38.1-4.1-38.1
		s-2.7,2.2-5.9,8.6c-3.2,6.3-6.3,19-5.2,41.9c1.1,22.9,9.6,47.1,14.1,55.3c4.4,8.2,0.3,3.3-1.3,0.9c-1.6-2.4-9.5-14.7-13.4-25.6
		c-4-10.9-11.2-33.4-11.7-36.8c-0.5-3.5-1.9-1.3-3.3,1.7c-1.4,3-4.6,13.1-4.4,20.4c0.2,7.3,1.4,19.9,6.2,32.6
		c4.7,12.6,13.9,25.4,18.3,31c4.4,5.5,0.9,2.7-1.1,1.1c-2.1-1.6,0.2,0.3-9-9.5c-9.2-9.8-20.5-32.6-22.1-36c-1.6-3.5-3.2,0.3-3.3,2.2
		c-0.2,1.9-1.4,13,5.5,31.8c7,18.8,24,33.4,33,39.5c9,6.2,2.5,3.2-2.1,0.5c-4.6-2.7-13.8-9-19.4-13.8c-5.7-4.7-15.8-17.2-18.7-19.4
		c-2.8-2.2-3.5-2.8-3.3,6c0.2,8.9,7.7,23.3,17.4,32.9c9.6,9.6,22.1,14,25.9,15.5c3.8,1.5,0.6,0.8-3.3-0.3c-4-1.1-10.7-3-18-7.1
		c-7.3-4.1-18-12.5-21.6-15.3c-3.6-2.8-3.1,1-2,5.9c1.1,4.9,3.8,13.8,17.6,25c13.8,11.2,33.4,16.9,39.1,18.5
		c5.6,1.6,1.7,1.6,1.7,1.6s-2.2-0.3-13.7-2.9c-11.4-2.5-28.7-11.6-33.4-14.5c-4.7-2.9-5.4-4.1-4.8,2.1c0.6,6.2,7.2,19.5,17.8,25.7
		c10.6,6.2,29.6,9.4,34.5,9.6c4.9,0.2,3.7,1,1.4,1.1c-2.2,0.2-7.7,0.2-16.7-0.9c-7.4-0.9-18.3-4.4-22-5.7c-0.4-1.6-0.8-3.1-1-4.1
		c-0.4-2.4-1.7-2-2.4-1.5c-0.8,0.5-1.2,1-3.8,2.3c-2.6,1.3-2.7-0.3-2.8-1c-0.1-0.8-0.6-4.2-0.7-6c-0.1-1.8-1-1.8-2.3-1.3
		c-1.2,0.5-7.1,3-9.3,3.9c-2.2,1-0.2,2.7,1,4.8c1.1,2.1,2.9,5.2,2.9,5.2s-5.5,1.5-7.3,1.9c-1.7,0.4-1.2,1.7-0.8,2.9
		c0.4,1.2,3.1,7.4,3.8,9.1c0.7,1.8,2.3,0.7,2.3,0.7l5.5-3.2l1.9,7.4c-0.1,0.1-2.5,0.6-5.3,2.5c-2.8,2-2.1,4.5,1.3,5.4
		c3.3,1,7.2,2.6,11.5,10.5c4.3,7.8,5.4,21.9,8.1,44.1c2.6,22.2,16.8,33.5,18.8,34.9c1.9,1.4,0.8,2.5,0.8,2.5s-1.9,2.8-1.1,7.1
		c0.8,4.3,4.6,6.8,6.5,7.5c1.9,0.7,1.4,2.6,1.4,2.6s-1,4.7,0,13.4c1,8.6,8.1,18.4,10,20.1c1.9,1.7,2.1,2.5,1.8,3.2
		c-0.3,0.7-1.5,0.1-3.9,2c-2.4,1.8-5,4.3-6.7,7.4c-1.7,3.1-1.1,4.9-0.6,9.1c0.6,4.2,6.7,7.9,6.7,7.9s-1.1,0.3-1.4,3.3
		c-0.3,3.1,1.9,6.6,4.7,8.8c2.8,2.2,8.1,3.3,8.1,3.3s0.4,2.6,0.7,4.5c0.3,1.8,3.8,3.6,6,4.9c2.2,1.3,6.5,0.6,8.3-0.3
		c1.8-0.8,3.1,0.1,4.2,2c1.1,1.8,0.7,8.8,0.7,11.6c0,2.8-1.7,5.7-0.7,7.1c1,1.4,3.6,0.4,6.3-1.1c2.6-1.5,3.3-0.4,5.7,1.1
		c2.4,1.5,6.1,2.9,7.1,2.8c1-0.1,0.6-2.7,0.6-4.7c0-2.1,0.4-6.8,1.3-7.5c0.5-0.3,4.6-0.6,7.7-2c1.5-0.6,3.3-1.3,3.5-2.6
		c0.1-1.4-1.9-1.4-6.5-3.8c-4.6-2.4-5.4-3.8-8.3-5.7c-2.9-2-1.5-2.6-1.5-3.5c0-0.8,1.4-1.8,1.9-2.9c0.6-1.1,0.3-3.6,0.3-3.6
		s2.4-2.4,3.5-3.6c1.1-1.3,2.5-3.2,4-4.5c1.5-1.3,3.9-7.2,5.4-9.2c1.5-2,5-4,7.1-6.7c2.1-2.7,7.6-7,10.8-9.1
		c3.2-2.1,11.8-6.1,11.8-6.1s-0.1,5.2,2.1,7.7c2.2,2.5,5.1-1.9,15-8.9c9.9-7,17.4-9.5,17.4-9.5s2.1,3.2,4.7,6.6
		c2.6,3.4,5-0.1,17.1-16.9c9.5-13.2,22.1-25.3,27-29.8c0.9,0.4,1.8,0.8,2.7,1.2c-0.2,0.6-0.5,1.4-0.7,2.2c-1.1,3.5-2.9,5.7-5.3,10.5
		c-2.4,4.8-6,6-10.1,12.5c-4.2,6.5-4.7,10.9-5.1,17.6c-0.4,6.7,3.3,8,3.3,8s-6.1,6-7.9,10.4c-1.8,4.4-2.8,13.4-2.8,13.4
		s-1,0.4-3.2,5c-2.2,4.6-6.2,5.3-12.1,11.1c-5.8,5.8-12.3,8.3-15.4,10.1c-3,1.8-2.2,3.6-1.4,6c0.8,2.4,5,4.7,9.8,6.5
		c4.8,1.8,6.5,1.1,9.8,1c3.3-0.1,0.7,2.5-0.7,3.9c-1.4,1.4-3.2,6.2-2.9,11.6c0.3,5.4,4.3,4.2,9.3,3.3c5-0.8,10.8-3.3,10.8-3.3
		l-0.6,1.5c-0.6,1.5-0.8,2.6-0.8,6.9c0,4.3,0.7,6.4,1.9,7.5c1.2,1.1,3.7-1.2,5.5-1.8c1.8-0.6,4.9-2.4,9.3-3.3c4.4-1,6.1-2.9,6.1-2.9
		s-1.1,1.4-1.4,4.4c-0.3,3.1-0.1,7.6,0.6,10.3c0.7,2.6,2.6,5.8,5.7,8.6c3,2.8,3.7,1.5,6-1.9c2.2-3.5,6.8-7.9,6.8-7.9
		s0.3,1.1,3.3,10.9c3,9.8,13,18,13,18s10-8.2,13-18c3-9.8,3.3-10.9,3.3-10.9s4.6,4.4,6.8,7.9c2.2,3.5,2.9,4.7,6,1.9
		c3-2.8,5-6,5.7-8.6c0.7-2.6,0.8-7.2,0.6-10.3c-0.3-3-1.4-4.4-1.4-4.4s1.7,1.9,6.1,2.9c4.4,1,7.5,2.8,9.3,3.3
		c1.8,0.6,4.3,2.9,5.5,1.8c1.2-1.1,1.9-3.2,1.9-7.5c0-4.3-0.3-5.4-0.8-6.9l-0.6-1.5c0,0,5.8,2.5,10.8,3.3c5,0.8,9,2.1,9.3-3.3
		c0.3-5.4-1.5-10.2-2.9-11.6c-1.4-1.4-4-4-0.7-3.9c3.3,0.1,5,0.8,9.8-1c4.8-1.8,9-4.2,9.8-6.5c0.8-2.4,1.7-4.2-1.4-6
		c-3-1.8-9.6-4.3-15.4-10.1c-5.8-5.8-9.8-6.5-12.1-11.1c-2.2-4.6-3.2-5-3.2-5s-1-9-2.8-13.4c-1.8-4.4-7.9-10.4-7.9-10.4
		s3.7-1.4,3.3-8c-0.4-6.7-1-11.1-5.1-17.6c-4.2-6.5-7.8-7.6-10.1-12.5c-2.4-4.8-4.2-7.1-5.3-10.5c-0.2-0.7-0.5-1.4-0.7-2.1
		c1.2-0.5,2.4-1.1,3.6-1.6c4.8,4.5,17.5,16.6,27,29.8c12.1,16.7,14.5,20.2,17.1,16.9c2.6-3.3,4.7-6.5,4.7-6.5s7.5,2.5,17.4,9.5
		c9.9,7,12.8,11.4,15,8.9c1.2-1.3,1.4-3.5,1.6-5.2c0,0,5.7,1.7,12.2,3.9c3.9,1.4,8.2,3.1,11.4,4.4c8.6,3.6,9.5,5.5,16.3,10.9
		c6.8,5.4,16.5,4.9,25.7,2.1c9.2-2.8,33.6-10.8,43.4-15.1c9.8-4.2,16.8-8,17.8-9.9c1-2,2.2-7.4,2.2-9.4c0-2-2.2-4.9-2.9-5.4
		c-0.7-0.5-0.4-2.1-0.2-3.3c0.2-1.2-0.4-5-2-6.6c-1.5-1.7-1.3-2.3-1.1-7c0.4-10.1-6.8-22.8-17-26.8c0,0-0.3-1.2-1.1-1.9
		c-0.8-0.7-2.2-1.3-2.2-1.3s0.2-5.8,0.1-7c-0.1-1.2,0.5-1.1,1.2-0.8c0.7,0.3,1.8,1.7,3.4,2.1c1.7,0.4,2.7-0.8,3-2.6
		c0.3-1.9,1.7-5.6,2.3-7.5c0.6-1.9-0.1-2.1-0.9-2.3c-0.8-0.2-3.2-0.5-4.4-0.8c-1.2-0.3-1.2-0.3-0.9-1c0.3-0.6,0.7-1.6,2.2-3.9
		c1.5-2.3,0.1-2.4-1.3-2.9c-1.4-0.5-8-2.5-9.8-2.8c-1.8-0.3-2.2,1.2-2.2,2c0,0.8,0.1,4.1,0.1,5.3c0.1,1.2-1.1,0.9-1.8,0.6
		c-0.7-0.3-2.3-1.3-3.5-2.3c-1.2-1-2.1-0.1-2.6,1.3c-0.5,1.4-2,7-2.5,8.7c-0.5,1.7-0.3,3,0.3,3.2c0.7,0.3,3.9,0,5.9,0
		c1.9,0,0.8,1.1,0.8,1.1s-2.1,3.4-2.8,4.7c-0.7,1.3-1.9,1.5-3.4,1.5c-1.6,0-4.2,0-4.2,0s-10.6,0.4-18.4,6.2
		c-7.8,5.8-10,10.6-11.2,13.4c-1.2,2.8-2.6,2.2-3.8,3.2c-1.2,1-4.6,4.6-4.6,6.8c0,2.2,0.8,3.4-2.6,5.6c-3.4,2.2-6.2,11.8-1.6,16.8
		c4.6,5,6.4,10,7.8,12.4c1.4,2.4,0,3.4-1.2,3.4c-1.2,0-3.7-2-5.8-3.6c-2.1-1.6-12.6-9.8-17.2-13.2c-4.5-3.4-1.2-3-1.2-3
		s1.2,0.1,3.8-1c2.6-1.1,3.1-2.5,0.4-3.3c-2.6-0.8-7.8-3.8-9.2-5.2c-1.4-1.4-2.1-2.9,0.6-4.3c2.6-1.4,8.5-5.2,3.9-6.4
		c-4.6-1.3-10-2.2-14.5-3.5c-4.4-1.3-4.9-2.5-4.9-2.5l2.9-4.2c0,0,2.4-3.3-0.4-3.8c-2.8-0.4-9.5-1.3-15.6-3.9
		c-12.2-5.3-19.9-14.3-22.7-25.2l0.2-0.3c2.3,4.5,7.6,13,15.6,13.2c11,0.4,12.2-3.1,9.7-6.7c-2.5-3.6-5.4-6.8-6.1-7.9
		c-0.7-1.1-0.9-2.5,2,0.2s8.3,11.9,24.9,10.8c16.5-1.1,16.4-4.3,16.4-5.2c0-3.2-3.4-3.7-5.3-5.7c-1-1-1.7-2.5,1.7-1.3
		c3.3,1.3,11.5,2.8,22.6,0.4c4.4-0.9,16-6,17.1-11.9c0,0-7.4-0.4-12.5-2.6c-5.2-2.2-8.3-4.1-2.8-2.9c5.5,1.1,16.1,3.3,25.5,0.2
		c5.5-1.9,12.5-6.3,12.5-14.4c0,0-10.2-2.1-13.9-3.5c-3.7-1.4-4.9-2.4-4.9-2.4s14.5,4.6,27.7-2.1c13.2-6.7,13.7-15.8,13.7-18
		c0-2.1-0.3-2.8-0.3-2.8s-12,2.9-21,2.9c-9-0.1-11.8-0.9-11.8-0.9s25.1-0.7,37.7-8.4c12.6-7.7,13.3-22.9,13.3-22.9
		s-14.3,5.1-23.3,6.1c-9,1-14.5,1-16.7,0.9c-2.2-0.2-3.5-0.9,1.4-1.1c4.9-0.2,24-3.4,34.5-9.6c10.6-6.2,17.2-19.5,17.8-25.7
		c0.6-6.2-0.1-5.1-4.8-2.1c-4.7,2.9-22,12-33.4,14.5c-11.4,2.5-13.7,2.9-13.7,2.9S475.6,302.9,481.3,301.3"/>
	<path class="st1" d="M181.4,168.5c-2.6-1.5-9.4-4.4-16.7-5.1c-7.3-0.6-12.9,0.5-19,2.1c-4.3,1.2-7.9,1.4-11.3,0.4
		c-5.2-1.4-9.3-6.1-10.7-11.9c0,0-4.8,6.2,0.1,12.9c2.4,3.2,5.5,5.2,8.6,5.9c10.2,2.1,20.3-4.2,28.8-4.7c8.2-0.5,14.6,4.7,14.6,4.7
		s1.9,1.6,4.7,0C183.2,171.2,184,170,181.4,168.5"/>
	<path class="st1" d="M419.7,154.1c-1.4,5.8-5.4,10.5-10.7,11.9c-3.5,0.9-7,0.8-11.3-0.4c-6.1-1.6-11.7-2.7-19-2.1
		c-7.3,0.6-14.2,3.6-16.7,5.1c-2.5,1.5-1.8,2.7,1,4.3c2.7,1.6,4.7,0,4.7,0s6.4-5.2,14.6-4.7c8.5,0.5,18.5,6.8,28.8,4.7
		c3.1-0.6,6.2-2.7,8.6-5.9C424.5,160.3,419.7,154.1,419.7,154.1"/>
	<path class="st2" d="M354.4,304.6c0-20.4,9.4-33.3,9.4-33.3L338.2,242c-24.3,9.4-46.6,10-66.5-0.1c-19.9,10.1-42.2,9.5-66.5,0.1
		l-25.6,29.3c0,0,9.4,12.9,9.4,33.3c0,20.4-3.9,35.6-6.3,45.4c-2.3,9.9-4.3,28.3,1,41.5c5.3,13.2,10.9,24.7,33.6,34.2
		c22.7,9.5,34.6,14.5,42.5,21.1c7.9,6.6,11.9,11.9,11.9,11.9s4-5.3,11.9-11.9c7.9-6.6,19.8-11.5,42.5-21.1
		c22.7-9.5,28.3-21.1,33.6-34.2c5.3-13.2,3.3-31.6,1-41.5C358.4,340.2,354.4,325,354.4,304.6"/>
	<path class="st2" d="M158.4,467.6c0,0-8.2,3.9-10.9,4.6c-2.6,0.7-3.2,0.7-3.2,0.7s-5.6,5.1-9.8,7.6c-4.3,2.6-9.3,4.4-14.3,5
		c-6.4,0.7-24.1,0.5-32.1,0.2c-7.9-0.3-12.9,1.6-16.3,5.4c-3.4,3.8-4.2,9.4,0.1,13.6c4.3,4.2,9.2,2.1,10.8-0.5
		c1.6-2.6,0.8-6,0.1-7.5c-0.7-1.5,1.4-2,3.6-2.1c2.2-0.1,5.9,0.2,9.4,0.7c3.4,0.5,9.5,2.5,12.1,3.9c2.6,1.4,1.1,1.6-0.7,1.3
		c-1.8-0.3-3.8-1-7-2.2c-3.2-1.2-5.9-1.8-7.9-1.9c-2-0.1-1.3,1-0.9,1.7c0.4,0.7,1.5,2.4,1.8,3.2c0.3,0.8-0.6,3.8-0.6,3.8l1,1.9
		c0,0,1.2-1.9,1.6-2.9c0.4-1-0.1-2.9,0.3-3.8c0.4-0.9,2.1-0.9,3.4,0.6c1.3,1.5,2.8,3.3,3.5,7.2c0.7,3.8-0.6,6.6-0.6,6.6
		s1.6,1.3,1.9,2.2c0.3,0.9-0.4,4.5-0.4,4.5s1.1,0.7,2.1-1.4c1-2.1,2.2-5.8,2.5-7.2c0.3-1.3,1.2-3.7,2.8-1.9c1.6,1.8,2.7,4,3,5.1
		c0.3,1.1,0.3,2,0.3,2s3.6-3.5,4.8-5.6c1.2-2,3.7-5,7.1-7.9c3.4-2.8,9.4-8.5,12.3-10.4c2.9-1.9,10.4-6,12.7-7.4s2.7-1.5,3.1-5.5
		c0.4-3.9,2.3-7.5,3.2-10.2C158.2,468.6,158.4,467.6,158.4,467.6"/>
	<path class="st2" d="M152,464.6c0,0-1-0.1-2.4-0.3c-1.4-0.2-4.4-1.2-5.3-1.6c-0.9-0.4-2.3-0.5-3.2,0.5c-0.9,1-8.2,5.3-8.2,5.3h12.2
		C149.2,468.5,152,464.6,152,464.6"/>
	<path class="st2" d="M186.3,462.5v-1.2l-1.6-3.5c0,0-1.9,1.2-3.7,3.1c-2.4,2.5-4.9,5.9-6.1,7.4c-2,2.6-4.9,5-2.4,0.9
		c2.4-4.1,3.2-5.9,5.2-8.7c1.9-2.8,3.4-4,3.2-4.1c-0.2-0.2-1.8-0.4-6.9-1.1c-5.1-0.7-8.3-2.6-10.6-4c-2.4-1.4-6.6-3.7-6.6-3.7
		s-8.7,3.7-11.9,4.5c-3.2,0.8-5.2,1.3-2,2.8c3.2,1.5,5.8,2,7.4,3c1.5,1,6.3,2.5,9.2,2.5c2.9,0,7.9,0.1,5.9,2.1
		c-1.9,2-4.1,5.9-6.2,11.9c-2.1,5.9-2.2,11.2-2.2,13.8c0,2.6,0.3,5.2,0.3,5.2s3.6-4,13.1-10c9.6-6,13.1-8,14.9-8.9
		c1.8-0.8,2.7-0.8,2.4-3.1C187.2,469.2,186.3,463.6,186.3,462.5"/>
	<path class="st2" d="M222.8,433.4c-0.6-0.3-1.2-0.5-1.8-0.8c-0.2,0-0.3,0.1-0.4,0.2c-1.1,0.6-7,4.5-9.3,8.3c-2.4,3.8-4.7,4.2-2.1,0
		c2.6-4.2,4.5-6.5,6.5-8.3c0.8-0.7,1.5-1.3,2-1.7c-4.7-2.3-9.8-5-14.7-8.4c-0.6,1.3-1.9,3.5-3.2,5c-2,2.1-6.5,3.9-6.5,3.9
		s3.6-3.7,4.8-6.5c0.8-1.8,1.3-3.7,1.6-4.9c-3.4-2.7-6.7-5.7-9.7-9.2c-0.6,2.4-2.5,8.3-8.3,14.8c-7.5,8.4-22.6,12.7-22.6,12.7
		s-5.3,0.6-1,1.7c4.3,1.1,7.3,3,15.6,1.6c8.3-1.5,8.9-1.8,10-2.1c1.1-0.3,4.2-0.1,0,1.5c-4.1,1.6-13.8,3-17.5,2.7
		c-3.7-0.3-8.8-1.1-3.5,1.7c5.3,2.8,7.5,3.9,10.8,3.9c3.3,0,4.6,1,7.7,1c3.1,0,4-0.6,6.3-1c2.2-0.4,3.7,0.3,3.7,1.2
		c0,0.9-3,3.4-2.9,9.5c0.1,6.2,0.6,10.2,1.1,12c0.6,1.8,1.9,4.7,2.8,6.4c0.9,1.7,1.2,3.4,2.1-0.2c0.9-3.6,2.9-8.8,3.7-12.2
		c0.8-3.5,1.2-3.6,1.6-5.4c0.3-1.8,2.2-3.1,1.3,0.1c-0.9,3.3-1.9,7.4-2.6,10.3c-0.7,2.9-2.2,8.3,0.4,4c2.7-4.3,12.8-15.6,14.5-17.6
		c1.7-2,3-3.9,4.3-5.6c1.2-1.7,4.7-3.9,6.4-6.4c1.5-2.2,6-6.6,7.9-8.1C229,436.1,226,434.9,222.8,433.4"/>
	<path class="st2" d="M26.5,319.7c-0.1-0.7-1.4-3-1.7-4.2c-0.3-1.2-1.5-0.5-1.5-0.5s-2.6,1.5-4.6,2c-1.9,0.5-2.2-0.2-2.4-1.2
		c-0.2-1-0.7-4.2-1-6.4c-0.3-2.2-0.8-2.1-1.6-1.8c-0.8,0.3-3.2,1.2-4.9,2c-1.7,0.7-1.1,1.5-0.6,2.5c0.5,0.9,2.5,4.9,3.4,6.3
		c0.9,1.4,0.1,2-0.9,2.5c-1,0.5-2.5,0.7-4.5,1.3c-2,0.7-1.9,1.1-1.7,1.8c0.2,0.7,1.5,3.4,2.3,4.7c0.7,1.3,1.4,0.4,1.4,0.4
		s2.1-1.9,4-2.8c1.8-0.9,1.9-0.6,2.4,0.7c0.5,1.3,2.5,8.4,3,9.8c0.4,1.3,1.1,1.2,2,0.8c0.9-0.4,2.2-0.6,3.3-0.9
		c1.1-0.3,1.5-2.5,1.5-2.5s-4-7.1-5-8.9c-1.1-1.8,0-2.2,0.8-2.4c0.8-0.1,3.2-0.5,5.2-0.9C27.1,321.5,26.5,320.4,26.5,319.7"/>
	<path class="st2" d="M71.2,513.4c-0.3-1.7,0-3.4-1.3-4.7c-1.3-1.3-2.9-3.9-3.5-6.1c-0.6-2.1,0.5-3.1,0.3-4.3
		c-0.2-1.2-1.8-1.2-3.4,0.1c-1.6,1.3-3.7,2.5-3.7,6.4c0,3.8,1.4,8.4,6.7,10C71.6,516.4,71.5,515.1,71.2,513.4"/>
	<path class="st2" d="M76.6,511.6c0,0-1.1-0.7-1.6,0.3c-0.5,1-0.4,1.5,1,3.7s2.3,2.7,3.9,3.7c1.6,1,0.5-1,0.3-1.6
		c-0.2-0.6,0-1.4-0.4-1.9c-0.4-0.5-0.6-1.1-0.6-2.7C79.2,511.5,76.6,511.6,76.6,511.6"/>
	<path class="st2" d="M83.1,529.8c1-1.5,1.9-1.9,4.3-3c2.4-1.1,6.8-1.7,8.3-1.8c1.5-0.1,4.9-3,4.4-6.1c-0.5-3-2.7-4.2-4.6-4.6
		c-1.9-0.4-3.6-0.4-4.2,0.5c-0.6,0.9-1.7,2.1-3.8,2.8c-2.1,0.7-2.4,1.4-3.7,1.8c-1.3,0.4-0.3,1.2-1.4,2.1c-1.1,0.9-2.6,0-4.3-0.5
		c-1.7-0.5-1.8-0.8-3.7-0.9c-1.9-0.1-6.9-0.4-6.9-0.4s-0.2-0.1-1.3-0.1c-1.1,0-1.2,0.2-1.7,1.4c-0.5,1.2,0.1,4.2,1.3,5.8
		c1.2,1.5,5.1,2.2,7.7,3c2.6,0.8,3.9,1.1,6.1,1.5C81.8,531.7,82.1,531.3,83.1,529.8"/>
	<path class="st2" d="M107.6,532.2c2.1-1.4,0.9-3.8,0.4-5.3c-0.5-1.5-3.4-1.8-4.9-1.8c-1.5,0-2.3,0-3.1,0.7
		c-0.8,0.7-1.9,1.7-4.1,2.4c-2.2,0.7-3.9,1.5-6.9,2.7c-3,1.2-3.9,3.2-5.2,4c-1.3,0.8-3.8,0-3.8,0s-1.8-0.5-2.4,0
		c-0.6,0.5,0,1.5,1.2,2.8c1.2,1.3,3.5,1.2,6.1,2c2.6,0.8,3.1,0.2,4.1-0.5c1-0.7,1.8-2.2,3.6-3.3c1.8-1.1,5.7-1.3,7.6-1.5
		C102.1,534.2,105.5,533.6,107.6,532.2"/>
	<path class="st2" d="M107.6,523c0.9,0.8,1.9,1.9,2.7,0.6c0.8-1.3,2.1-4,1.2-5.6c-0.9-1.6-2-3-2-3s-1.5,4.6-2.2,5.9
		C106.6,522,106.7,522.2,107.6,523"/>
	<path class="st2" d="M99.4,509.1c0-2.6-1.8-5.9-1.8-5.9s-0.6,2.4-1.7,4.5c-1.1,2.1-2.2,3.2-2.2,3.2s2.6,0.7,3.6,0.7
		S99.4,511.7,99.4,509.1"/>
	<path class="st2" d="M84.4,514.6c2.8-0.6,4.3-1.7,5.5-2.7c1.2-1,1.9-3.7,1.1-5.1c-0.8-1.4-2.8-2.9-3.6-2.9h-1.5
		c0,0-0.8,2.6-1.9,3.9c-1.1,1.3-2.4,2.2-2.3,3.9C81.7,513.4,81.5,515.2,84.4,514.6"/>
	<path class="st2" d="M90.1,501.8c0.1-1.3-0.4-2.7-1.3-3.6c-0.9-0.9-1.5-1.5-1.5-1.5s-0.2,2-0.4,3.1c-0.2,1.1-0.3,1.3-0.3,1.3
		s0.8,0.8,1.5,1.1C88.8,502.5,90,503.1,90.1,501.8"/>
	<path class="st2" d="M55.3,430.2c0,0,3.3,0,1.9-11.9c-1.4-11.9-7.6-23.1-12.5-30.9c-4.9-7.8-10-20-12.2-26.5
		c-2.2-6.5-3.7-15.4-3.7-20.1c0-4.7,2-7.1,2-7.1s0.9-1.3,0.1-2.1c-0.8-0.8-2.1-0.1-3.3,1.2c-1.3,1.3-2.6,3.6-3.1,5.3
		c-0.5,1.7-0.5,2.3-0.5,2.3s-2.5-0.6-6.6-0.3c-4,0.3-6,0.7-6.1,1.5c-0.1,0.9,0.5,1.5,3.5,2.8c2.9,1.3,4.8,1.8,6.2,3.5
		c1.5,1.7,5.2,10.4,6.3,14.6c1.1,4.2,3.6,15.6,4.6,24.5c1,8.9,4,19.8,8.2,28.8C41.4,419,48.9,433,55.3,430.2"/>
	<path class="st2" d="M62.7,451.2c-2.8,1.5-2.7,12.8-1.4,18.6c1.2,5.8,6.9,13.1,8.7,15c1.7,1.9,2.1,1.9,3.1,1.4
		c0.9-0.5,1.3-0.5,1.3-0.5s2.4-0.8,4.3-2.3c1.8-1.4,1.1-5,0.8-8.2c-0.3-3.2-2.8-9.5-7.2-16.9C67.7,451.1,65.4,449.6,62.7,451.2"/>
	<path class="st2" d="M65.7,442.1c0-3.7-3.2-6.4-6.8-6.4c-1.7,0-3.3,0.4-4.2,1.3c-3.7,3.3-1.5,11.7,3.9,11.7c1.9,0,4.2-0.3,5.6-1.7
		C65.4,445.8,65.7,443.8,65.7,442.1"/>
	<path class="st2" d="M118.9,547.8c-1.5-0.3-2.3-0.9-4.5-2.3c-2.2-1.5-5.6-4.5-6.2-6c-0.6-1.5-0.6-1.6-2.7-0.9
		c-2.1,0.7-5,0.6-7.3,0.7c-2.2,0.1,0.3,2.6,1.8,4.9c1.6,2.3,1,10.2,1,10.2s0,0.7-0.3,1.8c-0.3,1.1-0.1,1.9,0.5,2.2
		c0.6,0.3,0.9-0.3,2.5-2.1c1.6-1.8,4.4-6.6,4.4-6.6s0.4,0.1,2.8,0.7c2.4,0.6,6.3,0.3,8.3-0.3C121.3,549.5,120.4,548.1,118.9,547.8"
		/>
	<path class="st2" d="M109.7,553.9c-1-0.2-1.5-0.3-2,0.4c-0.5,0.7-0.9,2-1.2,2.7c-0.3,0.7-0.2,1.3,0.4,1.8c0.6,0.5,1.5,1.1,1.5,1.1
		s0.9,1,1.7,1.4c0.9,0.4,1-0.9,1-1.8c0-0.9,0.5-2.7,0.5-3.8C111.7,554.6,110.7,554,109.7,553.9"/>
	<path class="st2" d="M83.3,174.4c0.3,6.2,7.1,18,11,24.3c3.9,6.3,5,8.9,4.3,9.3c-0.7,0.4-2.3-2.8-4.4-5.6
		c-2.1-2.8-6.3-9.4-9.8-14.4c-3.5-5-8.6-16.8-9.3-17.9c-0.7-1.1-0.9-1.7-2.7-0.4c-1.7,1.3-5.1,14.4-1.1,23.3
		c4,8.9,10.1,15.3,12.6,18.4c2.6,3.1,5.9,7.9,5.4,8.3c-0.5,0.4-1.5-0.8-4.6-4c-3.1-3.2-8.2-8.7-11.5-12.8c-2.7-3.3-6.4-9.9-7.7-12.3
		c-0.5-0.9-1.1-0.7-1.6-0.2c-1.1,1.1-2.9,3.7-2.1,10.7c1.1,9.8,6.2,15.5,10.7,20.4c4.6,5,9.1,9.1,8.5,9.8c-0.7,0.7-5.4-3.5-8.6-6.6
		c-3.2-3.1-11.1-10.8-12.9-12.9c-1.7-2.1-4.3-1.1-4.2,7.4c0.1,8.5,9.5,17.1,13.4,21.8c3.9,4.7,8.7,7.5,8.3,8.5
		c-0.4,0.9-4.3-1.5-6.8-3.2c-2.5-1.7-12.1-7.9-14-9.3c-1.9-1.3-2.8,1.2-0.4,9.3c2.4,8.1,9.4,14.5,13.6,17.5c4.2,3,10.9,6.6,10.5,7.5
		c-0.4,0.9-3.2-0.3-7.1-2.2c-3.9-1.9-8.6-3.6-11.9-4.6c-3.4-0.9-3.4,1.5-3.4,1.5s-0.7,6.9,4.3,12.4c5,5.5,10.6,7.7,16,8.6
		c5.4,0.9,6.2,1.2,6,2c-0.1,0.8-0.7,0.9-1.9,0.9c-1.2,0-6.2,0.5-10.7,0.5c-4.6,0-7,1.1-7,3.1s-0.1,4.7,6.7,9.3
		c6.8,4.6,14.5,5.2,17.7,5.9c3.2,0.7,3.4,0.9,2.7,1.9c-0.7,0.9-2.1,0.8-7.2,1.3c-5.1,0.5-8.2,2.6-8.9,3.9c-0.7,1.3,0.4,5.4,4.6,8.2
		c4.2,2.8,9.5,3.8,17.6,3.2c8.1-0.5,10.1-0.7,10.3,0.7c0.3,1.3-2.4,1.7-6.4,2.4c-4,0.7-7.1,0.7-9.4,2.5c-2.3,1.9-0.5,5.8,3.4,8.6
		c3.9,2.8,13.6,2.8,17.6,2.6c4-0.3,10.2-1.7,10.6-0.7c0.4,1.1-3,2.7-7.1,4.2c-4.2,1.5-5.4,2.4-6.2,4.2c-0.8,1.7-0.1,3.4,4.8,5.2
		c5,1.9,12.2,1.9,16,0.1c3.8-1.7,5.8-2.4,6.4-1.7c0.7,0.7,0,1.3-0.8,2.3c-0.8,0.9-4,3.5-8.2,4.6c-4.2,1.1-4.6,1.1-6,4.4
		c-1.5,3.4,2.3,6.1,9.8,6.3c7.5,0.3,17.6-2.7,20.8-4.6c3.2-1.9,4.4-2.3,5-1.6c0.5,0.7,0.4,1.1-1.2,2.3c-1.6,1.2-6.7,4.8-9.3,5.5
		c-2.6,0.7-2.8,2.6-2.8,4.3c0,1.7-0.7,5.2,6,6.9c6.7,1.6,14.6,0.4,21.9-4.7c2.3-1.6,3.7-3,4.5-4.2c-0.6-6.9-0.3-11.6,0.5-15.9
		c-1.4-0.1-4.1-0.6-6.9-1.7c-4-1.6-5.6-5.4-6.6-7.4c-0.9-2-2.3-2-3.9-1.5c-1.6,0.5-3.2,1.2-5.5,1.1c-2.3-0.1-7.1-1.3-10.6-5.5
		c-3.5-4.2-2.8-8.2-3-10.2c-0.1-2-3.4-0.5-5-0.5c-1.6,0-6.3-0.7-10.6-3.6c-4.3-3-4.3-7-4.7-8.6c-0.4-1.6-2.1-2.7-3.5-3.2
		c-1.3-0.5-3.5-1.1-6.4-3.5c-3-2.4-4-7.1-4.2-8.7c-0.1-1.6-1.9-1.7-7.9-4.8c-6-3.1-5.5-9.5-5.2-12.1c0.3-2.6,3.1-4.7,3.1-5.7
		c0-0.9-2-1.2-4-2.4c-2-1.2-7.1-3.2-7.2-10.8c-0.1-7.5,4.8-8.3,4.8-8.3s-0.9-0.4-3-1.6c-2-1.2-7.5-5-7.5-9.4c0-4.4,2-6.5,3.5-7.5
		c1.5-1.1,5.5-2.1,5.5-2.1s-2.6-1.6-3.6-5.1s-1.5-7.8,1.1-10.9c2.6-3.1,6.8-3.1,9.1-3.1c2.3,0,4.3,1.2,5.1,0.5
		c0.8-0.7,0.9-1.2,0.1-3c-0.8-1.7-0.9-6.1-0.3-7.5c0.7-1.5,0.8-4.4,6.6-6.3c5.8-1.9,11.8,2,13.7,3.1c1.9,1.1,1.1-1.5,1.1-3.4
		s-3.9-6.6-8.3-13.3c-4.4-6.7-6.4-10.2-11.4-20.4c-5-10.2-8.2-23.4-8.9-26.8c-0.7-3.4-2-1.8-2-1.8s-1.3,0.5-4.4,8.3
		C83.5,161.1,83,168.2,83.3,174.4"/>
	<path class="st2" d="M184.5,311.9c-3.5-0.2-8-2.1-11.4-7.1c-3.5-5-8.6-6.2-17.6-6.1c-9,0.2-13.1-4.2-15.4-10.4
		c-2.2-6.2,0.3-13.3,9.5-17.8c9.2-4.5,13.3-9.5,13.7-17.3c0.3-7.8-9.2-17.5-18.7-28.4c-9.5-10.9-16.9-26.3-16.9-26.3
		s-2.8,3.6-2.8,7.3c0,3.6,1.4,7.4,0,8.5c-1.4,1-1.9-1.6-7.4-4c-5.5-2.4-10-2.8-13.5,1.2c-3.5,4,0,10.9,3.1,14.2
		c3.1,3.3,5.7,5.7,4.8,6.9c-0.9,1.2-5.5-1.9-7.1-2.9c-1.6-1-5.2-5-10.5-4.5c-5.4,0.5-7.3,2.1-7.8,6.6c-0.5,4.5,4.8,8.5,8.3,10.2
		c3.5,1.7,4.8,3.3,4,4c-0.9,0.7-1.7,0-3.3-0.5c-1.6-0.5-5.9-1-8.6,0c-2.8,1-7.3,4.8-3.1,9.5c4.2,4.7,12.8,6.4,14.5,6.7
		c1.7,0.3,2.6-0.2,2.8,1.2c0.2,1.4-3.6,1.4-8.3,1.6c-4.7,0.2-6.1,4.7-5.4,8.1c0.7,3.5,8.5,7.3,12.8,8c4.3,0.7,5.9,0,6.2,1.2
		c0.3,1.2-0.5,1.7-2.9,2.4c-2.4,0.7-7.1,1.2-8,5c-0.9,3.8-1,5.5,2.6,8.8c3.6,3.3,9.5,2.8,11.2,2.4c1.7-0.3,3.8-2.3,5.5-0.5
		c1.7,1.7-1.6,3.1-4.5,5.2c-2.9,2.1-2.8,6.1,2.2,8.8c5,2.8,10,1.7,12.1,1c2.1-0.7,4.8-4,6.2-1.9c1.4,2.1-4.3,2.8-6.7,5.7
		c-2.4,2.9-1.6,7.8,3.3,10.7c4.8,2.9,12.8,0.9,14.2-0.3c1.4-1.2,3.1-1.7,4.1-0.7c1,1-0.5,3.8-1.6,6.2c-1,2.4-2.9,9.5,4.3,12.3
		c7.3,2.8,13.8-3.5,15-4.7c1.2-1.2,2.4-1.4,3.5-0.9c1,0.5,0.5,1.6-0.3,2.8c-0.9,1.2-2.8,6.4,2.4,10c3.5,2.5,7.4,2.3,9.5,1.9
		c1.1-4.1,2.5-8.4,3.9-14.5c0,0-3,2.6-3.9,3.2c-0.9,0.6-1.7,1.4-2.2,1c-0.5-0.3,1.9-1.6,2.5-2.4c0.6-0.8,1.9-1.9,1.9-2.8
		c0.1-0.8,0.5-1.3,1.7-2.4c0.4-0.3,0.7-0.7,0.9-1.1c0.8-4,1.6-8.8,2.4-14.5c0.5-3.9,0.8-7.5,0.9-11L184.5,311.9z"/>
	<path class="st2" d="M36.8,203.9c7.7,15.6,18.6,24.4,18.6,24.4s-1.4-3.9-2.1-6.6c-0.6-2.7-0.1-5.7-0.1-5.7s-2.7-3.5-7.8-11.3
		c-5.1-7.8-7.7-19.3-7.7-19.3s4.7,11.5,8.4,17.6c3.7,6.1,7.9,11.1,7.9,11.1s1.5-5.4,2.5-5.7c1.1-0.3,1.8,0.6,2.7,1.8
		c0.9,1.2,1.7,1.1,1.7,1.1s-1.2-2.6-3.2-5.7c-0.9-1.4-2.1-2.9-3-4.3c-2.9-4.5-9.1-13.2-12.3-21.8c-3.2-8.6-10.1-30.3-11.4-36.7
		c-1.2-6.4-2.4-2.9-3.6,1.8c-1.2,4.7-2.9,11.4-1.8,21.4C26.6,176,29,188.3,36.8,203.9"/>
	<path class="st2" d="M46.8,246.1c2.9,2.1,7.1,5,7.1,5s-0.7-1.6-1.1-3.4c-0.4-1.9-0.6-5.8-0.6-5.8s-3.4-3-5.7-5
		c-2.4-2.1-5.3-4.7-11.2-12c-5.9-7.3-1.1-2.9,3.6,2.3c4.8,5.2,13.9,12.8,13.9,12.8s0-0.1,0.1-1.7c0.1-1.6,0.5-2.7,1.4-3.8
		c0.8-1.1,0.4-1.2-4.8-5.2c-5.1-3.9-18.5-19-23.9-27.9c-5.5-9-11.4-21.1-11.4-21.1s-2.9,17.9,8,37.6C33.1,237.6,43.9,244,46.8,246.1
		"/>
	<path class="st2" d="M104,359.1c6-2.3,4.3-8.2,4.3-8.3c0-0.1-3.7,1.2-7,2.4c-3.4,1.3-11.7,3.7-14.9,3.8c-3.3,0.1-3.3-0.4-3.4-0.9
		c-0.1-0.5,2.5,0,7.2-0.9c4.7-0.9,13-5.2,14.5-6.2c1.4-1,1.3-1.2-0.9-1.4c-2.1-0.2-4-1.2-4.7-1.8c-0.8-0.7-3,0.3-8.4,1.5
		c-5.4,1.3-16.6,3.2-25.2,3.2c-8.6,0-16.6-1.4-17.9-1.7c-1.3-0.3-2.8,0.5,1.3,7.4c4.1,6.9,18.7,10.7,28.8,10.6
		C87.9,366.8,98,361.4,104,359.1"/>
	<path class="st2" d="M77.1,344.7c10.4,0.1,14.3-3,14.3-3s0-0.5-1.4-2.7c-1.4-2.1-1.1-5.8-1.1-5.8s-2.5,0.4-6.8,1.1
		c-4.3,0.6-9.4,1.2-15,0.3c-5.6-1-3.2-1.6,1.2-1.1c4.4,0.5,12.9-1.1,15.7-2c2.7-1,1.6-1.9-0.3-2.5c-1.9-0.6-6.9-3.8-6.9-3.8
		s-12.7,1.6-24.4,0.3c-11.8-1.3-19.2-4.3-21.6-4.7c-2.4-0.4-2.3,0.6-2.3,0.6s-0.6,1.1,3.5,7.4c4.1,6.4,12,10.6,18.8,12.5
		C57.4,343.3,66.6,344.6,77.1,344.7"/>
	<path class="st2" d="M74.4,320.3c0,0-0.4-0.6-1.1-2.8c-0.6-2.1,1.2-3.7,1.2-3.7s-2.4-0.7-10.2-1.7c-7.8-1-8.2-1.6-13-2.7
		c-4.8-1.1-8-2.5-7.9-3c0.1-0.5,1.6,0.3,4.4,1.3c2.8,1.1,14.8,2.3,19.8,3c5,0.7,7.9,1.2,8.8,0.7c0.9-0.5,4-1.3,4-1.3
		s-2.1-0.6-4.8-1.1c-2.7-0.4-5-1.6-6.5-2.6c-1.4-1-1.9-1.2-8.2-1.9c-6.4-0.7-11.5-2.8-22.9-6.9c-11.4-4.2-20-9.1-22.3-11
		c-2.3-1.9-2.1-0.5-1.5,1.9c0.6,2.4,0.5,5.4,6.3,12.1c5.7,6.7,8.6,9.7,23.1,15C58.1,321,74.4,320.3,74.4,320.3"/>
	<path class="st2" d="M31.5,284.9c12.8,9,27.9,12.4,31.1,12.8c0.7-0.8-0.8-3.8-0.1-5.7c0.8-2.2,2.2-2.2,5.3-2.4
		c3.1-0.2,1.1-0.8,0.4-0.8s-0.9-0.1-6-1.4c-5.1-1.3-10.4-2.1-17.4-4.8c-7.1-2.7-9.2-4.6-9-5.1c0.2-0.5,3.3,1.7,9.8,4.2
		c6.5,2.5,14.2,3.5,18.3,4.3c4.2,0.9,0.5-0.9-1.4-2c-1.9-1.2-4.7-5.4-4.7-5.4s-4.6-0.8-12.1-3.1c-7.5-2.3-13.8-4.9-20.1-8.4
		c-2.2-1.2-4.2-2.8-6.5-4.4c-4.3-3.1-8.6-6.2-10.3-7.5c-2.6-1.9-1.8-0.4-1.5,0.8c0.3,1.2,2,6.5,6.1,12.3
		C17.3,274.1,18.7,275.9,31.5,284.9"/>
	<path class="st2" d="M29.4,259.5c12.7,10,23.5,13.1,25.4,13.9c1.9,0.8,1.7-0.3,1.3-1.3c-0.4-1.1-0.6-4.5-0.6-4.5S51,265,45.9,262
		c-5-2.9-10.6-6.9-14.3-9.5c-3.7-2.6-1.5-2.4-0.4-1.4c1.1,1,6.3,4,11.4,7.2c5.1,3.2,12.9,7.8,12.9,7.8s0.2-1.7,1.2-2.7
		c1.1-1.1,3.7-0.8,3.7-0.8s-1.3-1.3-2.1-2.6c-0.8-1.2-5-2.6-9.6-4.8c-4.7-2.2-13.1-8.4-19.3-13.6c-6.2-5.2-18.2-18.3-19-19.4
		c-0.8-1.1-1.3-0.9-1.4,0.4c-0.1,1.3-0.5,2.2,0.8,8.2C11.1,236.9,16.7,249.4,29.4,259.5"/>
	<path class="st2" d="M74.2,164.8c1.4,3,3,5.2,4.1,7.2c1.7,2.9,2.7,4.8,2.7,4.8s0.3-1,0.1-2.8c-0.3-1.8-0.5-4.2-0.1-7.1
		c0.3-1.6,0.6-3.1,0.5-4.5c-0.1-1.6-0.6-2.9-0.8-3.8c-0.4-1.7-2.2-9.1-3.1-14.3c-0.9-5.2-1.8-12.7-1.8-19.2c0.1-6.6,1-3.3,1-0.1
		c0,3.2,0.3,8.1,1.4,15.6c1,7.5,4.2,19,4.2,19s0.2-1.8,1.2-4.3c0.9-2.5,2.5-5.3,3.7-8.5c1.2-3.1,0.8-3.6,0.8-3.6s-4.4-21.3-5.6-31.3
		c-1.2-10-3-36.5-3-36.5c-6.5,6.5-11.3,23.7-12.2,40c-0.6,12.3,1.3,23.6,1.9,28.2C70.2,152.7,71.8,159.8,74.2,164.8"/>
	<path class="st2" d="M59.7,198.3c0.2-4.8,1.3-8.5,4.4-9.5c0,0-2.7-4.8-5.1-11.7c-1.6-4.7-3-10.7-3.7-15.4
		c-1.7-11.4-3.1-23.1,0.3-3.9c3.4,19.2,7.5,26,7.5,26l4.9,8c-0.7-3.5-0.8-6-0.7-9.8c0.2-3.8,0.7-9,1.8-13.1c0,0-5.9-11.9-9.7-26.2
		c-3.7-14.3-5.9-27.3-5.9-35c-0.3-7.5-0.5-10.4-0.5-10.4s-6.1,4.6-8.1,27.9c-2,23.3,4.1,45.6,7.1,54.1
		C55.2,187.8,59.7,198.3,59.7,198.3"/>
	<path class="st2" d="M126.4,376c0,0-1-0.7-3.9-2.5c-2.9-1.8-2-7.3-2-7.3s-0.8,0.6-2.9,2c-2.1,1.4-4.5,3.1-7.4,4.2
		c-2.9,1.2-4.3,1.9-6.2,2.5c-1.8,0.6-1.3-0.2,0.2-1.1c1.5-0.9,2-1.4,5.9-2.9c3.9-1.5,11.6-8.3,11.6-8.3s-1.8-0.2-5-0.3
		c-3.2-0.1-7.2-1.7-7.2-1.7s-3.2,2.9-16,8.4c-12.8,5.5-23.7,6.9-23.7,6.9s1.3,6.6,7.5,8.8c5.1,2.2,12.1,3.6,25.9,0.3
		C117,381.8,126.4,376,126.4,376"/>
	<path class="st2" d="M143.3,389.2c1.1-5.4-2-9.2-2-9.2s-0.7,0.4-2.6,2.1c-1.9,1.7-4.7,5-10.1,7.7s-7.3,2.5-2.1-0.3
		c5.2-2.8,12.8-10.7,12.8-10.7l-2-0.8c-2-0.8-5.5,0.6-20,9.3c-14.5,8.7-22.9,9-22.9,9s6.5,7.8,24,7.2
		C135.9,403,142.3,394.6,143.3,389.2"/>
	<path class="st2" d="M176.5,382.9c0,0-1.9,2.7-4.5,4.4c-2.6,1.7-9.5,2.8-9.5,2.8s-0.3,0.8-1.6,2.5c-1.3,1.7-4.3,5.9-7.4,8.1
		c-3.1,2.2-7.9,3.7-8.2,3.1s2.8-1.7,5.8-3.6c3-1.8,5.7-5.2,7.7-7.5c2-2.3-0.9-1.9-0.9-1.9s-3.7,0.1-7-0.2c-3.4-0.3-2.7,0-3.7,1.6
		c-1,1.6-2.3,3.1-4.8,6c-3.1,3.5-6,6.7-8.9,10.2c-1.9,2.3-0.5,3-0.5,3s0.9,1.5,8.7,2.3c4.8,0.5,10-0.1,15.5-3.2
		c3.4-2,6.9-5.1,10.5-9C177,391.3,176.5,382.9,176.5,382.9"/>
	<path class="st2" d="M180.6,404c-1.9,2.5-3,3.6-3,3.6s1.4-4.2,2.5-6.1c0.6-1,1.3-2,1.8-2.7c-1.3-2.9-2.4-6-3.1-9.4
		c-0.9,2.8-3.5,10.9-6.8,16.2c-4,6.5-7.6,8.8-5.3,10.5c2.3,1.7,6.8,2.1,12-0.4c4.9-2.4,6.4-6.7,7.1-10.1c-0.9-1.3-1.7-2.7-2.4-4.2
		C182.6,401.9,181.7,402.7,180.6,404"/>
	<path class="st2" d="M474,263.8c4.2-3,11.1-9.4,13.6-17.5c2.4-8.1,1.5-10.6-0.4-9.3c-1.9,1.3-11.4,7.5-14,9.3
		c-2.5,1.8-6.4,4.2-6.8,3.2c-0.4-0.9,4.4-3.8,8.3-8.5c3.9-4.7,13.3-13.3,13.4-21.8c0.1-8.5-2.4-9.5-4.2-7.4
		c-1.7,2.2-9.7,9.8-12.9,12.9c-3.2,3.1-7.9,7.3-8.6,6.6c-0.7-0.7,3.9-4.8,8.5-9.8c4.6-5,9.7-10.6,10.7-20.4c0.8-7-1-9.6-2.1-10.7
		c-0.5-0.5-1.1-0.7-1.6,0.2c-1.3,2.4-5,9-7.7,12.3c-3.4,4-8.5,9.5-11.5,12.8c-3.1,3.2-4,4.4-4.6,4c-0.5-0.4,2.8-5.2,5.4-8.3
		c2.6-3.1,8.6-9.5,12.6-18.4c4-8.9,0.7-21.9-1.1-23.3c-1.7-1.3-2-0.7-2.7,0.4c-0.7,1.1-5.8,12.9-9.3,17.9c-3.5,5-7.7,11.6-9.8,14.4
		c-2.1,2.8-3.8,6-4.4,5.6c-0.7-0.4,0.4-3,4.3-9.3c3.9-6.3,10.7-18.1,11-24.3c0.3-6.2-0.3-13.3-3.4-21.1c-3.1-7.8-4.4-8.3-4.4-8.3
		s-1.3-1.6-2,1.8c-0.7,3.4-3.9,16.5-8.9,26.8c-5,10.2-7,13.7-11.4,20.4c-4.4,6.7-8.3,11.4-8.3,13.3c0,1.9-0.8,4.4,1.1,3.4
		c1.9-1.1,7.9-5,13.7-3.1c5.8,1.9,5.9,4.8,6.6,6.3c0.7,1.5,0.5,5.8-0.3,7.5c-0.8,1.8-0.7,2.3,0.1,3c0.8,0.7,2.8-0.5,5.1-0.5
		c2.3,0,6.6,0,9.1,3.1c2.6,3.1,2.2,7.4,1.1,10.9c-1.1,3.5-3.6,5.1-3.6,5.1s4,1.1,5.5,2.1c1.5,1.1,3.5,3.1,3.5,7.5
		c0,4.4-5.5,8.2-7.5,9.4c-2,1.2-3,1.6-3,1.6s5,0.8,4.8,8.3c-0.1,7.5-5.2,9.5-7.2,10.8c-2,1.2-4,1.5-4,2.4c0,0.9,2.8,3.1,3.1,5.7
		c0.3,2.5,0.8,9-5.2,12.1c-6,3.1-7.8,3.2-7.9,4.8c-0.1,1.6-1.2,6.3-4.2,8.7c-3,2.4-5.1,3-6.4,3.5c-1.3,0.5-3.1,1.6-3.5,3.2
		c-0.4,1.6-0.4,5.6-4.7,8.6c-4.3,3-9,3.6-10.6,3.6c-1.6,0-4.8-1.5-5,0.5c-0.1,2,0.5,6.1-2.9,10.2c-3.5,4.2-8.3,5.4-10.6,5.5
		c-2.3,0.1-3.9-0.5-5.5-1.1c-1.6-0.5-3-0.5-3.9,1.5c-0.9,2-2.5,5.8-6.6,7.4c-2.8,1.1-5.5,1.5-6.9,1.7c0.8,4.4,1.1,9.1,0.5,15.9
		c0.8,1.2,2.1,2.5,4.5,4.2c7.2,5.1,15.2,6.3,21.9,4.7c6.7-1.6,6-5.1,6-6.9c0-1.7-0.3-3.6-2.8-4.3c-2.6-0.7-7.7-4.3-9.3-5.5
		c-1.6-1.2-1.7-1.6-1.2-2.3c0.5-0.7,1.7-0.3,5,1.6c3.2,1.9,13.3,4.8,20.8,4.6c7.5-0.3,11.3-3,9.8-6.3c-1.5-3.4-1.9-3.4-6-4.4
		c-4.2-1.1-7.4-3.6-8.2-4.6c-0.8-0.9-1.5-1.6-0.8-2.3c0.7-0.7,2.7,0,6.4,1.7c3.8,1.7,11,1.7,16-0.1c5-1.9,5.6-3.5,4.8-5.2
		c-0.8-1.8-2-2.7-6.2-4.2c-4.2-1.5-7.5-3.1-7.1-4.2c0.4-1.1,6.6,0.4,10.6,0.7c4,0.3,13.7,0.3,17.6-2.6c3.9-2.8,5.6-6.7,3.4-8.6
		c-2.3-1.9-5.4-1.9-9.4-2.6c-4-0.7-6.7-1.1-6.4-2.4c0.3-1.3,2.3-1.2,10.3-0.7c8.1,0.5,13.4-0.4,17.6-3.2c4.2-2.8,5.2-6.9,4.6-8.2
		c-0.7-1.3-3.8-3.4-8.9-3.9c-5.1-0.5-6.6-0.4-7.2-1.3c-0.7-0.9-0.5-1.2,2.7-1.9c3.2-0.7,10.9-1.3,17.7-5.9c6.8-4.6,6.7-7.3,6.7-9.3
		c0-2-2.4-3.1-7-3.1c-4.6,0-9.5-0.5-10.7-0.5c-1.2,0-1.7-0.1-1.9-0.9c-0.1-0.8,0.7-1.1,6-2c5.4-0.9,11-3.1,16-8.6
		c5-5.5,4.3-12.4,4.3-12.4s0-2.4-3.4-1.5c-3.4,0.9-8,2.7-11.9,4.6c-3.9,1.9-6.7,3.1-7.1,2.2C463.2,270.4,469.9,266.8,474,263.8"/>
	<path class="st2" d="M456.6,245.4c-2.8-1-7.1-0.5-8.6,0c-1.6,0.5-2.4,1.2-3.3,0.5c-0.9-0.7,0.5-2.3,4-4c3.5-1.7,8.8-5.7,8.3-10.2
		c-0.5-4.5-2.4-6.1-7.8-6.6c-5.4-0.5-9,3.5-10.5,4.5c-1.6,1-6.2,4.2-7.1,2.9c-0.9-1.2,1.7-3.6,4.8-6.9c3.1-3.3,6.6-10.2,3.1-14.2
		c-3.5-4-8-3.6-13.5-1.2c-5.5,2.4-6,5-7.4,4c-1.4-1,0-4.8,0-8.5c0-3.6-2.8-7.3-2.8-7.3s-7.4,15.4-16.9,26.3
		c-9.5,10.9-19,20.6-18.7,28.4c0.3,7.8,4.5,12.8,13.7,17.3c9.2,4.5,11.8,11.6,9.5,17.8c-2.2,6.2-6.4,10.6-15.4,10.4
		c-9-0.2-14.2,1-17.6,6.1c-3.5,5-8,6.9-11.4,7.1l-2.3,0.1c0.1,3.4,0.4,7.1,0.9,11c0.7,5.7,1.6,10.5,2.4,14.5
		c0.2,0.4,0.5,0.8,0.9,1.1c1.2,1,1.7,1.5,1.7,2.4c0.1,0.8,1.3,2,1.9,2.8c0.6,0.8,3,2,2.5,2.4c-0.5,0.3-1.3-0.4-2.2-1
		c-0.9-0.6-2.1-1.7-2.9-2.4l-1-0.8c1.4,6.1,2.8,10.4,3.9,14.5c2.1,0.4,6,0.5,9.5-1.9c5.2-3.6,3.3-8.8,2.4-10
		c-0.9-1.2-1.4-2.2-0.3-2.8c1-0.5,2.3-0.3,3.5,0.9c1.2,1.2,7.8,7.4,15,4.7c7.3-2.8,5.4-9.9,4.3-12.3c-1-2.4-2.6-5.2-1.6-6.2
		c1-1,2.8-0.5,4.2,0.7c1.4,1.2,9.3,3.3,14.2,0.3c4.8-2.9,5.7-7.8,3.3-10.7c-2.4-2.9-8.1-3.6-6.7-5.7c1.4-2.1,4.1,1.2,6.2,1.9
		c2.1,0.7,7.1,1.7,12.1-1c5-2.8,5.2-6.8,2.2-8.8c-2.9-2.1-6.2-3.5-4.5-5.2c1.7-1.7,3.8,0.2,5.5,0.5c1.7,0.3,7.6,0.9,11.2-2.4
		c3.6-3.3,3.5-5,2.6-8.8c-0.9-3.8-5.5-4.3-8-5c-2.4-0.7-3.3-1.2-2.9-2.4c0.3-1.2,1.9-0.5,6.2-1.2c4.3-0.7,12.1-4.5,12.8-8
		c0.7-3.5-0.7-8-5.4-8.1c-4.7-0.2-8.5-0.2-8.3-1.6c0.2-1.4,1-0.9,2.8-1.2c1.7-0.3,10.4-2.1,14.5-6.7
		C463.9,250.2,459.4,246.4,456.6,245.4"/>
	<path class="st2" d="M488.1,228.4c0,0,10.9-8.8,18.6-24.4c7.7-15.6,10.1-27.9,11.2-37.9c1.1-10-0.6-16.7-1.8-21.4
		c-1.2-4.7-2.4-8.2-3.6-1.8c-1.2,6.4-8.2,28.1-11.4,36.7c-3.2,8.6-9.4,17.3-12.3,21.8c-0.9,1.4-2.2,2.9-3,4.3
		c-1.9,3.1-3.2,5.7-3.2,5.7s0.8,0.1,1.7-1.1c0.9-1.2,1.7-2,2.7-1.8c1.1,0.3,2.5,5.7,2.5,5.7s4.2-5,7.9-11.1
		c3.7-6.1,8.4-17.6,8.4-17.6s-2.7,11.5-7.7,19.3c-5.1,7.8-7.8,11.3-7.8,11.3s0.5,3-0.1,5.7C489.5,224.5,488.1,228.4,488.1,228.4"/>
	<path class="st2" d="M529.3,180.3c0,0-5.9,12.1-11.4,21.1c-5.4,9-18.8,24-23.9,27.9c-5.1,3.9-5.6,4.1-4.7,5.2
		c0.8,1.1,1.3,2.2,1.4,3.8c0.1,1.6,0.1,1.7,0.1,1.7s9.1-7.6,13.9-12.8c4.8-5.2,9.5-9.6,3.6-2.3c-5.9,7.3-8.8,9.9-11.2,12
		c-2.4,2.1-5.7,5-5.7,5s-0.2,3.9-0.6,5.8c-0.4,1.9-1.1,3.4-1.1,3.4s4.2-2.9,7.1-5c2.9-2.1,13.6-8.5,24.5-28.2
		C532.2,198.2,529.3,180.3,529.3,180.3"/>
	<path class="st2" d="M476.3,115.4c-0.9-16.3-5.7-33.5-12.2-40c0,0-1.9,26.4-3,36.5c-1.2,10-5.6,31.3-5.6,31.3s-0.4,0.5,0.8,3.6
		c1.2,3.1,2.8,6,3.7,8.5c0.9,2.5,1.1,4.3,1.1,4.3s3.2-11.4,4.2-19c1-7.5,1.3-12.4,1.3-15.6c0-3.2,1-6.5,1,0.1
		c0.1,6.6-0.9,14-1.8,19.2c-0.9,5.2-2.7,12.6-3.1,14.3c-0.2,0.9-0.7,2.3-0.8,3.8c-0.1,1.4,0.3,2.9,0.5,4.5c0.5,2.9,0.2,5.3-0.1,7.1
		c-0.3,1.8,0.1,2.8,0.1,2.8s1-1.9,2.7-4.8c1.1-1.9,2.7-4.2,4.1-7.2c2.4-5,4-12.1,5.1-21.2C475,139,477,127.6,476.3,115.4"/>
	<path class="st2" d="M491.4,179.3c3.1-8.5,9.2-30.8,7.1-54.1c-2-23.3-8.1-27.9-8.1-27.9s-0.2,2.9-0.5,10.4
		c-0.1,7.7-2.2,20.7-5.9,35c-3.7,14.3-9.7,26.2-9.7,26.2c1.2,4.1,1.7,9.3,1.8,13.1c0.2,3.8,0.1,6.3-0.7,9.8l4.9-8
		c0,0,4.1-6.8,7.5-26c3.4-19.2,2-7.5,0.3,3.9c-0.7,4.6-2,10.7-3.7,15.4c-2.4,6.9-5.1,11.7-5.1,11.7c3.1,1.1,4.2,4.7,4.4,9.5
		C483.7,198.3,488.3,187.8,491.4,179.3"/>
	<path class="st2" d="M495.9,348.8c-1.4,0.3-9.4,1.7-17.9,1.7c-8.6,0-19.8-1.9-25.2-3.2c-5.4-1.3-7.6-2.2-8.4-1.5
		c-0.8,0.7-2.6,1.6-4.7,1.8c-2.1,0.2-2.3,0.4-0.9,1.4c1.4,1,9.7,5.3,14.5,6.2c4.7,0.9,7.3,0.4,7.2,0.9c-0.1,0.5-0.1,1-3.4,0.9
		c-3.3-0.1-11.6-2.5-14.9-3.8c-3.4-1.3-7-2.5-7-2.4c0,0.1-1.6,6,4.3,8.3c6,2.3,16.1,7.7,26.2,7.8c10.1,0.1,24.7-3.7,28.8-10.6
		C498.7,349.3,497.2,348.5,495.9,348.8"/>
	<path class="st2" d="M512.7,320.8c-2.4,0.4-9.8,3.4-21.6,4.7c-11.8,1.3-24.4-0.3-24.4-0.3s-5,3.2-6.9,3.8c-1.9,0.6-3,1.5-0.3,2.5
		c2.7,1,11.2,2.6,15.7,2c4.4-0.5,6.8,0.1,1.2,1.1c-5.6,1-10.6,0.4-15-0.3c-4.3-0.6-6.8-1.1-6.8-1.1s0.3,3.6-1.1,5.8
		c-1.4,2.1-1.4,2.7-1.4,2.7s3.9,3.1,14.3,3c10.4-0.1,19.6-1.4,26.4-3.4c6.7-1.9,14.7-6.1,18.8-12.5c4.1-6.4,3.4-7.4,3.4-7.4
		S515.1,320.4,512.7,320.8"/>
	<path class="st2" d="M527.7,286.7c-2.3,1.9-10.9,6.8-22.3,11c-11.4,4.2-16.5,6.2-22.9,6.9c-6.4,0.7-6.8,1-8.2,1.9
		c-1.4,1-3.8,2.1-6.5,2.6c-2.7,0.4-4.8,1.1-4.8,1.1s3.1,0.8,4,1.3c0.9,0.5,3.7,0,8.8-0.7c5-0.7,17-2,19.8-3c2.8-1.1,4.3-1.9,4.4-1.3
		c0.1,0.5-3.1,2-7.9,3c-4.8,1.1-5.2,1.7-13,2.7c-7.8,1-10.2,1.7-10.2,1.7s1.8,1.6,1.2,3.7c-0.6,2.1-1.1,2.8-1.1,2.8
		s16.3,0.7,30.8-4.6c14.5-5.3,17.3-8.2,23.1-15c5.8-6.7,5.7-9.7,6.3-12.1C529.9,286.1,530,284.8,527.7,286.7"/>
	<path class="st2" d="M534.8,255.1c-1.7,1.2-6,4.4-10.3,7.5c-2.3,1.6-4.3,3.2-6.5,4.4c-6.3,3.5-12.6,6.1-20.1,8.4
		c-7.5,2.3-12.1,3.1-12.1,3.1s-2.7,4.3-4.7,5.4c-1.9,1.2-5.6,2.9-1.4,2c4.2-0.9,11.8-1.9,18.3-4.3c6.5-2.5,9.7-4.7,9.8-4.2
		c0.2,0.5-1.9,2.5-9,5.1c-7.1,2.7-12.3,3.5-17.4,4.8c-5.1,1.3-5.3,1.4-6,1.4c-0.7,0-2.7,0.6,0.4,0.8c3.1,0.2,4.5,0.2,5.3,2.4
		c0.7,1.8-0.8,4.8-0.1,5.7c3.2-0.4,18.2-3.7,31.1-12.8c12.8-9,14.2-10.8,18.2-16.7c4.1-5.8,5.8-11.2,6.1-12.3
		C536.6,254.8,537.4,253.3,534.8,255.1"/>
	<path class="st2" d="M486.7,263.4c1.1,1.1,1.2,2.7,1.2,2.7s7.8-4.6,12.9-7.8c5.1-3.2,10.3-6.2,11.4-7.2c1.2-1,3.4-1.1-0.4,1.4
		c-3.7,2.6-9.3,6.6-14.3,9.5c-5,2.9-9.6,5.5-9.6,5.5s-0.3,3.5-0.6,4.5c-0.4,1.1-0.5,2.1,1.3,1.3c1.9-0.8,12.7-3.9,25.4-13.9
		c12.7-10,18.2-22.6,19.6-28.6c1.3-6,0.9-6.9,0.8-8.2c-0.1-1.3-0.6-1.5-1.4-0.4c-0.8,1.1-12.8,14.2-19,19.4
		c-6.2,5.2-14.6,11.4-19.3,13.6c-4.7,2.2-8.8,3.5-9.6,4.8c-0.8,1.2-2.1,2.6-2.1,2.6S485.6,262.3,486.7,263.4"/>
	<path class="st2" d="M434,360.7c0,0-4,1.6-7.2,1.7c-3.2,0.1-5,0.3-5,0.3s7.7,6.8,11.6,8.3c3.9,1.5,4.3,2,5.9,2.9
		c1.5,0.9,2,1.6,0.2,1.1c-1.8-0.6-3.3-1.3-6.2-2.5c-2.9-1.2-5.3-2.8-7.4-4.2c-2.1-1.4-2.9-2-2.9-2s0.9,5.5-2,7.3
		c-2.9,1.8-3.9,2.5-3.9,2.5s9.5,5.8,23.2,9.1c13.8,3.3,20.8,1.9,25.9-0.3c6.2-2.2,7.5-8.8,7.5-8.8s-10.9-1.4-23.7-7
		C437.2,363.6,434,360.7,434,360.7"/>
	<path class="st2" d="M406.2,378.1l-2,0.8c0,0,7.6,7.9,12.8,10.7c5.2,2.8,3.3,3-2.1,0.3c-5.4-2.7-8.2-6-10.1-7.7
		c-1.9-1.7-2.6-2.1-2.6-2.1s-3.1,3.8-2,9.2c1.1,5.4,7.4,13.8,25,14.4c17.5,0.6,24-7.2,24-7.2s-8.5-0.3-22.9-9
		C411.7,378.6,408.3,377.3,406.2,378.1"/>
	<path class="st2" d="M401.2,398.3c-2.5-2.9-3.9-4.3-4.8-6c-1-1.6-0.3-1.9-3.7-1.6c-3.4,0.3-7,0.2-7,0.2s-2.9-0.4-0.9,1.9
		c2,2.3,4.7,5.7,7.7,7.5c3,1.8,6.1,3,5.8,3.6c-0.3,0.6-5.1-0.9-8.2-3.1c-3.1-2.2-6.1-6.4-7.4-8.1c-1.4-1.7-1.6-2.5-1.6-2.5
		s-6.9-1.1-9.5-2.8c-2.6-1.7-4.5-4.4-4.5-4.4s-0.5,8.4,8.9,18.6c3.6,3.9,7.1,7,10.5,9c5.5,3.2,10.7,3.8,15.5,3.2
		c7.8-0.9,8.7-2.3,8.7-2.3s1.4-0.7-0.5-3C407.2,405,404.3,401.8,401.2,398.3"/>
	<path class="st2" d="M364.7,389.5c-0.8,3.4-1.8,6.5-3.1,9.4c0.5,0.7,1.2,1.7,1.8,2.7c1.2,1.9,2.5,6.1,2.5,6.1s-1.1-1.1-3-3.6
		c-1-1.4-2-2.1-2.6-2.5c-0.8,1.5-1.6,2.9-2.4,4.2c0.7,3.4,2.1,7.6,7.1,10.1c5.1,2.5,9.6,2.1,12,0.4c2.3-1.7-1.3-4.1-5.3-10.5
		C368.2,400.4,365.6,392.2,364.7,389.5"/>
	<path class="st2" d="M360.3,145.9c0,1.8,1.6,3.3,3.6,3.3c2,0,3.6-1.5,3.6-3.3c0-1.8-1.6-3.3-3.6-3.3
		C361.9,142.6,360.3,144.1,360.3,145.9"/>
	<path class="st2" d="M320.3,144.1c1.9,1.1,3.8,2.1,5.8,2.7c7,2,14.2,0.8,19.7-1.7c7-3.7,12.8-6.2,17.1-6.6c3.6-0.3,5.4,1.2,8.6,1.3
		c1.1,0,2-0.2,2.4-1c0.7-1.4,0.3-4.8-4.7-7.6c-5-2.8-12.4-2.6-19-0.7c-6.6,1.9-10.5,4.5-13.1,6.5c-2.6,1.9-5.7,4.9-6.5,4.3
		c-0.8-0.6,1.5-2.1,2.8-3.3c1.2-1.2,1.8-1.7,1.8-1.7c-7.3,0.5-15-1.9-21.3-6.5C313.8,129.7,311.8,139.2,320.3,144.1"/>
	<path class="st2" d="M393.8,139.7c-4.8-2.2-9.6-1.9-15.5,0.3c-5.9,2.2-8.8,4-8.8,4s0.8,5.1-2.7,7.4c-3.6,2.4-7.2,1-8.1-1.4
		c-1-2.3-1.2-3.6-1.2-3.6s-5.6,3.2-13.4,4.6c-4.4,0.8-12.5,1.7-17.6-0.4c0,0-4.7,4.6-8.1,7.3c-3.4,2.8-7.2,5.1-7.2,5.1
		s0.4,1.1,2.1,1.7c1.7,0.6,2.2,0.8,1.1,2.6c-1.1,1.8-9.1,9-12.5,11.5c-3.4,2.5-8.5,4.4-8.5,4.4s1.6,3,4,4c2.3,1,2.8,2.5,1.8,4.1
		c-1,1.7-9.2,10.8-12.7,13.9c-3.4,3.2-6.1,3.6-7.6,4c-1.5,0.4-4.3,1.9-1.2,5.4c3,3.5,10.2,4.7,17.3,2.6c7.2-2.1,14-10.5,14-10.5
		s-1.5,12.1-1.5,17.8c0,5.7,0.7,12.1,1.7,15.5c1,3.3,1.9,5,1.9,5s4.8-2.8,8.1-11.2c3.3-8.4,4.1-13.1,4.1-15.6c0-2.5,0.1-3.9,2.3-2.6
		c2.2,1.2,3.9,2.2,4.7,2.3c0.8,0.1,1.4,0.1,1.4,0.1s-1.4-6.1-1.4-10.6c0-4.6,1.5-14.5,3.4-16.3c1.9-1.8,2.3,0.7,2.5,1.8
		c0.4,2.3,2.4,5.2,5.2,6.1c0.9-6.7,2.4-12.2,8-18.1c1-1.1,1.7-2.5,5.1-1.1c5.1,2,11.6,3.3,16.7,1.3c5.1-2,8.8-7.2,7.7-7.8
		c-0.3-0.1-7.8,3.7-13.8,1.8c-5.9-1.9-8.7-3.9-5.2-7.5c3.4-3.6,4.9-4,11.8-9.7c6.9-5.7,12.4-8.6,18.4-7.6c6.1,1,7.2,4.6,7.7,5.2
		c0.5,0.7,3.2,2.8,3.2-2.2C400.9,148.5,398.6,141.9,393.8,139.7"/>
	<path class="st2" d="M329.1,237.5c-1.2-1.7-3.4-6.5-3.4-6.5s-0.2,1.2-1.4,4.6c-1.3,3.4-4.8,8.3-4.8,8.3s2.8-0.6,6-1.6
		c3.2-1,5.3-2.8,5.3-2.8S330.3,239.2,329.1,237.5"/>
	<path class="st2" d="M304.7,218.9c0,0-2,5-6.4,9.4c-4.4,4.3-7.7,3.8-7.7,3.8s0.5-0.1,3.8-2.4c3.3-2.3,6.6-9,6.6-9
		c-3.6,2.2-11.9,4.2-16.3,3.4c0,0-0.7,1.5-1.7,4.2c-1.1,2.7-4.1,7.7-5.8,9.9c-1.7,2.2-0.4,2.5-0.4,2.5s0.8,0.9,11.2,3.8
		c10.4,2.9,19.8,1.3,19.8,1.3s-0.4-0.9-2.2-8C303.7,230.5,304.7,218.9,304.7,218.9"/>
	<path class="st2" d="M175.9,145.9c0,1.8,1.6,3.3,3.6,3.3c2,0,3.6-1.5,3.6-3.3c0-1.8-1.6-3.3-3.6-3.3
		C177.5,142.6,175.9,144.1,175.9,145.9"/>
	<path class="st2" d="M171.9,139.7c3.3-0.1,5-1.6,8.6-1.3c4.3,0.4,10,2.9,17.1,6.6c5.5,2.5,12.7,3.7,19.7,1.7c2-0.6,3.9-1.6,5.8-2.7
		c8.5-4.8,6.5-14.4,6.5-14.4c-6.3,4.5-14.1,7-21.3,6.5c0,0,0.6,0.4,1.8,1.7c1.2,1.2,3.5,2.7,2.8,3.3c-0.8,0.6-3.9-2.4-6.5-4.3
		c-2.6-1.9-6.5-4.6-13.1-6.5c-6.6-1.9-14-2.1-19,0.7c-5,2.8-5.4,6.2-4.7,7.6C169.9,139.5,170.9,139.7,171.9,139.7"/>
	<path class="st2" d="M264.6,209.2c-1.5-0.4-4.1-0.8-7.6-4c-3.4-3.2-11.7-12.3-12.7-13.9c-1-1.7-0.6-3.2,1.8-4.1c2.3-1,4-4,4-4
		s-5.1-1.9-8.5-4.4c-3.4-2.5-11.4-9.7-12.5-11.5c-1.1-1.8-0.5-2.1,1.1-2.6c1.7-0.6,2.1-1.7,2.1-1.7s-3.7-2.3-7.2-5.1
		c-3.4-2.8-8.1-7.3-8.1-7.3c-5.2,2.1-13.2,1.2-17.6,0.4c-7.7-1.4-13.3-4.6-13.3-4.6s-0.3,1.2-1.2,3.6c-1,2.3-4.5,3.7-8.1,1.4
		c-3.6-2.3-2.8-7.4-2.8-7.4s-2.9-1.8-8.8-4c-5.9-2.2-10.7-2.5-15.5-0.3c-4.8,2.2-7.2,8.8-7.2,13.8c0,5,2.6,2.9,3.2,2.2
		c0.6-0.7,1.7-4.3,7.7-5.2c6.1-1,11.6,1.9,18.4,7.6c6.9,5.7,8.4,6.1,11.8,9.7c3.4,3.6,0.7,5.5-5.2,7.5c-5.9,1.9-13.5-1.9-13.8-1.8
		c-1.1,0.6,2.6,5.8,7.7,7.8c5.1,2,11.6,0.7,16.7-1.3c3.4-1.4,4.1,0,5.1,1.1c5.6,5.9,7,11.4,8,18.1c2.9-0.9,4.8-3.7,5.2-6.1
		c0.2-1.1,0.6-3.6,2.5-1.8c1.9,1.8,3.4,11.7,3.4,16.3c0,4.6-1.4,10.6-1.4,10.6s0.6,0,1.4-0.1c0.8-0.1,2.5-1.1,4.7-2.3
		c2.2-1.2,2.3,0.1,2.3,2.6s0.8,7.2,4.1,15.6c3.3,8.4,8.1,11.2,8.1,11.2s1-1.7,1.9-5c1-3.3,1.7-9.8,1.7-15.5c0-5.7-1.5-17.8-1.5-17.8
		s6.9,8.4,14,10.5c7.2,2.1,14.3,0.8,17.3-2.6C268.9,211.1,266.2,209.6,264.6,209.2"/>
	<path class="st2" d="M217.6,231c0,0-2.2,4.8-3.4,6.5c-1.2,1.7-1.7,2-1.7,2s2.2,1.8,5.3,2.8c3.2,1,6,1.6,6,1.6s-3.6-4.9-4.8-8.3
		C217.8,232.2,217.6,231,217.6,231"/>
	<path class="st2" d="M260.5,228.2c-1.1-2.7-1.7-4.2-1.7-4.2c-4.4,0.9-12.7-1.2-16.3-3.4c0,0,3.3,6.7,6.6,9c3.3,2.3,3.8,2.4,3.8,2.4
		s-3.3,0.5-7.7-3.8c-4.4-4.3-6.4-9.4-6.4-9.4s1,11.6-0.8,18.7c-1.8,7.1-2.2,8-2.2,8s9.4,1.6,19.8-1.3c10.4-2.9,11.2-3.8,11.2-3.8
		s1.2-0.3-0.4-2.5C264.7,235.9,261.6,230.9,260.5,228.2"/>
	<path class="st2" d="M224,489c2.2,0.7,6.3-0.9,8.3-3.4c2-2.5,2.8-6.3,4.2-8.5c1.5-2.2,2.5-3.8,2.5-3.8s-0.3,3.6-2.3,8.5
		c-1.9,4.6-2.2,10.9-1.7,13.7c0.9,5.4,4.4,6.3,6.4,5.6c1.6-0.6,3.9-3,6.1-6.5c0.7-1.1,1.2-2.7,1.8-4c1.4-2.6,2.6-6.9,3.2-6.8
		c1.4,0.3,0.5,3.3,0,5.4c-1,4.1-3.1,10.1-3.2,13.8c-0.1,3.7,0.3,10.2,4,10.5c3.7,0.3,5.6-2.9,7.6-10.4c2-7.5,2.5-9.8,3.4-9.8
		c0.9,0,0.9,5.1,0.9,7.3c0,0.8,0,2.8,0.3,4.9c0.6,4,1.7,8.8,2.9,9.9c1.8,1.6,3.2,1.3,3.2,1.3s1.5,0.3,3.2-1.3
		c1.8-1.6,3.2-12.6,3.2-14.8s0-7.3,0.9-7.3c0.9,0,1.3,2.3,3.4,9.8c2.1,7.5,4,10.7,7.6,10.4c3.7-0.3,4.1-6.9,4-10.5
		s-2.2-9.7-3.2-13.8c-1-4.1,0.4-3.8,3.2,1.5c0.9,1.6,1.8,3.7,2.6,5.1c2,3.1,3.8,5,5.3,5.5c2,0.7,5.6-0.1,6.4-5.6
		c0.9-5.4-3.2-20.9-3.2-20.9s0.3,0.4,1.8,2.6c1.5,2.2,2.2,6,4.2,8.5c2,2.5,6.1,4.1,8.3,3.4c2.2-0.7,2.5-4.8,0.9-12.1
		c-1.6-7.3-8.2-11.4-12.9-17.3c-4.3-5.4-7.6-14.9-8.1-16.3c-5.9,2.9-11.1,6.2-15.7,11.1c-9.7,10.1-11.8,12.6-11.8,12.6
		s-2.1-2.5-11.8-12.6c-4.7-4.9-9.9-8.2-15.8-11.2c-0.5,1.2-4.6,10.3-8.9,15.7c-2.2,2.7-5.1,4.7-7.3,7.3c-2.5,3-4,6.6-4.8,10.6
		C221.5,484.1,221.8,488.2,224,489"/>
	<path class="st2" d="M223.8,513.8c2.8-2.5,4.3-3.9,4.3-3.9s2.1-1.7,1.5,1.5c-0.5,3.3-1.6,10-0.9,12.9c0.7,2.9,1,5.4,4.6,3.3
		c3.6-2.1,4.5-3.4,6.2-5.2c1.7-1.8,3.5-2.6,3.1,0.3c-0.4,2.8-1.7,7.1-1.1,12.9c0.6,5.8,3.4,6.6,7.1,1.7c3.7-4.9,5.9-9.4,7-11.8
		c1.1-2.4,3.4-4.5,3.4,0c0,9.6,2.2,23.6,12.8,27.3c10.6-3.7,12.8-17.7,12.8-27.3c0-4.5,2.2-2.4,3.3,0c1.1,2.4,3.4,6.9,7,11.8
		c3.7,4.9,6.5,4,7.1-1.7c0.6-5.8-0.7-10-1.1-12.9c-0.4-2.8,1.4-2.1,3.1-0.3c1.7,1.8,2.6,3.1,6.2,5.2c3.6,2.1,4-0.3,4.6-3.3
		c0.7-2.9-0.4-9.6-0.9-12.9c-0.5-3.3,1.5-1.5,1.5-1.5s1.5,1.4,4.3,3.9c2.8,2.5,6.7,2.6,6.7,2.6s1.8-10.1-2.4-16.1
		c-4.2-6-5.7-8-5.7-8s-2.4-0.1-4.2-0.8c-1.8-0.7-3.6-2-3.6-2v5.6c0,0,5.1,4.9,6.4,6.4c1.2,1.5,3.6,3.9,0.1,1.5
		c-3.5-2.4-6.4-4.8-6.4-4.8s-0.7,5.1-2.1,6.4c-1.5,1.3-3.5,1.5-4.4,1.1l-0.9-0.3l-0.3,2c0,0,3.2,5.9,3.6,8.3
		c0.4,2.4-0.3,2.1-1.7-0.9c-1.5-3.1-4.3-7-5.6-9.2c-1.3-2.1-3.2-3.6-3-0.9c0.2,2.7-0.9,7.7-1.9,9.5c-0.9,1.8-1.5,2.4-1.5,2.4
		s2,7,2.2,8.2c0.3,1.3,0.1,2.7-1,1.1c-1.1-1.6-4.3-8.5-4.3-8.5s-4.2-0.2-5.4-1.4c-1.2-1.2-3.1-5.8-3.1-5.8s-1.7,5.9-3.1,7.8
		c-1.4,1.9-4.7,3.8-4.7,3.8s-0.2,10.3-0.5,12.1c-0.2,1.8-0.3,2.6-1.1,2.6c-0.8,0-0.9-0.8-1.1-2.6c-0.2-1.8-0.5-12.1-0.5-12.1
		s-3.3-1.9-4.7-3.8c-1.4-1.9-3.1-7.8-3.1-7.8s-1.9,4.6-3.1,5.8c-1.2,1.2-5.4,1.4-5.4,1.4s-3.2,6.9-4.3,8.5c-1.1,1.6-1.3,0.2-1-1.1
		c0.3-1.3,2.2-8.2,2.2-8.2s-0.6-0.6-1.5-2.4c-0.9-1.8-2.1-6.8-1.9-9.5c0.2-2.8-1.7-1.3-3,0.9c-1.3,2.1-4.1,6.1-5.6,9.2
		c-1.5,3.1-2.1,3.4-1.7,0.9c0.4-2.4,3.6-8.3,3.6-8.3l-0.3-2l-0.9,0.3c-0.9,0.3-2.9,0.2-4.4-1.1c-1.5-1.3-2.1-6.4-2.1-6.4
		s-2.9,2.4-6.4,4.8c-3.5,2.4-1.1-0.1,0.1-1.5c1.2-1.5,6.4-6.4,6.4-6.4v-5.6c0,0-1.8,1.3-3.6,2c-1.8,0.7-4.2,0.8-4.2,0.8
		s-1.5,2-5.7,8c-4.2,6-2.4,16.1-2.4,16.1S220.9,516.2,223.8,513.8"/>
	<path class="st2" d="M212.4,548.1c2.5-1.6,4.7-3.4,10.5-7.2c5.7-3.8,7.8-8,7.8-8h-2c-1.1,0-2-1.5-2.1-3c-0.1-1.5,0-4.7,0.4-8.3
		c0.4-3.6-0.6-6.6-0.6-6.6s-2.4,2.3-6.2,4.2c-3.7,1.9-5.2,1-5.2,1l-0.9-3.7c0,0-1.6,3.4-3.9,7.4c-2.3,4-8.4,8.4-12.8,11.7
		c-4.4,3.3-9.2,6.8-12.8,8c-3.6,1.3-1.5,3-1.5,3s3.6,3.6,13,5.3C205.4,553.5,209.9,549.7,212.4,548.1"/>
	<path class="st2" d="M245.2,544.4c-3.3-0.4-5.3-1.6-6-5.3c-0.4-2.4,0.2-11.4,0.2-11.4s-1.1,0.9-2.4,2.5c-1.3,1.5-4.1,1.9-4.1,1.9
		s-0.4,1.3-1.7,3.3c-1.3,2-2.9,4.5-6.1,6.5c-3.2,2-6.9,4.4-9.4,6.4c-2.4,2-5.3,4.4-8.5,6.2c-3.2,1.8-6.1,4.7-7.2,9.4
		c-1.1,4.7-0.2,6.3,3.5,6c3.7-0.3,4.1,0.1,10.1-1.4c6-1.5,14.5-8.2,20.8-12.2C240.6,552.3,245.2,544.4,245.2,544.4"/>
	<path class="st2" d="M261.8,549.9c0,0-2.5-3.2-3.5-6.9c-0.9-3.6-2.7-10.8-2.7-10.8s-0.8,2.3-2.9,6.6c-2,4.3-5.5,5.3-5.5,5.3
		s-0.2,1.9-3,5.5c-2.9,3.6-7.1,7-11.4,9.6c-4.3,2.5-9.9,6-12.9,10.3c-3,4.3-3.3,8.8-1.9,10.8c1.4,1.9,3.5-0.3,6.3-1.7
		c2.9-1.4,11.1-2.7,22.4-8.8C258.1,563.7,261.8,549.9,261.8,549.9"/>
	<path class="st2" d="M266.7,575.2c3.1-4.7,3.6-16,3.6-16s-1.1-0.8-2.6-2c-1.5-1.3-4.5-5.8-4.5-5.8s-1.9,3.9-3.9,7.5
		c-2,3.6-3,4.9-7.3,8.8c-4.2,3.9-10,7.7-12.4,11.9c-2.4,4.1-1.1,12.4,0.5,15.2c1.6,2.8,3.9,1.9,6.2-0.4c2.4-2.3,3.1-2.9,7.3-6.4
		C257.8,584.5,263.6,579.9,266.7,575.2"/>
	<path class="st2" d="M359,543.5c-3.6-1.3-8.4-4.7-12.8-8c-4.4-3.3-10.5-7.7-12.8-11.7c-2.3-4-3.9-7.4-3.9-7.4l-0.9,3.7
		c0,0-1.5,0.9-5.2-1c-3.7-2-6.2-4.2-6.2-4.2s-1,3-0.6,6.6c0.4,3.6,0.5,6.8,0.4,8.3c-0.1,1.5-1,3-2.1,3h-2c0,0,2.1,4.2,7.8,8
		c5.7,3.8,7.9,5.6,10.5,7.2c2.5,1.6,7,5.4,16.4,3.7c9.4-1.7,13-5.3,13-5.3S362.6,544.8,359,543.5"/>
	<path class="st2" d="M336.4,554.5c-3.2-1.8-6.1-4.1-8.5-6.2c-2.4-2-6.2-4.4-9.4-6.4c-3.2-2-4.8-4.5-6.1-6.5c-1.3-2-1.7-3.3-1.7-3.3
		s-2.9-0.3-4.1-1.9c-1.3-1.5-2.4-2.5-2.4-2.5s0.6,9.1,0.2,11.4c-0.6,3.6-2.6,4.9-6,5.3c0,0,4.6,7.9,10.8,11.8
		c6.2,4,14.8,10.7,20.8,12.2c6,1.5,6.4,1.2,10.1,1.4c3.7,0.3,4.6-1.3,3.5-6C342.5,559.2,339.6,556.3,336.4,554.5"/>
	<path class="st2" d="M310.7,559.2c-4.3-2.5-8.5-5.9-11.4-9.6c-2.9-3.6-3-5.5-3-5.5s-3.5-1-5.5-5.3c-2-4.3-2.9-6.6-2.9-6.6
		s-1.8,7.2-2.7,10.8c-0.9,3.6-3.5,6.9-3.5,6.9s3.7,13.8,15,19.9c11.3,6.1,19.5,7.4,22.4,8.8c2.9,1.4,4.9,3.6,6.3,1.7
		c1.4-1.9,1.2-6.4-1.9-10.8C320.6,565.2,315,561.8,310.7,559.2"/>
	<path class="st2" d="M291.5,567.8c-4.2-3.9-5.2-5.2-7.3-8.8c-2-3.6-3.9-7.5-3.9-7.5s-3,4.5-4.5,5.8c-1.5,1.3-2.6,2-2.6,2
		s0.5,11.3,3.6,16c3.1,4.7,8.9,9.2,13,12.8c4.1,3.6,4.9,4.2,7.3,6.4c2.4,2.3,4.6,3.2,6.2,0.4c1.6-2.8,3-11.1,0.5-15.2
		C301.4,575.5,295.7,571.7,291.5,567.8"/>
	<path class="st2" d="M275.4,580.9c-2.7-3.2-3.6-4.8-3.6-4.8s-0.9,1.6-3.6,4.8c-2.7,3.2-9.1,8.1-9.1,8.1s0.6,8.4,3.6,12.9
		c2.6,3.8,5,7.3,9.1,10c4-2.7,6.5-6.1,9.1-10c3.1-4.5,3.6-12.9,3.6-12.9S278.2,584.1,275.4,580.9"/>
	<path class="st3" d="M502.3,478c-2.5-0.6-3.6-1.6-3.6-1.6s-1.1-0.1-1.9,1.4c-0.8,1.6-4.1,3.6-4.1,3.6s-4.6,1.2-5.2,4.3
		c-0.6,3.1,1.6,4.2,3.7,3.8c2.2-0.4,7.4-1.4,9.7-4.2c2.3-2.8,2.6-4.3,3.1-5.4C504.6,478.9,504.8,478.6,502.3,478"/>
	<path class="st3" d="M509.4,453.1c-1.6-6.9-6.1-15.5-14.8-19.8c0,0-3.2,11.4-4.2,15c-1,3.6-1,3.5,1.8,4.2
		c2.8,0.7,11.6,2.6,13.4,3.1C507.4,456.1,510.4,457.7,509.4,453.1"/>
	<path class="st3" d="M468.2,446.6c2,0.4,1.8-0.5,2.5-3.2c0.7-2.8,4.3-16.4,4.3-16.4s-9.1-0.4-17,3.5c-7.9,3.8-11.4,10.9-11.4,10.9
		s2,0.8,7.4,2C459.4,444.6,466.2,446.3,468.2,446.6"/>
	<path class="st3" d="M447.1,465.5c-3.2-0.6-4.4-1-4.4-1s2,7.8,5.4,12.1c3.4,4.3,7.1,6.5,14,6.6c7,0.1,12.2-3.7,13.1-6.7
		c0.8-3,2.3-5.3,2.3-5.3s-12.6-1.7-17.8-2.9C454.5,467.2,450.3,466.1,447.1,465.5"/>
	<path class="st0" d="M346.4,313c-3.2-19.5,8-36.7,8-36.7l-21.9-25.6c-16.9,9.5-40.3,8.2-60.7-1.2c-20.4,9.4-43.9,10.7-60.7,1.2
		l-21.9,25.6c0,0,11.2,17.2,8,36.7c-3.2,19.5-10.1,50.4-8.4,62.9c1.7,12.6,10.6,27.2,19.8,34.8c9.1,7.7,22.7,14.1,32.3,17.5
		c9.6,3.5,19,10.1,23.5,13.6c4.4,3.5,7.4,6.4,7.4,6.4s3-3,7.4-6.4s13.8-10.1,23.4-13.6c9.6-3.5,23.2-9.9,32.3-17.5
		c9.1-7.7,18-22.2,19.8-34.8C356.5,363.4,349.6,332.5,346.4,313"/>
	<path class="st0" d="M301.7,202.7c-3.2,3.7-11,7.2-11,7.2l-0.2,0.6c0,0,3.1-0.6,6.2-2.3c3.1-1.8,7.7-5.8,8.6-7.4
		c1-1.6-0.2-2.7-0.2-2.7S304.9,199,301.7,202.7"/>
	<path class="st0" d="M315.2,210.2c0,2.2-0.8,16.7-0.8,16.7c0,0.7-0.3,5.1-1.4,5.7c0.6,0.1,1.7,0.3,2-2c0.4-2.7,3.1-21.3,3.1-21.3
		l-1.6-0.7C316.6,208.6,315.2,208,315.2,210.2"/>
	<path class="st0" d="M339.7,173.2c-1.4,0.4-4.8,2.9-6.5,4.4c-1.8,1.5-3,1.5-4.7,2.3c-1.7,0.8-1.1-2.9-0.1-5.8c1-3,4.4-6.5,6.9-9.4
		c2.6-2.9-0.1-2-1.3-0.8c-1.2,1.2-4,4.2-7.2,9.4c-3.3,5.2-5.1,17.1-5.1,17.1s2-1.2,4-2.6c2-1.4,4.2-2.6,7.9-5.3
		c3.8-2.8,5.9-4.9,7.9-7C343.6,173.2,341.1,172.8,339.7,173.2"/>
	<path class="st0" d="M241.7,202.7c-3.2-3.7-3.5-4.6-3.5-4.6s-1.1,1.1-0.2,2.7c1,1.6,5.5,5.6,8.6,7.4c3.1,1.8,6.2,2.3,6.2,2.3
		l-0.2-0.6C252.7,209.9,244.9,206.4,241.7,202.7"/>
	<path class="st0" d="M228.9,226.9c0,0-0.8-14.6-0.8-16.7c0-2.2-1.4-1.6-1.4-1.6l-1.6,0.7c0,0,2.7,18.6,3.1,21.3
		c0.3,2.3,1.5,2.1,2,2C229.2,232,229,227.6,228.9,226.9"/>
	<path class="st0" d="M209.3,163.8c-1.2-1.2-3.9-2.1-1.3,0.8c2.6,2.9,5.9,6.4,6.9,9.4c1,3,1.6,6.6-0.1,5.8c-1.7-0.8-2.9-0.8-4.7-2.3
		c-1.8-1.5-5.1-4-6.5-4.4c-1.4-0.4-3.9,0-1.9,2.2c2,2.2,4.2,4.3,7.9,7c3.8,2.8,5.9,4,7.9,5.3c2,1.4,4,2.6,4,2.6s-1.8-11.9-5.1-17.1
		C213.3,168,210.5,165,209.3,163.8"/>
	<path class="st0" d="M271.5,501.8c0.4,0.1,0.4-0.8,0.5-2.5c0.1-1.7,0.3-5.7,0.7-8.1c0.4-2.4-0.6-2.2-1.3-2.1c-0.6,0.1-1,2-1,3
		c0,1,0.3,7,0.3,8.3C270.8,501.7,271.2,501.8,271.5,501.8"/>
	<path class="st0" d="M313.9,480.3c1.7,3.4,2,3,1.3,0.1c-0.7-2.8-1.7-5.3-3.3-7.9c-1.6-2.6-5.6-6.3-5.6-6.3s1.1,2.4,2.6,4.5
		C310.4,472.8,312.3,476.9,313.9,480.3"/>
	<path class="st0" d="M297.9,483.2c0.6,2.2,4,8.4,4.4,8.2c0.4-0.2-1.4-5.6-2.5-9.2c-1.2-3.7-3-6.5-3.3-6.4c-0.4,0.1,0.3,2.3,0.3,2.3
		S297.3,481,297.9,483.2"/>
	<path class="st0" d="M285.3,493.4c0.7,1.6,1.6,3.5,1.9,3.3c0.4-0.3-0.9-3.5-1.1-4.5c-0.2-0.9-0.3-3-1.4-5.2
		c-1.1-2.2-1.5-1.2-1.5-0.3c0,0.9,1.3,5.1,1.3,5.1S284.5,491.8,285.3,493.4"/>
	<path class="st0" d="M229.6,480.3c1.7-3.4,3.5-7.5,5.1-9.6c1.5-2.1,2.6-4.5,2.6-4.5s-4,3.7-5.6,6.3c-1.6,2.6-2.6,5.1-3.3,7.9
		C227.5,483.3,227.9,483.7,229.6,480.3"/>
	<path class="st0" d="M245.6,483.2c0.6-2.2,1-3.7,1-3.7s0.7-2.2,0.3-2.3c-0.4-0.1-2,1.3-3.2,5c-1.2,3.7-2.9,9-2.5,9.2
		C241.6,491.6,244.9,485.4,245.6,483.2"/>
	<path class="st0" d="M258.2,493.4c0.7-1.6,0.7-1.7,0.7-1.7s1.3-4.2,1.3-5.1c0-0.9-0.4-1.9-1.5,0.3c-1.1,2.2-1.2,4.3-1.4,5.2
		c-0.2,0.9-1.4,4.2-1.1,4.5C256.6,496.9,257.5,495,258.2,493.4"/>
	<path class="st0" d="M219,531.9l-1.7-1c0,0-1,1.4-2.4,2.9c-1.4,1.5-3,2.1-4.1,3.6c-1.1,1.4-2.8,3.2-5.4,4.6
		c-2.6,1.4-3.6,1.8-3.1,2.2c0.5,0.4,2.3-0.6,2.3-0.6s0.8-0.1,3.9-1.9c3.1-1.9,3.9-2.9,5.9-4.7C216.3,535.1,219,531.9,219,531.9"/>
	<path class="st0" d="M232.7,548.1c1.2-1.3,2.4-2.1,1.8-2.8c-0.7-0.7-1.5-0.6-2.6,0.3c-1.1,0.9-4.2,3.9-5.7,5.2
		c-1.4,1.3-2.6,2-4,3.1c-1.4,1.1-4.6,2.8-6.1,3.6c-1.5,0.8-0.1,0.9-0.1,0.9s1.2-0.6,2.4-1c1.3-0.4,4.9-2,4.9-2s1.4-0.7,3.4-2
		C228.6,552,231.5,549.3,232.7,548.1"/>
	<path class="st0" d="M248.5,559c1-2-0.1-1.4-1.8-0.8c-1.7,0.7-5.5,4.8-7.7,6.3c-2.2,1.5-4.1,2.1-5.9,3.1c-1.9,0.9-1.9,1.4-1.8,1.9
		c0.1,0.4,0.8,0.4,1.6,0.1c0.8-0.3,3.4-1.9,3.4-1.9s1.1-0.3,2.1-0.4c1-0.1,2.4-1.2,4.7-3.1C245.4,562.2,247.4,561,248.5,559"/>
	<path class="st0" d="M255.8,573.5c-2.8,1.7-7.6,5.5-8.9,8c-1.3,2.5-2.1,4.3-1.7,4.7c0.4,0.4,1.8-0.4,2.4-1.4c0.6-1,1.9-2.5,1.9-2.5
		s4.8-4.7,6.6-5.8c1.8-1.1,4.6-4.2,5.3-6.1c0.7-1.9,0.2-2.9,0.2-2.9S258.6,571.8,255.8,573.5"/>
	<path class="st0" d="M338.2,541.9c-2.6-1.4-4.3-3.1-5.4-4.6c-1.1-1.4-2.7-2-4.1-3.6c-1.4-1.5-2.4-2.9-2.4-2.9l-1.7,1
		c0,0,2.7,3.2,4.7,5c2,1.8,2.8,2.8,5.9,4.7c3.1,1.9,3.9,1.9,3.9,1.9s1.8,1,2.3,0.6C341.9,543.7,340.8,543.2,338.2,541.9"/>
	<path class="st0" d="M327.5,557.5c-1.5-0.8-4.6-2.5-6.1-3.6c-1.4-1.1-2.6-1.9-4-3.1c-1.4-1.3-4.6-4.2-5.7-5.2
		c-1.1-0.9-1.9-1-2.6-0.3c-0.7,0.7,0.6,1.5,1.8,2.8c1.2,1.3,4.1,4,6,5.3c1.9,1.4,3.4,2,3.4,2s3.6,1.6,4.9,2c1.3,0.4,2.4,1,2.4,1
		S329,558.4,327.5,557.5"/>
	<path class="st0" d="M310.5,567.6c-1.9-0.9-3.7-1.5-5.9-3.1c-2.2-1.5-6-5.7-7.7-6.3c-1.7-0.7-2.8-1.3-1.8,0.8c1,2,3,3.2,5.3,5.2
		c2.3,1.9,3.7,3,4.7,3.1c1,0.1,2.1,0.4,2.1,0.4s2.6,1.5,3.4,1.9c0.8,0.3,1.5,0.3,1.6-0.1C312.3,569.1,312.3,568.5,310.5,567.6"/>
	<path class="st0" d="M287.8,573.5c-2.8-1.7-5.7-6-5.7-6s-0.5,1,0.2,2.9c0.7,1.9,3.5,5,5.3,6.1c1.8,1.1,6.6,5.8,6.6,5.8
		s1.3,1.5,1.9,2.5c0.6,1,1.9,1.9,2.4,1.4c0.4-0.4-0.4-2.2-1.7-4.7C295.4,579,290.5,575.2,287.8,573.5"/>
	<path class="st0" d="M270.5,591.2c0.2,1.9,0.1,6.9,1.3,6.9c1.2,0,1-4.9,1.3-6.9c0.2-1.9,0.3-6.6,0.3-6.6h-3.2
		C270.1,584.5,270.2,589.2,270.5,591.2"/>
	<path class="st3" d="M344.3,315.3c-3.2-21.1,6.3-38,6.3-38l-19.8-22c-16.7,8.6-37,6.4-59.1-1.3c-22.1,7.7-42.4,9.9-59.1,1.3
		l-19.8,22c0,0,9.5,17,6.3,38c-3.2,21.1-8,44.9-7.1,58.9c0.1,1,0.2,1.9,0.3,2.9h18c0,0,1-1.2,3-2.1c2-0.9,2.6-1.4,2.6-1.4
		s0.4-3.6,2.6-4.4c2.2-0.8,3.1-0.8,4-0.8c0.9,0,1.5-0.2,2.6-1.2c1.1-1,3.9-3.6,5.1-7.3c1.2-3.6,2-5.1,2-7.5c0-2.4,0.9-6.2,0.9-6.2
		s-0.5-1.1-2.3-0.5c-1.8,0.7-2.1-1.1-2.3-3c-0.2-1.8-0.1-5.5,1-7.3c1-1.7,1.4-2.3,1.4-2.3l-0.8-2.9c0,0-11.4,2.3-13.4-6.6
		c-2-8.9-2.4-13.2-2.7-14.1c-0.3-1-0.6-1.4-2.1-1.3c-1.5,0.1-4.8-1-7.1-5.5c-2.3-4.6-2.5-6.5-1.8-8.3c0.7-1.8,1.9-1.1,2.3-0.6
		c0.4,0.6,3.4,5,4.7,3.7c1.2-1.2,0.6-1.2-1.1-4.7c-1.7-3.4-1.1-4.6-1-6.3c0.2-1.7-0.6-4-0.6-5c0-1,1-1.7,2.1-1.2
		c1,0.5,2,1.2,2.5,1.8c0.5,0.6,0.7,1.4,1.6,0.9c1-0.6,0.4-3.7,0.4-4.8c0-1.1,1.2-1.8,2.8-1c1.5,0.9,2.3,2.5,2.3,3.6
		c0,1.1,0.1,2.2,0.7,2.2c0.6,0,1.2-1.7,1.3-2.9c0.1-1.1,0.8-2.9,1.8-1.4c1.1,1.4,1.4,3.5,1.1,5.7c-0.4,2.2,0.4,1.1-0.4,4.9
		c-0.8,3.8-1.1,5.5-1,8.4c0.1,2.9,0.2,4.5,1.6,8c1.4,3.5,2.6,7.6,5.2,7.7c2.7,0.1,3.4,0.1,3.4,0.1s3-5.7,5.2-7.1
		c2.3-1.3,5.5-1.5,7.8-1.8c2.3-0.3,3.2-1,3.2-1.5s-0.8-0.8-3.5-1.1c-2.8-0.4-5-1.1-5.1-3.2c-0.1-2.1,0.5-3.9-1.3-4
		c-1.8-0.1-6.3-1.5-7.9-4.5c-1.6-3-1.2-3.6-1-5.3c0.2-1.6,2.3-4.9,3.6-1.8c1.3,3.1,2.2,3.4,3.3,4.1c1.1,0.7,2.7,0.9,1.9-1.2
		c-0.8-2.1-1.2-3.4-1.1-5c0.2-1.5,1.2-2.2,2.5-2.5c1.2-0.3,5-1.4,6.9-1.8c1.9-0.4,2-0.6,2-0.6s0.2-1.3,2.7-2.1
		c2.5-0.8,4.1-0.9,5.9-0.9c1.8,0,3.1,0.3,5.5-0.9c2.4-1.1,4.3-1.3,5.8-1.2c1.5,0.1,2.7,0.7,3.8,1.4c1.1,0.8,0.8,1.8,0.8,2.9
		c0,1.1,0.2,1.6,1.8,1.6c1.6,0,3.1,0,4.6,0.6c1.5,0.6,3.6,1.4,2.3,3.1c-1.3,1.6-1.4,3.4-2.3,3.3c-0.9-0.1-0.8,0.9-1.1,1.4
		c-0.4,0.6-0.7,1,0.3,1.6c0.9,0.6,1,1.1,2.4,2.4c1.3,1.2,3.3,2.6,1.3,4.6c-2,2-5.5,3.6-5.5,3.6s-2,1,0.3,2.3
		c2.3,1.3,3.3,4.1,4.2,4.6c0.9,0.5,1.7,1.2,2.3,1.5c0.6,0.3,0.5,2.2,0.5,2.2s-1.2,0.9-3,1.5c-1.7,0.7-3.5,1.4-5.1,1.4
		c-1.6,0-2.5,0-1.8,1.5c0.7,1.5,1.8,3.2,2.1,4c0.3,0.9,0.7,2.4,0.7,2.4s2.7,0.6,5,0.6c2.4,0,3.4,0.1,8.7-0.5
		c5.2-0.6,6.8-0.8,11.8-0.2c5.1,0.6,5.8,0.4,7.1,0.9c1.3,0.5,2.7,1.2,2.7,1.2s7.1-0.1,11.1-1c3.9-0.9,4.9-3.4,4.3-4.7
		c-0.6-1.3-0.5-3.3-7.3-4.3c-6.9-1-9.6-0.6-15.1-1.6c-5.4-1-13.9-3.8-15.4-10.6c-1.5-6.8,4-9.6,6.8-11c2.8-1.3,8.8-3.4,11.5-4.6
		c2.8-1.1,7.8-2.3,13.1-1.5c5.3,0.8,8.4,2.2,10.5,1c2.1-1.2,3.8-0.3,3.4,1.6c-0.4,1.9-2.5,5.8-8.5,7.6c-6,1.8-13.2,2-17.1,1
		c-3.9-1.1-6.9-2.6-9.2-1.7c-2.4,0.9-5,3.8-2.5,7.4c2.6,3.5,15.7,4.6,19.2,5c3.5,0.4,16.6-0.6,20.3,5.9c3.7,6.5,0.8,13.8-3.6,15.4
		c-4.4,1.6-8.1,2.7-11.4,3.2l-3.3,0.5c0,0,1.5,3.4,1.5,4.9c0,1.4-0.2,4.1,1.4,5.2c1.6,1.1,3.9,1.8,6.7,1.5c2.8-0.3,6.1,1.6,6.3,4.1
		c0.2,2.5,1,5.9,1.2,10.9c0.3,5,0,9.1,0,9.1s-0.2,1.9-0.9,3.7c-0.7,1.8-4.1,8.9-4.1,8.9H351c0.1-1,0.2-2,0.3-2.9
		C352.3,360.2,347.4,336.4,344.3,315.3"/>
	<path class="st4" d="M194.8,386.5c3.8,10.7,11.5,21.6,23.3,28.7c16.4,9.9,23.5,8.6,39,18.6c15.5,10.1,14.5,11.7,14.7,11.7
		c0.2,0-0.7-1.7,14.7-11.7c15.5-10.1,22.5-8.8,38.9-18.6c11.8-7.1,19.6-18,23.3-28.7H194.8z"/>
	<path class="st2" d="M208.2,303.5c1.8,1.9,3.1,2.4,5.7,2.1c2.7-0.3,3.3,1.7,3.8,3.8c0.5,2.1,0.5,7.1,2.4,11.8
		c1.9,4.6,8.4,4.9,8.4,4.9c0.2-2.2,1-5.2,1.9-7.7c0.2-0.4,1-2.5-1.3-2.5c-2.3,0-2.2-0.9-3.6-3.2c-1.4-2.2-4.1-8.2-4.7-12
		c-0.6-3.8,0.6-9.5,1.2-11.5c0.6-2,0.7-3.4,0-3.8c-0.7-0.4-2.2,0-2.2,0s0.6,1.8-0.1,2c-0.6,0.3-1.2-0.9-1.7-2.2
		c-0.5-1.3-1-1.1-1.9-1c-0.9,0.1-0.9,0.9-0.3,1.9c0.6,0.9,0.3,2.6,0.3,2.6s-2-1.5-2.9-1.9c-0.8-0.4-2.8,0.4-3,1.5
		c-0.2,1.1,0.7,4,2.5,5.5c1.8,1.5,1.8,4.5,1.2,5.9c-0.6,1.4-3.2,1.2-3.7,0.6c-0.6-0.6-1.7-0.8-2.4,0
		C207.2,301.2,206.4,301.6,208.2,303.5"/>
	<path class="st2" d="M207.2,298.6c0,0-1-0.8-1.4-1.3c-0.4-0.5-1.1-1.5-1.1-1.5s-0.2,0.5-0.2,1.6c0,1.1,1.2,2.3,1.2,2.3L207.2,298.6
		z"/>
	<path class="st2" d="M211.1,285.7c0.8-0.4,1.5-0.6,0.8-1.5c-0.6-0.9-1.2-1.9-1.9-2.1c-0.6-0.2-1.2-0.1-1.2-0.1s0.7,1.7,0.9,2.7
		C209.9,285.7,210.2,286.1,211.1,285.7"/>
	<path class="st2" d="M215.9,281.8c-0.1,0.8,0.1,1.2,0.8,0.8c0.7-0.4,1-1.4,0.6-2.1c-0.4-0.7-1.2-1.3-1.2-1.3l-0.6-0.4
		C215.6,278.8,216,281,215.9,281.8"/>
	<path class="st2" d="M222.8,282.9c0.1-0.9-0.3-1.9-0.3-1.9s0,1.1-0.5,1.8c-0.5,0.6-0.4,0.5,0.1,1
		C222.6,284.3,222.7,283.8,222.8,282.9"/>
	<path class="st2" d="M233.7,330c1.4,3.2,4.8-1.8,8-5.8c3.1-4,3-0.9,2.6,2.3c-0.4,3.3,0.8,6.7,2.1,9c1.3,2.2,2.3,0.9,2.8-0.6
		c0.5-1.6,0.9-4.8,2-6.4c1-1.6,2.1-0.2,2.2,1.2c0.1,1.4,1.8,4.4,3.4,6.2c1.6,1.8,2.3-0.6,2.8-2.8c0.5-2.2,1.2-5.6,1.6-7
		c0.4-1.4,1.9-0.2,1.9-0.2s1.1,1.1,3.1,3.1c2.1,2,2.3-1.2,2.5-2.7c0.2-1.6-0.3-5.1,0.3-5.6c0.6-0.5,2.4,0.7,5.1,2.1
		c2.7,1.4,2.6-1.3,2.3-2.7c-0.3-1.5-1.9-4.8-4.1-6.7c-2.2-1.9-2.5-4.1-1.8-5.1c0.7-0.9,3.4-0.1,5-0.3c1.7-0.2,2.5-0.4,3.8-0.6
		c1.3-0.2,1.3-1.5,1.3-1.5s-0.9-1.6-2.7-3.2c-1.8-1.6-2.8-2.8-5-3.4c-2.2-0.5-5.2,0-5.2,0l-0.3-0.6c-0.3-0.6-0.9-0.6-1.4,0
		c-0.4,0.6-1.5,1.5-2.3,2.2c-0.8,0.7-1.4,1.2-1.9,0.8c-0.5-0.3,0.4-1.1,0.4-1.1s1.2-0.8,2.2-2.9c1-2.1,1.4-4.1,0.5-5.1
		c-0.8-1-3.1,0-4.4,0c-1.3,0-2,0.2-2.1-0.4c-0.1-0.6,1.3-0.3,2.8-0.5c1.6-0.2,2.5-2.1,3-3.7c0.5-1.6,0.9-1.4,1.9-0.4
		c0.9,0.9,1.8,0.7,2,0.1c0.2-0.6,1-2.2,2.1-3.8c1-1.6,1.7-3.8,0.5-5.3c-1.2-1.5-4-1.3-5.1-0.3c-1.2,0.9-1.9,1.9-2.2,4.2
		c-0.3,2.3-0.9,1-0.9,0.3c0-0.7-0.9-1.9-0.5-2.8c0.4-0.9,0-2,0-2s-0.2-2-2.4-2.4c-2.2-0.4-4.7,0.1-6.9,0.6c-2.2,0.5-1.8,2.4-1.8,2.4
		s-1.7,0.1-3.5,0.3c-1.8,0.2-3.9,0.9-5.6,1.4c-1.7,0.4-2.3,0.6-2.3,1.5c0,0.8,0.3,2.2,0.3,2.2s1.4,0,2.1,0.4
		c0.7,0.4,0.3,1.2-0.5,1.5c-0.8,0.3-1.2,0.4-1.2,1.5c0,1.1,0.4,1.3,1.3,1.3c0.8,0,2.6,0,4.7,0.9c2.1,0.9,2.6,2.8,2.4,3.9
		c-0.2,1.1-3.2,2.4-4.6,2.4s-1.9,0.3-1.9,1.3c0,0.9,1.8,0.8,1.8,0.8s1.8,0.1,5.2,0.5c3.5,0.4,4,1.2,5.6,2.5c1.6,1.4,0.4,1.7-0.3,2.1
		c-0.7,0.4-1.9,1.4-3,1.8c-1.2,0.4-1.9,1.3-2.9,1.5c-1,0.2-3.7,0.1-8.5,2c-4.8,1.9-6.5,8.2-6.5,8.2s0.6-0.2,2.8-1.4
		c2.2-1.2,4.9-2.4,7.4-4c2.5-1.6,2.5,0.7,1.3,2.9c-1.3,2.2,1.2,1.8,1.9,1.2c0.7-0.6,1.7-1.3,4.1-2.5c2.4-1.3,1.6,0.7,1.6,0.7
		s-0.7,1.5-0.9,4.9c-0.2,3.5,3.5,0.2,5.1-2c1.7-2.2,2.4,0,1.2,2.5c-1.3,2.5-3.7,4.5-5,4.5c-1.4,0-2.4-1.5-2.5-2.3
		c-0.1-0.8,0.4-3.4-0.4-4c-0.8-0.6-3.3,0.1-5,1.2c-1.8,1.1-2.2,0.2-2.6-0.7c-0.4-0.9,0.6-1.3,0.2-1.9c-0.4-0.6-1.4,0-2.1,0.3
		c-0.7,0.3-2.4,1.3-5.7,2.9c-3.3,1.7-3,2.6-3,5C231.7,326.5,232.4,326.9,233.7,330"/>
	<path class="st2" d="M265.2,277.4c0.7-0.4,1.9-0.9,1.9-0.9s1.5-0.4,3-0.6c1.4-0.2,1.2-1,0.9-1.7c-0.3-0.7-0.9-0.9-2.7-0.9
		c-1.9,0-3,0.9-4.1,1.4c-1.1,0.4-2.3,0.7-2.3,0.7s0.2,0.3,0.9,1.3C263.5,277.7,264.5,277.8,265.2,277.4"/>
	<path class="st2" d="M272.8,284.9c0.7,0,1.5-0.4,1.5-0.4s1.4-0.7,2.6-1.1c1.2-0.4,1.7-0.6,2.5-2.1c0.7-1.5-0.8-1.5-3-2
		c-2.2-0.6-3.2,0.2-3.5,1c-0.3,0.8-0.2,1.7-1.1,3.3C271,285,272,284.9,272.8,284.9"/>
	<path class="st2" d="M272.1,286.8c-2.1,0-4.5,3.2-5.3,3.7c-0.9,0.6-0.4,1.1-0.4,1.1s0.6,1.3,0.9,2.5c0.3,1.2,0.3,3.4,0.3,3.4
		s0.3,0.1,1.5,0.1c1.2,0,2-0.6,3.2-1.5c1.2-0.9,2.1-1.2,3.8-1.5c1.7-0.3,2.5-0.6,4.3-1.6c1.9-1-1-2.7-3-4.3
		C275.4,287.1,274.2,286.8,272.1,286.8"/>
	<path class="st2" d="M244.1,294c1.7-0.2,2.4-1,2.4-1.9s-0.8-1.9-3-1.8c-5.2,0.5-10.3-1.4-11.2-6.6c0,0-1.8,3.2,1.5,6.9
		C237,294.2,242.4,294.2,244.1,294"/>
	<path class="st2" d="M226.3,376.2c0.3,0.5,0.6,0.7,0.9,0.9h8c1.4-0.4,1.4-1.6,1.4-2.5c0.1-1,0.9-4,2-9.3c1.1-5.3,3-9.1,3.8-11.3
		s-0.8-2.9-1.3-4.2c-0.6-1.3-1.4-3.7-1.7-4.9c-0.2-1.2-2.1-1-3.2-1c-1,0.1-1.2,1.7-1.3,3.3c-0.2,1.6-0.9,6.3-1.7,10.3
		c-0.8,4-5.4,9.4-6.6,10.6c-1.3,1.2-2.3,1.7-3.2,1.7c-0.9,0-2.8,0-3.7,0.6c-0.9,0.6-1.9,2.1-2,3.2c-0.1,1.2,1.8,1.8,1.8,1.8
		s1.5-0.9,2.1-1.6c0.6-0.7,1.8-0.9,3.1-1.1c1.3-0.2,1.4,0.2,0.9,0.9C225.2,374.4,225.3,374.6,226.3,376.2"/>
	<path class="st2" d="M214,375.8c-0.6,0.2-1,0.8-1.3,1.3h5.2c-0.1-0.4-0.2-0.9-0.5-1.3C216.8,375,215.1,375.4,214,375.8"/>
	<path class="st2" d="M221.1,375.7c-0.6,0.3-1.4,0.9-1.8,1.5h5.6c0.2-0.5,0.3-1.2-0.4-1.8C223.3,374.3,222,375.2,221.1,375.7"/>
	<path class="st2" d="M269.9,373.4c-0.6,0-1.2,0.5-2,1.2c-0.9,0.6-1.2,1.6-1.3,2.3c0,0.1,0,0.2,0,0.3h2.4c0.1-0.1,0.2-0.2,0.2-0.3
		c0-0.7,0.3-1.3,1.3-2.2C271.5,373.8,270.6,373.4,269.9,373.4"/>
	<path class="st2" d="M274.6,375.9c0-0.7-0.3-1.4-0.8-1.4c-0.5,0.1-1.4,1-2.2,1.6c-0.4,0.3-0.7,0.7-1,1h3.5
		C274.4,376.8,274.6,376.3,274.6,375.9"/>
	<path class="st2" d="M296.4,350c1.7-1.2,1.4-1.6,1.5-2.9c0.1-1.3,0.1-1.7-0.6-2.2c-0.7-0.5-3.2-1.6-5.6-1.6s-6.9,0.5-8.6,1.7
		c-1.7,1.2-2.5,5.3-2.5,7.5s0.3,2.5,1,2.5s1.6-1.6,1.6-1.6s2.2,2.9,3.6,5c1.4,2,0.7,2.9,0.1,4.4c-0.6,1.6-2.9,5.7-4.6,6.6
		c-1.8,0.9-3.1,0.1-5.2-0.3c-2.1-0.3-3.3,0.3-4.5,1.5c-1.2,1.2-0.1,2.2,0.7,2.2c0.7,0,1.8-0.1,2.6,1c0.6,0.7,0.2,2.3-0.1,3.3h10.4
		c1.8-0.8,3-3.2,3.5-4.6c0.5-1.5,2.8-3.5,3.9-4.5c1.1-1,1.2-1.7,1.2-4c0-2.2-0.6-3.5-1.4-5.1c-0.8-1.6-1.4-3.8-1.2-5.1
		C292.4,352.6,294.7,351.2,296.4,350"/>
	<path class="st2" d="M279.2,324c1,1.7,0.5,2-1,2.3c-1.5,0.3-3.1,0.6-5.4,0.4c-2.3-0.2-2.3,0.1-2.3,1.3c-0.1,1.2-0.3,3.6-1.6,5.4
		c-1.4,1.8-3.1,1.1-4.1,0.4c-1-0.7-1.6-0.5-2,0.8s-1.1,2.2-2.2,4.2c-1.1,1.9-1.8,2-2.6,1.8c-0.8-0.2-1.5-1.4-2.3-1.4
		c-0.8-0.1-2-1.6-3.2-3.5c-1.2-1.9-1.8,0.2-2.5,1.8c-0.8,1.6-1.6,2.8-3.1,2.6c-1.5-0.2-3.2-3-4-4.7c-0.8-1.7-1.4-3.3-2.7-3.2
		c-1.3,0.1-3.4,2.8-4.9,3.5c-1.4,0.7-1.8,0.5-2.5-0.5c-0.6-0.9-1.5,0.3-2.3,2.5c-0.8,2.1,0.1,4,1.2,4.5c1.2,0.6,3.5-1.1,5.1-2.1
		c1.6-1,2.3-0.8,3.9-0.8c1.6,0,1.5,2.7,2.2,6.5c0.7,3.9,3,4.4,3,4.4s0.8,0.6,2.5-2.3c1.8-3,1.9-5.9,3.6-5.9c1.7,0,1.8,0.4,3.5,2.7
		c1.7,2.3,3.1,4.1,4.1,2.3c1-1.8,1.8-4.4,2.9-5.3c1.1-0.9,2.1-1.2,1,0.5c-1.2,1.7-1.7,3.5,0.7,2.8c2.4-0.7,11.5-4.4,15.2-5.1
		c0,0,4.3-0.7,9.3-1c5-0.3,6.2-0.6,8.2-0.6c1.9,0,2-0.2,2.1-1.5c0.1-1.3-0.9-1-4.5-1c-3.6,0-6.2,0.5-8.7,0.8
		c-2.5,0.4-3.7,0.3-3.2-0.3c0.5-0.6,1.2-1.1,4.1-1.6c2.9-0.5,8.9-0.8,12-0.8c3.1-0.1,2.1,0.9,1.9,3c-0.3,2.1,0.3,5.1,0.5,7.1
		c0.2,1.9,0.3,2.5,1.9,5.3c1.7,2.7,7.5,4.4,9.2,5.3c1.7,0.9,1.4,0,1.4-1.6c-0.1-1.6,1.3-1.6,2.8-0.7c1.5,0.9,4,1.6,5.7,2
		c1.8,0.4,2,0.8,2,1.7c0,0.9,0.2,2.9,0.4,4.8c0.2,1.9,0.1,2.5-0.7,3.6c-0.8,1.2-4.1,4.5-4.1,4.5s-1.5,0-4.7,0.8
		c-3.2,0.8-4.2,2.3-4.5,3.6c-0.3,1.3,0.6,1.7,0.7,2.2c0.1,0.3,0,1,0,1.6h0.7c0.3-0.5,0.6-1,1.1-1.7c1.1-1.4,3.9-1.8,5.7-0.9
		c1.2,0.6,1.2,1.8,1.1,2.6h7.3c1-1.9,3.3-6.4,3.9-7.8c0.8-1.7,1.2-2.9,1.3-5.3c0.1-2.4,0.3-11.7-0.1-12.2c-0.5-0.5,0.1-2.1,0-4.7
		c-0.1-2.6,0-4.5-4.8-5c-4.8-0.5-6.3-2.5-7.9-4.1c-1.6-1.6-1.2-5.4-2.5-9.9c-1.3-4.5-4.5-5.3-10.1-6.4c-5.6-1.1-9.8-1.2-14-0.8
		c-4.2,0.4-9.5,1-12.4,0.7C277.7,321.5,278.2,322.3,279.2,324"/>
	<path class="st2" d="M306.5,376.1c-0.5,0.3-0.8,0.7-1,1h4.9c0-0.4,0-0.9-0.5-1.4C309.1,374.8,307.7,375.3,306.5,376.1"/>
	<path class="st2" d="M315.3,375.8c-0.8,0.4-1.3,0.9-1.6,1.4h5c0-0.2,0-0.4,0-0.6C318.5,375.8,317,375,315.3,375.8"/>
	<path class="st2" d="M192.8,378.9c0.3,1.5,0.6,3.1,1.1,4.7h155.8c0.4-1.6,0.8-3.1,1.1-4.7H192.8z"/>
	<path class="st2" d="M297.8,304.5c4.9,3.3,20.6,3.5,27.9,4.9c7.3,1.5,6.8,7.1,4.6,10c-2.2,2.9-12.6,3.3-14.4,3.5
		c1,0.7,2.5,2.9,2.5,2.9s1.1-0.1,4.2-0.3c3.1-0.3,8.5-1,12.3-4.1c3.7-3.1,3.5-8.1,0.2-11.5c-3.3-3.4-8.7-3.7-14.3-4.3
		c-5.5-0.6-9.8-1-16.1-2.1c-6.2-1-9.2-3.5-9.2-7.2c0-3.6,3.4-5.5,5.8-6.2c2.4-0.7,6.3-1.7,9.8-0.4c3.5,1.3,7.5,1.5,14.3,0.6
		c6.8-0.9,8.4-5.6,8.4-5.6s-0.9,0.4-4.3,0.5c-3.5,0.1-6-1.5-12.3-1.6c-6.3-0.1-8.6,2.2-11.5,3.2c-2.9,1-10.8,1.8-13.1,6.9
		C290.2,298.8,292.8,301.2,297.8,304.5"/>
	<path class="st0" d="M256.8,278c-1.6,0-2.9,1.3-2.9,2.9c0,1.6,1.3,2.9,2.9,2.9c1.6,0,2.9-1.3,2.9-2.9
		C259.7,279.3,258.4,278,256.8,278"/>
	<path class="st0" d="M320,285.9c-3.9-0.3-9,0.7-9,0.7s0.9,0.8,2.2,0.7c1.3-0.1,3.6-0.2,7.4,0.5c3.8,0.7,6.6-1.1,6.6-1.1
		S323.8,286.2,320,285.9"/>
	<path class="st2" d="M444.9,460.6c3.1,0.7,28.8,5.6,31,6.1c2.2,0.5,4,1,4.6,0.4c0.6-0.6,1-1,3.2-1.8c2.3-0.8,2.2-3.1,2.2-3.1
		s0.6-2.2,0.8-4.3c0.2-2.2,1.4-2.9,4-0.2c2.5,2.6,3,6.5,3.5,10.2c0.5,3.7,6.4,4.7,8.6,5c2.3,0.4,3.4-0.4,4.7-2.5
		c1.3-2.2,2-6.5,2.4-9.2c0.4-2.8,0.1-2.5-2.8-3.2c-2.9-0.7-16.2-3.7-18.6-4.3c-2.4-0.6-1.9-2.2-1.6-3.8c0.4-1.7,5.6-18.6,5.6-18.6
		c-3.8-2.3-9-3.7-15.4-4.4c0,0-3.8,17.3-4.6,19.9c-0.7,2.6-2.4,2.6-5.2,2.2c-2.8-0.5-22.7-5.2-22.7-5.2l-1.6,3.7
		c-1.6,3.7-2.3,8.2-2.3,10.4S441.8,459.8,444.9,460.6"/>
	<path class="st2" d="M513.1,476.2c-2.6-1.7-4.6-2.2-6,1c-1.4,3.2-1.5,7.9-4.9,11.3c-3.4,3.3-8.3,6.8-13.1,6.4
		c-4.8-0.3-7.6-1.5-6.4-7c1.2-5.5,8.5-7.2,10.2-10.1c1.7-2.9,1.3-6.2-1.3-8.4c-2.5-2.2-6.2-2.6-7.2-2c-1,0.7-4,3.2-5.5,7.4
		c-1.5,4.1-2.4,7.5-5.6,10.1c-3.2,2.6-11.5,5.3-17.9,3.8c-6.4-1.5-8.7-3.5-11.1-9.8c-2.4-6.3-5.3-16.8-6.5-17.9
		c-1.3-1.1-2.9-2.1-5.6-0.1c-2.8,2-3,4.8-3.3,7.1c-0.3,2.3,0,5,2.8,8.3c2.8,3.3,5.6,6.7,6.7,10.1c1,3.5,4.1,8.7-0.2,9
		c-4.4,0.2-6.3,0.3-9.6-2.9c-3.3-3.2-16.3-12.1-19.9-15c-3.6-2.9-5.1-3.8-5.1-3.8c-6-0.1-12-2.6-18-6.7c0,0,3.4,8.9,4.1,12.2
		c0.7,3.3,0.6,5.2,0.6,5.2s13.1,6.7,18.3,9.2c5.2,2.5,15.6,8.5,20.7,11.6c5.1,3.1,9.3,7.9,18.3,6.1c9-1.8,27.1-7.4,33-9.1
		c5.9-1.7,22.1-5.8,28-9.9c6-4.1,6.5-3.9,7.6-8.1C516.8,480.2,515.7,477.9,513.1,476.2"/>
	<path class="st2" d="M478.5,414.2c1-0.1,1.4-0.3,4.5-0.7c3.1-0.4,1.9,2.5,1.4,3.7c-0.5,1.1-1.5,3.4-2.7,5.5
		c-1.3,2.1,0.4,2.5,1.3,2.8c0.9,0.3,2.1,0.5,4.6,1.1c2.5,0.7,2-1.1,2.1-2.1c0.1-0.9,0.2-5.8,0.5-7.5c0.3-1.7,1.9-1.3,2.5-0.9
		c0.6,0.3,2.1,1.2,3.4,1.9c1.3,0.7,1.9-0.1,2.1-0.8c0.3-0.7,0.9-2.1,1.4-4c0.5-1.9-0.7-1.5-1.9-1.5c-1.2,0-2.9,0-4.9-0.1
		c-2-0.1-0.7-2-0.7-2s1.5-2.4,2.6-4.2c1.1-1.8,0.7-2.1-0.4-2.4c-1.1-0.3-4.6-1.1-5.6-1.4c-1-0.3-1.5-0.1-1.5,0.5s-0.1,4.1-0.1,5.5
		c0,1.3-0.1,2.1-1.9,2.2c-1.7,0.1-2.8-0.9-4.2-2.5c-1.4-1.5-2-0.9-2.1-0.3c-0.1,0.6-1.3,5-1.5,6.2
		C476.8,414.4,477.5,414.3,478.5,414.2"/>
	<path class="st2" d="M378.7,462.9c-1.9-2,3-2.1,5.9-2.1c2.9,0,7.7-1.5,9.2-2.5c1.5-1,4.2-1.5,7.4-3c3.2-1.5,1.2-2-2-2.8
		c-3.2-0.8-11.9-4.5-11.9-4.5s-4.2,2.3-6.6,3.7c-2.4,1.4-5.5,3.3-10.6,4c-5.1,0.6-6.6,0.9-6.9,1.1c-0.2,0.2,1.2,1.4,3.2,4.1
		c1.9,2.8,2.8,4.6,5.2,8.7c2.4,4.1-0.4,1.7-2.4-0.9c-1.1-1.5-3.7-4.9-6.1-7.4c-1.8-1.9-3.7-3.1-3.7-3.1l-1.6,3.5v1.2
		c0,1.1-1,6.8-1.3,9c-0.3,2.3,0.6,2.3,2.3,3.1c1.8,0.8,5.3,2.8,14.9,8.9c9.6,6,13.1,10,13.1,10s0.3-2.6,0.3-5.2
		c0-2.6-0.1-7.9-2.2-13.8C382.9,468.8,380.7,464.9,378.7,462.9"/>
	<path class="st2" d="M356.5,449.6c2.2,0.5,3.1,1,6.3,1c3.1,0,4.5-1,7.7-1c3.3,0,5.5-1.1,10.8-3.9c5.3-2.8,0.2-2-3.5-1.7
		c-3.7,0.3-13.4-1.1-17.5-2.7c-4.1-1.6-1.1-1.8,0-1.5c1.1,0.3,1.7,0.7,10,2.1c8.3,1.5,11.3-0.4,15.6-1.6c4.3-1.1-1-1.7-1-1.7
		s-15-4.3-22.6-12.7c-5.7-6.4-7.7-12.4-8.3-14.8c-2.9,3.5-6.2,6.5-9.7,9.2c0.3,1.2,0.8,3.1,1.6,4.9c1.2,2.8,4.8,6.5,4.8,6.5
		s-4.5-1.8-6.5-3.9c-1.4-1.5-2.6-3.7-3.2-5c-4.9,3.4-10,6.2-14.7,8.4c0.6,0.4,1.3,1,2,1.7c2,1.8,3.9,4.2,6.5,8.3
		c2.6,4.2,0.2,3.8-2.1,0c-2.4-3.8-8.2-7.7-9.3-8.3c-0.1-0.1-0.3-0.1-0.4-0.2c-0.6,0.3-1.2,0.5-1.8,0.8c-3.2,1.4-6.2,2.7-9.1,3.9
		c1.9,1.6,6.4,5.9,7.9,8.1c1.7,2.5,5.2,4.7,6.4,6.4c1.2,1.7,2.6,3.6,4.3,5.6c1.7,2,11.8,13.4,14.5,17.6c2.7,4.3,1.1-1.1,0.4-4
		c-0.7-2.9-1.7-7.1-2.6-10.3c-0.9-3.3,1-1.9,1.3-0.1c0.3,1.8,0.8,1.9,1.6,5.4c0.8,3.5,2.8,8.6,3.7,12.2c0.9,3.6,1.2,1.9,2.1,0.2
		c0.9-1.7,2.2-4.6,2.8-6.4c0.6-1.8,1-5.8,1.1-12c0.1-6.2-2.9-8.6-2.9-9.5C352.8,450,354.3,449.2,356.5,449.6"/>
	<path class="st2" d="M399.8,463c-0.9,0.4-3.9,1.4-5.3,1.6c-1.4,0.2-2.4,0.3-2.4,0.3s2.8,3.9,7,3.9h12.2c0,0-7.3-4.3-8.3-5.3
		C402.1,462.5,400.7,462.6,399.8,463"/>
	<path class="st2" d="M488.1,457.8c0,0-0.1,3.5-0.5,4.7c-0.4,1.2-1.2,3,0.2,3.5c1.4,0.5,2.8,1.1,3.6,0.8c0.8-0.2,0.5-1.9,0-3.4
		c-0.5-1.4-1.2-3.2-2.3-4.4L488.1,457.8z"/>
	<path class="st2" d="M509.2,471.7c0.5,1.1,1.4,1.3,2.2,1.6c0.7,0.2,1.7,0.2,1.7-1.1c0-1.3,0.2-3-0.8-4.4c-1.1-1.4-1.7-2.5-2.3-0.4
		C509.3,469.5,508.8,470.6,509.2,471.7"/>
	<path class="st2" d="M435.7,457.7c0.6,0.1,2.9,0.8,2.9,0.8s0-3.4,0.5-5.6c0.5-2.3,1.4-3.8,0.6-3.8c-0.8,0-1.3,0.7-1.9,1.7
		c-0.6,1-2.3,1.2-2.9,4C434.2,457.4,435.1,457.6,435.7,457.7"/>
	<path class="st0" d="M145.1,362.9c-2.4,1.8-5.6,2.6-5.6,2.6s-1.5-0.1-1.5,0.5c0,0.6,1.7,0,3.6-0.3c1.8-0.3,4.3-2.2,5.2-2.8
		c0.9-0.7,2.2-1.5,1.8-2.7C148.2,359,147.5,361.1,145.1,362.9"/>
	<path class="st0" d="M165.8,374c-0.5,0.6-4.5,3.6-4.5,3.6s-1.2,0.8-2.6,1.3c-1.3,0.5-1.7,1.3-1.7,1.3s0.2,0.3,1.7-0.1
		c1.4-0.4,5.6-3.3,6.9-4.5c1.3-1.2,1.9-1.5,1.4-2C166.6,373.1,166.3,373.4,165.8,374"/>
	<path class="st0" d="M81.8,224.6c0.7,0.9,1.7,2.2,2.1,1.7c0.4-0.4-0.1-0.8-1.1-2c-1-1.2-1.6-1.7-1.6-1.7s-1.4-2.2-2.2-3.1
		c-0.8-0.8-2.1-1.2-0.5,0.7C80,222.2,81,223.7,81.8,224.6"/>
	<path class="st0" d="M75.4,238.6c0.9,0.8,1.7,1.6,2.7,2.7s1.7,2.2,2.3,1.7c0.6-0.6-1.5-1.8-2.4-3c-0.9-1.2-1.7-1.9-2.8-2.8
		c-1.2-0.9-2.6-1.7-2.6-1.7S74.5,237.8,75.4,238.6"/>
	<path class="st0" d="M77.8,261.2c1.6,1.7,3.9,2.2,4.2,1.5c0.3-0.7-0.2-1.2-1.5-1.9c-1.3-0.7-3.5-2.1-4.6-2.8
		c-1.1-0.7-2.2-1.6-2.9-2.3c-0.7-0.7-1.6-1.4-1.9-1.2c-0.3,0.3,2.2,2.9,2.9,3.3C74.9,258.3,76.2,259.6,77.8,261.2"/>
	<path class="st0" d="M82.3,279.3c0-0.7,0.2-1-1.2-1.1c-1.3-0.1-3.2-0.3-3.2-0.3s-2.6-1-2.7-0.5c-0.2,0.5,2.2,1.5,3.2,1.7
		c1,0.2,2.2,0.5,2.8,0.8C81.8,280.2,82.3,280,82.3,279.3"/>
	<path class="st0" d="M84.3,299c-2.8,0-5.2-0.7-5.4-0.3c-0.2,0.4,1.3,1.1,2.7,1.6c1.4,0.5,4.1,0.7,5.9,0.7c1.8,0.1,2.2-0.3,2.1-1.2
		C89.6,298.9,87.2,299,84.3,299"/>
	<path class="st0" d="M106.5,320.5c-0.4-0.4-1.4-0.1-3,0.2c-1.6,0.3-4.2,0.8-5.7,0.8c-1.5-0.1-4.7-0.2-4.7-0.2s-1.8,0-1.8,0.4
		c0,0.4,2.4,0.3,5.9,0.7c3.5,0.4,5.8-0.3,7.5-0.6C106.3,321.6,106.9,320.9,106.5,320.5"/>
	<path class="st0" d="M115.6,335.8c-1.7,0.7-3,0.8-4.3,0.8c-1.3,0-4.5,0.6-4.5,0.6s-1.5,0.2-1.2,0.8c0.2,0.6,0.7,0,2.1-0.2
		c1.3-0.2,2.3,0,4.7-0.1c2.3-0.1,3.7-0.7,5.1-0.9c1.4-0.3,3-1,2.2-1.9C118.9,334,117.4,335.1,115.6,335.8"/>
	<path class="st0" d="M133.4,347.4c-1,1-4.8,3.6-4.8,3.6s-0.7,0.6-2.2,1.3c-1.5,0.7-1.4,1.1-1.2,1.5c0.2,0.4,1.2-0.6,2-0.9
		c0.8-0.3,3.6-2.2,5-3.3c1.4-1.2,3.2-2.1,2.9-2.9C134.8,345.8,134.4,346.4,133.4,347.4"/>
	<path class="st0" d="M103.8,197.4c0,0,0.3,0.8,3.4,4.6c3.1,3.8,1.4,0.2,0.7-0.8c-0.8-1-5.3-7.4-6.8-9.1c-1.5-1.8-1.8-0.9-1,0.2
		C100.8,193.4,103.8,197.4,103.8,197.4"/>
	<path class="st0" d="M97.3,217.1c0.4-0.4-0.6-0.9-2.3-3.1c-1.8-2.2-5.3-6.7-5.3-6.7s-1-2.1-1.3-1.9c-0.3,0.2,1.2,3.5,2.6,4.9
		c1.4,1.4,3.3,4.2,4.3,5.4C96.3,217,96.9,217.6,97.3,217.1"/>
	<path class="st0" d="M105.9,254.2c0-1.1-3.5-0.9-5-1.2c-1.6-0.3-4.4-0.9-4.4-0.9s-3.3-0.6-3.4-0.2c-0.1,0.4,0.7,0.8,2.5,1.2
		c1.8,0.3,4.6,1.2,6.6,1.5S105.9,255.2,105.9,254.2"/>
	<path class="st0" d="M97.3,234.2c2.3,1.9,3.8,2.7,5,3.4s2.2,1.6,2.9,0.9c0.7-0.8-0.6-1.3-2.5-2.2c-2-0.9-3-1.6-3-1.6
		s-1.1-0.5-2.1-1.1C96.7,232.9,95,232.3,97.3,234.2"/>
	<path class="st0" d="M117.2,221c-1.4-1.2-2.6-1.9-2.6-1.9s-1.8-1.6-2.1-1.1c-0.3,0.6,2,2.2,3.1,3.2c1.1,1,3.1,3.8,4.1,3.3
		C120.6,223.9,118.6,222.2,117.2,221"/>
	<path class="st0" d="M104.2,272.6c0,0-1.9,0.5-3.2,0.8c-1.2,0.3-1.3,0.9,0.9,0.9s3.2-0.6,5.4-1c2.2-0.4,3-0.7,2.7-1.4
		c-0.3-0.8-1.5-0.5-2.4-0.2C106.7,271.9,104.2,272.6,104.2,272.6"/>
	<path class="st0" d="M107.7,291.2c-0.2,0.4,1.6,0,2.7-0.4c1.2-0.4,3.6-1.7,5-2.1c1.4-0.4,1.4-0.7,1.4-1.5c0-0.8-1.5-0.2-3.3,0.4
		c-1.8,0.6-4.2,2.4-4.2,2.4S107.9,290.8,107.7,291.2"/>
	<path class="st0" d="M131.8,302.6c1.7-1,2-1.8,1.4-2.3c-0.6-0.5-1.1-0.4-2.4,0.7c-1.3,1.1-3.9,2.9-3.9,2.9s-1.3,0.5-2.3,1
		c-1,0.5-2.2,1.3-1.9,1.8c0.3,0.5,2.4,0,3.5-0.9C127.2,304.9,130.1,303.6,131.8,302.6"/>
	<path class="st0" d="M143.1,317.6c0.7-0.6,2.7-1.2,3.6-1.9c0.9-0.7,1.5-2.7,0.7-2.9c-0.7-0.2-1.2,0.8-2.7,2c-1.6,1.2-7,4.8-7,4.8
		s0.1,0-1.4,0.6c-1.5,0.6-0.8,1,0.4,0.8c1.2-0.2,2.1-0.2,3.6-1.3C141.8,318.4,142.4,318.1,143.1,317.6"/>
	<path class="st0" d="M159.9,331.8c1.4-0.6,3.5-2.4,4.5-3.3c1-0.9,2.2-2.1,1.5-2.7c-0.8-0.6-1.6,0.2-2.7,1.2
		c-1.2,1.1-4.2,4.3-4.2,4.3s-0.4,0.1-2.1,1.4c-1.7,1.3,0.1,1.1,0.7,0.5C158.1,332.7,158.5,332.4,159.9,331.8"/>
	<path class="st0" d="M404,365.5c0,0-3.2-0.7-5.6-2.6c-2.4-1.8-3.2-3.9-3.6-2.8c-0.4,1.2,0.9,2,1.8,2.7c0.9,0.7,3.4,2.5,5.2,2.8
		c1.8,0.3,3.6,0.9,3.6,0.3C405.5,365.4,404,365.5,404,365.5"/>
	<path class="st0" d="M384.7,378.9c-1.3-0.5-2.6-1.3-2.6-1.3s-4-3-4.5-3.6c-0.5-0.6-0.7-0.9-1.3-0.4c-0.5,0.5,0.1,0.8,1.4,2
		c1.3,1.2,5.5,4.1,6.9,4.5c1.4,0.4,1.7,0.1,1.7,0.1S386.1,379.4,384.7,378.9"/>
	<path class="st0" d="M461.7,224.6c0.7-0.9,1.7-2.5,3.3-4.4c1.6-1.9,0.3-1.5-0.5-0.7c-0.8,0.8-2.2,3.1-2.2,3.1s-0.6,0.6-1.6,1.7
		c-1,1.2-1.5,1.6-1.1,2C460.1,226.8,461,225.6,461.7,224.6"/>
	<path class="st0" d="M463,243c0.6,0.6,1.3-0.6,2.3-1.7c1-1.1,1.8-1.8,2.7-2.7c0.9-0.8,2.7-3.1,2.7-3.1s-1.4,0.7-2.6,1.7
		c-1.2,0.9-1.9,1.7-2.8,2.8C464.5,241.1,462.5,242.4,463,243"/>
	<path class="st0" d="M472.3,254.6c-0.3-0.3-1.2,0.4-1.9,1.2c-0.7,0.7-1.8,1.6-2.9,2.3c-1.1,0.7-3.2,2.2-4.6,2.8
		c-1.3,0.7-1.8,1.2-1.5,1.9c0.3,0.7,2.7,0.2,4.2-1.5c1.6-1.7,2.9-2.9,3.7-3.3C470.1,257.5,472.6,254.8,472.3,254.6"/>
	<path class="st0" d="M465.5,277.9c0,0-1.8,0.2-3.2,0.3c-1.3,0.1-1.2,0.4-1.2,1.1s0.5,0.9,1.1,0.6c0.6-0.3,1.8-0.7,2.8-0.8
		c1-0.2,3.3-1.2,3.2-1.7C468,276.9,465.5,277.9,465.5,277.9"/>
	<path class="st0" d="M459.1,299c-2.8,0-5.2-0.1-5.3,0.8c-0.1,0.9,0.2,1.3,2.1,1.2c1.8-0.1,4.5-0.2,5.9-0.7c1.4-0.5,2.9-1.2,2.8-1.6
		C464.4,298.3,462,299,459.1,299"/>
	<path class="st0" d="M450.4,321.3c0,0-3.2,0.1-4.7,0.2c-1.5,0.1-4.1-0.4-5.7-0.8c-1.6-0.3-2.6-0.7-3-0.2c-0.4,0.4,0.2,1.2,1.8,1.4
		c1.7,0.3,4,1,7.5,0.6c3.5-0.4,5.9-0.3,5.9-0.7C452.2,321.3,450.4,321.3,450.4,321.3"/>
	<path class="st0" d="M436.7,337.2c0,0-3.2-0.6-4.5-0.6c-1.3,0-2.6-0.2-4.3-0.8s-3.2-1.8-4-0.9c-0.7,0.9,0.8,1.7,2.2,1.9
		c1.4,0.2,2.7,0.8,5.1,0.9c2.3,0.1,3.3-0.1,4.7,0.1c1.3,0.2,1.8,0.8,2.1,0.2C438.2,337.4,436.7,337.2,436.7,337.2"/>
	<path class="st0" d="M417.1,352.3c-1.5-0.7-2.2-1.3-2.2-1.3s-3.8-2.6-4.8-3.6c-1-1-1.3-1.6-1.7-0.7c-0.3,0.8,1.5,1.7,2.9,2.9
		c1.4,1.2,4.2,3,5,3.3c0.8,0.3,1.7,1.3,2,0.9C418.5,353.4,418.6,353.1,417.1,352.3"/>
	<path class="st0" d="M436.3,202c3.1-3.8,3.4-4.6,3.4-4.6s3-4,3.7-5.1c0.8-1.1,0.5-2-1-0.2c-1.5,1.8-6,8.1-6.8,9.1
		C434.9,202.2,433.2,205.8,436.3,202"/>
	<path class="st0" d="M455,205.5c-0.3-0.2-1.3,1.9-1.3,1.9s-3.5,4.5-5.3,6.7c-1.8,2.2-2.7,2.6-2.3,3.1c0.4,0.4,1-0.1,2-1.3
		c1-1.2,2.9-3.9,4.3-5.4C453.8,209,455.4,205.7,455,205.5"/>
	<path class="st0" d="M437.6,254.2c0,1.1,1.7,0.7,3.7,0.3c2.1-0.3,4.8-1.2,6.6-1.5c1.8-0.3,2.6-0.8,2.5-1.2
		c-0.1-0.4-3.4,0.2-3.4,0.2s-2.8,0.6-4.4,0.9S437.6,253.1,437.6,254.2"/>
	<path class="st0" d="M445.8,233.5c-1,0.5-2.1,1.1-2.1,1.1s-1,0.8-3,1.6c-2,0.9-3.2,1.4-2.5,2.2c0.7,0.8,1.6-0.2,2.9-0.9
		c1.2-0.7,2.7-1.5,5-3.4C448.5,232.3,446.8,232.9,445.8,233.5"/>
	<path class="st0" d="M423.9,224.5c1,0.6,3-2.3,4.1-3.3c1.1-1,3.4-2.6,3.1-3.2c-0.3-0.5-2.1,1.1-2.1,1.1s-1.2,0.7-2.6,1.9
		C424.9,222.2,422.9,223.9,423.9,224.5"/>
	<path class="st0" d="M436.1,273.3c2.2,0.4,3.2,1,5.4,1c2.2,0,2.2-0.6,0.9-0.9c-1.2-0.3-3.2-0.8-3.2-0.8s-2.5-0.7-3.4-0.9
		c-0.9-0.2-2.1-0.5-2.4,0.2C433.1,272.6,433.8,272.9,436.1,273.3"/>
	<path class="st0" d="M434.1,290.1c0,0-2.3-1.8-4.2-2.4c-1.8-0.6-3.3-1.2-3.3-0.4c0,0.8,0,1.1,1.4,1.5c1.4,0.4,3.8,1.7,5,2.1
		c1.2,0.4,2.9,0.8,2.8,0.4C435.6,290.8,434.1,290.1,434.1,290.1"/>
	<path class="st0" d="M418.9,304.9c-1-0.5-2.3-1-2.3-1s-2.6-1.8-3.9-2.9c-1.3-1.1-1.8-1.2-2.4-0.7c-0.6,0.5-0.2,1.2,1.4,2.3
		c1.7,1,4.6,2.3,5.7,3.2c1.1,0.9,3.2,1.4,3.5,0.9C421.2,306.2,419.9,305.4,418.9,304.9"/>
	<path class="st0" d="M407.2,320.1c-1.5-0.6-1.4-0.6-1.4-0.6s-5.4-3.6-7-4.8c-1.6-1.2-2-2.2-2.7-2c-0.8,0.2-0.2,2.2,0.7,2.9
		c0.9,0.7,2.9,1.3,3.6,1.9c0.7,0.6,1.3,0.8,2.8,2c1.5,1.2,2.3,1.2,3.6,1.3C408,321.1,408.7,320.6,407.2,320.1"/>
	<path class="st0" d="M386.7,332.8c-1.7-1.3-2.1-1.4-2.1-1.4s-3.1-3.2-4.2-4.3c-1.2-1.1-2-1.8-2.7-1.2c-0.7,0.6,0.5,1.7,1.5,2.7
		c1,0.9,3.1,2.7,4.5,3.3c1.4,0.6,1.8,0.9,2.4,1.5C386.6,333.9,388.3,334.1,386.7,332.8"/>
	<path class="st2" d="M271.7,131.2c-11.3,0.2-24.6-1.4-31.9-4.1c-2.6,0.6-5.2,1.1-7.8,1.7c12.1,4.5,22.1,6.3,39.7,6.5
		c17.6-0.2,27.7-1.9,39.7-6.5c-2.6-0.6-5.2-1.1-7.8-1.7C296.3,129.8,283,131.4,271.7,131.2"/>
	<path class="st2" d="M312.9,121.7c-0.9-0.7-6.1-4.4-7.4-5.1c-1.3-0.7-0.3-2.5-0.1-3.2c0.2-0.8,6.1-2.4,9.3-3.2
		c3.2-0.8,2.7-1.5,2.7-1.5s-1.9-2.2-13.5-3.4c-11.7-1.3-32.1-1-32.1-1s-20.5-0.3-32.1,1c-11.7,1.3-13.5,3.4-13.5,3.4
		s-0.5,0.7,2.7,1.5c3.2,0.8,9,2.5,9.3,3.2c0.2,0.7,1.3,2.5-0.1,3.2c-1.3,0.7-6.5,4.3-7.4,5.1c-0.9,0.8-1,1.9,0.4,2
		c1.4,0.1,1.4,0.1,5.5-0.8c12-2.4,23.3-3.1,35.3-3.2c12,0.2,23.3,0.8,35.3,3.2c4,0.8,4,0.8,5.5,0.8
		C313.9,123.7,313.8,122.5,312.9,121.7"/>
	<path class="st2" d="M227.2,111.5l-5.1,4.1l6.3,2.8l6.8-4.8L227.2,111.5z"/>
	<path class="st2" d="M316.2,111.5l-8,2l6.8,4.8l6.3-2.8L316.2,111.5z"/>
	<path class="st2" d="M299.6,126.7c-8-0.9-13.1-2-27.9-1.9c-14.8,0.1-19.9,0.9-27.9,1.9c5,2,13.2,3,27.9,3
		C286.5,129.7,294.6,128.7,299.6,126.7"/>
	<path class="st3" d="M283,358.4c-1-1.5-1.2-1.4-2.3-0.4c-1.1,1-2.2-2.3-2.3-4.4c-0.1-2,0.8-8.3,0.8-8.3s-5.3,1.1-8.2,2
		c-2.9,1-5.6,1.2-7.9,1.8c-2.3,0.5-3.5,1.1-4.8,0.8c-1.2-0.3-3.8-0.4-5.9-0.4c-2,0-1.9,0.4-3.9,2.5c-2,2-2.6,3.1-4.2,6.9
		c-1.6,3.8-2.2,7.3-2.7,12c-0.4,3-0.9,5.1-1.3,6.2h24.4c0.3-0.8,0.7-1.8,1-2.5c0.6-1.4,2-2.3,2.9-2.8c1-0.4,1.8-0.4,2.2-1.5
		c0.4-1.1,1.7-2,2.9-2.6c1.3-0.6,3.5-0.3,5.6,0.3c2,0.6,2.7-0.8,3.3-1.6c0.6-0.8,0.8-1.9,1.9-3.3c1.1-1.4,0.3-2.7,0.3-2.7
		S284,359.9,283,358.4"/>
	<path class="st3" d="M322.1,359.1c-0.3-1.4-0.2-1.6-1-1.8c-0.8-0.2-2.2-0.4-3.5-1c-1.2-0.5-1.1,2.7-1.1,2.7s-2.9,0.3-6.1-0.1
		c-3.3-0.4-7.1-3.3-8.4-4.3c-1.3-1-2.8-3.1-2.8-3.1s-1,1-2,1.5s-1.6,2.6-1.8,4.7c-0.2,2,2.4,4.5,2.6,6.6c0.2,2-2.2,6.1-3.5,7.8
		c-0.8,1.1-1.9,3.6-2.5,5h11.8c0.2-0.6,0.6-1.4,1.3-2c1.2-1.2,3.3-1.5,3.3-1.5s0-0.5,0.4-1.6c0.4-1.1,1.7-2.4,4.6-3.5
		c2.9-1.1,6.5-1.3,6.5-1.3s1.4-1.1,2.4-2.7C323.2,362.9,322.5,360.5,322.1,359.1"/>
	<path class="st2" d="M269.3,16.9l6.1-0.5l-0.6-5.3l6.5,0.9l0.3-5.3l-6.9,0.6l1.2-5.7l-7.6-0.1l1.3,5.8L263,6.7V12l6.6-0.8
		L269.3,16.9z"/>
	<path class="st2" d="M282.6,25.5h-8.2v-7c-0.8-0.2-1.6-0.2-2.4-0.2c-0.7,0-1.4,0.1-2.1,0.2v7h-8.5c-0.3,0.9-0.4,1.8-0.4,2.8
		c0,0.4,0,0.8,0.1,1.2h22c0.1-0.4,0.1-0.8,0.1-1.2C283,27.4,282.9,26.4,282.6,25.5"/>
	<path class="st3" d="M272,38.4c4.9,0,9-2.9,10.5-6.9h-21C263,35.5,267.1,38.4,272,38.4"/>
	<path class="st3" d="M276.5,19.2V24h5.4C280.8,21.9,278.9,20.2,276.5,19.2"/>
	<path class="st3" d="M267.4,19.2c-2.4,1-4.3,2.7-5.4,4.8h5.4V19.2z"/>
	<path class="st0" d="M278.3,108.4c-2.1-1-6.6-2.9-6.6-2.9s-4.3,2.1-6.6,3.3c-2.3,1.2-2,0.8-2.7,2.5c-0.7,1.7,0.1,2.3,1.1,2.8
		c1,0.5,8.4,4.2,8.4,4.2s7.3-3.4,9.1-4.2c1.8-0.8,1.4-1.7,0.9-2.9C281.3,109.9,280.3,109.4,278.3,108.4"/>
	<path class="st0" d="M293.3,106.4c3.6,0,6.5,2.8,6.5,6.2s-2.9,6.2-6.5,6.2s-6.5-2.8-6.5-6.2S289.8,106.4,293.3,106.4"/>
	<path class="st0" d="M250,106.4c3.6,0,6.5,2.8,6.5,6.2s-2.9,6.2-6.5,6.2c-3.6,0-6.5-2.8-6.5-6.2S246.5,106.4,250,106.4"/>
	<path class="st2" d="M264.6,110.6l7.2,3.7l7.1-3.7l-7.3-3.4L264.6,110.6z"/>
	<path class="st2" d="M293.3,107.6c-2.2,0-3.9,1.7-3.9,3.7c0,2.1,1.7,3.7,3.9,3.7c2.2,0,3.9-1.7,3.9-3.7
		C297.2,109.3,295.5,107.6,293.3,107.6"/>
	<path class="st2" d="M250,107.6c-2.2,0-3.9,1.7-3.9,3.7c0,2.1,1.7,3.7,3.9,3.7c2.2,0,3.9-1.7,3.9-3.7
		C253.9,109.3,252.2,107.6,250,107.6"/>
	<path class="st2" d="M236.5,91.3c1.7,0.6,3.8,0.3,3.8,0.3s0.7-2.9-0.9-4.3c-1.6-1.4-3-2.4-3.9-3.3c-0.9-0.9-1.2-1.2-1.2-1.2
		s0,2.5-0.1,4C234.1,88.4,234.9,90.7,236.5,91.3"/>
	<path class="st2" d="M240,93.3c-0.7,0-1.2,0.5-1.2,1.1c0,0.6,0.5,1.1,1.2,1.1c0.7,0,1.2-0.5,1.2-1.1
		C241.1,93.8,240.6,93.3,240,93.3"/>
	<path class="st2" d="M231.1,93.2c-0.5,0.7-1.6,1.8-1.6,1.8s1.3,0,2.4,0.8c1.1,0.8,2.5,1.4,3.7,1.3c1.3-0.2,1.8-1.4,1.5-2.2
		c-0.3-0.8-0.9-1.7-3-2.5C232.2,91.6,231.6,92.5,231.1,93.2"/>
	<path class="st2" d="M235.7,100.8c-4.1,0.4-9.4-4.1-9.4-4.1c-0.5,3.6-2.7,5.5-6.1,6.2l0.3,0.2c0,0,3.2,1.6,6.9,2.2
		c1.7,0.3,3.2,0,5-0.4c2.2-0.4,4.7-1.1,6-1.9c2.4-1.5,1.7-5.4,1.7-5.4S239.7,100.4,235.7,100.8"/>
	<path class="st2" d="M219.9,96.7c-1.7-0.6-4.2-1.8-5.2-1.9c-1-0.1-2.6-0.3-2.3,1.6c0.3,1.9,2.2,2.9,4.2,2.9
		c1.9,0.1,2.9-0.7,4.1-1.3C221.7,97.5,221.5,97.3,219.9,96.7"/>
	<path class="st2" d="M207.2,89.8c-1.8-1.3-3.4-1.7-3.4-1.7s-1.2,3.1-0.5,5.1c0.7,1.9,2.1,2.4,3.8,2.4c1.7,0,4.3-0.9,3.5-2.2
		C209.8,92,209,91.1,207.2,89.8"/>
	<path class="st2" d="M208.8,97.6c0.8,0,1.4,0.5,1.4,1s-0.6,1-1.4,1s-1.4-0.5-1.4-1S208.1,97.6,208.8,97.6"/>
	<path class="st2" d="M212.7,83c-1.1-5.3-0.9-11.1,4.1-18.5c5.1-7.4,13.9-10.4,13.9-10.4s0.3-0.6,3.1-3.6c2.8-3,8.5-6.7,8.5-6.7
		s-6.6,1.6-10.4,2.8c0,0.1,0,0.1,0,0.2c0,2.6-2,4.6-4.5,4.6c-1,0-1.9-0.3-2.6-0.8c-2,0.4-8.9,4.5-10.6,5.9c0.4,0.7,0.7,1.5,0.7,2.4
		c0,2.6-2,4.6-4.5,4.6c-0.8,0-1.5-0.2-2.1-0.5c-0.2,0.3-0.4,0.7-0.6,1c-1.4,2.6-2.5,5.1-3.3,7.5c1.2,0.8,1.9,2.3,1.9,4
		c0,2.5-1.7,4.6-3.9,4.6c-0.1,1.5-0.1,2.5-0.1,3c0.2,1.5,0.7,2.4,3.4,3.2c2.6,0.8,6.2,5.3,6.2,5.3C212.2,91.7,214.1,88.4,212.7,83"
		/>
	<path class="st2" d="M228.8,48.8c1-0.8,1.1-2,0.4-2.6c-0.8-0.7-2.1-0.6-3.1,0.2c-1,0.8-1.1,2-0.4,2.7
		C226.5,49.7,227.9,49.6,228.8,48.8"/>
	<path class="st2" d="M211.9,60.3c1.1-1,1.3-2.5,0.4-3.3c-0.9-0.9-2.4-0.8-3.5,0.2c-1.1,1-1.3,2.5-0.4,3.3
		C209.2,61.4,210.8,61.3,211.9,60.3"/>
	<path class="st2" d="M204.4,74.7c0-1.4-1.2-2.6-2.6-2.6c-1.4,0-2.6,1.2-2.6,2.6c0,1.4,1.2,2.6,2.6,2.6
		C203.2,77.3,204.4,76.2,204.4,74.7"/>
	<path class="st2" d="M258.3,38.3c-1.4,0.3-3.9,1.1-7.6,3.1h0.1c2.6,0,4.7,1.7,4.7,3.8c0,2.2-2.4,4.5-5,4.5c-2.6,0-4.4-2.3-4.4-4.4
		c0-0.5,0.1-1,0.3-1.5c-1.1,0.7-2.3,1.5-3.6,2.3c-8.3,5.6-10.3,8.3-14.4,16c-4.1,7.7-5.6,16.1-3.8,21.1c1.8,5,8.3,6,8.4,6
		c0.1,0-0.7-0.7-0.8-1.7c-0.1-0.9,0.2-1.4,0.5-3.3c0.3-1.9,0.1-4.1,0.1-4.1s1.5-0.2,2.3,0.8c0.8,1,2.1,2.2,2.9,3.3
		c0.8,1,3.1,3,3.1,3s1.3-1.9,1.3-4.1c0-2.2-1.5-4.7-1.8-8.6c-0.3-3.9,1.8-11,5.6-16.1c3.8-5.2,11.1-9.8,13.2-10.9
		c2.2-1,2.5-2.6,2.6-3.6c0.1-0.9,0.3-1.6,0.5-3.9C262.6,37.8,260.5,37.9,258.3,38.3"/>
	<path class="st2" d="M250,47.2c1.5,0,2.8-1.3,2.8-2.5c0-1.2-1.1-2.2-2.6-2.2s-2.7,1-2.7,2.2C247.6,46,248.6,47.2,250,47.2"/>
	<path class="st2" d="M262.4,96.2c2,0.8,4.3,0.4,5.3-0.4c1.1-0.7,1.4-2.5,0.2-3.6c-1.3-1-3.1-1-4.3-0.4c-1.2,0.7-3.8,2.5-3.8,2.5
		S260.4,95.4,262.4,96.2"/>
	<path class="st2" d="M268.9,98.5c-0.7,1.1-1.3,1.8-3.5,1.9c-2.2,0.1-4.7,0-6.1-1.5c-1.5-1.5-2.5-3.5-2.5-3.5l-2.5,0
		c0,0-0.8,3.5-1.9,4.5c-1.1,1-5,1.1-6.7-0.1c-1.7-1.3-3.2-2.8-3.5-2.6c-0.3,0.2,0,1.5,1.7,3c1.7,1.5,3,2.4,5.8,2.4h16
		c0,0,3.2,0.2,4.2-1.8c0.9-1.9,1-3.2,0.5-3.6C269.9,96.5,269.6,97.4,268.9,98.5"/>
	<path class="st2" d="M244.6,95.8c2.4,1.3,3.7,0.5,4.6-0.6c0.9-1.1,1-1.6,1-1.6s-2.3-0.8-3.4-1.5c-1.1-0.6-1.8-1.3-2.9-1.1
		c-1.1,0.1-1.3,0.3-1.3,0.3S242.2,94.4,244.6,95.8"/>
	<path class="st2" d="M275.4,92.3c-1.3,1-0.9,2.9,0.2,3.6c1.1,0.7,3.3,1.2,5.4,0.4c2-0.8,2.6-1.8,2.6-1.8s-2.6-1.8-3.8-2.5
		C278.6,91.3,276.7,91.2,275.4,92.3"/>
	<path class="st2" d="M297.7,99.6c-1.7,1.3-5.6,1.1-6.7,0.1c-1.1-1-1.9-4.5-1.9-4.5l-2.5,0c0,0-1,2-2.5,3.5
		c-1.5,1.5-3.9,1.6-6.1,1.5c-2.2-0.1-2.8-0.8-3.5-1.9c-0.7-1.1-1-1.9-1.5-1.5c-0.4,0.5-0.4,1.7,0.5,3.6c0.9,1.9,4.2,1.8,4.2,1.8h16
		c2.8,0,4-0.9,5.8-2.4c1.7-1.5,2-2.8,1.7-3C301,96.8,299.4,98.4,297.7,99.6"/>
	<path class="st2" d="M296.6,92.2c-1.1,0.6-3.4,1.5-3.4,1.5s0.2,0.5,1,1.6c0.9,1.1,2.2,1.9,4.6,0.6c2.4-1.3,1.9-4.4,1.9-4.4
		s-0.2-0.2-1.3-0.3C298.4,90.9,297.7,91.5,296.6,92.2"/>
	<path class="st2" d="M309.2,86.8c-0.1-1.6-0.1-4-0.1-4s-0.2,0.3-1.2,1.2c-0.9,0.9-2.4,1.9-3.9,3.3c-1.6,1.4-0.9,4.3-0.9,4.3
		s2.2,0.3,3.8-0.3C308.5,90.7,309.3,88.4,309.2,86.8"/>
	<path class="st2" d="M304.6,94.4c0-0.6-0.5-1.1-1.2-1.1c-0.7,0-1.2,0.5-1.2,1.1c0,0.6,0.5,1.1,1.2,1.1
		C304.1,95.5,304.6,95,304.6,94.4"/>
	<path class="st2" d="M307.7,97.1c1.3,0.2,2.7-0.5,3.7-1.3c1.1-0.8,2.4-0.8,2.4-0.8s-1.1-1.1-1.6-1.8c-0.5-0.7-1-1.6-3.1-0.8
		c-2.1,0.8-2.7,1.7-3,2.5C305.9,95.8,306.4,97,307.7,97.1"/>
	<path class="st2" d="M317.1,96.6c0,0-5.4,4.5-9.4,4.1c-4.1-0.4-4.4-3.3-4.4-3.3s-0.7,3.9,1.7,5.4c1.3,0.8,3.8,1.4,6,1.9
		c1.8,0.4,3.3,0.7,5,0.4c3.7-0.6,6.9-2.2,6.9-2.2l0.3-0.2C319.9,102.1,317.6,100.2,317.1,96.6"/>
	<path class="st2" d="M328.7,94.8c-1,0.1-3.5,1.3-5.2,1.9c-1.7,0.6-1.9,0.8-0.7,1.4c1.1,0.6,2.1,1.3,4.1,1.3c1.9-0.1,3.9-1,4.2-2.9
		C331.3,94.5,329.8,94.8,328.7,94.8"/>
	<path class="st2" d="M336.2,89.8c-1.8,1.3-2.7,2.2-3.4,3.6c-0.7,1.3,1.8,2.2,3.5,2.2c1.7,0.1,3.1-0.5,3.8-2.4
		c0.7-1.9-0.5-5.1-0.5-5.1S338,88.5,336.2,89.8"/>
	<path class="st2" d="M334.5,97.6c-0.8,0-1.4,0.5-1.4,1c0,0.6,0.6,1,1.4,1c0.8,0,1.4-0.5,1.4-1C336,98,335.3,97.6,334.5,97.6"/>
	<path class="st2" d="M337,75.6c0-1.7,0.8-3.2,1.9-4c-0.8-2.3-1.8-4.8-3.3-7.5c-0.2-0.3-0.4-0.7-0.6-1c-0.6,0.3-1.3,0.5-2.1,0.5
		c-2.5,0-4.5-2.1-4.5-4.6c0-0.9,0.2-1.7,0.7-2.4c-1.7-1.5-8.6-5.5-10.6-5.9c-0.7,0.5-1.6,0.8-2.6,0.8c-2.5,0-4.5-2.1-4.5-4.6
		c0-0.1,0-0.1,0-0.2c-3.8-1.2-10.4-2.8-10.4-2.8s5.7,3.7,8.5,6.7c2.8,3,3.1,3.6,3.1,3.6s8.8,3,13.9,10.4c5.1,7.4,5.2,13.2,4.1,18.5
		c-1.4,5.3,0.5,8.7,0.7,8.7c0,0,3.6-4.6,6.2-5.3c2.6-0.8,3.2-1.7,3.4-3.2c0.1-0.4,0.1-1.5-0.1-3C338.8,80.2,337,78.1,337,75.6"/>
	<path class="st2" d="M314.6,48.8c1,0.8,2.3,0.9,3.1,0.2c0.8-0.7,0.6-1.9-0.4-2.7c-1-0.8-2.3-0.9-3.1-0.2
		C313.4,46.9,313.6,48.1,314.6,48.8"/>
	<path class="st2" d="M331.5,60.3c1.1,1,2.6,1.1,3.5,0.2c0.9-0.9,0.7-2.3-0.4-3.3c-1.1-1-2.6-1.1-3.5-0.2
		C330.3,57.9,330.4,59.3,331.5,60.3"/>
	<path class="st2" d="M341.6,72.2c-1.4,0-2.6,1.2-2.6,2.6c0,1.4,1.2,2.6,2.6,2.6c1.4,0,2.6-1.2,2.6-2.6
		C344.3,73.3,343.1,72.2,341.6,72.2"/>
	<path class="st2" d="M281.4,44.1c0.1,0.9,0.5,2.5,2.6,3.6c2.2,1,9.4,5.7,13.2,10.9c3.8,5.2,5.9,12.2,5.6,16.1
		c-0.3,3.9-1.8,6.4-1.8,8.6c0,2.2,1.3,4.1,1.3,4.1s2.2-2,3.1-3c0.8-1,2.1-2.2,2.9-3.3c0.8-1,2.3-0.8,2.3-0.8s-0.2,2.2,0.1,4.1
		c0.3,1.9,0.6,2.3,0.5,3.3c-0.1,0.9-0.9,1.7-0.8,1.7c0.1,0,6.6-1,8.4-6c1.8-5,0.3-13.4-3.8-21.1c-4.1-7.7-6.1-10.4-14.4-16
		c-1.3-0.9-2.5-1.6-3.6-2.3c0.2,0.5,0.3,0.9,0.3,1.5c0,2.2-1.8,4.4-4.4,4.4s-5-2.4-5-4.5c0-2.2,2-3.8,4.7-3.8h0.1
		c-3.8-2-6.3-2.8-7.6-3.1c-2.2-0.5-4.3-0.6-4.1,1.8C281.1,42.5,281.3,43.1,281.4,44.1"/>
	<path class="st2" d="M271.7,82.4c0,0-0.6,2.5-1.4,3.6c-0.8,1.1-1.4,2-1.2,3.4c0.2,1.3,1.7,2.2,2.6,2.2c0.9,0,2.4-0.9,2.6-2.2
		c0.2-1.3-0.4-2.3-1.2-3.4C272.3,84.9,271.7,82.4,271.7,82.4"/>
	<path class="st2" d="M271.7,92.8c-0.7,0-1.4,0.6-1.4,1.4c0,0.7,0.6,1.4,1.4,1.4c0.8,0,1.4-0.6,1.4-1.4
		C273.1,93.4,272.5,92.8,271.7,92.8"/>
	<path class="st2" d="M266.9,87.2c0,0,2.3-2.6,3.2-4.3c0.9-1.6,1.6-3.1,1.6-3.1s0.7,1.5,1.6,3.1c0.9,1.6,3.2,4.3,3.2,4.3
		s3.3-1.7,5.2-8.1c1.9-6.3-0.4-13-1.3-20.2c-0.9-7.2-1.6-19.6-1.6-19.6c-2.5,1.4-4.9,2-7.1,2.1c-2.3,0-4.6-0.6-7.1-2.1
		c0,0-0.7,12.4-1.6,19.6c-0.9,7.2-3.2,13.9-1.3,20.2C263.6,85.4,266.9,87.2,266.9,87.2"/>
	<path class="st2" d="M290.5,44.7c0,1.2,1.3,2.5,2.8,2.5c1.5,0,2.5-1.3,2.5-2.5c0-1.2-1.2-2.2-2.7-2.2
		C291.7,42.5,290.5,43.5,290.5,44.7"/>
	<path class="st0" d="M232.9,66.8c2.9,0,5.3,2.4,5.3,5.3s-2.4,5.3-5.3,5.3s-5.3-2.4-5.3-5.3S230,66.8,232.9,66.8"/>
	<path class="st0" d="M242.2,53.8c-2.1-1.4-5.3-0.9-7,1.3c-1.7,2.2-1.4,5.1,0.7,6.5c2.1,1.4,5.3,0.9,7-1.3
		C244.7,58.1,244.4,55.2,242.2,53.8"/>
	<path class="st2" d="M232.7,68.5c-1.7,0-3.1,1.3-3.1,3c0,1.6,1.4,3,3.1,3c1.7,0,3.1-1.3,3.1-3C235.8,69.8,234.4,68.5,232.7,68.5"/>
	<path class="st2" d="M240,54.4c-1.4-0.4-3.1,0.3-3.8,1.5c-0.7,1.2,0,2.5,1.9,2.9C241.4,59.4,243.1,55.2,240,54.4"/>
	<path class="st0" d="M271.7,67.4c-3.1,0-5.7,2.5-5.7,5.5c0,3,2.5,5.5,5.7,5.5s5.7-2.5,5.7-5.5C277.4,69.9,274.8,67.4,271.7,67.4"/>
	<path class="st0" d="M271.7,54.7c3,0,5.5,2.4,5.5,5.3c0,2.9-2.5,5.3-5.5,5.3c-3,0-5.5-2.4-5.5-5.3
		C266.2,57.1,268.6,54.7,271.7,54.7"/>
	<path class="st0" d="M271.7,42.6c2.9,0,5.2,2.3,5.2,5c0,2.8-2.3,5-5.2,5s-5.2-2.3-5.2-5S268.8,42.6,271.7,42.6"/>
	<path class="st0" d="M310.4,66.8c-3,0-5.3,2.4-5.3,5.3c0,2.9,2.4,5.3,5.3,5.3c2.9,0,5.3-2.4,5.3-5.3
		C315.8,69.2,313.4,66.8,310.4,66.8"/>
	<path class="st0" d="M308.2,55.1c-1.7-2.1-4.9-2.7-7-1.3c-2.1,1.4-2.5,4.4-0.7,6.5c1.7,2.1,4.9,2.7,7,1.3
		C309.6,60.1,309.9,57.2,308.2,55.1"/>
	<path class="st2" d="M310.7,68.5c-1.7,0-3.1,1.3-3.1,3c0,1.6,1.4,3,3.1,3c1.7,0,3.1-1.3,3.1-3C313.8,69.8,312.4,68.5,310.7,68.5"/>
	<path class="st2" d="M303.4,54.4c-3.1,0.8-1.5,5.1,1.9,4.4c1.8-0.4,2.6-1.7,1.9-2.9C306.5,54.7,304.8,54,303.4,54.4"/>
	<path class="st2" d="M271.7,69c-1.7,0-3,1.3-3,2.9c0,1.6,1.4,2.9,3,2.9s3-1.3,3-2.9C274.7,70.3,273.3,69,271.7,69"/>
	<path class="st2" d="M271.7,61.9c1.6,0,2.9-1.3,2.9-2.8c0-1.5-1.3-2.8-2.9-2.8c-1.6,0-2.9,1.3-2.9,2.8
		C268.8,60.6,270.1,61.9,271.7,61.9"/>
	<path class="st2" d="M271.7,49.2c1.4,0,2.5-1.1,2.5-2.5c0-1.4-1.1-2.5-2.5-2.5c-1.4,0-2.5,1.1-2.5,2.5
		C269.1,48.1,270.3,49.2,271.7,49.2"/>
	<path class="st0" d="M450.1,447.2c-2.6,0-4.7,2.1-4.7,4.7c0,2.6,2.1,4.7,4.7,4.7c2.6,0,4.7-2.1,4.7-4.7
		C454.8,449.3,452.7,447.2,450.1,447.2"/>
	<path class="st0" d="M463.3,450.3c-2.6,0-4.8,2.2-4.8,4.8c0,2.6,2.2,4.8,4.8,4.8c2.7,0,4.8-2.1,4.8-4.8S465.9,450.3,463.3,450.3"/>
	<path class="st0" d="M501.7,458.5c-2.7,0-4.8,2.2-4.8,4.8c0,2.7,2.2,4.8,4.8,4.8c2.6,0,4.8-2.2,4.8-4.8
		C506.5,460.7,504.3,458.5,501.7,458.5"/>
	<path class="st0" d="M476.5,453.5c-2.7,0-4.8,2.2-4.8,4.8c0,2.6,2.1,4.8,4.8,4.8c2.6,0,4.8-2.2,4.8-4.8
		C481.3,455.6,479.1,453.5,476.5,453.5"/>
	<path class="st0" d="M480,441.9c-2.7,0-4.8,2.1-4.8,4.8c0,2.6,2.2,4.8,4.8,4.8c2.6,0,4.8-2.2,4.8-4.8
		C484.8,444.1,482.6,441.9,480,441.9"/>
	<path class="st0" d="M483.3,430.4c-2.6,0-4.8,2.2-4.8,4.8c0,2.7,2.2,4.8,4.8,4.8c2.7,0,4.8-2.2,4.8-4.8
		C488.1,432.6,486,430.4,483.3,430.4"/>
	<path class="st2" d="M450.4,449.1c1.3,0,2.3,1,2.3,2.3c0,1.3-1,2.3-2.3,2.3c-1.3,0-2.3-1-2.3-2.3
		C448.1,450.1,449.1,449.1,450.4,449.1"/>
	<path class="st2" d="M463.6,452.3c-1.3,0-2.4,1.1-2.4,2.4c0,1.3,1.1,2.4,2.4,2.4c1.3,0,2.4-1.1,2.4-2.4
		C466,453.3,465,452.3,463.6,452.3"/>
	<path class="st2" d="M502.1,460.4c-1.3,0-2.4,1.1-2.4,2.4c0,1.3,1.1,2.4,2.4,2.4c1.3,0,2.4-1.1,2.4-2.4
		C504.4,461.5,503.4,460.4,502.1,460.4"/>
	<path class="st2" d="M476.8,455.4c-1.3,0-2.4,1.1-2.4,2.4c0,1.3,1.1,2.4,2.4,2.4c1.3,0,2.4-1.1,2.4-2.4
		C479.3,456.5,478.2,455.4,476.8,455.4"/>
	<path class="st2" d="M480.3,443.9c-1.3,0-2.4,1.1-2.4,2.4c0,1.3,1.1,2.4,2.4,2.4c1.3,0,2.4-1.1,2.4-2.4
		C482.7,444.9,481.7,443.9,480.3,443.9"/>
	<path class="st2" d="M483.7,432.3c-1.3,0-2.4,1.1-2.4,2.4c0,1.3,1.1,2.4,2.4,2.4c1.3,0,2.4-1.1,2.4-2.4
		C486.1,433.4,485,432.3,483.7,432.3"/>
</g>
</svg>
