<?xml version="1.0" encoding="utf-8"?>
<!-- Generator: Adobe Illustrator 28.0.0, SVG Export Plug-In . SVG Version: 6.00 Build 0)  -->
<svg version="1.0" id="Laag_1" xmlns="http://www.w3.org/2000/svg" xmlns:xlink="http://www.w3.org/1999/xlink" x="0px" y="0px"
	 viewBox="0 0 1400 800" style="enable-background:new 0 0 1400 800;" xml:space="preserve">
<style type="text/css">
	.st0{fill:#FFFFFF;}
	.st1{fill:#0038B8;}
</style>
<path class="st0" d="M0,0h1400v800H0V0z"/>
<path class="st1" d="M0,75h1400v125H0V75z"/>
<path class="st1" d="M0,600h1400v125H0V600z"/>
<path class="st1" d="M700,573.2l-50-86.6H550l50-86.6l-50-86.6h100l50-86.6l50,86.6h100L800,400l50,86.6H750L700,573.2z
	 M681.8,486.6l18.2,31.6l18.2-31.6H681.8z M765.9,459.1h36.5l-18.2-31.6L765.9,459.1z M665.9,459.1h68.2l34.1-59.1l-34.1-59.1h-68.2
	L631.8,400L665.9,459.1z M597.6,459.1h36.5l-18.2-31.6L597.6,459.1z M765.9,340.9l18.2,31.6l18.2-31.6H765.9z M597.6,340.9
	l18.2,31.6l18.2-31.6H597.6z M681.8,313.4h36.5L700,281.8L681.8,313.4z"/>
</svg>
