<svg xmlns="http://www.w3.org/2000/svg" viewBox="0 0 1000 700" xmlns:xlink="http://www.w3.org/1999/xlink">
<path fill="#0018a8" d="m0,0 0,700 320,0 0-700-320,0z"/>
<path fill="#d0103a" d="m680,0 0,700 320,0 0-700-320,0z"/>
<path fill="#fedf00" d="m320,0h360v700h-360z"/>
<g fill="none" stroke-linecap="round" stroke-width=".987" stroke-miterlimit="3.864">
<path stroke="#231f20" d="m517.8027,229.8227c-.69-.3864-1.3504-.7558-1.9805-1.1019-1.6481-.9056-3.4078-.7207-4.2604,.3109-.9629,1.1644-1.3034,3.1489 .0327,4.3819"/>
<path stroke="#c7b37f" d="m399.0625,379.9821c-.381,.894-.603,1.19-1.0029,1.9436-.421,.7935-.6506,1.2463-1.1042,2.0216-.4421,.7558-.7029,1.1765-1.1895,1.9045-.6568,.9835-1.0907,1.494-1.788,2.449"/>
</g>
<path fill="#c7b37f" fill-rule="evenodd" d="m469.3733,188.4772c12.0507,0 16.9788,10.3378 29.0295,10.3378 7.4391,0 11.7766-2.4293 18.2611-6.087 4.5235-2.5618 7.4098-3.9272 12.6047-3.9272 5.3188,0 8.5799,1.608 11.301,6.1669 1.5373,2.5796 2.814,7.6282 2.1378,10.5249-1.2815,5.4935-2.0711,7.8814-4.2621,12.9526-1.0426,2.4383-2.0278,3.8979-2.0278,6.5661 0,6.3963 8.704,8.5937 14.6221,8.6852 1.2899,.02 12.1387,.1981 18.8149-6.5609-3.6222-.1594-7.6754-2.9642-7.6754-6.5867 0-4.0992 2.8804-6.8735 6.7854-8.0573 .742-.2119 2.0058,.4432 2.6775,.09 .9539-.4947 .5077-1.5685 1.3558-2.24 1.9436-1.5547 3.2071-2.5253 5.6986-2.5253 1.6254,0 2.5779,.2291 3.8853,1.1656 .6891,.4947 .9427,1.107 1.7908,1.107 1.7846,0 2.6682-1.1309 4.4529-1.1309 1.4489,0 2.3325,.1945 3.6044,.8481 1.0603,.5479 1.0367,2.3489 2.2382,2.3489 .6008,0 3.7786-1.2953 5.4395-1.2953 3.4457,0 5.2853,1.2474 7.5117,3.8625 .6011,.7068 .9852,2.1369 1.5961,2.1369 1.2303,0 4.0651,.7924 5.832,2.5594 .7598,.7597 1.0966,1.1194 1.6797,2.0381 .4066,.654 1.0299,2.2493 1.7483,2.5256 .8419,.3239 1.548,.2617 2.655,.9714 2.5256,1.6189 4.4684,4.6622 4.3774,7.611-.0304,.9888-.4818,2.3677-.751,3.3096-2.9409,10.2843-9.9399,13.5477-17.0078,22.3825-3.004,3.7637-5.3747,6.7673-5.3747,11.5911 0,1.1664 1.436,3.3019 2.0722,4.2739-.3886-2.2664 .6475-5.0508 3.0433-5.1803 3.282-.1776 5.8168,2.3176 6.2586,5.5689 .0882,.7598-.1945,2.0723-.5181,2.8492 1.7669-1.1661 4.0961-1.9543 6.2164-2.2017 1.1487-.1238 1.813-.1585 2.9789-.1294 5.2453,.1294 11.0343,3.0802 14.5472,6.0639 10.7495,9.1305 12.0487,22.4925 11.4617,26.203-1.3043,8.2462-.4837,23.1682-21.56,29.117 3.8977,1.6412 6.5493,4.5731 6.5493,8.1778 0,3.9227-3.0037,7.2798-6.9264,7.2798-2.2442,0-3.7992-.5479-5.3717-2.1203-4.3822,4.3819-5.2304,8.8525-5.2304,15.0543 0,3.7108 .7069,5.9018 2.2619,9.2589 1.6431,3.5518 2.8269,5.6367 5.7957,8.1988 1.5725-2.3677 3.2336-4.0994 6.0782-4.0994 2.7566,0 5.0891,.8836 6.2198,3.3926 .3357,.7598 .0353,1.3783 .4241,2.1203 .4947,.9542 1.3254,1.1664 1.8378,2.1206 .795,1.4664 .018,2.7209 .7066,4.2405 .4418,.9896 1.4138,1.1309 1.8378,2.1203 .6714,1.5198 .8482,2.5621 .8482,4.2407 0,4.7002-4.2762,8.0576-8.9764,8.0576-1.4135,0-2.191-.5656-3.6047-.4241 2.686,2.6857 4.7357,3.8518 6.7854,7.0677 2.9685,4.6473 3.7105,7.9515 4.382,13.4289 .1238,1.0249 .1416,1.6434 .1416,2.686 0,7.0324-1.0955,11.2377-4.2407,17.5281-3.004,6.0253-5.5661,9.365-11.0261,13.2874-8.5168,6.1314-14.7189,7.8986-25.0204,9.8951-6.6087,1.2722-10.3901,1.8378-17.1046,2.2616-8.5875,.5479-13.4819,.5657-22.0519,1.131-11.238,.7598-19.0305,2.3499-26.9995,10.3192 3.7637,2.7563 6.361,5.4597 6.361,10.107 0,4.7706-2.9508,8.1809-7.492,9.683-1.0601,.3531-1.8375,.035-2.8272,.5653-1.1838,.6185-1.1309,1.9788-2.2616,2.6857-1.9968,1.2722-3.5516,1.555-5.937,1.555-4.2055,0-7.0682-.9894-10.0367-3.9582-3.4455,2.8627-4.6119,5.4426-8.4814,7.6336-1.2725,.7066-1.9262,1.6962-3.3926,1.6962-2.3148,0-3.3751-1.4666-5.2304-2.8272-2.9508-2.1558-4.5235-3.587-6.9267-6.361-3.5161,2.1026-5.6719,3.8166-9.7536,3.8166-2.5093,0-4.0994-.3534-6.2198-1.6963-1.1132-.6891-1.2899-1.714-2.4031-2.4031-1.1661-.7243-2.1381-.4593-3.3926-.9894-4.7179-2.032-7.7748-5.5307-7.7748-10.6724 0-4.5058 2.8449-7.3684 6.9266-9.2592-7.828-7.8274-15.5318-9.188-26.5756-9.8948-8.5343-.5476-13.3935-.5653-21.9106-1.131-6.7674-.4592-10.5311-1.1484-17.2456-2.2616-5.0714-.8304-8.075-1.0955-12.7224-3.2513-15.9911-7.4565-26.1868-17.6871-28.2717-35.1977-.1767-1.5019-.1411-2.3677-.1411-3.8873 0-9.1176 3.5867-14.6834 10.0364-21.1328-1.6611-.3889-2.774,.1589-4.3822-.4241-4.0288-1.4666-6.9264-4.2584-6.9264-8.5523 0-1.5902 .0707-2.6505 .8481-4.0285 .5476-.9719 1.5902-1.1664 1.8375-2.2619 .318-1.4487-.106-2.4735 .5656-3.8166 .4415-.9011 1.2722-1.0778 1.6963-1.9791 1.3957-2.8976 3.1452-5.2301 6.361-5.2301 2.7563,0 4.5235,1.4489 5.937,3.8166 2.686-1.2367 3.428-3.2513 4.9476-5.7954 2.5267-4.2232 3.6754-7.174 3.6754-12.0861 0-3.428-.3357-5.4423-1.4135-8.6936-.7775-2.3322-1.0958-3.9224-2.8272-5.6541-1.5727,1.5724-3.1278,2.1203-5.3717,2.1203-4.4883,0-7.916-3.8521-7.916-8.3401 0-3.3397 1.6431-5.8132 4.6648-7.2092-2.4209-2.0849-4.5235-2.2619-7.2092-3.9579-4.082-2.5799-5.5129-5.301-8.1989-9.3298-1.7495-2.6328-2.2087-4.4703-3.11-7.4917-1.0778-3.6399-1.6963-5.8134-1.6963-9.6123 0-.9894 .018-1.5725 .1411-2.5444 1.0074-7.6687 2.3857-12.4748 7.2095-18.5178 2.8624-3.587 4.8063-5.7957 9.047-7.6333 3.6044-1.555 5.7602-2.686 9.683-2.686 1.1838,0 1.873,0 3.0394,.1416 1.8021,.2297 2.9508,.3887 4.5232,1.2723 .6008,.3357 1.6963,1.3428 1.6963,.6359 0-.8126-.4241-1.2367-.4241-2.0497 0-3.251 2.3325-6.2195 5.5838-6.2195 2.35,0 3.3042,2.0672 4.4529,4.0995 .7421-1.2371 1.1307-2.0852 1.1307-3.5342 0-5.3716-2.8801-8.1102-6.2195-12.298-7.2801-9.0999-16.3977-13.3583-16.3977-25.0201 0-3.4809 1.6785-5.8488 4.6648-7.6332 .8659-.5127 2.0297,0 2.8779-.5425 .7243-.4596 .6413-1.395 1.1008-2.137 .7243-1.1484 1.3657-1.6419 2.3731-2.5256 1.6608-1.4486 3.1193-1.0147 4.9568-2.2869 .9188-.6362 1.1357-1.4624 1.8426-2.3106 2.0497-2.4737 3.8895-3.668 7.1231-3.668 1.6256,0 2.5377,.01 4.0395,.607 .5124,.1945 1.4698,.9669 1.5942,.8174 .3239-.3883 1.2013-1.3183 2.2436-1.813 1.3606-.6537 1.9124-.9067 3.4322-.9067 1.7314,0 2.866,.9714 4.5975,.9714 .6362,0 .7829-.6354 1.2953-.9714 1.5373-1.0423 2.422-1.6315 4.295-1.6315 1.8023,0 2.7979,.5951 4.3175,1.5668 1.4312,.9013 1.6372,2.1082 3.1038,2.9564 .8127,.4772 1.5018,.2651 2.4032,.5656 4.0285,1.3428 7.0679,4.0285 7.0679,8.2692 0,2.2971-.5479,3.9404-2.2619,5.4423-1.3606,1.2015-2.6505,.9896-4.382,1.555 5.619,4.488 10.508,5.6012 17.682,5.6012 6.5732,0 14.612-2.6868 14.612-9.2597 0-3.0571-1.6898-4.6994-2.8914-7.5089-2.1558-5.0004-3.3253-7.9422-3.3253-13.3842 0-4.3116 .4696-6.9272 2.9789-10.4258 2.5796-3.6045 5.7316-4.445 10.1667-4.445z"/>
<g stroke="#703d29" stroke-miterlimit="3.864">
<g>
<path fill="#fedf00" stroke-width=".797" d="m503.6002,249.2458 82.1794,0 0,82.0229-82.1794,0 0-82.0229z"/>
</g>
<g fill="none">
<g stroke-width=".987">
<g stroke-linecap="round">
<path d="m380.9471,291.1951c2.3922,1.2526 4.8195-.5836 4.3217-3.6959-.2333-1.4576-1.8052-3.2988-3.9328-3.4333"/>
<path d="m380.8655,291.1442c2.2548,1.6324 5.1502-1.1239 4.0297-4.0493-.7561-1.9752-3.5631-4.1071-7.4504-1.4636-4.2933,2.9192-3.11,12.1286 5.1313,12.2839 7.3499,.1387 11.8177-10.5736 5.2869-18.0931-6.2828-7.2342-17.7268-5.5419-25.1903,.3959-3.1762,2.5264-9.1745,9.1452-11.0401,18.1638-.5811,2.8081-.9562,5.1122-.912,7.9301 .0292,1.8567 .2006,3.9365 .7564,6.5307 1.1231,5.2403 2.9679,9.0797 4.8055,11.7451 .7041,1.0218 1.3471,1.871 2.0365,2.5605 1.279,1.2789 1.6619,1.9565 2.9541,3.032 4.2235,3.5147 9.6649,6.2699 16.3271,5.9865 7.3082-.3112 11.5067-5.4422 10.7292-11.5067-.7536-5.879-6.6903-8.8052-10.5736-6.0641-2.6435,1.8659-3.5839,7.6445 1.0885,9.0185 2.6435,.7776 4.9757-2.5655 3.1098-4.5091"/>
</g>
<g>
<path d="m531.7832,487.4258c.71,.4843 1.1661,1.4926 1.1661,1.4926 .1967,.4685 .4505,.9114 .5209,1.3268 .4035,2.3784-1.156,3.8605-3.0828,4.0848-2.6477,.3078-4.6352-1.2652-5.4825-3.17"/>
<path d="m390.8678,422.8595c.5155,.4852 .6258,1.1149 1.3218,1.2438 1.0496,.1945 1.8659,.5831 2.9156-.8163 1.2939-1.725 .5985-4.4082-.7474-6.0974-1.4405-1.808-5.6134-3.4055-9.112-1.4616-1.1706,.6503-2.6381,1.5063-3.9652,3.2654-.5017,.6649-1.3504,1.739-1.788,2.4878-1.0589,1.8108-1.4939,3.2924-1.7033,3.8873-3.2012,9.0979 .5999,18.6638 6.4885,24.4927"/>
</g>
<g stroke-linecap="round">
<path d="m531.5913,487.2336c.6379,.6647 1.0105,1.2441 1.0105,1.2441 .1967,.4682 .3571,.9112 .4277,1.3268 .4032,2.3784-1.156,3.8605-3.083,4.0845-2.6477,.3082-4.4197-1.2519-5.2672-3.1567"/>
<path d="m479.1685,230.7392c1.3018-.7209 2.5101-1.4064 3.6244-2.0184 1.6481-.9056 3.6292-.7157 4.4821,.316 .9627,1.1644 1.1104,3.1826-.2254,4.416"/>
</g>
</g>
<g>
<path stroke-linejoin="round" stroke-width="1.041" d="m425.5867,223.4631c.4322,1.6315 1.7517,3.1604 3.8197,3.8068 1.2441,.3886 4.1208,.233 5.9868-2.177 1.5125-1.9537 1.3969-4.3735 .8321-6.2968-.3658-1.2447-1.3707-2.4457-2.6981-3.4683l-7.9374,8.0568-.002,.079z"/>
</g>
</g>
</g>
<path fill="#c7b37f" fill-rule="evenodd" d="m432.4033,214.4929 1.0885,.7775 1.1661,1.2441 .7775,1.555 .3886,1.3217 .0779,1.7104-.0779,1.1661-.3886,1.3217-.7775,.9328-.9331,1.0109-1.3215,.6998-1.7106,.3886-1.4771,.2333-1.555-.6999-1.3994-1.0105-.8552-1.244-.6222-1.555 0-.6219 7.6195-7.2306z"/>
<g stroke="#703d29" stroke-miterlimit="3.864">
<g fill="none">
<g stroke-width=".987">
<g>
<path d="m460.4844,239.4879c8.5875-1.7922 15.5853-5.6381 20.8751-8.5967"/>
<path d="m460.0435,239.0473c8.5875-1.7925 15.5853-5.6384 20.8751-8.5968"/>
<path d="m511.1707,500.7566c-2.0213,3.1097-6.8417,7.7748-11.8953,9.6404-5.0537-1.8656-9.874-6.5307-11.8953-9.6404"/>
</g>
<g stroke-linecap="round">
<path d="m584.3957,210.6833c4.2179-2.2909 7.4692-1.8668 9.874,1.47 2.6134,3.6262 2.9862,8.4525 2.4102,11.2805-.8552,4.1985-2.0686,5.942-5.4074,8.9876"/>
<path d="m594.5807,212.5493c4.8204-3.1874 10.0415-1.8336 12.9061,2.4102 2.0992,3.1097 2.6359,5.7121 2.4878,9.5627-.2535,6.6003-4.3839,11.8315-8.9409,14.3832"/>
</g>
<g>
<path d="m608.4976,216.8108c5.2278,.6376 9.7837,5.6277 9.7837,10.9917 0,6.9194-2.3311,9.4961-5.9741,14.446-3.8985,5.2973-16.638,15.0053-16.638,26.0452 0,6.6864 1.8659,10.9622 6.6863,13.1391 3.1081,1.4036 6.7423-.1157 8.3967-1.6107 4.0429-3.6543 2.4265-10.0623-1.788-10.8285-5.1316-.9332-6.096,7.145-1.0885,6.6083"/>
<path d="m617.2832,223.6671c3.9649,.3109 7.1526,3.9007 7.1526,8.0857 0,5.9865-1.6707,8.5836-6.4531,14.5386-4.1205,5.1313-16.4824,14.1499-16.1715,22.7798 .1177,3.2634 2.8686,6.3383 5.2419,6.5094"/>
<path stroke-linecap="round" d="m617.7495,291.1442c-2.2546,1.6324-5.1313-1.0035-3.8873-3.8026 .8588-1.9326 3.421-4.3538 7.3082-1.7103 4.2933,2.9192 3.11,12.1286-5.1313,12.2839-7.3502,.1387-12.3169-10.2972-5.2869-18.0931 6.4165-7.1158 18.3149-5.7234 25.7785,.2141 3.1761,2.5267 9.5659,9.466 10.9363,18.5726 1.658,11.0196 1.4455,24.5747-9.9365,32.9215-4.5767,3.356-10.9177,4.8817-16.5156,4.6364-7.308-.3205-11.5064-5.4423-10.7292-11.5067 .7539-5.8791 6.4153-8.3675 10.5739-6.0642 4.3192,2.3924 3.565,8.4659-1.0884,9.0186-2.7361,.325-4.976-2.5655-3.11-4.5092"/>
<path d="m613.8622,287.3416c1.212-5.4543 5.8846-5.9623 9.6576-5.9068 10.2961,.1508 17.4158,12.3636 17.5351,24.1784 .1508,14.9226-6.334,23.7108-17.2411,24.1782-2.8221,.1211-7.6839-1.2213-7.7675-4.6648"/>
<path stroke-linecap="square" d="m620.2018,284.9033c10.8584,2.413 14.6699,12.1964 14.6699,21.5319 0,7.6158-.7542,18.0217-15.5749,21.6824"/>
</g>
</g>
<g>
<path stroke-linecap="round" stroke-width="1.037" d="m626.6127,343.9413c-1.8659-4.5092-6.6863-2.4879-6.9827,0-.6832,5.7321 4.3395,7.4638 7.9158,6.5307 1.7714-.4621 3.0673-1.5778 3.8957-3.0313 .9345-1.64 1.2171-3.7797 .6101-5.8235-.2749-.9269-.6624-1.7073-1.3254-2.581-.6658-.878-1.3544-1.4791-1.9993-1.8905-1.3755-.8779-2.8739-.9646-5.2239-.9646-8.7079,0-16.3265,10.2894-18.8856,20.9772-.8428,3.52-2.0013,11.3714-.3959,18.8147 1.7103,7.9301 5.1381,13.4202 9.1598,17.5852 2.1769,2.2546 5.1457,4.2618 8.9896,6.4351 1.1856,.6705 4.3198,2.0609 6.4967,2.6831 2.2357,.6388 4.3001,.5454 6.1581,.1418 5.1598-1.1205 7.559-5.9189 4.9597-10.8293-2.1279-4.0201-8.3967-6.2198-11.3511-1.0885-.2507,.4353-.641,1.3836-.6283,2.4107 .0158,1.3682 .5842,3.0172 1.5612,3.6391 2.2458,1.4292 5.8382,1.0251 5.6713-2.9401"/>
</g>
<g stroke-width=".987">
<path d="m633.3767,397.4944c-1.6327,.6292-2.5258,.544-4.557-.3579-.8338-.3703-1.7883-.9435-2.9066-1.5784-3.9807-2.2607-8.7079-5.8238-13.1394-14.1429-1.3105-2.4602-2.1246-4.7432-2.6727-6.9922-.4227-1.7354-.7159-3.4505-.7792-5.2112-.1078-3 .215-6.1323 .9638-9.721 1.2365-5.9254 2.7251-9.1432 6.3754-14.1502 1.7953-2.4622 3.3433-3.9649 6.6863-4.0425"/>
<path d="m638.1082,389.5764c.0677-.3647 .1036-.7406 .1036-1.125 0-3.3706-2.7327-6.103-6.1033-6.103-3.3709,0-6.1033,2.7324-6.1033,6.103 0,1.9394 .9047,3.6675 2.3151,4.7854"/>
<path d="m635.7348,383.5103c-.4595-2.7701-2.8132-4.8795-5.648-4.8795-3.1638,0-5.7287,2.628-5.7287,5.87 0,1.5877 .6151,3.0281 1.6147,4.0848"/>
<path d="m624.5914,383.1962c-5.209-3.7319-9.672-10.8558-9.7184-19.2739-.036-6.4739 2.5655-13.0614 5.5976-15.6269"/>
<path stroke-linecap="round" d="m616.3284,380.3268c2.0432,3.0321 4.5165,6.4035 9.7401,9.2375"/>
</g>
<g>
<path stroke-width="1.276" d="m599.6943,403.0689c1.7478-2.0561 5.7569-5.1403 10.3431-5.7034 4.6541-.5718 8.6986,.7837 12.8284,3.0048 8.0595,4.3347 12.5535,8.9947 15.5493,17.6413 .7606,2.1952 1.3915,5.5055 1.3037,9.0211-.1403,5.604-1.5629,11.7295-3.0917,14.6919-1.3335,2.5835-4.8204,13.9942-23.9463,21.8684-11.1612,4.5949-28.3001,5.6538-40.118,6.1204-16.2559,.6416-31.2545,1.2438-39.9621,11.973"/>
<path stroke-linecap="round" stroke-width=".987" d="m624.113,406.0478c-5.1195-3.3587-14.8379-7.7615-23.6235-3.4277-3.2589,1.6077-5.4423,3.5963-6.6751,6.8397-2.2197,5.8393 .2614,12.2747 2.7878,14.9494 1.3217,1.3994 4.2005,4.0735 7.7748,4.1208 5.9086,.078 7.3133-4.0572 7.4636-4.976 .6998-4.2759-1.788-5.9865-3.1098-6.453-1.0139-.3577-4.3122-.2662-5.012,2.0654-.233,.7773-.2749,2.133 .3473,3.1438"/>
<path stroke-width="1.121" d="m603.7549,421.4548c-.4663-1.7104-.0349-3.3501 1.3217-5.209 1.8139-2.4856 5.6756-3.3431 9.1745-1.3994 1.1703,.6503 2.6378,1.5066 3.9649,3.2653 .502,.6653 1.3504,1.7391 1.7883,2.4879 1.0586,1.8108 1.494,3.2927 1.703,3.8875 3.8453,10.9279-2.2655,22.7709-10.2553,27.5223-6.2062,3.6906-13.6082,5.3357-22.4692,6.3751-3.9826,.4674-6.2569,.4368-10.2627,.6222-3.2237,.1493-6.0082,.096-8.63,.064-2.1575-.027-4.2049-.016-6.2969-.064-3.4156-.079-6.9497-.1589-11.274,.1556-4.5497,.3309-7.9729,.4477-11.8177,1.0884-2.5118,.4187-5.4558,.8226-8.5422,1.5151-.9261,.2075-1.8651,.3773-2.8092,.6618-.634,.1912-1.2604,.3853-1.8811,.5746-5.5717,1.6994-10.9853,3.7697-15.2572,6.5209-1.3198,.8501-2.8106,1.7011-3.8771,2.7079-.6647,.627-1.472,1.2565-2.1237,1.8978-2.9899,2.9415-6.0473,6.1261-6.7623,10.4377-.1319,.7955-.1317,1.6293-.1317,2.507 0,2.7988 2.2774,6.6084 8.4195,7.8524"/>
</g>
<g stroke-width=".987">
<g stroke-linecap="round">
<path d="m531.9937,488.1617c1.6327,3.343-.2242,5.0235-2.4878,5.2866-3.343,.3887-5.1313-2.2545-5.3646-4.6647-.3782-3.9081 2.9159-7.4492 6.8419-7.3859 3.5352,.057 6.4145,2.3376 7.7644,5.4766 .4905,1.1411 .7178,2.3952 .7876,3.6976 .1326,2.4678-.7347,4.7413-2.2228,6.4736-1.9974,2.326-5.1128,3.7336-8.4285,3.8664-6.6002,.2648-11.74-5.9085-11.74-12.206 0-12.0509 17.8723-18.6233 24.957-20.3137 8.7076-2.0775 14.0056-2.8553 27.9891-3.6323 5.5979-.3109 9.6973-.1531 15.8605-.7921 5.5151-.5715 8.3967-.8405 14.0722-2.1623 7.0828-1.6493 13.6836-4.5871 19.5924-9.9517 4.5502-4.1309 7.1529-7.0749 9.2592-12.7505 1.8179-4.8975 2.653-14.5956-1.9509-21.7691-4.0688-6.3399-9.7184-9.6331-16.1715-10.5662-5.8292-.8428-10.9417,1.6726-13.9946,7.4565-1.4771,2.7988-1.022,7.4799 .1484,9.6404 1.0108,1.866 3.8968,4.6178 7.4712,4.6651 5.9086,.078 7.3133-4.0572 7.4636-4.976 .6998-4.2759-1.788-5.9865-3.1098-6.453-1.0139-.3577-4.3122-.2662-5.012,2.0654-.233,.7773-.2749,2.133 .3473,3.1438"/>
<path d="m526.8973,469.0203c-7.5764,3.3588-13.1298,5.8745-17.839,13.3102-1.4774,2.3325-1.866,5.6756-1.866,7.6192 0,4.1982 1.7103,8.9409 5.2093,11.8953 3.2462,2.7414 6.4528,3.5763 10.418,3.1877 3.007-.2949 5.8312-2.4878 6.2977-4.0428"/>
</g>
<g>
<path d="m599.79,279.8781c-2.7794,2.3623-4.1208,5.2866-4.1208,8.9409 0,4.8409 4.0502,12.7505 14.0019,15.5493 3.8135,1.0724 7.4574,.9714 9.7398-.4168"/>
<path d="m601.7336,325.2045c-3.5448,1.1825-6.0644,6.5862-6.0644,11.7398 0,5.9085 2.8767,9.5627 6.2198,11.662"/>
<path stroke-linecap="round" d="m605.6208,344.4078c-6.3754,7.9301-9.7578,12.6371-9.9517,22.08-.1819,8.8627 2.6435,14.9274 7.9304,21.3028"/>
<path d="m571.6421,212.5814c.1641-.2443 .3456-.513 .5473-.8096 2.6435-3.8873 7.3116-4.9116 10.7292-2.3323 4.1205,3.1098 5.1612,8.4023 4.0429,13.9943-.6998,3.4987-3.0732,6.4128-6.325,8.5211"/>
</g>
</g>
<g>
<path stroke-linecap="round" stroke-width="1.041" d="m430.0139,220.5728c-.4784-2.5813-3.4958-3.1109-4.6648-1.586-1.8001,2.3478-.4851,6.2572 3.1759,7.4014 1.2438,.3889 4.1205,.2333 5.9865-2.1769 1.5125-1.9537 1.3969-4.3735 .8321-6.2969-.3655-1.2446-1.3642-2.3294-2.6981-3.3435-4.2511-3.2333-11.1178-2.4879-13.3727,2.9541-2.9086,7.0203 3.421,12.2842 9.2522,16.2491 7.3409,4.9918 15.7046,5.8996 22.0026,5.8312 14.3055-.1556 25.19-6.9973 32.2653-10.8845 1.6481-.9056 3.3453-.7207 4.1982,.3109 .9629,1.1644 .9475,3.0428-.3886,4.2759"/>
</g>
<g stroke-width=".987">
<g>
<path stroke-linecap="round" d="m414.2195,210.6833c-4.0432-1.8657-7.371-1.5066-9.874,1.47-2.8768,3.421-2.9865,8.4525-2.4102,11.2805 .8552,4.1985 2.0683,5.942 5.4074,8.9876"/>
<path d="m404.0343,212.5493c-4.8201-3.1874-10.0412-1.8336-12.9058,2.4102-2.0992,3.1097-2.6359,5.7121-2.4881,9.5627 .2538,6.6003 4.3842,11.8315 8.9412,14.3832"/>
<path d="m390.1176,216.8108c-5.2278,.6376-9.4004,5.0688-9.4004,10.4326 0,6.9196 1.7033,9.7184 5.5906,15.0051 3.8965,5.299 16.6383,15.0053 16.6383,26.0452 0,6.6864-1.8659,10.9622-6.6863,13.1391-3.1083,1.4036-6.7423-.1157-8.3967-1.6107-4.0432-3.6543-2.4265-10.0623 1.788-10.8285 5.1313-.9332 6.0957,7.145 1.0885,6.6083"/>
<path d="m381.3321,223.6671c-3.9652,.3109-7.8665,3.7229-7.8665,7.9079 0,5.9865 2.3846,8.7614 7.1667,14.7164 4.1208,5.1313 15.7618,13.9717 15.4505,22.6017-.1173,3.2634-2.3111,7.2531-4.488,6.7865"/>
<path d="m375.6132,287.8037c-2.3784,.7938-5.3485,2.2774-7.5497,5.3953-1.8561,2.6297-2.9384,6.2856-3.6087,9.4846-.2932,1.3999-.643,5.832 .2524,10.4095 .6613,3.3805 2.0573,6.5271 3.6017,8.8064 .5535,.8169 1.0558,1.3671 1.6206,1.9318 .5178,.5178 1.2528,.9751 1.7737,1.3727"/>
<path stroke-linecap="round" d="m372.0023,343.9413c1.866-4.5092 6.6864-2.4879 6.9829,0 .6832,5.7321-4.3395,7.4638-7.9158,6.5307-1.7714-.4621-3.0675-1.5778-3.8957-3.0313-.9345-1.64-1.2171-3.7797-.6104-5.8235 .2752-.9269 .6627-1.7073 1.3257-2.581 .6658-.878 1.3541-1.4791 1.9991-1.8905 1.3755-.8779 2.8742-.9646 5.2242-.9646 8.7076,0 16.3265,10.2894 18.8856,20.9772 .8428,3.52 2.0013,11.3714 .3959,18.8147-1.7106,7.9301-5.1384,13.4202-9.1598,17.5852-2.1769,2.2546-5.146,4.2618-8.9896,6.4351-1.1855,.6705-4.3198,2.0609-6.4967,2.6831-2.236,.6388-4.3369,.688-6.1582,.1418-4.4225-1.3268-7.2612-5.4591-4.9597-10.8293 1.7917-4.1808 8.3967-6.2198 11.3511-1.0885 .2507,.4353 .6407,1.3836 .6284,2.4107-.0158,1.3682-.5842,3.0172-1.5615,3.6391-2.2459,1.4292-5.8382,1.0251-5.6711-2.9401"/>
<path d="m365.2383,397.4944c1.6327,.6292 2.5258,.544 4.5573-.3579 .8335-.3703 1.7883-.9435 2.9066-1.5784 3.9804-2.2607 8.7076-5.8238 13.1394-14.1429 1.3105-2.4602 2.1246-4.7432 2.6725-6.9922 .4229-1.7354 .7159-3.4505 .7792-5.2112 .108-3-.215-6.1323-.9638-9.721-1.2362-5.9254-2.7251-9.1432-6.3754-14.1502-1.7951-2.4622-3.343-3.9649-6.6864-4.0425"/>
<path d="m360.5068,389.5764c-.0678-.3647-.1033-.7406-.1033-1.125 0-3.3706 2.7324-6.103 6.1033-6.103 3.3706,0 6.103,2.7324 6.103,6.103 0,1.9394-.9044,3.6675-2.3148,4.7854"/>
<path d="m362.8804,383.5103c.4595-2.7701 2.8132-4.8795 5.6477-4.8795 3.1641,0 5.729,2.628 5.729,5.87 0,1.5877-.6151,3.0281-1.6147,4.0848"/>
<path d="m374.0238,383.1962c5.209-3.7319 9.672-10.8558 9.7184-19.2739 .0358-6.4739-2.5658-13.0614-5.5976-15.6269"/>
<path stroke-linecap="round" d="m382.2869,380.3268c-2.0432,3.0321-4.5165,6.4035-9.7404,9.2375"/>
<path d="m397.8148,402.6331c-1.4489-3.4089-4.3288-4.9853-9.0189-5.4856-4.6625-.4978-8.6986,.7837-12.8285,3.0048-8.0598,4.3346-12.5538,8.9946-15.5496,17.6412-.7603,2.1952-1.3912,5.5056-1.3034,9.0211 .1402,5.6041 1.5629,11.7296 3.0917,14.6919 1.3336,2.5835 4.8204,13.9943 23.9463,21.8684 11.1611,4.5949 28.3001,5.6539 40.1177,6.1201 16.2562,.6419 31.2548,1.2441 39.9624,11.973"/>
<path stroke-linecap="round" d="m374.5019,406.0478c5.1198-3.3587 14.8382-7.7615 23.6238-3.4277 3.2589,1.6077 5.4423,3.5963 6.6751,6.8397 2.2197,5.8393-.2617,12.2747-2.7878,14.9494-1.3217,1.3994-4.2004,4.0735-7.7748,4.1208-5.9088,.078-7.3133-4.0572-7.4636-4.976-.6998-4.2759 1.788-5.9865 3.1098-6.453 1.0139-.3577 4.3122-.2662 5.0117,2.0654 .2333,.7773 .2749,2.133-.347,3.1438"/>
<path d="m394.8601,421.4548c.4666-1.7104 .2265-3.5063-1.3215-5.209-1.555-1.7104-5.6755-3.3431-9.1745-1.3994-1.1703,.6503-2.6381,1.5066-3.9649,3.2653-.502,.6653-1.3504,1.7391-1.7883,2.4879-1.0589,1.8108-1.4939,3.2927-1.7033,3.8875-3.8451,10.9279 2.413,22.5317 10.2556,27.5223 6.8417,4.3538 13.8389,5.5979 22.4692,6.3751 3.9936,.3599 6.2566,.4368 10.2626,.6222 3.2237,.1493 6.0082,.096 8.63,.064 2.1575-.027 4.2049-.016 6.2969-.064 3.4156-.079 6.9495-.1589 11.274,.1556 4.5497,.3309 7.9729,.4477 11.8177,1.0884 2.5115,.4187 5.4558,.8226 8.5422,1.5151 .9261,.2075 1.8651,.3773 2.8089,.6618 .6343,.1912 1.2604,.3853 1.8814,.5746 5.5715,1.6994 10.985,3.7697 15.2572,6.5209 1.3198,.8501 2.8401,1.6707 3.8771,2.7079 .7958,.7956 1.472,1.2565 2.1234,1.8978 2.9901,2.9415 6.0476,6.1261 6.7626,10.4377 .1319,.7955 .1317,1.6293 .1317,2.507 0,2.7988-2.2774,6.6084-8.4195,7.8524"/>
<path d="m466.6215,488.1617c-1.6327,3.343 .2242,5.0235 2.4878,5.2866 3.343,.3887 5.1313-2.2545 5.3646-4.6647 .3782-3.9081-2.9159-7.4492-6.8419-7.3859-3.5352,.057-6.4145,2.3376-7.7644,5.4766-.4907,1.1411-.7178,2.3952-.7879,3.6976-.1324,2.4678 .735,4.7413 2.2228,6.4736 1.9974,2.326 5.113,3.7336 8.4288,3.8664 6.6002,.2648 11.74-5.9085 11.74-12.206 0-12.0509-17.8725-18.6233-24.957-20.3137-8.7079-2.0775-14.0055-2.8553-27.9891-3.6323-5.5979-.3109-9.6973-.1531-15.8605-.7921-5.5152-.5715-8.3967-.8405-14.0725-2.1623-7.0826-1.6493-13.6836-4.5871-19.5925-9.9517-4.55-4.1309-7.1526-7.0749-9.2592-12.7505-1.8175-4.8975-2.6527-14.5956 1.951-21.7691 4.069-6.3399 9.7184-9.6331 16.1717-10.5662 5.8292-.8428 10.9417,1.6726 13.9946,7.4565 1.4771,2.7988 1.0218,7.4799-.1483,9.6404-1.0108,1.866-3.8968,4.6178-7.4712,4.6651-5.9088,.078-7.3133-4.0572-7.4636-4.976-.6998-4.2759 1.788-5.9865 3.1098-6.453 1.0139-.3577 4.3122-.2662 5.0117,2.0654 .2333,.7773 .2749,2.133-.347,3.1438"/>
<path d="m471.7176,469.0203c7.5764,3.3588 13.1301,5.8745 17.8393,13.3102 1.4771,2.3325 1.866,5.6756 1.866,7.6192 0,4.1982-1.7106,8.9409-5.2093,11.8953-3.2462,2.7414-6.4531,3.5763-10.4183,3.1877-3.007-.2949-5.8309-2.4878-6.2974-4.0428"/>
<path d="m398.8253,279.8781c2.7794,2.3623 4.1208,5.2866 4.1208,8.9409 0,4.8409-4.0502,12.7505-14.0019,15.5493-3.8138,1.0724-7.5882,.2073-9.8706-1.1807"/>
<path d="m400.4579,296.2826c1.7883,1.2438 2.4881,2.6406 2.4881,5.0697 0,1.6647-1.0763,3.8228-2.9074,5.8666-2.9977,3.3461-8.0821,6.1897-13.7163,6.2603-3.0563,.038-6.2294-.6008-9.4218-2.7358-3.4131-2.2821-5.2093-5.3643-5.9868-8.3967"/>
<path d="m400.2981,306.7115c2.0258,1.8623 2.648,4.1932 2.648,7.129 0,4.2891-1.7424,7.5998-5.7493,11.1074-.896,.784-1.9048,1.5187-3.0329,2.1783"/>
<path d="m396.8816,325.2045c4.2761,3.3431 6.0644,6.5862 6.0644,11.7398 0,5.9085-2.8767,9.5627-6.2201,11.662"/>
</g>
<g stroke-linecap="round">
<path d="m392.9944,344.4078c6.3751,7.9301 9.7578,12.6371 9.9517,22.08 .1815,8.8627-2.6435,14.9274-7.9304,21.3028"/>
<path d="m426.9731,212.5814c-.1641-.2443-.3458-.513-.5473-.8096-2.6435-3.8873-7.3116-4.9116-10.7292-2.3323-4.1205,3.1098-5.1612,8.4023-4.0429,13.9943 .6995,3.4987 3.0732,6.4128 6.3247,8.5211"/>
</g>
<g>
<path d="m573.0424,224.3669c-6.2975,6.8417-12.5955,9.0262-22.0026,9.3296-2.9375,.095-8.5523-.9329-11.8177-3.2581-2.0975-1.4936-4.4315-4.0502-2.9544-8.4817 .9875-2.9622 5.7462-11.2734 5.9795-17.0266 .3563-8.7892-3.025-13.6057-8.312-15.4716-9.7739-3.4497-20.2667,6.2113-26.5895,8.319-3.3053,1.1017-4.9903,1.2319-8.0081,1.2429-3.0177-.011-4.7627-.1411-8.068-1.2429-6.3228-2.1077-16.8156-11.7687-26.5897-8.319-5.2867,1.8659-8.668,6.6824-8.3117,15.4716 .2333,5.7532 4.9918,14.0644 5.9792,17.0266 1.4774,4.4315-.8566,6.9881-2.9541,8.4817-3.2656,2.3252-8.8801,3.3529-11.8177,3.2581-9.4072-.3034-15.7052-2.4879-22.0027-9.3296"/>
</g>
</g>
<g>
<path stroke-width="1.121" d="m516.3665,229.1094c1.2852,2.3241 1.992,3.7378 1.2441,6.1421-.8473,2.7231-2.7783,4.3538-5.5202,4.3538-6.2198,0-9.8782-7.3642-7.075-12.051 4.976-8.3187 14.5388-3.6466 23.4021,.4739-.4275-2.1338-1.1734-2.8278-1.0958-5.4712 .1931-6.5642 5.061-9.5412 7.0046-15.6053 1.1577-3.6124 1.6183-6.7497-1.0251-9.3155-2.3078-2.2396-4.9819-2.2056-7.9937-1.0248-6.0174,2.3587-13.2458,9.1373-25.9698,9.3256-12.7238-.1883-20.0123-6.9669-26.03-9.3256-3.0115-1.1808-5.686-1.2148-7.9934,1.0248-2.6435,2.5658-2.1831,5.7031-1.0251,9.3155 1.9436,6.0641 6.8116,9.0411 7.0043,15.6053 .0779,2.6434-.6683,3.3374-1.0955,5.4712 8.8633-4.1205 18.7978-9.2119 23.4021-.4739 2.5652,4.8688-.8552,12.051-7.0752,12.051-2.7417,0-4.6673-1.7481-5.5199-4.3538-.76-2.3227 0-4.3538 1.2441-6.1421"/>
</g>
<g stroke-width=".987">
<path d="m471.4649,227.453c.3793-1.1821 .7671-2.0719 .71-4.0144-.1932-6.5642-5.0607-9.5412-7.0046-15.6056-1.1577-3.612-1.618-6.7494 1.0254-9.3152 2.3075-2.2396 4.9816-2.2058 7.9934-1.0251 6.0174,2.359 13.3082,9.1376 26.0323,9.3259-12.724-.1882-20.0148-6.9669-26.0323-9.3259-3.0118-1.1807-5.9347-1.5255-8.2425,.7142-2.6432,2.5658-1.9341,6.0141-.7764,9.6261 1.9439,6.0644 6.5628,9.0414 6.7558,15.6056 .0572,1.9425-.455,2.8323-.8341,4.0144"/>
<path d="m500.1812,206.3737c12.5172-.661 23.2453-9.0712 26.7062-9.7573 3.0856-.612 4.8086-.3354 7.0721,1.7213-2.2636-2.0567-4.8418-1.9931-7.7706-.845-6.0175,2.359-13.246,9.1376-25.9698,9.3259"/>
<path d="m515.2254,239.5715c1.1591-.7609 2.0098-1.9791 2.4974-3.4848 .753-2.3252 .7691-4.3077-.4747-6.0957 1.5345,2.0081 1.6757,3.7043 1.2438,6.1418-.2746,1.5522-1.2644,2.3685-2.4974,3.4849"/>
<path d="m596.398,374.2376 0,25.2413 .0668,0c0,.018-.009,2.3888-.2118,3.8872-.1331,.9824-.2716,1.8705-.4286,2.7023"/>
<path d="m595.957,371.8145 0,27.2234 .0673,.0003c0,.018-.009,2.3885-.2118,3.8872-.2118,1.5624-.437,2.8869-.7294,4.1245"/>
<path d="m595.957,339.9434 0,22.7016"/>
<path d="m596.398,341.7342 0,18.4632"/>
<path d="m596.398,318.2511 0,13.8413"/>
<path d="m595.957,316.6176 0,17.0635"/>
<path d="m596.398,304.1013 0,5.3693"/>
<path d="m595.957,303.0131 0,7.7762"/>
<path d="m596.398,292.6331 0,5.5188"/>
<path d="m595.957,291.2742 0,7.774"/>
<path d="m596.398,274.4406 0,10.185"/>
<path d="m595.957,272.1866 0,13.9175"/>
<path d="m592.9877,414.173c-1.9304,3.8352-3.4727,5.8492-6.5307,8.8632-3.0855,3.0408-5.2239,4.4343-9.0965,6.3751-3.7719,1.8905-6.1477,2.4916-10.2627,3.421-4.1124,.9286-6.5175,1.131-10.7292,1.3215-3.8619,.1751-6.0529,.014-9.9095-.2544-4.1276-.2856-6.4168-.8608-10.5381-1.2227-3.4038-.2988-5.3263-.5741-8.7434-.5656-3.5122,.01-5.5247,.031-8.9831,.6433-3.2234,.5709-5.052,1.0257-8.0857,2.2548-4.1976,1.7005-8.9412,4.6648-9.9517,5.9865-1.0108-1.3217-5.7541-4.286-9.952-5.9865-3.0338-1.2291-4.8623-1.6839-8.0855-2.2548-3.459-.6124-5.471-.6346-8.9834-.6433-3.417-.01-5.3395,.2668-8.7434,.5656-4.1211,.3619-6.4106,.9371-10.5381,1.2227-3.8566,.2668-6.0473,.4294-9.9092,.2544-4.212-.1905-6.6174-.3903-10.7292-1.3215-4.1149-.9317-6.4888-1.5347-10.2629-3.421-3.8752-1.9368-6.011-3.3343-9.0965-6.3751-.3332-.3286-.6486-.6452-.9483-.9536"/>
<path d="m593.0766,412.6481c-.1655,.3503-.3419,.7108-.5296,1.0842-1.9304,3.8352-3.473,5.8492-6.531,8.863-3.0853,3.0411-5.2236,4.4343-9.0965,6.3754-3.7716,1.8901-6.1475,2.4915-10.2627,3.421-4.1121,.9286-6.5175,1.1309-10.7292,1.3214-3.8617,.1747-6.0529,.011-9.9092-.2547-4.1276-.2853-6.4168-.8605-10.5384-1.2224-3.4038-.2991-5.3263-.5743-8.7431-.5656-3.5124,.01-5.5244,.031-8.9831,.6433-3.2234,.5707-5.052,1.0254-8.086,2.2546-4.1977,1.7007-8.9409,4.6647-9.9517,5.9865-1.0108-1.3218-5.7538-4.2858-9.9517-5.9865-3.0338-1.2292-4.8623-1.6839-8.0857-2.2546-3.4587-.6123-5.471-.6345-8.9834-.6433-3.4168-.01-5.3393,.2665-8.7431,.5656-4.1214,.3619-6.4108,.9371-10.5381,1.2224-3.8566,.2668-6.0473,.4294-9.9095,.2547-4.212-.1904-6.6171-.39-10.7292-1.3214-4.1146-.9323-6.4891-1.534-10.2627-3.421-3.8749-1.9378-6.0113-3.3343-9.0965-6.3754-1.6155-1.5922-2.8081-2.9055-3.8583-4.3555"/>
</g>
</g>
<g>
<path fill="#fedf00" fill-rule="evenodd" stroke-width=".797" d="m585.4754,402.3902c-.2333,1.4771-.7592,4.0116-2.1626,6.6084-1.4771,2.3325-.9329,2.2692-4.2759,6.0009-1.6456,1.8369-4.214,3.4108-6.2271,4.495-2.0216,1.0885-3.5169,1.6226-6.8417,2.4952-6.5178,1.7103-11.0911,1.817-16.5744,1.5981-4.2778-.1707-7.544-.6973-10.2486-1.0612-3.8574-.5189-6.7305-.8279-11.1181-1.0108-2.133-.089-4.149-.1096-6.1421,0-2.4057,.1326-4.7815,.5054-7.3082,1.0108-5.4423,1.0885-11.0328,3.1877-11.0328,3.1877l.0565-85.6552 82.1932-.023v58.5432c0,0-.1681,2.8596-.3183,3.8096z"/>
</g>
</g>
<use width="1000" height="700" xlink:href="#path3018" transform="translate(0 36.5949)"/>
<g stroke-miterlimit="3.864">
<g>
<path fill="#c7b37f" stroke="#c7b37f" stroke-width=".513" d="m387.4081,421.3239c0-2.1575 1.7492-3.9067 3.907-3.9067 2.1575,0 3.9067,1.7492 3.9067,3.9067 0,2.1578-1.7492,3.9067-3.9067,3.9067-2.1578,0-3.907-1.7489-3.907-3.9067z"/>
</g>
<g fill="none">
<g stroke="#703d29">
<g>
<path stroke-width="1.057" d="m387.6025,414.3461-3.1877,1.1663-3.2654,2.4879-1.3994,1.9436-1.7883,3.1098-.7775,2.3325-.6219,2.8768-.311,2.1766"/>
<path stroke-width=".987" d="m406.4174,413.2573c.6655,4.9422-1.4129,9.7995-3.5228,12.0335-1.3217,1.3994-4.2005,4.0736-7.7748,4.1205-5.9088,.078-7.6726-3.9863-8.0306-4.9757"/>
<path stroke-width="1.057" d="m405.9509,414.657-.2333,2.7991-.4663,1.9436-1.3997,3.343-2.1769,2.8768-2.3325,1.8659-1.7104,.8552-2.4102,.5443"/>
</g>
<g stroke-width=".987">
<path d="m399.4049,410.7002c1.0966,1.0829 2.07,2.4049 2.8933,3.965 1.4771,2.7988 1.022,7.4801-.1483,9.6407-.1286,.2375-.2879,.4894-.4747,.7482"/>
<path d="m370.0443,453.204c3.5136,3.6874 8.8275,7.692 16.9898,11.0522 11.1609,4.5953 28.3001,5.6539 40.1178,6.1205 15.7153,.6204 30.1931,1.266 39.0104,10.9976"/>
<path d="m493.2855,475.0099c2.5982,2.556 5.247,5.2954 6.3658,8.798"/>
</g>
<g>
<path stroke-width="1.197" d="m499.5984,489.2349c-.5797,2.5878-3.0039,5.5484-8.279,6.6169 0,0-.6256,.1292-1.0254,.2118"/>
</g>
<g stroke-width=".987">
<g stroke-linecap="round">
<path d="m491.2794,494.7253c-.6337,2.3489-1.7852,4.626-3.4677,6.4511"/>
<path d="m464.5805,466.2733c1.246,.4868 .3034-.2952 8.1947,3.2032 7.5764,3.3585 12.954,6.2999 17.6632,13.7356 1.4774,2.3323 1.866,5.6756 1.866,7.6192 0,1.2528-.1522,2.554-.4587,3.8417"/>
</g>
<g>
<path d="m488.1784,501.697c-.3397,.3625-.7007,.7066-1.0831,1.0297-3.2462,2.7411-6.4531,3.5763-10.4183,3.1874-3.007-.2947-5.9077-2.5478-6.6852-4.0252"/>
<path d="m491.7845,491.471-.6998,3.4206"/>
<path d="m487.4304,501.4224-1.4771,1.4773-2.6435,1.4771-3.0321,.9331"/>
<path d="m511.6117,501.1973c-2.0216,3.11-6.8419,7.7747-11.8956,9.6407-5.0536-1.866-9.8738-6.5307-11.8953-9.6407"/>
</g>
</g>
</g>
<g>
<path stroke="#231f20" stroke-width=".987" d="m512.0524,501.6382c-2.0216,3.1098-6.8419,7.7745-11.8953,9.6405-5.0537-1.866-9.8741-6.5307-11.8956-9.6405-.1634-.2518-.3208-.4938-.4719-.7266"/>
</g>
<g stroke="#703d29">
<g stroke-width=".987">
<path d="m478.8005,505.4652 2.7988-.3497"/>
<path d="m461.6334,497.3505c.145,.1981 .2974,.3906 .4573,.5766 1.8876,2.1983 4.8674,3.576 7.9777,3.8332"/>
<path d="m465.091,500.0638c1.5362,.7682 3.2792,1.2167 5.081,1.2891 6.6002,.2648 11.74-5.9089 11.74-12.2063 0-4.3662-2.377-8.0441-5.7062-11.0002"/>
<path stroke-linecap="round" d="m466.5165,488.151c-1.5938,3.5532 .6768,5.4749 2.9401,5.738 3.3433,.3889 5.2248-2.2546 5.458-4.6647 .2536-2.6213-1.145-5.171-3.278-6.4852"/>
<path d="m512.0524,501.6382c-2.0216,3.1098-6.8419,7.7745-11.8953,9.6405-5.0537-1.866-9.8741-6.5307-11.8956-9.6405-.1634-.2518-.3208-.4938-.4719-.7266"/>
<path d="m512.1267,501.6179c.3607,.3917 .7463,.7624 1.1562,1.1088 3.2462,2.7411 6.4531,3.5763 10.4183,3.1874 3.007-.2947 5.395-2.3036 6.3596-4.0429 0,0 .5411-.5816 .6925-1.1366"/>
<path d="m529.7521,500.987-1.1605,1.8666-1.7655,1.4633-2.6739,1.1098-2.4214,.1011"/>
<path d="m536.0304,483.2214c1.4306,1.0969 2.8354,2.7594 3.5985,4.5342 .4908,1.1411 .7181,2.3956 .7879,3.6976 .1322,2.4682-.735,4.7413-2.2228,6.4739-1.9974,2.326-5.113,3.7336-8.4288,3.8664-.2468,.01-.4919,.011-.7345,0"/>
<path d="m529.3247,501.3529c-3.1706,.1271-6.0037-1.2312-8.0925-3.3754"/>
<path d="m528.8992,501.4409 2.825-.269 2.6907-1.0763 1.8834-1.1437 2.5562-3.027 .5377-1.1436 .4038-2.6235 .1346-1.2108"/>
</g>
<g>
<path stroke-width="1.356" d="m631.5906,406.5659c3.3394,3.114 5.6851,6.905 7.4881,12.1092 .7606,2.1952 1.3912,5.5056 1.3034,9.0211-.1398,5.6041-1.5626,11.7296-3.0917,14.6916-1.3333,2.5838-4.8201,13.9943-23.9463,21.8684-11.1609,4.5953-28.3001,5.6539-40.1177,6.1205-16.0221,.6326-30.8223,1.2266-39.5822,11.5157"/>
<path stroke-width=".987" d="m533.0684,481.4416 2.7988-2.5658 1.9439-1.4771 3.654-2.2546 3.421-1.6326 2.4102-.6222 4.8204-1.0882 5.5979-.8554"/>
<path stroke-width=".929" d="m605.4512,416.9453c1.1881-1.6211 5.5174-3.6734 9.0163-1.7295 1.1515,.6397 2.5163,1.4487 3.7136,3.2426"/>
</g>
</g>
</g>
</g>
<g fill="#703d29" fill-rule="evenodd">
<path d="m413.1198,434.4197c.8102-.8724 1.4225-.5439 1.5728-.9458 .111-.2971-.129-.327-.459-.4505-.4404-.1646-.9069-.2592-1.3473-.4241-.4561-.1704-.8704-.4049-1.3265-.5754-.1889-.071-.6253-.2935-.7496,.039-.2285,.6114 1.6017,.5588 .9877,2.2016-.1047,.2794-.3647,.8794-1.2744,1.8738l-4.1411,4.5072c-.0929,.1047-.2474,.3259-.3416,.2904-.0945-.035-.0817-.3092-.083-.4494l.0592-6.3917c.005-1.2128 .1081-2.1107 .3042-2.635 .2744-.7339 1.12-.1191 1.2964-.5909 .1112-.2969 .0259-.309-.4773-.4973-.2518-.094-.7339-.1947-1.7405-.5709-.5349-.2002-1.0434-.47-1.5626-.6638-.2358-.088-.6711-.4103-.8279,.01-.0459,.1224 .1193,.3036 .1601,.3388 .5794,.4159 .7277,.6902 .7403,1.4719l.1135,11.6354c.009,.8397 .1006,1.0732 .258,1.132 .1731,.065 .291-.011 .6337-.4004l8.205-8.9035z"/>
<path d="m417.9461,436.2238c.5332-1.6904 1.5322-.6712 1.723-1.2762 .0673-.2136-.001-.2744-.482-.4258-.9126-.2878-1.5117-.3984-2.0883-.5802-.5606-.1767-1.1625-.4449-1.7872-.6416-.1441-.046-.5276-.2254-.623,.077-.1965,.6228 1.7703,.6951 1.2598,2.3142l-2.693,8.5411c-.533,1.6904-1.5401,.8642-1.7365,1.4869-.0282,.089-.0355,.2238 .109,.2693 .4162,.1313 1.1273,.2772 1.8159,.4941 1.2491,.394 1.8192,.652 2.4119,.8389 .3681,.1161 .5349,.09 .5966-.1054 .1794-.5695-1.8721-.3165-1.1821-2.5053l2.6761-8.4875z"/>
<path d="m423.7345,437.9285c.318-1.0733 .8169-.9256 1.4126-.7491 1.6262,.4817 2.1355,2.0725 1.6164,3.8256-.3126,1.0555-.706,2.0289-3.1534,1.3037-.4829-.1429-1.0786-.3194-.9461-.7665l1.0704-3.6137zm-4.4337,7.696c-.6678,2.254-1.797,1.2775-1.9664,1.8499-.106,.3577 .2479,.4044 .4249,.4567 .8051,.2383 1.6313,.4055 2.5005,.663 .6762,.2001 1.0899,.4007 1.3637,.4817 .37,.1095 .5307,.04 .5786-.1206 .1907-.6439-1.6206-.3827-1.0536-2.2968l.9168-3.0948c.1855-.6261 .1258-.7801 .9793-.5271 .8051,.2383 1.0471,.4851 1.1841,1.382l.5152,3.227c.1916,1.1856 .3731,2.4651 1.6451,2.8419 .6438,.1907 1.8232,.1119 1.9875-.4426 .0423-.143-.0225-.2789-.1675-.322-.161-.048-.3537,.011-.5147-.036-.129-.038-.4348-.129-.495-.4578-.4913-2.5973-1.0915-5.5968-1.0598-5.7043 .0529-.1787 .5676-.2014 1.1563-.4747 .594-.291 1.257-.8144 1.5961-1.9594 .244-.8228 .6692-3.4406-2.8568-4.4849-1.0789-.3197-2.1949-.5724-3.2735-.892-1.0142-.3003-1.1219-.4101-1.8626-.6296-.1929-.057-.3807-.016-.4337,.1635-.1907,.6438 1.7604,.502 1.1667,2.5053l-2.3314,7.8713z"/>
<path d="m432.4649,449.4794c-.5183,2.1589-2.1541,.8453-2.3241,1.5524-.0959,.3994 .1859,.4478 .4801,.5184 .6531,.1567 1.2092,.2136 2.3032,.4764 1.0938,.2625 1.6152,.4646 2.2684,.6213 .4736,.1137 .7871,.2465 .8915-.1888 .1222-.508-2.0942-.4838-1.5584-2.7153l1.9687-8.2002c.2091-.8707 .3942-.9222 1.0637-.7615l1.3876,.3332c1.8952,.3782 .8892,2.2667 1.5424,2.4234 .4246,.102 .4148-.6486 .4345-.8743l.2213-1.7123c.027-.1851 .088-.4393-.1567-.4978-1.5184-.3647-2.63-.5549-5.0137-1.1273-2.384-.5724-3.4604-.9075-4.9788-1.2719-.2448-.059-.3059,.1949-.3658,.3725l-.836,2.332c-.0896,.2279-.2831,.6036 .0597,.686 .7347,.1763 .8155-2.3178 2.6606-1.8749l1.3715,.3292c.6692,.161 .8107,.2907 .6016,1.1616l-2.021,8.4178z"/>
<path d="m452.2951,444.4176c.6464-.9996 1.3062-.7823 1.3848-1.2044 .0576-.3118-.1837-.2997-.5304-.3639-.4623-.086-.9382-.098-1.4005-.1837-.4787-.089-.9275-.2479-1.4062-.3366-.1981-.037-.6669-.1803-.7314,.168-.1191,.6421 1.6743,.2724 1.3547,1.9968-.0543,.2938-.2064,.9297-.9295,2.0669l-3.2957,5.1578c-.0732,.119-.1868,.3638-.2859,.3452-.099-.018-.134-.2904-.1598-.428l-1.0516-6.3047c-.2055-1.1957-.26-2.0979-.158-2.648 .1429-.7705 1.0825-.3118 1.1743-.8073 .0576-.3118-.0282-.3087-.5563-.4067-.2642-.049-.7567-.064-1.8133-.26-.5614-.104-1.1093-.2814-1.6541-.3824-.2476-.046-.7322-.2876-.8138,.1524-.0239,.1285 .1704,.2783 .2166,.3059 .6427,.309 .8366,.5535 .9846,1.3209l2.1322,11.4389c.1544,.8256 .2856,1.0397 .4508,1.0704 .1814,.034 .2845-.061 .5546-.5045l6.5341-10.1932z"/>
<path d="m453.226,454.9312c.009,.4556-.0324,.6 .363,.7795 .9207,.4001 1.6915,.9832 2.7017,1.152 2.1693,.363 3.9672-1.0198 4.3704-3.4302 .3911-2.3371-.5696-3.3113-2.1969-4.4726-2.0373-1.4571-2.9083-1.8488-2.702-3.0816 .2062-1.2328 1.0685-1.8074 2.1617-1.6245 2.8486,.4767 2.5242,3.941 2.9049,4.0046 .3644,.061 .4511-.1515 .4857-.5617l.2305-2.4966c.0378-.4285 .1337-.6964-.1148-.7378-.2152-.036-.6787,.1891-.8937,.1531-.4969-.083-1.0724-.9174-2.4305-1.1445-1.9377-.3244-3.5214,.9996-3.8754,3.1159-.3233,1.9321 .5338,2.8132 1.8409,3.7508 2.4479,1.7529 3.4511,2.1665 3.1894,3.7308-.2465,1.472-1.3879,2.189-2.6798,1.9729-1.8381-.3078-2.5847-2.1541-2.8191-4.0094-.0261-.2501-.0315-.4212-.2966-.4657-.4142-.069-.3377,.4922-.3312,.7581l.0919,2.6069z"/>
<path d="m477.9549,447.9553c.5383-1.062 1.2173-.9148 1.2511-1.3426 .0247-.3163-.2139-.2791-.5656-.3067-.4685-.037-.9432,.0009-1.4121-.036-.4854-.038-.948-.1497-1.4337-.188-.2008-.016-.6818-.1096-.7097,.2437-.0511,.6509 1.6937,.096 1.5561,1.8443-.0235,.2977-.1081,.9461-.7086,2.1527l-2.7383,5.4738c-.0605,.1263-.1479,.3813-.2485,.3734-.1004-.01-.1634-.2749-.2035-.4088l-1.7047-6.1604c-.3292-1.1678-.4781-2.059-.4342-2.6171 .0612-.7811 1.044-.4232 1.0834-.9255 .0247-.316-.0602-.3039-.596-.3461-.2679-.02-.759,.016-1.8305-.069-.569-.045-1.1323-.1641-1.6847-.2073-.251-.02-.7584-.2096-.7935,.2367-.0113,.1303 .1988,.2591 .2473,.2816 .6717,.2401 .8898,.4632 1.1175,1.2109l3.3163,11.1533c.2398,.8051 .3926,1.004 .56,1.0172 .1839,.014 .2766-.091 .4989-.5597l5.433-10.8201z"/>
<path d="m480.5994,456.9992c-.0158,1.9028-1.6256,1.5531-1.6321,2.2993-.002,.3172 .3337,.2268 .5186,.2285 .4533,0 .9072-.067 1.4444-.062 .5879,.01 1.158,.085 1.9808,.092 .2184,0 .6379,.024 .6402-.2369 .007-.8769-2.1527,.3728-2.1215-3.2091l.0553-6.3433c.001-.1679 .036-.2983 .1369-.2975 .0842,.0009 .1839,.095 .3003,.2454l7.992,9.7719c.1162,.1504 .1992,.2628 .4342,.2651 .2015,0 .2028-.1475 .2064-.558l.0912-10.4664c.0158-1.9588 1.4402-1.4987 1.4453-2.0584 .0006-.056 .002-.2426-.3168-.2454-.151,0-.7395,.068-1.7973,.059-1.1588-.011-1.6451-.089-1.9138-.091-.2181,0-.2701,.1843-.2713,.3148-.005,.6157 2.046,.2978 2.0311,1.9955l-.0541,6.2127c-.005,.4663-.0396,.69-.1405,.6891-.1006-.0008-.3002-.2265-.5163-.4896l-6.6782-8.2866c-.2991-.3571-.0966-.486-.6337-.4905-.8901-.01-1.3274,.063-1.7638,.059-.3191,0-.6208-.08-.9396-.083-.2015,0-.2867,.1465-.2882,.3146-.009,.8954 1.8831-.3008 1.8519,3.2814l-.0617,7.0896z"/>
<path d="m496.861,448.6008c.0158-1.7725 1.2691-1.0898 1.2745-1.7241 .002-.224-.0814-.262-.5853-.2665-.9571-.01-1.5623,.061-2.1665,.056-.5878,0-1.2421-.086-1.8969-.091-.151-.001-.5704-.061-.5732,.2564-.005,.6528 1.8029,.1472 1.788,1.8448l.0158,8.9553c-.0158,1.7722-1.2201,1.2767-1.2258,1.9298-.0008,.093 .0315,.224 .1826,.2254 .4367,.01 1.1594-.064 1.8814-.058 1.3096,.011 1.9304,.091 2.5514,.097 .3864,0 .538-.07 .5397-.2752 .005-.5971-1.8828,.2448-1.8629-2.05l.0776-8.8992z"/>
<path d="m503.8982,457.271c.0202,2.2203-1.8859,1.3412-1.8795,2.0689 .005,.4106 .2887,.3894 .5912,.3866 .6714-.01 1.2249-.085 2.35-.095 1.125-.01 1.6797,.06 2.3514,.054 .4868,0 .8234,.049 .8194-.399-.005-.5226-2.149,.037-2.1693-2.2574l-.0734-8.433c-.007-.8954 .1594-.9902 .8476-.9961l1.4273-.011c1.9304-.091 1.4112,1.9841 2.0829,1.9782 .4364,0 .2454-.7299 .2098-.9534l-.1997-1.7148c-.0181-.1866-.0202-.4477-.2724-.4455-1.5618,.014-2.686,.098-5.1375,.1195-2.4516,.02-3.5772-.044-5.1389-.03-.2518,0-.2496,.2634-.2648,.4503l-.2471,2.465c-.0315,.2429-.1285,.654 .224,.6512 .7558-.01 .2308-2.4462 2.1279-2.4628l1.4104-.014c.6886-.01 .8571,.086 .865,.9812l.0757,8.6567z"/>
<path d="m513.6788,453.7395c-.3014,.024-.5344,.061-.549-.1252-.0202-.2603 .0639-.4728 .1299-.7027l1.0299-3.3933c.0675-.2114 .133-.2353 .1666-.2378 .0835-.01 .0336,0 .1454,.1382l1.6377,3.2586c.1013,.2165 .2177,.4133 .2383,.6737 .0135,.1859-.2213,.1857-.5226,.2095l-2.2765,.179zm2.8745,.7845c.4353-.034 .5335,.1452 1.2002,1.5525 .2238,.4877 .3672,.8132 .3993,1.2224 .0896,1.1346-1.1152,1.0234-1.0727,1.5629 .0202,.2606 .2352,.2062 .5363,.1823 .4857-.038 1.0992-.1611 1.8356-.2192 1.105-.087 1.5626-.048 2.1654-.096 .4519-.035 .6056-.011 .5808-.3265-.0484-.6137-.8951,.1828-1.535-1.0954l-5.4156-11.0275c-.2617-.5409-.298-.5755-.4488-.5637-.2175,.018-.2735,.3771-.3672,.6841l-3.6509,11.61c-.3363,1.0744-1.1988,1.0299-1.1653,1.4577 .0202,.242 .2839,.1834 .5183,.1652 .4854-.038 .9652-.1508 1.4672-.1905 .5358-.042 1.0437-.01 1.5795-.049 .3515-.028 .8808,.062 .8501-.3289-.0396-.502-1.8243-.062-1.9296-1.4014-.0351-.4466 .1479-1.116 .2358-1.497 .2885-1.2582 .6343-1.36 .9188-1.3825l3.2977-.2595z"/>
<path d="m529.5318,446.7928c-.1684-1.2764-.1042-1.3037 1.9104-1.5688 3.213-.4232 2.1994,1.9121 2.982,1.8092 .3827-.05 .2193-.6498 .1709-.8882l-.3076-1.8226c-.0225-.1666-.163-.336-.3793-.3075-1.465,.1927-2.6041,.4181-3.786,.5737-2.5472,.3352-3.7555,.419-4.438,.5088-.2333,.031-.3469,.1963-.325,.363 .0974,.7398 1.9008-.1 2.1201,1.5649l1.1397,8.6572c.2969,2.2566-1.0997,1.4245-.9877,2.2751 .0158,.1113 .1268,.1905 .343,.1621 .9157-.1206 1.6051-.2867 2.1212-.3545 .7328-.097 1.3583-.1036 1.9909-.1869 .4162-.055 .7755-.027 .7268-.397-.0657-.4992-1.8859,.2107-2.1563-1.8424l-.3605-2.7377c-.1412-1.073-.2369-1.286 .5288-1.387l1.232-.1621c1.7314-.2279 1.5235,1.7942 2.0562,1.7241 .3996-.053 .2118-.7054 .1639-.9438l-.5501-3.2771c-.0824-.4973-.2606-.4362-.3771-.421-.3332,.044-.1589,1.7522-1.5908,1.9408l-1.0488,.1382c-.7159,.094-.7328-.035-.8377-.8307l-.3408-2.5897z"/>
<path d="m535.6668,451.0302c.6903,3.724 3.3782,5.7875 6.6967,5.1724 5.2669-.9759 5.4408-5.6573 4.965-8.2253-.721-3.8893-3.6197-5.8-6.8324-5.1665-3.939,.7679-5.574,4.2018-4.8294,8.2194zm1.837-1.422c-.493-2.66-.1369-5.3449 2.6435-5.917 2.1229-.4313 4.5317,1.3235 5.283,5.3776 .5645,3.0453 .0957,5.675-2.7341,6.2564-2.9451,.6027-4.696-3.0386-5.1924-5.717z"/>
<path d="m550.5259,443.109c-.2611-1.0887 .2451-1.21 .849-1.3552 1.6493-.3959 2.886,.7272 3.3126,2.505 .2572,1.0705 .403,2.11-2.0787,2.7057-.4899,.1177-1.0941,.2625-1.203-.1907l-.8799-3.6646zm.009,8.8818c.5487,2.2859-.9174,2.0045-.7781,2.585 .0869,.363 .4168,.2262 .5966,.1832 .8164-.196 1.6152-.4646 2.4971-.6762 .6855-.1645 1.1439-.1981 1.4214-.2645 .3757-.09 .4801-.2305 .4409-.3937-.1567-.6531-1.5947,.4787-2.0607-1.4624l-.7536-3.1385c-.1522-.6351-.2808-.7386 .5844-.9463 .8164-.1959 1.1495-.1033 1.7168,.6047l2.0596,2.5374c.759,.9306 1.5559,1.9481 2.8455,1.6386 .6531-.1567 1.6349-.8147 1.5001-1.3772-.0348-.1449-.1589-.2304-.3062-.1949-.1632,.039-.3003,.1871-.4637,.2265-.1306,.031-.4407,.1056-.6573-.1495-1.7244-2.0035-3.7437-4.3009-3.7699-4.4098-.0437-.1814 .3906-.4584 .764-.9894 .3692-.549 .6816-1.3338 .4027-2.4949-.2004-.8346-1.1411-3.3143-4.7168-2.4557-1.0941,.2625-2.1867,.6016-3.2808,.8641-1.0285,.2471-1.1766,.2058-1.9279,.3861-.1959,.047-.3374,.177-.2938,.3585 .1567,.6532 1.7754-.4454 2.2633,1.5866l1.9163,7.9824z"/>
<path d="m564.0052,448.981c.556,2.1496-1.5052,1.7576-1.3232,2.462 .1027,.3976 .3746,.3081 .6672,.2324 .6503-.1682 1.1681-.3793 2.2574-.661 1.089-.2817 1.6442-.3481 2.2945-.5164 .4713-.1218 .8104-.1517 .6984-.5853-.1308-.5057-2.0762,.5563-2.6508-1.6656l-2.1116-8.1645c-.2242-.867-.0851-.9993 .5814-1.1718l1.3819-.3573c1.8508-.5558 1.8491,1.5837 2.4994,1.4157 .4227-.1094 .0617-.7677-.027-.9759l-.6087-1.6155c-.0628-.1765-.1283-.4295-.372-.3664-1.512,.3911-2.5824,.7451-4.956,1.3589-2.3733,.6137-3.4812,.8231-4.9932,1.2142-.2437,.063-.1785,.316-.1481,.5006l.3565,2.4518c.0284,.2432 .0336,.6658 .3748,.5775 .7316-.1891-.3681-2.4293 1.4689-2.9043l1.3656-.3532c.6666-.1724 .8524-.124 1.0766,.7429l2.1676,8.3812z"/>
<path d="m572.6025,437.5171c-.4739-1.7079 .9194-1.3972 .75-2.0087-.0599-.2156-.1508-.229-.6363-.095-.9224,.2558-1.4849,.4894-2.0674,.6509-.5662,.1569-1.2173,.26-1.8482,.435-.1459,.04-.5653,.098-.4806,.4044 .1747,.6292 1.8634-.3813 2.317,1.2548l2.3936,8.6299c.4736,1.7079-.8211,1.5635-.6467,2.193 .025,.09 .0923,.2069 .2381,.1664 .4204-.1169 1.0963-.3816 1.7922-.5746 1.2621-.3501 1.8806-.4441 2.4794-.6101 .3723-.1034 .4978-.2155 .4429-.4134-.1596-.5752-1.7424,.7544-2.3556-1.4571l-2.3784-8.5759z"/>
<path d="m576.1828,441.6947c1.2018,3.5918 4.1509,5.2611 7.3516,4.1901 5.0796-1.6994 4.6006-6.3594 3.7716-8.8365-1.255-3.7508-4.3913-5.2394-7.4847-4.1651-3.7938,1.3088-4.9349,4.9366-3.6385,8.8115zm1.6214-1.6639c-.8586-2.5652-.8794-5.2734 1.7939-6.2271 2.0424-.7226 4.6718,.6799 5.9803,4.5899 .9827,2.9373 .8842,5.6064-1.837,6.5761-2.8326,1.0065-5.0731-2.3557-5.9372-4.9389z"/>
<path d="m589.7156,431.5615c-.4103-1.0414 .0741-1.2322 .6523-1.4599 1.5781-.6216 2.9589,.3183 3.6289,2.0193 .4035,1.0243 .6925,2.0334-1.6819,2.9688-.4688,.1846-1.0468,.4123-1.2179-.023l-1.3814-3.5065zm1.2446,8.7943c.8617,2.1871-.6298,2.1128-.4108,2.6683 .1367,.3472 .4443,.1661 .6163,.098 .7812-.3076 1.535-.6847 2.3784-1.017 .6562-.2586 1.1056-.3551 1.371-.4601 .3596-.1412 .4435-.2946 .3818-.4511-.2462-.625-1.5125,.6962-2.2441-1.1613l-1.183-3.0031c-.2392-.6076-.381-.6923 .4471-1.0184 .7812-.3076 1.1239-.2623 1.7841,.3599l2.3927,2.2259c.881,.816 1.8117,1.7128 3.0459,1.2266 .625-.2462 1.5058-1.0341 1.2936-1.5725-.0545-.1387-.1893-.206-.3298-.1506-.1565,.062-.2715,.2271-.4277,.2887-.1249,.049-.4218,.1662-.672-.056-1.9864-1.7441-4.306-3.7381-4.3468-3.8422-.0687-.1736 .323-.5082 .6188-1.0859 .289-.5952 .4891-1.416 .0515-2.527-.3146-.7986-1.5913-3.123-5.0129-1.7753-1.0468,.4125-2.0818,.9002-3.1286,1.3127-.9841,.3877-1.1363,.3675-1.8553,.6506-.1875,.074-.3095,.2219-.2411,.3956 .2462,.625 1.6963-.688 2.4623,1.2562l3.0087,7.638z"/>
</g>
<g stroke-miterlimit="3.864">
<g fill="none" stroke="#703d29">
<g stroke-width=".987">
<path d="m620.7213,391.9334c-2.4738-2.2799-5.0362-5.4397-7.5069-10.0772-1.3105-2.4603-2.1246-4.7433-2.6725-6.9925-.4229-1.7354-.7159-3.4505-.7792-5.211-.1078-3.0002 .215-6.1322 .9638-9.7212 1.2362-5.9251 3.4426-10.5086 6.3754-14.1499 .9998-1.2418 2.1544-2.7915 3.2507-3.4879"/>
<path d="m624.5385,383.1698c-.6787-.5544-1.4064-1.0246-2.0418-1.6895-3.8259-4.0044-6.7038-9.9242-6.7423-16.6766-.0369-6.4737 2.5658-13.0615 5.5979-15.627"/>
</g>
<g>
<path stroke-width=".881" d="m615.3331,363.1642 .1961-2.5022 .8341-3.9739 1.1774-3.0909 1.3245-2.5512 1.7171-2.0606"/>
<path stroke-width="1.356" d="m627.5053,402.7907c.7823,.3008 1.5604,.5718 2.2436,.7671 2.236,.6387 4.3372,.6883 6.1584,.1418 4.4225-1.3265 7.2613-5.4589 4.9597-10.8291-.5338-1.2452-1.5556-2.4392-2.7164-3.3335"/>
</g>
<g stroke-width=".987">
<path d="m638.9898,390.458c.0678-.365 .1033-.7409 .1033-1.125 0-1.8105-.7572-3.468-2.0092-4.5857-.4275-.3816-.8414-.9736-1.3595-1.2328"/>
<path d="m636.4704,384.2504c-.0727-2.9123-2.4561-4.9954-5.4099-5.5135"/>
<path d="m621.5444,349.3771c1.5725,2.0547 4.5384,2.588 6.8827,1.9765 1.7717-.4621 3.0675-1.5781 3.8957-3.0312 .9345-1.64 1.2173-3.7798 .6104-5.8239-.2752-.9266-.6624-1.7069-1.3254-2.581-.6661-.8777-1.492-1.8111-2.1322-2.2298-.1697-.111-.3391-.2614-.5183-.383"/>
</g>
<g>
<path stroke-width=".881" d="m632.741,343.6742-.1945,2.449-.6998,1.6718-1.0884,1.5939-1.2438,.9328-1.9048,.6996-1.6715,.1168-1.2441-.1945"/>
</g>
<g stroke-width=".987">
<path stroke-linecap="round" d="m629.2424,397.1641c.1335,.1447 .5814,.2172 .7387,.3109 2.2157,1.3217 6.5774-.3264 5.2945-3.7474"/>
<path d="m618.2028,223.8306c3.9652,.3109 7.6386,4.5792 7.5902,8.7639-.0703,6.0782-2.1082,8.5894-6.8907,14.5447-4.1205,5.1313-16.4824,14.1499-16.1715,22.7796 .0551,1.5316 .8802,3.1154 1.8021,4.3895"/>
</g>
<g>
<path stroke-width=".881" d="m602.3347,268.4156 .5442-2.6435 1.1661-2.449 1.5162-2.4491 2.6046-3.343 2.0601-2.2937 3.343-3.3818 2.8767-2.9156 1.8271-2.0993 2.4102-2.9153 2.1381-3.2265 1.2829-2.6435 .6996-3.4207 .2125-4.2418-.3886-1.2302"/>
</g>
<g stroke-width=".987">
<g>
<path d="m613.2304,277.3593c1.2131-4.1276-.2676-8.4831-4.2663-8.3657"/>
<path d="m599.5893,279.718c.8783,.8672 1.9405,1.5839 3.2068,2.1558 2.2613,1.0212 4.8012,.4952 6.6543-.4432"/>
<path d="m609.5348,216.8738c5.0182,0 9.394,5.5855 9.394,11.3174 0,6.605-3.5127,10.6481-6.0869,13.705-2.0722,2.4608-4.3158,4.6625-6.9824,7.3482"/>
</g>
<g stroke-linecap="round">
<path d="m603.5821,211.5813c1.7064,.7901 3.2037,2.1276 4.3456,3.8188 2.099,3.1101 2.6331,5.7121 2.4879,9.5631-.2491,6.6-4.9979,11.1699-9.2462,13.9594"/>
<path d="m593.71,211.5798c.3469,.2961 .6804,.6338 1.0004,1.0142 2.8768,3.421 3.0993,8.4775 2.4102,11.2808-1.0353,4.2128-2.4276,6.0287-5.8464,8.5483"/>
<path d="m583.3593,209.8492c4.1205,3.1098 5.3458,8.4887 3.9807,14.0256-.9756,3.9567-3.4635,6.3281-6.5656,8.2174"/>
</g>
<g>
<path d="m576.3679,213.9045c1.3276,.9044 2.6814,2.2909 3.4151,4.0614 2.9082,7.0204-3.421,12.284-9.2522,16.2492-4.181,2.8429-8.6941,4.3614-12.9683,5.1288"/>
<path d="m569.6878,227.4322c-1.4138-.014-3.0945-.417-4.9203-2.3393-.4204-.4426-.9126-1.0276-1.1053-1.553"/>
<path d="m540.4543,231.1954c-.7384-.3703-1.5314-.9092-2.0626-1.5038-1.3864-1.5505-2.3103-3.6498-1.2424-6.8532 .9874-2.9626 5.7462-11.2735 5.9795-17.0267 .3563-8.7895-3.0242-13.9768-8.312-16.0001"/>
</g>
<g stroke-linecap="round">
<path d="m542.685,203.8506-.2064,3.3051-.8949,3.374-1.7213,4.6129-1.3082,2.9606-1.3769,2.9609-.6886,2.0658-.2755,1.5148 .2069,1.4458"/>
<path d="m598.157,296.2826c.493,1.4472 1.3065,1.9486 2.3317,3.0225 2.229,2.335 5.4963,4.3434 9.623,5.5039 3.8138,1.0727 7.2494,.2662 9.8706-1.3671"/>
<path d="m595.811,423.4038c.2721,.6607 .9328,1.3059 .9328,1.3059 1.0108,1.6873 4.9402,4.6547 8.5146,4.7016 5.9088,.078 7.3119-4.0572 7.4638-4.9757 .746-4.5088-.7961-5.7425-3.11-7.0127 0,0-1.3617-.7055-2.9944-.4334"/>
</g>
</g>
<g>
<path stroke-width=".881" d="m605.4402,429.4378 2.527-.5054 1.9048-1.0108 1.0496-1.0496 .7387-1.205 .5054-1.9436 .0388-1.3606"/>
<path stroke-width=".987" d="m370.2286,403.6664c-2.086,.5341-4.0454,.547-5.7574,.033-4.4228-1.3265-8.0067-5.5636-6.1795-10.8291"/>
<path stroke-width=".881" d="m364.9389,403.3839 1.8662,.1555 2.4099-.1945 2.4102-.8552"/>
<path stroke-linecap="round" stroke-width=".987" d="m365.2892,387.8734c1.9371-.035 3.869,1.273 5.1325,3.4677 .2507,.4356 .641,1.3836 .6284,2.4107-.0158,1.3682-.6154,2.8309-1.5924,3.4525-2.2456,1.4292-6.2327,.8149-6.0659-3.15"/>
</g>
</g>
<g>
<path fill="#c7b37f" stroke="#c7b37f" stroke-width=".513" d="m363.4229,393.7121c0-1.9321 1.2356-3.4986 2.76-3.4986 1.5244,0 2.7602,1.5665 2.7602,3.4986 0,1.9324-1.2359,3.4987-2.7602,3.4987-1.5243,0-2.76-1.5663-2.76-3.4987z"/>
</g>
<g fill="none">
<g stroke="#703d29">
<g stroke-width=".987">
<path d="m377.3334,336.3975c7.7033,1.4379 15.119,10.7286 17.5458,20.8649 .8428,3.5201 2.0016,11.3714 .3959,18.8147-1.7103,7.9301-5.1381,13.4199-9.1598,17.5852-.9534,.9875-2.0587,1.9276-3.3231,2.8548l-1.6428,1.1135"/>
<path d="m379.214,343.1528c.4429,.4446 .5856,1.1076 .6528,1.6701 .6832,5.7318-4.3395,7.4016-7.9158,6.4685-1.7714-.462-3.8825-2.1068-4.7106-3.56-.5971-1.0473-.959-2.2987-.9621-3.5988"/>
</g>
<g>
<path stroke-width=".881" d="m379.4391,345.3848-.3109,2.1769-.5054,.9717-.7387,.9331-1.0108,.7773-1.1273,.5054-1.4773,.2332-1.0108,.078"/>
</g>
</g>
<g stroke-width=".987">
<g>
<path stroke="#c7b37f" stroke-linecap="round" d="m373.9189,340.5411c-.5738,.2499-.8906,.4561-1.3218,.9098-.412,.4333-.4975,.5906-.8163,1.2983-.2333,.5178-.2946,1.118-.381,1.8581"/>
</g>
<g stroke="#703d29">
<path d="m368.7642,378.6682c3.1641,0 5.9336,3.0316 5.9336,6.2733 0,1.5876-.6152,3.0281-1.6147,4.0848"/>
<path d="m366.6182,382.3456c3.2966,0 6.4325,3.1758 6.4325,6.5464 0,1.9397-.9047,3.6678-2.3151,4.7855"/>
</g>
<g stroke="#c7b37f" stroke-linecap="round">
<path d="m378.7705,386.396c.5426-.6579 .8704-1.0119 1.3915-1.687 .4336-.5616 .6917-.8709 1.073-1.4694 .3436-.5392 .4975-.8676 .8009-1.4307 .4275-.7938 .6402-1.2567 1.0496-2.0601"/>
<path d="m381.1106,401.5334c-.925,.4246-1.4723,.6123-2.3713,1.0884-.6835,.3622-1.0547,.5935-1.7106,1.0029-.7744,.484-1.2069,.7666-1.9436,1.3063-.7674,.5622-1.1619,.9297-1.9048,1.5237"/>
<path d="m396.5592,347.2505c-.5003-.5152-.7719-.8169-1.2829-1.3214-.5344-.5274-.8251-.8386-1.3994-1.3218-.5572-.4685-.9109-.6829-1.4928-1.1197"/>
</g>
<g stroke="#703d29">
<g stroke-linecap="round">
<path d="m396.838,349.2009c3.0273,4.0629 5.0252,7.5612 5.9544,12.0701"/>
<path d="m402.6881,374.5319c-.4995,2.2459-1.2593,4.3246-2.2639,6.3222-1.2731,2.5304-3.4919,5.3478-5.5523,7.2525"/>
</g>
<g>
<path d="m402.7868,341.7536c-1.0136,3.4281-3.1939,5.7702-5.6198,7.2934"/>
<path d="m397.3223,325.5208c2.9187,2.2816 4.678,4.6412 5.5011,7.4687"/>
<path d="m400.7388,307.1525c.8957,.8234 1.517,1.7382 1.9315,2.7566"/>
<path stroke-linecap="round" d="m397.3209,325.0852c-1.1273,1.0105-2.2503,1.6304-3.2654,2.0289"/>
</g>
</g>
<g>
<path stroke="#c7b37f" d="m397.1732,326.4689c-.7429,.3306-1.1327,.5932-1.9048,.8476-.885,.2915-1.4849,.4431-2.3401,.482"/>
</g>
<g stroke="#703d29">
<path stroke-linecap="round" d="m402.898,317.9236c-.7665,2.6592-2.5059,4.6738-5.2661,7.1926"/>
<path d="m400.8989,296.5989c.8296,.5771 1.425,1.3116 1.8249,2.0424"/>
<path stroke-linecap="round" d="m402.9098,303.942c-.4832,1.1906-1.3172,2.4752-2.4305,3.7178-2.9977,3.3459-8.0821,6.1894-13.7163,6.26-3.0563,.038-6.2294-.6007-9.4218-2.7354-3.4131-2.2825-5.6381-5.5281-6.3768-8.7158"/>
</g>
<g>
<path stroke="#c7b37f" stroke-linecap="round" d="m370.9954,300.6803c.2547,.9067 .3104,1.4478 .6531,2.3246 .4308,1.102 .791,1.6817 1.4461,2.6668 .683,1.0266 1.1096,1.5939 1.9903,2.4569 .7736,.7576 1.2638,1.14 2.1693,1.7337 .8597,.5637 1.418,.7587 2.3247,1.2438"/>
</g>
<g stroke="#703d29">
<path d="m399.1106,280.1322c1.7306,1.4711 3.0594,3.3467 3.6982,5.2945"/>
<path stroke-linecap="round" d="m402.8577,292.561c-1.3842,4.5739-5.5104,10.2306-13.4728,12.248-3.8037,.9638-8.702-.2412-10.3735-1.6639"/>
</g>
<g>
<path stroke="#c7b37f" stroke-linecap="round" d="m378.0394,301.9477c.7581,.4061 1.1495,.7119 1.9439,1.0417 .719,.2986 1.1456,.4247 1.9045,.5986 1.0268,.2355 1.6293,.2946 2.6826,.3188 1.1402,.027 1.4771,0 2.9156-.2333"/>
</g>
<g stroke="#703d29">
<path d="m375.0563,291.4892c.4167,4.1205 3.1742,7.2089 8.4012,7.3077 7.3502,.1386 11.8177-10.5736 5.2869-18.0935"/>
<path stroke-linecap="round" d="m383.3311,298.2693 3.3686-.8865 1.9943-1.5071 1.2854-1.8176 1.1081-2.8368 .4432-2.3049"/>
<path d="m376.5117,286.4088c-1.0634,.2658-2.4109,.6595-3.8239,1.3328-1.8928,.9019-3.9033,2.3056-5.506,4.5758-1.8561,2.6296-2.9384,6.2859-3.6084,9.4848-.2932,1.3997-.6433,5.832 .2521,10.4096 .6613,3.3801 2.0573,6.527 3.6016,8.8061 .5538,.8172 1.0561,1.5226 1.6206,2.0874 2.0216,2.0213 3.8875,3.2654 6.9973,2.6432"/>
</g>
</g>
<g>
<path stroke="#703d29" stroke-linecap="round" stroke-width="1.041" d="m375.4449,287.1281c-2.9685,1.8378-5.1823,2.2728-7.492,4.9475-2.2994,4.5531-3.2034,6.9991-4.1001,10.6499"/>
</g>
</g>
</g>
<path fill="#c7b37f" d="m377.0452,324.3629c0-1.5871 1.1931-2.8734 2.6649-2.8734 1.4717,0 2.6649,1.2863 2.6649,2.8734 0,1.5868-1.1931,2.8733-2.6649,2.8733-1.4717,0-2.6649-1.2865-2.6649-2.8733z"/>
<g fill="none" stroke-miterlimit="3.864">
<g stroke="#703d29">
<g stroke-linecap="round" stroke-width=".987">
<path d="m358.5249,327.3941c1.0738,1.3471 2.3373,2.561 3.6298,3.6365 2.6212,2.1814 5.7119,4.1014 9.2721,5.1528"/>
<path d="m379.6729,336.9521c6.569-.789 10.2722-5.6837 9.538-11.4105-.5594-4.3633-4.5629-7.7182-7.2849-7.9123"/>
</g>
<g>
<path stroke-width=".881" d="m388.7298,326.6478-.5442,3.3819-.6607,1.4774-1.3606,1.8659-1.8271,1.3994-1.8659,.9328-3.6154,.8941"/>
<path stroke-width=".987" d="m402.8648,276.0541c-.9995,2.8889-2.8289,4.953-5.7237,6.2604-2.8866,1.3037-6.2274,.086-8.014-1.2922"/>
<path stroke-width=".881" d="m402.7632,274.4797-.6996,2.0213-.8552,1.4774-1.1664,1.6326-1.6327,1.4771-1.9436,.9331-1.6327,.3886-1.0108-.078"/>
</g>
<g stroke-width=".987">
<path d="m390.3858,268.9209c2.8494-.1053 4.4703,2.4831 4.4444,4.6645"/>
<path stroke-linecap="round" d="m395.3764,271.5788c-.5462,2.0066-1.6248,4.4933-4.7737,4.2213"/>
</g>
<g>
<path stroke-width=".881" d="m394.4053,272.6526 .0391,1.555"/>
</g>
</g>
<g stroke-linecap="round" stroke-width=".987">
<g>
<path stroke="#703d29" d="m389.7209,229.8064c1.5609,4.0831 4.6034,7.2753 7.8606,9.099"/>
</g>
<g stroke="#c7b37f">
<path d="m398.6894,240.1546c-1.2463-.7277-2.0081-1.046-3.1956-1.866-1.2078-.8341-1.8733-1.3453-2.9232-2.3713-.7572-.7395-1.1816-1.1707-1.8116-2.0213-.5622-.7595-.7778-1.257-1.275-2.0604"/>
<path d="m401.2006,224.7218c.3911,1.0459 .5029,1.6839 1.0029,2.6823 .6787,1.3552 1.2027,2.0671 2.2236,3.1877 1.4149,1.5525 2.6131,1.9917 4.2837,3.2653"/>
<path d="m410.9812,224.6053c.3881,.9398 .5065,1.5181 .9953,2.4099 .4319,.7885 .7296,1.2083 1.2984,1.9048 .7252,.8886 1.1968,1.3521 2.0992,2.0604 1.0491,.8236 1.7925,1.0671 2.9386,1.7492"/>
</g>
</g>
</g>
<path fill="#c7b37f" d="m424.9068,221.8079c-.1682-1.5919 .7876-2.9969 2.135-3.1379 1.3473-.1409 2.5762,1.035 2.7445,2.6271 .1684,1.5919-.7876,2.9967-2.1353,3.1379-1.3473,.141-2.5759-1.0349-2.7442-2.6271z"/>
<g stroke="#703d29" stroke-miterlimit="3.864">
<g fill="none">
<g stroke-width=".987">
<g>
<path stroke-linecap="round" d="m622.8588,287.2862c2.6862,3.6785 .9272,10.9318-6.379,11.0697-2.854,.054-5.4291-1.5283-6.9385-3.9244"/>
<path d="m383.8734,285.1954c-3.0236-2.9558-9.4291-3.7263-15.7983,.3022-.8186,.5181-1.6372,1.183-2.4479,1.8587-.8763,.7299-1.5753,1.5693-2.2506,2.4819-.7342,.9925-1.6361,2.6801-2.1811,3.8009-.7502,1.5438-1.0609,2.5579-1.4742,4.1408-1.163,4.4554-1.158,8.5959-1.0209,9.7761 .1763,1.5131 .3202,2.9035 .5676,4.1822 .8451,4.3715 2.1381,7.439 3.4753,9.6565 1.4067,2.3325 4.9053,7.6898 12.0583,8.3967 2.8112,.278 7.6121-1.0106 7.7675-4.6648"/>
</g>
<g stroke-linecap="round">
<path d="m568.3835,220.4172c.4784-2.5813 3.5892-3.0796 4.7582-1.555 1.8001,2.348 .6095,6.3818-3.0515,7.526-1.2441,.3889-4.1205,.2333-5.9865-2.1769-1.5125-1.9537-1.3969-4.3735-.8321-6.2969 .3655-1.2446 1.3642-2.3294 2.6981-3.3435 4.2511-3.2333 11.1178-2.4879 13.3724,2.9541 2.9085,7.0203-3.4207,12.2842-9.2519,16.2491-7.3409,4.9918-15.7046,5.8996-22.0026,5.8312-14.3055-.1556-25.1903-6.9973-32.2653-10.8845-1.6481-.9056-3.3456-.7207-4.1982,.3109-.9629,1.1644-.9475,3.0428 .3886,4.2759"/>
<path d="m571.258,218.0045c1.5162,.07 1.922,.6616 2.3868,1.2674 1.7998,2.348 .4849,6.3821-3.1761,7.526"/>
</g>
</g>
<g stroke-linecap="round">
<path stroke-width="1.121" d="m491.5003,224.7896c2.4029,1.8378 4.0994,4.0994 3.8166,7.7748-.3064,3.9863-1.2722,4.9476-4.382,7.0679"/>
</g>
<g>
<path stroke-width=".987" d="m596.398,239.2465 0,24.6855"/>
<path stroke-linecap="round" stroke-width="1.121" d="m494.6807,233.6953c-.1411,2.4029-1.1307,3.9579-3.5338,4.9473"/>
</g>
</g>
<g>
<path fill="#703d29" fill-rule="evenodd" stroke-width=".277" d="m520.7831,211.9111c-.0802-2.6489-2.6896-2.9243-3.6894-2.9243-2.8855,0-3.6661,1.7998-7.2657,3.7327-4.512,2.4231-6.4553,2.9615-10.4655,2.9975-4.0102-.036-6.0048-.5744-10.5168-2.9975-3.5994-1.9329-4.2052-3.6748-7.091-3.6748-1.5663,0-3.5895,1.353-3.5127,3.8327 0,0-.0301,.8031 .0932,1.3465 .0463,.2046 .2952,.1407 .3734,.3199-.0371-1.2024 .2076-1.8251 .8-2.6327 .7606-1.0378 2.0244-1.3133 2.5396-1.3133 2.8855,0 3.9537,1.8516 7.5533,3.7845 4.512,2.4231 6.4534,2.9615 10.4636,2.9975 4.0102-.036 6.0068-.5744 10.5187-2.9975 3.5997-1.9329 4.6341-3.9379 7.5198-3.9379 .9998,0 1.7053,.6472 2.0328,1.6665 .2017,.6269 .088,1.0451 .1403,1.2932 .0254,.1212 .1738,.1088 .2064,.2398 .1002-.4665 .3334-.6331 .3-1.7328z"/>
</g>
<g fill="none">
<g>
<path stroke-linecap="round" stroke-width="1.041" d="m435.8755,221.9627c0,2.6856-1.9791,4.3819-4.6648,4.9475"/>
</g>
<g stroke-width=".987">
<path stroke-linecap="round" d="m598.3444,307.3334c-5.4504,5.9325-.437,16.1158 3.6365,18.4176 1.4101,1.0966 2.0126,.5153 3.1404,1.1749"/>
<path d="m598.6289,295.991c-1.7883,1.2441-2.4184,2.6415-2.4879,5.0697-.0583,2.032 .296,4.2883 2.2034,6.2727 2.9713,3.0917 8.7859,5.7836 14.42,5.8542 3.0563,.038 6.2294-.6007 9.4218-2.7354 3.4131-2.2825 5.2093-5.3646 5.9868-8.3967"/>
<path d="m595.5833,398.5975c0,.018-.009,2.3885-.2118,3.8873-.5915,4.3631-1.2857,6.8737-3.2654,10.8066-1.9304,3.8354-3.4728,5.8491-6.5307,8.8632-3.0853,3.0411-5.2236,4.4343-9.0965,6.3754-3.7716,1.8902-6.1477,2.4912-10.2627,3.4207-4.1121,.9286-6.5175,1.1312-10.7292,1.3217-3.8619,.1747-6.0529,.011-9.9095-.2546-4.1273-.2857-6.4167-.8606-10.5381-1.2224-3.4038-.2992-5.3263-.5744-8.7431-.5659-3.5124,.01-5.525,.031-8.9834,.6435-3.2232,.5707-5.0517,1.0254-8.0857,2.2546-4.1979,1.7008-8.9409,4.6648-9.9517,5.9865-1.0108-1.3217-5.7541-4.286-9.9517-5.9865-3.034-1.2292-4.8626-1.6839-8.0857-2.2546-3.4584-.6123-5.471-.6345-8.9834-.6435-3.4171-.01-5.3396,.2667-8.7431,.5659-4.1217,.3618-6.4108,.9367-10.5382,1.2224-3.8569,.2667-6.0475,.4294-9.9095,.2546-4.2117-.1904-6.6171-.3931-10.7292-1.3217-4.1149-.9295-6.4911-1.5305-10.2627-3.4207-3.8729-1.9411-6.0113-3.3343-9.0965-6.3754-3.058-3.0141-4.6006-5.0278-6.5307-8.8632-1.9796-3.9329-2.6739-6.4435-3.2656-10.8066-.2033-1.4988-.2116-3.8687-.2116-3.8873 0,0 0-.0003 0-.0003v-159.0203h192.5489v159.0203l.0668,.0003z"/>
</g>
</g>
</g>
<path fill="#d52b1e" id="path4023" d="m515.1105,249.6349 12.253,0 0,81.23-12.253,0 0-81.23z"/>
<path fill="#d52b1e" stroke="#703d29" stroke-width=".797" d="m412.6645,249.2458 82.1791,0 0,82.0229-82.1791,0 0-82.0229z" stroke-miterlimit="3.864"/>
<use width="1000" height="700" xlink:href="#path2998" transform="matrix(-1 0 0 1 907.5206 0)"/>
<path fill="#fff" fill-rule="evenodd" id="path2998" d="m451.2008,313.8261c0,0-.048,2.9314-.8552,5.2867-.9331,2.7214-.9402,2.7214-1.7956,4.0429-1.1524,1.7809-2.5571,3.0827-3.8096,3.8875-1.9583,1.2584-3.9483,1.8876-5.9482,1.7103-5.491-.4865-8.0382-6.4401-9.2831-11.2734-1.3217-5.131-5.0733-7.9231-7.4638-6.0642-1.3994,1.0885-1.4782,2.9142-.3109,4.6651 1.2441,1.8657 4.0991,2.7988 4.0991,2.7988l-2.9327,3.7319c0,0-6.3019-.8205-7.5345-7.3932-.4663-2.4881 .7418-7.1335 4.891-8.5222 5.2968-1.7731 8.686,2.0041 10.3184,5.1916 2.2456,4.3836 3.2097,12.4342 9.4294,11.1901 3.3838-.6768 4.976-5.5979 4.976-7.8525l2.467-2.6434 3.6542,1.1664 .0986,.078z"/>
<g fill-rule="evenodd">
<path fill="#fedf00" d="m461.1168,278.95 10.7599-11.6429c0,0 1.624-1.3096 1.6096-3.4015l-2.2186,.3452-.4969-1.1416-.1105-1.1473 2.9817-.6292c.0473-.4843 .007-.8507 .092-1.385 .0795-.4939 .19-.7587 .3112-1.2441l-3.2656,.2188c.1659-.5715 .1281-.8754 .3109-1.4067 .154-.4469 .1968-.6177 .5029-1.1028 .6064-.091 1.158-.2279 1.9073-.3039 .7277-.073 1.1433-.039 1.8733-.085 1.781-3.3214 9.1894-6.3732 14.4538-.9042 3.8096,3.9582 2.9876,11.2189-1.9509,13.1394-2.7988,1.0885-5.0534,.4449-6.8617-1.1101l1.9709-3.8656c2.7211,1.6254 4.9757-.3959 4.8204-2.4952-.1968-2.6535-1.9186-4.2966-4.3538-4.5094-2.2543-.197-3.8726,1.093-4.8983,3.1101-.6258,1.2305-.3363,2.1332-.5442,3.4986-.2257,1.4833-.0988,2.3109-.5369,3.8096-.3182,1.0882-1.1549,2.4341-2.3697,3.5926l-11.0297,11.935-42.9413,46.445-3.2268-2.9831 43.2112-46.7368z"/>
<path fill="#fff" d="m429.51,283.0385c0,0 2.6995,13.3724 11.8736,33.4311 4.6651-1.7103 7.4191-2.7991 12.3619-2.7991 4.9431,0 7.6971,.9331 12.3619,2.7991 9.1742-20.0587 11.8737-33.4311 11.8737-33.4311l-24.2356-31.1766-24.2355,31.1766z"/>
</g>
<use width="1000" height="700" xlink:href="#path3006" transform="matrix(-1 0 0 1 907.5003 0)"/>
<path fill="#fedf00" fill-rule="evenodd" id="path3006" d="m451.3834,262.4124-16.8198,21.6369c0,0 2.2433,10.5195 9.0783,26.3539 2.646-.6025 4.9158-1.1276 7.7323-1.3195l.009-46.6713z"/>
<path fill="#0065bd" fill-rule="evenodd" id="path3012" d="m525.1309,364.1742c-.7969-.2375-1.9659-.8259-1.9659-.8259 .3228-.251 .5867-.2651 .8628-.5547 .3892-.4083 .3729-.7885 .5926-1.3192 .2157-.52 .1846-.9545 .6714-1.3428 .2896-.231 .7623-.269 1.1177-.1652 .3529,.1127 .7592,.4012 .8484,.7662 .1373,.5611-.1598,.8853-.2459,1.454-.0858,.5679-.293,.894-.1947,1.4599 .0651,.3743 .2263,.5186 .3534,.9072 0,0-1.2643-.1488-2.0399-.3796z"/>
<path fill="#0065bd" fill-rule="evenodd" id="path3014" d="m524.1354,365.1242c-.007-.3473 .2707-.634 .6179-.6399 .3475-.01 .634,.2707 .6402,.6179 .007,.3475-.2707,.634-.6179,.6399-.3475,.01-.634-.2704-.6402-.6179z"/>
<path fill="#0065bd" fill-rule="evenodd" id="path3016" d="m522.3842,348.61c0,0-.0898-.06-.1436-.1036-.3833-.3098-.4198-.6531-.6016-1.111-.1722-.4333-.2569-.6908-.3146-1.1534-.0506-.4058 0-.6396 0-1.0485 0-.3681 .0396-.5777 0-.9435-.0405-.3751-.0306-.6121-.21-.9438-.097-.1801-.3945-.3374-.3143-.4196 .0946-.097 .2569-.02 .4193,0 .3999,.048 .6309,.1657 .9438,.4196 .3771,.3058 .5265,.5709 .6717,1.0485 .1668,.5481 .2485,.8982 .4077,1.468 .0826,.2955 .1288,.4688 .2836,.7339 .161,.2758 .3197,.3838 .5243,.6292l-.0113,.023c-.2983,.327-.4438,.5394-.7767,.8338-.305,.2699-.56,.4033-.8467,.5729l-.0324-.01z"/>
<path fill="#d52b1e" fill-rule="evenodd" id="path3018" d="m524.625,346.9062c0,0-.3664,.1753-.5938,.2813-.2983,.3273-.4475,.519-.7812,.8125-.4429,.3892-.7688,.503-1.25,.8437-.2305,.163-.4193,.2156-.5938,.4375-.2522,.3208-.0791,.6292-.25,1-.1866,.405-.369,.5965-.6562,.9375-.3661,.4348-.6491,.6098-1.0625,1-.4182,.3951-.5875,.7265-1.0938,1-.1339,.072-.1983,.1425-.3438,.1875-.2155,.067-.3493-.011-.5625,.062-.3881,.1343-.5102,.5626-.7812,.7188 .112,.2178 .1069,.3725 .2188,.5937 .1579,.3234 .7051,1.2154 .8125,1.4375 .2091,.3051 .2701,.6996 .5312,.7813 .5377,.1681 .8586,.1532 1.3125,.125 .7921,.1818 1.2805,.1578 2.0312,.4687 .6129,.2539 .8626,.575 1.4688,.8438 .4742,.2102 .7719,.3394 1.2812,.4375 .3867,.074 .608,.132 1,.094 .2496-.024 .3768-.1197 .625-.1562 .0488-.01 .0809,0 .125,0l-.0312,.375c-.005,0 .005,.028 0,.031v.062h.0625l2.0625,.9063c-.0738,.1176-.1515,.2566-.1875,.375-.0981,.3205-.114,.6886-.0625,.8437 .6292,1.8877 1.1592,3.0684 1.4688,3.1875 .6154,.2364 .8059,.8649 1.1562,1.5-.1237,.1321-.2273,.2008-.3438,.3125-.6149,.5902-1.152,1.0093-1.6562,1.8125-.7454,1.1879-1.2487,1.2038-.3125,2.7813 .549,.9247 .8143,1.0994 1.5312,2.4062 .3616,.6591 .5622,1.1733 .7812,1.9688 .2071,.7519 .2779,1.1895 .3125,1.9687l.9688,.375 .6562-.6562 .625-1.1875 .0312-.9063c-.2386-.2026-.3076-.4733-.25-.7812 .0695-.3686 .5143-.2913 .7188-.625 .2831-.4615-.3315-.7344-.6562-1.0938-.6056-.6697-1.4305-.8329-1.625-1.8437-.0523-.2732 .0776-.4267 .375-.7188 .8552-.8399 1.1299-.9736 1.9688-1.8125 .242,.142 .6105,.1932 .9688,.125 .2791-.053 .5291,.1252 1.4062,.375 .6095,.1736 .8732,.086 1.2188,.031l.375-.094c.0504,.2114 .1115,.4157 .125,.6875 .0531,1.0604-.1547,2.9947 .1562,3.5 .1312,.2131 .1861,.3315 .2812,.5625 .0986,.2406 .2138,.3963 .2188,.6563 .0112,.6956 .0471,1.1405 0,1.875-.0441,.6911-.103,1.042-.2188,1.75-.074,.4511-.1659,.7136-.4375,1.0625-.2834,.3639-.5951,.4174-.9688,.6875l-.0937,1 1.125,.4687 1.2812,.3125 .6875-.2812c0-.2544 .0399-.399 .1562-.625 .1275-.2465 .2318-.4386 .4688-.5313 .3624-.1423 .7595,.1292 .9062-.094 .1595-.242 .0594-.3375 .0312-.75-.0453-.6621-.1835-.9888-.2812-1.6563-.1642-1.1107-.2098-1.6865-.1562-2.75 .0311-.6165 .0383-.9563 .1562-1.5625 .172-.8824 .4856-1.3112 .6875-2.1875 .2254-.9775 .2647-1.6062 .375-2.4687 3.1694,.4528 5.8074,.3972 9.3438-.375 .1691-.037 .75-.25 .75-.25 .7995,.6889 1.706,1.2642 2.7188,1.625-.006,.1016-.0158,.8456 0,.9687 .0365,.2876-.0414,.4813 .125,.7188 .1055,.1506 .196,.2396 .375,.2812 .2626,.061 .4548,.023 .6562-.1562 .2263-.2015 .1843-.4545 .25-.75 .032-.1407 .007-.5644 0-.6875 .3667,.055 .4912,.062 .875,.062 .3577,0 .5294,.014 .875-.031 .005,.081 .0199,.3689 .0312,.4688 .0268,.2443-.0757,.4347 .0312,.6562 .1109,.2296 .2495,.3592 .5,.4063 .206,.039 .3536,.018 .5312-.094 .2955-.1851 .2632-.4984 .3125-.8437 .0146-.11 .0113-.6919 0-.7813 .2116-.067 .8273-.2917 1.0312-.375-.005,.2426-.0388,.5168-.0937,.8125-.0699,.376-.1196,.5785-.25,.9375-.206,.5676-.4416,.8561-.75,1.375-.3768,.6338-.5729,.9854-1.0312,1.5625-.2111,.266-.3576,.3856-.5625,.6563-.2552,.3374-.3422,.5663-.5938,.9062-.3242,.4382-.5103,.724-.9375,1.0625-.6936,.5499-1.1499,.1099-2.0938,.8438l-.2188,1.0312 1.4375,.5313 1.2812,.25 .4375-.25c-.0118-.3011 .0319-.5139 .2188-.75 .2136-.2698 .4416-.3511 .7812-.4063 .3613-.059 .7468,.034 1.0312-.2187 .3501-.3109 .3487-.9141 .625-1.4688 .8583-1.7235 1.6209-2.5628 3-3.9062 .6126-.5966 1.1373-.7579 1.6562-1.4375 .2465-.3225 .5199-.4692 .5312-.875 .008-.2828-.144-.4151-.2188-.6875-.1036-.3771-.1875-1-.1875-1 1.5218,.7446 .9709,.6462 1.25,1.4062 .2255,.6149-.0325,1.0395 .0625,1.6875 .1111,.7559 .4661,1.1139 .5312,1.875 .0777,.9048-.143,1.4205-.3125,2.3125-.1489,.7846-.13,1.2768-.4688,2-.3225,.6889-.5709,1.0769-1.1562,1.5625-.2111,.175-.3684,.2503-.5938,.4063l-.125,1.0312 1.125,.375 1.625,.4375 .375-.3437c.1635-.6545-.0547-1.6165 .4062-1.6875 .4061-.062 .6928,.0001 .7812-.3125 .0367-.1314 .0589-.3259 .0937-.625 .2212-1.8859 .4215-3.6454 .625-4.5 .2301-.9677 .2145-1.178 .4062-1.9063 .1753-.6641-.0853-.2824 .4062-1.6875 .7342-2.0972-.2082-2.375-1.0625-3.6562-.462-.6931-.6218-.9442-.6875-1.5-.097-.8169 .1647-1.4947 .125-2.75-.041-1.3198-.0225-2.1591 0-2.875 .1154-.053 .2218-.1207 .3438-.1875 1.1706-.6427 1.6363-.8361 2.375-2.4688 .2239-.4955 .3195-.9937 .3125-1.4687-.005-.3321-.0648-.6522-.0937-1.0313-.0304-.399-.1909-.6375-.3125-.9375-.1295-.3182-.3244-.5586-.5625-.8437-.7724-.9247-1.7789-1.1319-2.7188-1.4688-1.4835-.5317-2.505-.4346-4.125-.5625-1.6721-.1321-2.6064-.1577-4.2812-.062-2.0067,.1143-3.1279,.519-5.125,.75-1.9158,.2217-2.9778,.3701-4.9062,.4063-2.2602,.042-4.4207-.4606-5.7812-.3438-2.451,.21-2.493,.7612-6.1875,1.0625-1.927,.1574-3.8438,.1875-3.8438,.1875l-2.1562-.6875c.8566-.3061 1.0661-.4881 1.4688-1.0312 .2718-.3661 .2333-.6784 .5625-1.0625 .2668-.3118 .443-.6224 .7812-.9688-.3101-.2491-.6429-.3763-.9375-.4375-.3639-.076-.5734-.042-.9375,0-.4941,.056-.7725,.1243-1.2188,.3438-.3593,.177-.624,.3574-.8438,.5937 0,0-1.2856-.8287-2.1875-1.2187-1.1186-.4843-1.6006-.7117-3-.9063zm1.9688,11.9063c.0213,0 .04,0 .0625,0-.0123,.01-.019,.022-.0312,.031l-.0312-.031z"/>
<g stroke="#fedf00" stroke-miterlimit="3.864">
<g>
<path fill="none" stroke-linecap="round" stroke-width=".987" d="m568.7654,359.5173-.7631,.244c-.867,.4021-1.5778,.4178-2.6001,.4961-2.6437,.2021-4.2713-1.0572-6.9976-.8476-1.4039,.108-2.0252,1.1909-3.4598,1.5483-.6526,.1625-1.0313,.2254-1.7016,.2819l.5127-1.0333c0,0-1.284,.2617-2.1153,.2634-.5963,.001-.936-.028-1.5235-.1301l1.0181-.9506c0,0-.8135-.1319-1.2936-.3351-.4426-.1871-.6835-.3301-1.06-.6292 .6633-.1139 1.0358-.1921 1.6893-.3535 1.5561-.3849 2.0399-1.147 3.8909-1.3254 1.149-.1112 3.0321-.046 7.6428,.7168 3.0357,.502 4.3822,.267 5.5354-.2572 .7609-.3459 1.0108-1.0108 1.1031-1.7883 .0925-.7764-.4041-1.4045-.8738-1.81-.1227-.106-.444-.3351-1.1129-.363"/>
<path fill="#fcd900" fill-rule="evenodd" stroke-width=".513" d="m524.7955,350.6059c-.5304-.066-.8844,.011-1.3397,.2915-.4804,.2958-.5417,.6965-.8881,1.142 .4452,.099 .6984,.3607 1.1419,.2538 .3467-.084 .5268-.2386 .7612-.5076 .3155-.3625 .4314-.6754 .4275-1.156l-.1027-.024z"/>
</g>
<g fill="none" stroke-linecap="round" stroke-width=".987">
<path d="m536.0445,363.794c0,0 .264,.4801 .4066,.7992 .2479,.5552 .3762,.8785 .5243,1.468 .2004,.7987 .1137,1.2838 .2409,2.0973 .0225,.1432 .0498,.2634 .0767,.3768l-.0511,1.1287"/>
<path d="m544.0371,362.7055c0,0-.2188,.8122-.354,1.3325-.352,1.3538-.6765,2.0871-.9438,3.4601-.0448,.2302-.0777,.4429-.1036,.6444"/>
</g>
</g>
<path fill="#0065bd" fill-rule="evenodd" id="path3028" d="m525.9842,359.2457 2.2309,1.0311c1.1481-.6348 2.4732-1.9239 3.4964-3.9191 .8808-1.7176 1.0206-2.6505 1.3639-4.3127l-1.7891-.5817-.3571,.073c-.5524,1.7233-.6925,2.704-1.6178,4.1926-.8023,1.2911-1.7185,2.3049-2.6491,3.0338l-.6782,.4834z"/>
<path fill="#0065bd" fill-rule="evenodd" id="path3032" d="m530.9163,377.3682c.3596-.4928 .5133-.8107 .9221-1.2635 .4562-.5051 .8-.7021 1.3116-1.151 .1556,.016 .3354-.011 .4812,.072-.0284,.5448-.0563,.9487-.1801,1.5407-.1004,.4804-.1864,.746-.347,1.2097-.1346,.3881-.1585,.6391-.3897,.979-.1542,.2266-.2901,.3158-.4759,.5178-.5105-.7418-1.3302-1.2967-1.3223-1.9053z"/>
<path fill="#0065bd" fill-rule="evenodd" id="path3034" d="m563.9261,379.2186c.5726,.2103 .9207,.2702 1.4686,.5384 .6112,.2994 .8954,.5757 1.4678,.9438 .0268,.154 .1038,.3188 .063,.4823-.5316,.1229-.9275,.2076-1.5308,.2516-.4893,.036-.7685,.027-1.2584,0-.4103-.023-.6582,.024-1.0485-.1047-.2606-.086-.3838-.192-.6289-.3146 .5724-.6954 .8799-1.6364 1.4672-1.7968z"/>
<path fill="#0065bd" fill-rule="evenodd" id="path3036" d="m554.1725,377.1816c.5726,.21 .9205,.2699 1.4683,.538 .6112,.2994 .8957,.5758 1.4681,.9438 .0263,.154 .1038,.3189 .063,.4826-.5316,.1227-.9275,.2074-1.5311,.2513-.4893,.036-.7682,.027-1.2581,0-.4103-.023-.6582,.024-1.0485-.1046-.2606-.086-.3838-.1918-.6292-.3146 .5726-.6954 .8799-1.6364 1.4675-1.7965z"/>
<path fill="#0065bd" fill-rule="evenodd" id="path3038" d="m536.8251,379.3115c.5729,.21 .9207,.2701 1.4686,.5383 .6112,.2991 .8957,.5758 1.4681,.9438 .0266,.154 .1038,.3189 .063,.4824-.5316,.1227-.9275,.2075-1.5311,.2515-.4893,.036-.7682,.027-1.2581,0-.4103-.022-.6582,.024-1.0485-.1049-.2606-.086-.3838-.1915-.6292-.3143 .5724-.6953 .8799-1.6363 1.4672-1.7967z"/>
<path fill="#0065bd" fill-rule="evenodd" id="path3040" d="m527.8532,349.5085c-.6126-.2781-1.0493-1.0446-.6607-1.5939 .1555-.2197 .4131-.1736 .5662-.3951 .1887-.2726 .1416-.5076 .136-.8388-.007-.3771-.1439-.5727-.2096-.9438-.072-.4058-.1391-.6363-.136-1.0485 .005-.6281-.0378-1.0756 .3456-1.5728 .2445-.3171 .6604-.5923 .8242-.6123 .1475,.1364-.0565,.502-.0322,.822 .0353,.462 .1306,.7173 .2876,1.1534 .2024,.5625 .4787,.8085 .7027,1.3631 .2085,.5156 .3999,.8074 .4196,1.3631 .0158,.4567-.0241,.7356-.2096,1.1535-.1643,.3695-.2997,.5791-.6095,.8388-.2693,.2252-.4584,.3251-.7964,.4193-.2473,.02-.4016-.01-.6278-.108z"/>
<g stroke="#fedf00" stroke-miterlimit="3.864">
<g fill="none" stroke-width=".987">
<g>
<path stroke-linecap="round" d="m531.7757,364.1739c.7902,.1756 .5442,3.3602 1.7889,4.0904"/>
<path d="m560.123,369.7805 .3844-.249c1.0139-.4146 1.9251-1.0271 2.6857-1.7897"/>
</g>
<g stroke-linecap="round">
<path d="m552.3795,368.0234c.002-.0005 .005-.0009 .007,0 3.533-.883 5.8849-2.6476 7.5787-2.8688"/>
<path d="m555.967,363.6088c.2989-.011 .5847-.033 .8293-.068 1.4681-.2096 1.7042,.6869 2.7262,1.2584 1.8564,1.0381 2.0973,2.307 4.299,3.3555 .1164,.055 .2233,.1069 .3214,.1551l.8473,.4288"/>
</g>
</g>
<g>
<path fill="#fcd900" fill-rule="evenodd" stroke-width=".513" d="m517.6958,354.5292c.2682,.067 .432,.08 .7074,.054 .3315-.031 .4837-.2378 .8164-.2488 .271-.01 .4626-.032 .6841,.1245 .1409,.099 .1999,.1894 .28,.3419 .0871,.1668 .163,.2823 .1245,.4666-.0595,.2842-.3242,.4173-.6143,.4198-.2372,0-.4339-.062-.5442-.2721-.0707-.1348-.0815-.2425-.0388-.3886-.2839,.1067-.4896,.1108-.7775,.016-.3031-.1002-.4747-.2386-.6374-.513z"/>
</g>
</g>
<use width="1000" height="700" xlink:href="#path3012" transform="translate(0 36.59044)"/>
<use width="1000" height="700" xlink:href="#path3014" transform="translate(0 36.59055)"/>
<use width="1000" height="700" xlink:href="#path3016" transform="translate(0 36.59045)"/>
<g stroke-miterlimit="3.864">
<g>
<path fill="none" stroke="#fedf00" stroke-linecap="round" stroke-width=".987" d="m568.7654,396.108-.7631,.2437c-.867,.4021-1.5778,.4178-2.6001,.4961-2.6437,.2019-4.2713-1.0572-6.9976-.8476-1.4039,.108-2.0255,1.1909-3.4598,1.5483-.6526,.1625-1.0313,.2254-1.7016,.2819l.5127-1.0333c0,0-1.284,.2617-2.1153,.2634-.5963,.001-.936-.028-1.5235-.1297l1.0181-.9508c0,0-.8135-.1319-1.2936-.3351-.4426-.1871-.6835-.3301-1.06-.629 .6633-.1141 1.0358-.1922 1.6893-.3537 1.5561-.3849 2.0399-1.1467 3.8909-1.3254 1.149-.1112 3.0321-.046 7.6428,.7167 3.0357,.5021 4.3822,.2671 5.5354-.2572 .7609-.3458 1.0108-1.0108 1.1031-1.7882 .0925-.7764-.4041-1.4045-.8738-1.81-.1227-.106-.444-.3352-1.1129-.3627"/>
<path fill="#fedf00" stroke="#fcd900" fill-rule="evenodd" stroke-width=".513" d="m524.7955,387.1966c-.5304-.066-.8844,.011-1.3397,.2913-.4804,.296-.5417,.6967-.8881,1.1419 .4452,.099 .6984,.3607 1.1419,.2538 .3467-.083 .5268-.2386 .7612-.5077 .3157-.3624 .4314-.6753 .4275-1.1559l-.1027-.024z"/>
</g>
<g fill="none" stroke="#fedf00" stroke-linecap="round" stroke-width=".987">
<path d="m536.0445,398.6881c0,0 .264,.4798 .4066,.7992 .2479,.5549 .3762,.8783 .5243,1.4681 .2004,.7983 .1137,1.2837 .2409,2.097 .0225,.1436 .0498,.2636 .0767,.377l-.0511,1.1284"/>
<path d="m544.0371,399.2959c0,0-.2188,.8122-.354,1.3325-.352,1.3538-.6765,2.0871-.9438,3.4601-.0448,.2302-.0777,.4429-.1036,.6444"/>
</g>
</g>
<use width="1000" height="700" xlink:href="#path3028" transform="translate(0 36.5905)"/>
<use width="1000" height="700" xlink:href="#path3032" transform="translate(0 36.5906)"/>
<use width="1000" height="700" xlink:href="#path3034" transform="translate(0 36.59055)"/>
<use width="1000" height="700" xlink:href="#path3036" transform="translate(0 36.5904)"/>
<use width="1000" height="700" xlink:href="#path3038" transform="translate(0 36.5904)"/>
<use width="1000" height="700" xlink:href="#path3040" transform="translate(0 36.59055)"/>
<g stroke-miterlimit="3.864">
<g fill="none" stroke="#fedf00" stroke-width=".987">
<g>
<path stroke-linecap="round" d="m531.7757,400.7643c.7902,.1756 .5442,3.3602 1.7889,4.0907"/>
<path d="m560.123,406.3709 .3844-.249c1.0139-.4145 1.9251-1.0271 2.6857-1.7897"/>
</g>
<g stroke-linecap="round">
<path d="m552.3795,404.6138c.002-.0005 .005-.0008 .007,0 3.533-.883 5.8849-2.6474 7.5787-2.8686"/>
<path d="m555.967,400.199c.2989-.011 .5847-.033 .8293-.068 1.4681-.2096 1.7042,.6869 2.7262,1.2584 1.8564,1.0381 2.0973,2.3069 4.299,3.3554 .1164,.055 .2233,.1069 .3214,.1551l.8473,.4289"/>
</g>
</g>
<g fill-rule="evenodd">
<g fill="#fedf00">
<path stroke="#fcd900" stroke-width=".513" d="m517.6958,391.1196c.2682,.067 .432,.08 .7074,.054 .3315-.031 .4837-.2378 .8164-.2488 .271-.01 .4626-.032 .6841,.1245 .1409,.099 .1999,.1893 .28,.3422 .0871,.1666 .163,.2822 .1245,.4665-.0595,.284-.3242,.4171-.6143,.4196-.2372,0-.4339-.062-.5442-.2718-.0707-.1349-.0815-.2426-.0388-.3889-.2839,.1067-.4896,.111-.7775,.016-.3031-.1002-.4747-.2384-.6374-.513z"/>
<path stroke="#703d29" stroke-width=".797" d="m412.9687,402.4068c.2333,1.4774 .7592,4.0119 2.1625,6.6087 1.4771,2.3322 .9328,2.2689 4.2761,6.0008 1.6456,1.837 4.2137,3.4109 6.2271,4.4948 2.0213,1.0885 3.5169,1.6229 6.8417,2.4952 6.5175,1.7104 11.0908,1.817 16.5742,1.5984 4.2781-.1709 7.5443-.6973 10.2489-1.0615 3.8574-.5189 6.7305-.8278 11.1178-1.0105 2.1333-.089 4.149-.1101 6.1421,0 2.4057,.1326 4.7818,.5054 7.3085,1.0105 5.442,1.0885 10.9622,3.1877 10.9622,3.1877l.0135-85.6552-82.1932-.023v58.5432c0,0 .1686,2.8599 .3183,3.8096z"/>
</g>
<g fill="#d52b1e" stroke="#d52b1e" stroke-width=".513">
<path d="m422.5084,416.8386c1.3085,.8439 2.6502,1.3851 3.8518,2.0225 1.9684,1.0449 2.8925,1.2946 5.2782,2.1489l-.005-80.4427h-9.1264v76.0542l.001-.011 .0004,.2284z"/>
<path d="m468.1686,421.1444 .0113-80.5771-9.1435,0 0,81.3003c0,0 6.2572-.5369 9.1311-.7232z"/>
<path d="m486.4073,340.5673-9.1134,0 0,80.2411c2.9699,.3213 6.0236,.7634 9.1311,1.5941l-.018-81.8352z"/>
</g>
</g>
<g fill="none" stroke="#703d29">
<path stroke-width=".997" d="m620.4886,275.0313c7.3898-.1509 28.8592,5.6392 29.012,30.876 .1508,24.9249-15.383,28.9968-21.6073,30.6557"/>
<path stroke-width="1.037" d="m622.4257,275.0282c12.7429-.5541 25.8924,8.8261 26.4715,32.2363 .4525,18.2893-12.5175,26.5838-18.7418,28.2426"/>
</g>
</g>
<use width="1000" height="700" xlink:href="#path4023" transform="translate(23.48041)"/>
<use width="1000" height="700" xlink:href="#path4023" transform="translate(46.96097)"/>
<path fill="#d52b1e" stroke="#d52b1e" fill-rule="evenodd" stroke-width=".513" d="m449.9246,340.5673 0,82.4121c-.0903,.01-6.1007,.1384-9.1733-.1794l.002-82.2183 9.1708-.014z" stroke-miterlimit="3.864"/>
</svg>
