<svg width="900" xmlns="http://www.w3.org/2000/svg" height="600" viewBox="0 0 450 300">
<path fill="#fff" d="m0,0h450v300h-450z"/>
<path fill="#0038a8" d="m0,100h450v200h-450z"/>
<path fill="#ce1126" d="m0,200h450v100h-450z"/>
<path fill="#fff" fill-rule="evenodd" d="m77.8021,70.5194c-6.0444,.4579-4.339,7.7877-5.0891,11.9499-2.132,28.681-5.0771,58.2876 3.6826,86.2214 6.9097,22.5442 23.4231,41.1488 43.4335,53.1474 4.9252,2.7392 9.7226,6.1797 15.1704,7.662 5.7033-1.5991 10.7417-5.1899 15.8875-8.1067 19.6956-11.9854 35.8858-30.4396 42.7164-52.7027 8.895-28.4009 5.7277-58.4887 3.572-87.6344-.314-4.0104 .2907-10.9707-5.6337-10.5368-37.9132,0-75.8264,0-113.7395,0z"/>
<g transform="matrix(.5 0 0 .5 -.00005 150.0002)">
<path fill="#ce1126" fill-rule="evenodd" d="m270.0001-150.0003v299.9814c-138.729-67.2101-123.56-178.531-114.4069-299.9814h114.4069zv299.9814c138.729-67.2101 123.56-178.531 114.4069-299.9814h-114.4069z"/>
</g>
<g fill="#fff" fill-rule="evenodd" transform="matrix(.5 0 0 .5 -.00005 150.0002)">
<path d="m286.1995-67.7133c14.5994,0 29.4794,2.6592 43.7983,5.4942-4.238-13.906-4.238-22.4033 0-36.3093-14.3189,2.835-29.1989,5.4942-43.7983,5.4942h-32.3987c-14.5994,0-29.4794-2.6592-43.7983-5.4942 4.238,13.906 4.238,22.4033 0,36.3093 14.3189-2.835 29.1989-5.4942 43.7983-5.4942h32.3987z"/>
<path d="m298.799-13.0822c14.5994,0 29.4794,2.6592 43.7983,5.4942-4.238-13.906-4.238-22.4033 0-36.3093-14.3189,2.835-29.1989,5.4942-43.7983,5.4942h-57.5977c-14.5994,0-29.4794-2.6592-43.7983-5.4942 4.238,13.906 4.238,22.4033 0,36.3093 14.3189-2.835 29.1988-5.4942 43.7983-5.4942h57.5977z"/>
<path d="m251.7561-138.5038c2.8482,14.2525 5.5198,29.0633 5.5198,43.595v185.7864l25.439,0v-185.7864c0-14.5317 2.6716-29.3426 5.5198-43.595-13.9708,4.2183-22.5078,4.2183-36.4786,0z"/>
</g>
<g fill="#0038a8" fill-rule="evenodd" transform="matrix(.95996 0 0 .95551 -44.99522 -422.7143)">
<path d="m157.5,623.3438c-8.5646,0-15.5,6.9354-15.5,15.5 0,.6529 .1091,1.2744 .1875,1.9062 2.9853,4.4291 6.4773,8.6781 10.5,12.7812 1.5255,.5018 3.1198,.8438 4.8125,.8438 8.5646,0 15.5312-6.9667 15.5312-15.5312 0-8.5646-6.9667-15.5-15.5312-15.5z"/>
<path d="m187.5,614.1875c-10.8881,0-19.7188,8.8619-19.7188,19.75 0,10.8881 8.8306,19.7187 19.7188,19.7188 10.8881,0 19.7187-8.8306 19.7188-19.7188 0-10.8881-8.8306-19.75-19.7188-19.75z"/>
<path d="m217.5,623.3438c-8.5646,0-15.5,6.9354-15.5,15.5 0,8.5646 6.9354,15.5312 15.5,15.5312 1.6927,0 3.287-.3419 4.8125-.8438 4.0335-4.1142 7.5405-8.3706 10.5312-12.8125 .076-.6219 .1875-1.2327 .1875-1.875 0-8.5646-6.9667-15.5-15.5312-15.5z"/>
<path d="m144.625,644.125c9.475,12.7184 23.0998,24.1248 42.875,33.75 19.7752-9.6252 33.4-21.0316 42.875-33.75h-85.75z"/>
</g>
</svg>
