<svg xmlns="http://www.w3.org/2000/svg" viewBox="0 0 1200 600" xmlns:xlink="http://www.w3.org/1999/xlink">
<defs/>
<path fill="#fff" d="m0,200h1200v200h-1200z"/>
<path fill="#00298c" d="m0,400h1200v200h-1200z"/>
<path fill="#de1818" d="m0,0h1200v200h-1200z"/>
<g fill-rule="evenodd">
<path fill="#fff" stroke="#de1818" stroke-linecap="round" stroke-width="1.601" d="m480.7776,197.1139c36.832-13.1029 77.67-20.1727 117.584-20.2734 39.914-.1007 80.6195,6.1623 120.8417,20.5758l29.9397-60.4016-21.044-36.6581c0,0-37.5455,15.4216-37.8537,15.4216-.3083,0-26.4731-28.7962-26.4731-28.7962l-33.6002,20.3014-31.5518-24.13-29.6787,23.7578-34.6481-20.0269-25.2736,30.0333-37.8821-16.1982-20.2806,36.323 29.9206,60.0715z"/>
<path fill="#087ba5" stroke="#3477d9" stroke-width=".5" d="m672.7137,180.3591l17.1439-60.607 36.7141-14.9 19.3422,32.4784-27.7708,56.805c-15.9638-6.3784-24.5159-9.1111-45.4294-13.7764z"/>
<path stroke-opacity=".996" fill="none" stroke-width="1.25" d="m527.381,180.5172l-16.0247-59.584 24.1108-29.593 34.3077,19.8072 5.7901,62.6338c-16.7632,1.2439-28.8793,2.836-48.1838,6.736z"/>
<g fill="#087ba5" stroke="#3477d9" stroke-width=".5">
<path d="m576.0417,173.7961l-5.7894-62.7681 29.1764-23.1936 30.4837,23.1375-5.3867,62.8806c-16.7963-.8883-28.7916-.8615-48.484-.0564z"/>
<path d="m482.2207,194.0997l-27.197-57.5298 18.1757-31.7584 37.678,16.4 15.9202,59.3521c-17.2029,3.5575-26.3127,6.4643-44.5768,13.5361z"/>
</g>
<path fill="#fff" stroke="#fff" stroke-width=".457" d="m476.4305,165.2255c8.3494,.8046 14.2051,.3666 21.3997-2.0669 8.495-3.977 11.1967-8.5971 13.7353-12.3425 2.0196,7.2893 1.2509,14.1134-8.3555,19.6899-8.6707,4.494-21.0536,3.1677-26.7794-5.2806z"/>
<g stroke="#cca300">
<g stroke-width=".5">
<path fill="#fffa00" d="m607.375,120.7734l-1.6414,.4027 .063,2.9725-2.0199,.4336-1.4127,2.6214 .8722,.8101c.0448,.0876-.688,1.9389-.6565,1.9389 .0315,0 .5345,.6983 .5345,.6983l.5365,1.6103 1.357,.1855 .3474,1.8889 2.146,.3405 1.9884,1.3935 .126,.8672 2.2724,.0618 1.5468,.4954 5.3968-.6195 .726-1.1145 .063-1.5172 2.9038-.0931 .2654-2.4196h1.5388l-.1915-2.7248 1.2834,.1133-.3313-1.3059-.7979-1.0634-.1576-1.6718-2.2724-2.2294-.505-2.9107c0,0-1.4519-.6504-1.4519-.6813 0-.0309-.0945-1.9508-.0945-1.9508l1.641-2.2603-.1576-.8977-1.5149-.0313-1.1364,.929c0,0-1.5149,.155-1.5149,.1859 0,.0309 0,.6813 0,.6813 0,0 .3789,1.2695 .3789,1.3004 0,.0309-1.7359,0-1.7359,0l-.0634-2.0126-2.4615-1.2076c0,0-2.3039,1.5481-2.3039,1.579 0,.0309-.1264,1.7962-.1264,1.7962l-1.1045,.3095-1.1364-1.6721-1.9884-.7431-1.073-.0618-.0315,1.3004 2.0829,2.6939-.1891,1.579z"/>
<g fill="none">
<path d="m622.846,131.6623l-.4464-1.6202"/>
<path d="m624.0955,128.991l-.7587-1.0947"/>
</g>
<path fill="#cca300" d="m603.296,127.7651l2.3657-.1316 .4464,2.1018 .8031,.7007 .1341,3.8536 .7587,.3064 .2234-1.5326 1.83-.1312 .3567,3.1088-.446,.3944 .1786,.4815 2.1868-.0436c0,0 .4912-.8323 .5357-.8323 .0448,0 1.2499-.1312 1.2499-.0876 0,.044 .4908,.9199 .4908,.9199l.3571-1.1827c0,0 1.1606-.4815 1.1606-.4376 0,.0436 .9372,1.4886 .9372,1.4886l1.6067-.2188-.9817-.9195-.402-2.0146 2.2316-1.1823 .8928,1.489c0,0 .848,.0436 .8035,0-.0448-.044-.9821-1.7078-.9821-1.7078v-3.5032l1.6963-2.2769 2.3653-.2628v-.9635l-2.3653-2.1458-.625-2.9777-1.3392-.6567-.3571,.394-1.4729,.1316 1.4729,2.1458v1.401l.6698,.3504-.1341,3.8536c0,0-1.6515,.2188-1.6515,.2628 0,.0436-.1337,2.1454-.1337,2.1454l-1.0265,1.0075c0,0-.5805,2.0142-.625,2.0142-.0448,0-.9821,1.2259-.9821,1.2259l-1.83,.044c0,0-1.071-1.0071-1.071-1.0511 0-.0436-.1786-1.4886-.1786-1.4886 0,0-.7142-.2192-.7591-.2192-.0444,0-.4016-1.6202-.4016-1.6202l-1.2499-.7003-.0889-.9635-1.2055-.5255c0,0-.1337-.8759-.1786-.9195-.0444-.044-.5801-.394-.6246-.394-.0448,0-.0448-2.4085-.0448-2.4085l1.0714-.1752-.5999-.7689-.2036-.6762v-.7007l.8928-.8759c0,0-1.607-.2188-1.607-.1752 0,.044-1.5618,.7007-1.5618,.6571 .0444,0-.0448,2.8461-.0448,2.8461l-1.8301,.5695-1.4729,2.3205 .7587,.6571z"/>
</g>
<path fill="#663d19" stroke-width=".2" d="m612.5355,131.6623l1.2051-.7007-.0448-1.3575-1.1602-.2628-.4468-.438 1.2948,.2192 1.6066-.1316 .5357-.2628c-.223,.5695-.4016,.5255-.4464,.5255-.0444,0-.8924,.438-.8924,.438l.0444,1.3139c0,0 2.7673,.35 2.7228,.35-.0448,0 0,.5255-.0893,.5255-.0893,0-2.8566-.6131-2.8566-.6131l-1.7408,1.0511 .2678-.6567z"/>
<path fill="#cca300" stroke-width=".5" d="m619.4982,123.5176l-1.6066,1.2259-1.0265,1.7954-.5357,.0876-1.5622-2.0582-1.7852,.044c0,0-.9821,2.4081-.9821,2.4521 0,.0436-.7142-.0876-.7142-.0876l-1.8745-2.0142c0,0-.5805-1.0075-.4912-1.0075 .0893,0 4.6866,.044 4.6866,.044l-.0444-2.1894c0,0-.7142-.2192-1.0714-.438 .2678-.0876 2.5443-.0876 2.5443-.0876l-.9821,.6567v1.883l4.0617,.0436 1.3836-.35z"/>
</g>
<g fill="#663d19" stroke-width="1.25">
<path d="m611.177,124.568h.396a.338,.3316 0 0,1 .337,.332v.388a.338,.3316 0 0,1 -.337,.331h-.396a.338,.3316 0 0,1 -.338-.331v-.388a.338,.3316 0 0,1 .338-.332"/>
<path d="m616.266,124.349h.395a.338,.3316 0 0,1 .338,.332v.388a.338,.3316 0 0,1 -.338,.331h-.395a.338,.3316 0 0,1 -.338-.331v-.388a.338,.3316 0 0,1 .338-.332"/>
</g>
<g stroke="#cca300">
<g stroke-width=".5">
<path fill="none" d="m608.429,121.0651c1.6959-.6714 2.901-1.2112 4.9989-1.401 1.9787-.2045 3.5114,.0729 5.2667,.394"/>
<g fill="#cca300">
<path d="m609.3663,117.5183h-1.3836l-1.9642-2.0582 1.1162,.1316 1.2944,.5691 .9372,1.3574z"/>
<path d="m617.713,116.73l3.1244-2.3641-1.0265-.1316-1.1606,1.0507-1.3836,.2192 .4464,1.2259z"/>
<path d="m615.8708,117.1644l-4.8975,.1787 .0444-.5255 1.7856-.1752 .223-.7003c0,0 .5357-.0436 .5357,0 0,.044 .4016,.6567 .4016,.6567l1.7408,.3064 .1664,.2592z"/>
<path d="m615.6151,115.3289l-1.6959,.0436-.1341-.9195 1.8301,.8759z"/>
<path d="m612.7585,114.497l-.1341,.9191-1.6511,.2628 1.7852-1.1819z"/>
<path d="m603.3853,131.268l.848-2.1018-.7587-1.445-.7587,2.1458 .6694,1.401z"/>
<path d="m605.0814,132.4068l1.0265-2.4961-1.9638,2.0142 .9373,.4819z"/>
</g>
<path fill="#fffa00" d="m580.2801,121.6486l-1.6414,.4027 .063,2.9725-2.0199,.4336-1.4127,2.6214 .8722,.8101c.0448,.0876-.688,1.9389-.6565,1.9389 .0315,0 .5345,.6984 .5345,.6984l.5365,1.6103 1.357,.1855 .3474,1.8889 2.146,.3405 1.9884,1.3935 .1261,.8672 2.2724,.0618 1.5469,.4954 5.3968-.6195 .726-1.1145 .063-1.5172 2.9038-.0931 .2654-2.4196h1.5388l-.1915-2.7248 1.2835,.1134-.3313-1.3059-.7979-1.0634-.1576-1.6717-2.2724-2.2294-.505-2.9107c0,0-1.4519-.6504-1.4519-.6813 0-.0309-.0945-1.9508-.0945-1.9508l1.641-2.2603-.1576-.8977-1.5149-.0313-1.1364,.929c0,0-1.5149,.155-1.5149,.1859 0,.0309 0,.6813 0,.6813 0,0 .3789,1.2695 .3789,1.3004 0,.0309-1.7359,0-1.7359,0l-.0634-2.0126-2.4615-1.2076c0,0-2.3039,1.5481-2.3039,1.579 0,.0309-.1265,1.7962-.1265,1.7962l-1.1045,.3095-1.1364-1.6721-1.9884-.7431-1.073-.0618-.0315,1.3004 2.0829,2.6939-.1891,1.579z"/>
<g fill="none">
<path d="m595.7511,132.5375l-.4464-1.6202"/>
<path d="m597.0006,129.8662l-.7587-1.0947"/>
</g>
<path fill="#cca300" d="m576.2011,128.6404l2.3657-.1316 .4464,2.1018 .8031,.7007 .1341,3.8536 .7587,.3064 .2234-1.5326 1.83-.1312 .3567,3.1089-.446,.3943 .1786,.4815 2.1868-.0436c0,0 .4912-.8323 .5357-.8323 .0448,0 1.2499-.1312 1.2499-.0876 0,.044 .4908,.9199 .4908,.9199l.3571-1.1827c0,0 1.1606-.4815 1.1606-.4376 0,.0436 .9372,1.4886 .9372,1.4886l1.6067-.2188-.9817-.9195-.402-2.0146 2.2316-1.1823 .8928,1.489c0,0 .848,.0436 .8035,0-.0448-.044-.9821-1.7078-.9821-1.7078v-3.5032l1.6963-2.277 2.3653-.2628v-.9635l-2.3653-2.1458-.625-2.9777-1.3392-.6567-.3571,.394-1.4729,.1316 1.4729,2.1458v1.401l.6698,.3504-.1341,3.8536c0,0-1.6515,.2188-1.6515,.2628 0,.0436-.1337,2.1454-.1337,2.1454l-1.0265,1.0075c0,0-.5805,2.0142-.625,2.0142-.0448,0-.9821,1.2259-.9821,1.2259l-1.8301,.044c0,0-1.071-1.0071-1.071-1.0511 0-.0436-.1786-1.4886-.1786-1.4886 0,0-.7142-.2192-.7591-.2192-.0444,0-.4016-1.6202-.4016-1.6202l-1.2499-.7003-.0889-.9635-1.2055-.5255c0,0-.1337-.8759-.1786-.9195-.0444-.044-.5801-.394-.6246-.394-.0448,0-.0448-2.4085-.0448-2.4085l1.0714-.1752-.5999-.7689-.2036-.6761v-.7007l.8928-.8759c0,0-1.607-.2188-1.607-.1752 0,.044-1.5618,.7007-1.5618,.6571 .0444,0-.0448,2.8461-.0448,2.8461l-1.83,.5695-1.4729,2.3206 .7587,.6571z"/>
</g>
<path fill="#663d19" stroke-width=".2" d="m585.4406,132.5375l1.2051-.7007-.0448-1.3574-1.1602-.2628-.4468-.438 1.2948,.2192 1.6067-.1316 .5357-.2628c-.223,.5695-.4016,.5255-.4464,.5255-.0444,0-.8924,.438-.8924,.438l.0444,1.3139c0,0 2.7673,.35 2.7228,.35-.0448,0 0,.5255-.0893,.5255-.0893,0-2.8566-.6131-2.8566-.6131l-1.7408,1.0511 .2678-.6567z"/>
<path fill="#cca300" stroke-width=".5" d="m592.4033,124.3928l-1.6066,1.2259-1.0265,1.7954-.5357,.0876-1.5622-2.0582-1.7852,.044c0,0-.9821,2.4081-.9821,2.4521 0,.0436-.7142-.0876-.7142-.0876l-1.8745-2.0142c0,0-.5805-1.0075-.4912-1.0075 .0893,0 4.6866,.044 4.6866,.044l-.0444-2.1894c0,0-.7142-.2192-1.0714-.438 .2678-.0876 2.5443-.0876 2.5443-.0876l-.9821,.6567v1.883l4.0617,.0436 1.3836-.35z"/>
</g>
<g fill="#663d19" stroke-width="1.25">
<path d="m584.082,125.444h.396a.338,.3316 0 0,1 .338,.331v.388a.338,.3316 0 0,1 -.338,.331h-.396a.338,.3316 0 0,1 -.338-.331v-.388a.338,.3316 0 0,1 .338-.331"/>
<path d="m589.171,125.225h.395a.338,.3316 0 0,1 .338,.331v.388a.338,.3316 0 0,1 -.338,.332h-.395a.338,.3316 0 0,1 -.338-.332v-.388a.338,.3316 0 0,1 .338-.331"/>
</g>
<g stroke-width=".5">
<g stroke="#cca300">
<path fill="none" d="m581.3341,121.9403c1.6959-.6714 2.901-1.2112 4.9989-1.401 1.9787-.2045 3.5114,.0729 5.2667,.394"/>
<g fill="#cca300">
<path d="m582.2713,118.3935h-1.3836l-1.9642-2.0582 1.1162,.1316 1.2944,.5691 .9372,1.3575z"/>
<path d="m590.6181,117.6052l3.1244-2.3641-1.0265-.1316-1.1606,1.0507-1.3836,.2192 .4464,1.2259z"/>
<path d="m588.7759,118.0396l-4.8975,.1788 .0444-.5255 1.7856-.1752 .223-.7003c0,0 .5357-.0436 .5357,0 0,.044 .4016,.6567 .4016,.6567l1.7408,.3064 .1664,.2592z"/>
<path d="m588.5202,116.2041l-1.6959,.0436-.1341-.9195 1.8301,.8759z"/>
<path d="m585.6636,115.3722l-.1341,.9191-1.6511,.2628 1.7852-1.1819z"/>
<path d="m576.2904,132.1432l.848-2.1018-.7587-1.445-.7587,2.1458 .6694,1.401z"/>
<path d="m577.9865,133.282l1.0265-2.4961-1.9638,2.0142 .9372,.482z"/>
</g>
</g>
<path fill="#00298c" stroke="#000082" d="m624.9583,173.7669l5.4242-62.9539 33.3359-19.1807 25.7688,27.93-17.1737,60.6514c-16.6462-3.3995-26.1439-4.8562-47.3551-6.4469z"/>
<g stroke="#cca300">
<path fill="#fffa00" d="m594.3293,145.1678l-1.6414,.4027 .063,2.9725-2.0199,.4336-1.4127,2.6214 .8722,.8101c.0448,.0876-.688,1.9389-.6565,1.9389 .0315,0 .5345,.6983 .5345,.6983l.5365,1.6103 1.357,.1855 .3474,1.8889 2.146,.3404 1.9884,1.3935 .126,.8672 2.2724,.0618 1.5468,.4954 5.3968-.6195 .726-1.1145 .063-1.5172 2.9038-.0931 .2654-2.4196h1.5388l-.1915-2.7248 1.2835,.1134-.3313-1.3059-.7979-1.0634-.1576-1.6717-2.2724-2.2294-.505-2.9107c0,0-1.4519-.6504-1.4519-.6813 0-.0309-.0945-1.9508-.0945-1.9508l1.641-2.2603-.1576-.8977-1.5149-.0313-1.1364,.929c0,0-1.5149,.155-1.5149,.1859 0,.0309 0,.6813 0,.6813 0,0 .3789,1.2695 .3789,1.3004 0,.0309-1.7359,0-1.7359,0l-.0634-2.0126-2.4615-1.2076c0,0-2.3039,1.5481-2.3039,1.579 0,.0309-.1264,1.7962-.1264,1.7962l-1.1045,.3095-1.1364-1.6721-1.9884-.7431-1.073-.0618-.0315,1.3004 2.0829,2.6939-.1891,1.579z"/>
<g fill="none">
<path d="m609.8003,156.0567l-.4464-1.6202"/>
<path d="m611.0498,153.3854l-.7587-1.0947"/>
</g>
<path fill="#cca300" d="m590.2503,152.1595l2.3657-.1316 .4464,2.1018 .8031,.7007 .1341,3.8536 .7587,.3064 .2234-1.5326 1.83-.1312 .3567,3.1088-.446,.3944 .1786,.4815 2.1868-.0436c0,0 .4912-.8323 .5357-.8323 .0448,0 1.2499-.1312 1.2499-.0876 0,.044 .4908,.9199 .4908,.9199l.3571-1.1827c0,0 1.1606-.4815 1.1606-.4375 0,.0436 .9372,1.4886 .9372,1.4886l1.6066-.2188-.9817-.9195-.402-2.0146 2.2316-1.1823 .8928,1.489c0,0 .848,.0436 .8035,0-.0448-.044-.9821-1.7078-.9821-1.7078v-3.5032l1.6963-2.2769 2.3653-.2628v-.9635l-2.3653-2.1458-.625-2.9777-1.3392-.6567-.3571,.3939-1.4729,.1316 1.4729,2.1458v1.401l.6698,.3504-.1341,3.8536c0,0-1.6515,.2188-1.6515,.2628 0,.0436-.1337,2.1454-.1337,2.1454l-1.0265,1.0075c0,0-.5805,2.0142-.625,2.0142-.0448,0-.9821,1.2259-.9821,1.2259l-1.8301,.044c0,0-1.071-1.0071-1.071-1.0511 0-.0436-.1786-1.4886-.1786-1.4886 0,0-.7142-.2192-.7591-.2192-.0444,0-.4016-1.6202-.4016-1.6202l-1.2499-.7003-.0889-.9635-1.2055-.5255c0,0-.1337-.8759-.1786-.9195-.0444-.044-.5801-.394-.6246-.394-.0448,0-.0448-2.4085-.0448-2.4085l1.0714-.1752-.5999-.7689-.2036-.6762v-.7007l.8928-.8759c0,0-1.607-.2188-1.607-.1752 0,.044-1.5618,.7007-1.5618,.6571 .0444,0-.0448,2.8461-.0448,2.8461l-1.8301,.5695-1.4729,2.3205 .7587,.6571z"/>
</g>
</g>
<g stroke="#cca300">
<path fill="#663d19" stroke-width=".2" d="m599.4898,156.0567l1.2051-.7007-.0448-1.3575-1.1602-.2628-.4468-.438 1.2948,.2192 1.6066-.1316 .5357-.2628c-.223,.5695-.4016,.5255-.4464,.5255-.0444,0-.8924,.438-.8924,.438l.0444,1.3139c0,0 2.7673,.35 2.7229,.35-.0449,0 0,.5255-.0893,.5255-.0893,0-2.8566-.6131-2.8566-.6131l-1.7408,1.0511 .2678-.6567z"/>
<path fill="#cca300" stroke-width=".5" d="m606.4524,147.912l-1.6066,1.2259-1.0265,1.7954-.5357,.0876-1.5622-2.0582-1.7852,.044c0,0-.9821,2.4081-.9821,2.4521 0,.0436-.7142-.0876-.7142-.0876l-1.8745-2.0142c0,0-.5805-1.0075-.4912-1.0075 .0893,0 4.6866,.044 4.6866,.044l-.0444-2.1894c0,0-.7142-.2192-1.0714-.4379 .2678-.0876 2.5443-.0876 2.5443-.0876l-.9821,.6567v1.883l4.0617,.0436 1.3836-.35z"/>
</g>
<g fill="#663d19" stroke-width="1.25">
<path d="m598.132,148.963h.395a.338,.3316 0 0,1 .338,.331v.388a.338,.3316 0 0,1 -.338,.332h-.395a.338,.3316 0 0,1 -.338-.332v-.388a.338,.3316 0 0,1 .338-.331"/>
<path d="m603.22,148.744h.395a.338,.3316 0 0,1 .338,.331v.388a.338,.3316 0 0,1 -.338,.332h-.395a.338,.3316 0 0,1 -.338-.332v-.388a.338,.3316 0 0,1 .338-.331"/>
</g>
<g stroke-width=".5">
<g stroke="#cca300">
<path fill="none" d="m595.3833,145.4595c1.6959-.6714 2.901-1.2112 4.9989-1.401 1.9787-.2045 3.5114,.0729 5.2667,.394"/>
<g fill="#cca300">
<path d="m596.3205,141.9127h-1.3836l-1.9642-2.0582 1.1162,.1316 1.2944,.5691 .9372,1.3575z"/>
<path d="m604.6672,141.1244l3.1244-2.3641-1.0265-.1316-1.1606,1.0507-1.3837,.2192 .4464,1.2259z"/>
<path d="m602.8251,141.5588l-4.8975,.1787 .0444-.5255 1.7856-.1752 .223-.7003c0,0 .5357-.0436 .5357,0 0,.044 .4016,.6567 .4016,.6567l1.7408,.3064 .1664,.2592z"/>
<path d="m602.5694,139.7233l-1.6959,.0436-.1341-.9195 1.83,.8759z"/>
<path d="m599.7128,138.8914l-.1341,.9191-1.6511,.2628 1.7852-1.1819z"/>
<path d="m590.3396,155.6624l.848-2.1018-.7587-1.445-.7587,2.1458 .6694,1.401z"/>
<path d="m592.0357,156.8012l1.0265-2.4961-1.9638,2.0142 .9373,.4819z"/>
</g>
</g>
<g fill="#de1818">
<g stroke="#e61717">
<path d="m633.2217,162.4915l-1.6708,1.9543 .1284,1.6393 3.4702-.063c1.1138-.2628 1.3922-.6516 1.6066-1.1034 .3426-.5568 .107-.8616 .1928-1.6075l-3.7272-.8196z"/>
<path d="m641.4613,167.1181l-1.532,1.1853-.142,1.5065 3.0772,.2267c1.1334-.1571 1.301-.342 1.5569-.7713 .3934-.5227 .2862-.522 .4415-1.2566l-3.4017-.8906z"/>
<path d="m655.1353,163.185l-1.6066,1.6392 .0642,1.2608 3.2775,.126c1.1138-.2628 .9421-.2101 1.2851-.7879 .3426-.5569 .2359-.6726 .3217-1.4185l-3.3418-.8196z"/>
<path d="m664.7102,166.1482l-1.8635,1.5758v1.5762l3.4701,.3155c1.1138-.2628 1.1995-.5886 1.4782-.9774 .3425-.5568 .1713-.6096 .2569-1.3555l-3.3417-1.1347z"/>
</g>
<path stroke="#c00" d="m641.383,124.916l6.5547,4.3502c1.2322-1.0222 3.7955-.4027 4.7993-.1193 1.8026,.4704 3.0731,1.5378 4.6475,1.8216 2.8795,.7237 6.3295,1.2235 8.9425,.9397 2.6135-.2834 4.8082-1.6491 6.7373-2.642v-.6302h-1.2851c-2.0862,.7507-5.0093,.7919-7.2478,.4978-2.2385-.2941-2.8416-1.2976-6.183-2.2631l-.257-.6306c4.0561,.1926 4.8797,.0876 6.5777-.6527 1.6599-.4407 2.4078-1.4042 3.345-2.0697l-.0263-.7451-1.2212-.063c-1.5731,1.0479-2.5759,1.2374-4.9861,1.0166-2.1931-.222-4.1686-1.4704-5.64-1.4966-1.5605,.0119-1.487-.7336-2.9963-.8069-2.3993-.2101-4.9924,.1098-7.2628,.6563-2.7204,.8196-3.1277,1.5128-4.4984,2.837z"/>
</g>
<g fill="#8e3737" stroke="#8f3636">
<path d="m642.656,123.9514c.6274,.1427 1.3312,.3234 1.8442,.6155 .5135,.2921 .3805,.2862 .9319,.69-.0885-.522-.0634-.4847-.4182-.8949-.3551-.4106-.9384-.7836-1.407-1.1197l-.951,.7091z"/>
<path d="m648.1325,128.6523c.0124-.5656-.2789-1.057-.4945-1.5481-.2154-.4911-.3931-.908-.7987-1.3991 .5069,.1427 .786,.3603 1.2171,.8763 .4306,.5164 .4056,1.0325 .4941,1.772l-.4181,.2988z"/>
<path d="m649.3876,121.7501c.1522,.392 .4508,.6611 .7037,1.4973 .2186,.7598 .3228,1.8232 .3228,1.8232-.0824-.566 .0634-1.2064-.019-1.7724-.0824-.5656-.3931-1.057-.4754-1.623l-.5321,.0749z"/>
<path d="m654.7115,122.0858l.2662,3.1342 .3046-2.9475-.5708-.1867z"/>
<path d="m653.4186,128.5777c.1269-.5097 .1015-1.0198 .038-1.5299-.0633-.5097-.2411-.9449-.4185-1.5294 .507,.4352 .7102,.9825 .9889,1.5671 0,.5842-.1519,1.0939-.6084,1.4922z"/>
<path d="m658.933,127.1972c.0189,0 .162,1.0634-.0804,1.8283-.2423,.7649-.4136,.8208-.8702,1.2314 .6083-.4475 1.1409-.5969 1.3311-1.082 .1903-.7463-.3045-1.8655-.3805-1.9777z"/>
<path d="m659.8836,126.1901c-.3801,.0622-.4561-1.5176-.6843-2.2762 .1649-.0872 .3297-.0622 .4945,.2984 .1773,.2116 .1265,1.3186 .1898,1.9777z"/>
<path d="m663.6485,125.5555l.1524-1.3059 .4181-.0372c0,0 0,1.082 0,1.1193 0,.0376-.5321,.2612-.5705,.2239z"/>
<path d="m663.3443,129.0627c.2412,.3979 .6719,.8707 .7227,1.3059 .0509,.4352-.0888,.6468-.4182,1.3059l.6084,.0373c.3293-.5283 .4311-.9076 .3806-1.3242-.051-.4169-.2541-.8335-.6847-1.1755l-.6088-.1494z"/>
<path d="m667.8704,129.3988l.1519,1.8279 .4944-.2612-.1139-1.5667h-.5324z"/>
</g>
<path fill="#fffa00" stroke="#efd608" d="m640.9766,125.2387c-1.4833,.4292-2.0199,1.2488-2.7458,1.9571l-4.1797-2.1168c-.6778,.5624-.9389,1.3658-.6128,2.1882 .326,.822 1.6373,2.1089 2.5698,2.745-.2336,1.1355-.5777,1.9924-.9854,2.9884-.4545,1.1197-1.4301,2.5342-1.4584,2.9884-.0557,.52-.2254,1.6341 .5522,1.9309 .7781,.2969 3.2796-.2057 4.1143-.1506-.1358,.4467-.4606,1.2279-.3499,1.5631 .1107,.3353 .3349,.4471 1.0141,.4665-.1957,.415-.6177,.9409-.4153,1.1886 .5244,.3967 1.1251,.3281 1.6305,.2972-.2973,.3447-.7608,.8083-1.2586,1.2955-.8368,.8188-1.7707,1.704-2.1758,2.2022-.6835,.9243-.7421,1.9226 .5827,1.8247-.4929,.5461-.9668,1.0737-.8912,1.5453 .114,.5648 .3979,.9437 1.3448,.6163-.5602,1.2671-.1922,2.4042 .0053,3.7267-.4784,1.0008-.2752,1.9274-.3939,3.0768-.9744,.5517-1.0956,1.2706-1.729,2.38-.5712,1.2009-1.6345,1.5287-2.2243,4.1053l3.8237,.9536c.1405-.5299 .6407-.8739 .7814-1.4034 .1402-.5299 .1292-1.1898 .0609-1.7756 .7588-1.0986 2.2939-3.3681 2.7871-4.5781 .835-.4459 1.4422-.7249 2.0688-.7249 .6266,0 1.0252,.3718 1.6898,.7249-.294,1.0198-1.1186,2.1319-1.1662,3.5607v3.9424c-.1665,.9794-1.2802,.9924-1.7501,3.942l3.4351,.8902c.5833-.992 1.5072-1.1287 1.7496-1.5259l.2481-4.0957c.4371-1.9333 3.1477-3.5317 3.187-5.6323 .9728-.0131 1.34,.086 1.7257-.113 .5184-.1803 .6961-.472 1.101-.8382 .1559,.6322 .6532,.6877 1.0746,.6877 .421,0 1.2588-.5945 1.6046-.8363 .2433,.3428 .3721,.667 .8802,.7867 .5083,.1197 1.9444-.0951 2.5286-.2358l-2.8227,4.6181c-.1054,.4451 .0356,.7229-.1833,1.2425-.2053,.4665-.6189,.6912-.8052,1.1209l3.2,.7645 .5107-1.3475c.6783-.2858 1.2245-.4415 1.5808-.8759 .3562-.4344 .3531-1.2596 .5579-1.7312 1.0932-.7935 2.8114-2.5163 4.018-3.942 .8192,.1383 1.9795,.8157 2.4199,1.8279 .0618,1.086 .1418,3.0831-.3459,4.4667l-2.074,3.2428-.2351,.5319 3.265,1.1633 2.074-1.5897 .0809-2.2674c1.0418-1.8398 2.5325-2.8453 3.9534-4.0054 0-.0638 .1515-2.4351 .0945-2.5278-.351-.2671-.5882-.1066-.7122-.5969-.1236-.4899-.0392-1.835 .0266-2.3622 .2052-.2545 .6379-.5465 .6157-.7638-.5651-.6203-.3922-2.2258-.219-3.4778-.0424-1.4256 1.9049-3.1112 2.2034-3.942l.1216-1.4966c-.1992-.3678-.4925-.587-.5022-.8993-.0093-.3119 .3785-.8287 .6157-1.1597l.4128-.7043-.0646-3.6879c-.1156-.3983-.4585-1.0194-.7826-1.0832-.3244-.0634-.7998,.3008-1.1618,.7015l-1.8764,1.3852c-.8997,.2751-1.6859,.3833-3.2675-.0107l-2.4126,.048c-1.2668,.3539-1.9278,.411-3.1192-.1086l-1.4285,.023c-.4452,.2426-1.0613,.633-1.5443,.7265-.4828,.0931-1.1364,.1122-1.6196-.0361-3.6877,.2481-2.7718,.5145-3.8258,.7439-.8463-.1605-.5748-.581-3.8644-.6119l-1.3041-.3817c-1.6454-1.0903-2.9123-2.831-4.0083-4.8321 3.4275-.9817 4.8656-2.0011 5.9055-4.3395l-4.8466,.1811-6.8537-4.5543z"/>
<path fill="#664c00" stroke="#664c00" d="m639.2613,131.22l1.3722,.5814c.1677,.1994 .4925,.4292 .7074,.4427 .2144,.0131 .3974-.2057 .5808-.3627l1.2634-.6615c-.7486-.1082-.9769-.5727-1.7727-.5727-.7959,0-1.3554,.4177-2.1512,.5727z"/>
<g fill="#cca300" stroke="#cca300">
<path d="m641.7812,147.4063c-.0005,.1134-.1903,.1962-.2857,.0618-.1176-1.6083-.4719-2.7367-.9679-3.9891 .5598,.9528 1.0249,2.4941 1.2536,3.9273z"/>
<path d="m649.84,147.5805c.2812,.0773 .6731,.0777 .7648-.1082 .1191-.3448-.2356-.7205-.3684-1.1426-.4625-.9064-.7192-1.8897-.9127-2.3158-.2035-.1284-.4229-.1169-.3744,.0955 .2655,.8062 .7203,3.1604 .8908,3.4711z"/>
<path d="m654.2604,147.0926c.0304,.1954-.6337-.0888-.7457-.3111-.0097-.4316-.9038-3.5884-.7558-3.7105 .1879-.0919 .7704,1.055 .9582,1.583 .0441,.3123 .4359,1.4605 .5433,2.4386z"/>
<path d="m653.6339,153.5977c-.0157,.2207 .505,.0392 .7102-.1268 .595-.9302 1.3323-1.9068 1.5489-2.2793 .1305-.3983 .7817-2.9329 .5808-2.9127-.0709-.0733-.6374,1.2572-1.3686,2.5702-.7608,1.3373-1.4795,2.6206-1.4713,2.7486z"/>
<path d="m658.0672,152.2355c-.2166,.1042 .4346-2.1913 .4863-2.598 .1192-.6428 .2851-1.7966 .5462-3.2908 .3187,2.0867-.0574,4.3284-1.0326,5.8888z"/>
<path d="m660.7262,145.2097c-.1422,.1241-2.0466-3.0241-1.8716-3.0395 .0489-.1395 1.5961,1.9702 1.8171,2.3415 .0921,.176 .1834,.4447 .0545,.698z"/>
<path d="m665.183,147.5469c-.1422-.1074-.0853-1.1125-.3673-2.2163-.2815-1.1038-.7607-2.1676-.6657-2.4696 .0889-.1589 .3988-.0856 .6456,.1268 .1175,.6004 .3926,2.9043 .7155,4.4029-.0045,.145-.1661,.2437-.3281,.1562z"/>
<path d="m668.2977,144.7499c-.1523-.1621 .4136,1.0808 .8257,2.5576 .4121,1.4771 .623,4.0862 .7232,3.9007 .2831-.1879 .235-.4221 .6762-.5172 .4409-.0947 2.0813,.0579 1.986-.0523-1.0148-.9041-1.9508-1.6535-2.6501-2.6349-.6989-.9813-1.1615-2.2726-1.561-3.2539z"/>
</g>
</g>
<path stroke-opacity=".996" fill="none" stroke-width="1.25" d="m672.6859,180.342l17.2823-60.9164 36.6835-14.7779 19.455,32.8962-27.846,56.5499c-15.7508-5.9529-24.7588-9.1331-45.5749-13.7518z"/>
<g stroke-width=".5">
<path fill="#fff" stroke="#fff" d="m684.1443,140.0545c9.4101,1.988 18.1211,4.2503 26.8323,7.0607 8.7106,2.8104 17.0024,6.1694 25.434,9.8026l-14.1148,28.5176c-7.8785-2.9983-15.6577-5.4151-23.4372-7.9283-7.7791-2.5136-15.3606-4.7366-23.2387-7.1531l8.5244-30.2995z"/>
<path fill="#de1818" stroke="#e61717" d="m682.2699,146.791c0,0 13.1424,2.9325 25.8775,7.0286 12.7353,4.0957 25.1614,9.3547 25.112,9.3547-.0989,0-8.0045,16.2874-8.0045,16.2874-7.6745-3.0538-15.7449-5.9141-23.7159-8.4832-7.9714-2.5691-15.9425-5.041-24.1113-6.9315l4.8422-17.2561z"/>
<g stroke="#000">
<path fill="#000" d="m683.3618,154.7562c1.2927-.7221 2.1682-.9171 2.8642-2.1073l4.6539,.0004 .0601,1.6971c1.1436,.5465 1.8099,1.1518 2.9535,1.6979 1.1437,.5465 2.765,1.0341 3.9086,1.5806l10.0244,.8783c1.3424,.2144 3.282,.7804 4.4454,1.4633 1.1635,.6833 1.9096,1.5418 2.5363,2.6344 2.0583,.7221 4.1174,1.1514 6.2354,1.4637 2.1187,.3119 4.7736,.4486 6.8322,.5267 1.0144,.3515 1.0144,.8783 .5369,1.405 0,0-1.134,1.5366-4.2293,1.5513-3.0952,.0147-6.6011-1.7268-8.1225-1.4926 .0599,.9365 1.671,2.8687 3.5207,3.6296l-.0594,4.4485-.8358,.7613-.8949-.5854c.7163-1.0535 .4771-2.2833 .1789-3.3368-.6863-.9952-.7756-1.405-2.0582-1.4633-1.5219-.2933-2.626-.7031-4.5651-2.0494l-.7162,.1173c-.4177,.7416-.8355,1.2489-1.79,1.6975l-1.9691-.1169c0,0-4.5352-.9952-4.5352-1.0539 0-.0583-.0596-.7023 .0599-.761 .1192-.0587 1.5513-.0582 1.6704-.0582 .9551,.2925 2.984,.2925 2.984,.2925l-.06-1.6979 3.0433-.1756c-.6165-2.1073-.8157-3.454-3.6399-3.9221l-8.8314,.2342 .1195,1.2294c-2.2078-.2929-6.2056-.3452-8.2476,.3313-1.1935,.1173-2.9108,.7221-3.6864,.7221l-.8953-.2338c-.5967-.1756-.5967-.3511-.358-.8783 3.8189-.2929 4.4159-.5854 5.5495-1.1121 .0598-.3512-.4178-1.1125-.5966-1.1712-2.3867-.1169-4.2963,.0587-4.9524-.0583-1.0145-.2929-2.3872-.8196-2.3872-.8783 0-.0586-.1789-.9365-.1192-.9365 .0593,0 1.5517,.4098 1.6107,.4098 1.6115,.2925 4.416,.1756 5.0725-.1756l.0598-1.2881c-.0598-.5854-.4775-1.1121-.5971-1.1708-.1192-.0586-2.6256-.3511-3.5207-.3511-1.452-.2537-1.233-.9758-1.2528-1.6979z"/>
<path fill="#fff" d="m702.635,165.1767c1.3526,.4292 2.3472,.5656 4.3561,.7023l3.0433-.1756c-.6165-2.1073-.8157-3.454-3.6399-3.9221l-8.8314,.2342 .1195,1.2294c2.6854,.9948 3.9979,1.5414 4.9524,1.9317z"/>
</g>
<path fill="#00298c" stroke="#000082" d="m527.2516,180.3306l-15.9599-59.4802 24.3536-29.5028 34.1491,19.4949 5.7885,63.0291c-17.4247,1.2914-28.7133,2.9683-48.3313,6.459z"/>
<path fill="#fffa00" stroke="#ffc700" d="m470.1384,130.76l5.8433,4.5438-1.0945,7.9466 7.524-3.1287 5.9692,4.5361 .8173-7.309 6.1755-2.4258-5.1062-4.899 1.1361-7.2662c0,0-7.4243,2.6878-7.4281,2.6261-.0038-.0617-5.3351-4.5126-5.3946-4.4469-.0591,.0656-1.2219,6.8994-1.2219,6.8994l-7.2201,2.9238z"/>
</g>
<g stroke-width="1.25">
<path fill="#ffc500" d="m470.2682,130.814l25.0385,4.0514-6.2313,2.5528-6.0169-4.2849c0,0 5.3736,11.3351 5.3069,11.2773-.0667-.0579-5.6945-4.1808-5.8949-4.3544l.5251-6.9191c0,0-7.986,10.0439-7.9898,9.9822-.0038-.0621 1.1613-7.8888 1.1613-7.8888l-5.8988-4.4165z"/>
<g fill="#ffc700">
<path d="m477.2793,127.9835l5.8031,4.9187-4.5258-11.9454-1.2773,7.0267z"/>
<path d="m483.8928,125.6329c.0667,.0585-.8882,7.2603-.8253,7.2564 .5844-.788 8.3121-9.9754 8.2496-9.9715-.0633,.0039-7.2947,2.7697-7.4243,2.7151z"/>
</g>
</g>
<path fill="#fffa00" stroke="#ffc700" stroke-width=".5" d="m708.7271,120.6586l1.4714,7.1778-6.0574,5.3886 7.7958,2.3702 1.5725,7.2515 5.427-5.0762 6.3052,2.0541-.6756-6.9828 5.6419-4.8416c0,0-7.4301-2.6445-7.3925-2.6941 .0377-.0497-1.1042-6.832-1.1928-6.8196-.0883,.0127-5.4664,4.5065-5.4664,4.5065l-7.4293-2.3345z"/>
<g fill="#ffc700">
<path d="m708.7906,120.7821l16.438,18.9564-6.4312-1.9923-1.774-7.0896c0,0-3.3502,12.0779-3.363,11.9914-.0128-.0865-1.5964-6.8057-1.6352-7.0655l4.9478-4.9628c0,0-12.6929,2.6296-12.6553,2.58 .038-.0499 6.0704-5.3021 6.0704-5.3021l-1.5975-7.1155z"/>
<g stroke-width="1.25">
<path d="m716.1059,122.9561l1.1942,7.4392 4.398-12.008-5.5923,4.5688z"/>
<path d="m722.7274,125.3194c.0129,.0865-5.4022,4.9395-5.3516,4.9764 .9586-.2271 12.8324-2.2959 12.7822-2.3325-.0509-.0371-7.3671-2.5205-7.4306-2.6439z"/>
</g>
</g>
<g fill="#de1818" stroke="#e61717" stroke-width=".5">
<path d="m511.4081,121.081c8.6679-4.1434 18.3966-7.3759 28.6565-8.7856 9.8612-1.4103 19.7306-1.5324 29.8576-1.5108 0,0 1.3267,15.5098 1.3267,15.6401-7.9601,.065-13.8922-.0828-27.9343,1.7336-13.9633,1.9365-19.7152,3.596-28.2061,6.85l-3.7005-13.9274z"/>
<path d="m518.8305,148.5373c-.1329,0 4.3853,16.4072 4.3853,16.4072 8.3362-2.1042 16.8049-3.6879 25.2737-4.8809 8.4687-1.193 17.4751-1.8727 25.6784-2.4149l-1.4523-16.0025c-8.6457-.5208-18.4993-.5208-27.4103,.6504-8.9111,1.1716-17.5636,3.2472-26.4747,6.2407z"/>
</g>
<g stroke="#de1818">
<path fill="#fff" stroke-width="1.601" d="m479.0403,199.2022h241.9348v155.1343c-6.1494,60.4163-64.2172,105.5772-117.2777,105.2328-57.2773,2.4989-120.6163-44.3857-125.1842-105.75l.5271-154.6171z"/>
<path fill="#de1818" stroke-width="1.534" d="m484.0714,204.6307h231.8505v148.6685c-5.8932,57.8982-61.5405,101.1769-112.3894,100.8468-54.8897,2.3947-115.5887-42.5358-119.9662-101.3425l.5051-148.1728z"/>
</g>
</g>
<path fill="#fff" fill-rule="evenodd" id="rect3711" stroke-width="1.25" d="m530.764,205.422h46.107v49.557h-46.107z"/>
<use width="1200" height="600" xlink:href="#path3719" transform="matrix(-1 0 0 1 1199.68 .06595)"/>
<use width="1200" height="600" xlink:href="#path3717" transform="matrix(-1 0 0 1 1200 0)"/>
<path fill="#fff" fill-rule="evenodd" stroke="#fff" id="path3717" stroke-width=".508" d="m531.0845,403.8767l.096,26.2843c15.7066,11.0871 33.6441,17.8184 45.5901,20.3134l-.1541-46.5803-45.532-.0174z"/>
<path fill="#fff" fill-rule="evenodd" stroke="#fff" id="path3719" stroke-width=".512" d="m484.9099,354.3692c1.4647,19.1882 10.0921,36.3786 18.7084,48.4158l26.8892,.5602 .0049-48.9969-45.6026,.0209z"/>
<use width="1200" height="600" xlink:href="#rect3711" transform="translate(-46.1064 49.5567)"/>
<use width="1200" height="600" xlink:href="#rect3711" transform="translate(46.1064 49.5566)"/>
<use width="1200" height="600" xlink:href="#rect3711" transform="translate(92.2128)"/>
<use width="1200" height="600" xlink:href="#rect3711" transform="translate(138.319 49.5566)"/>
<use width="1200" height="600" xlink:href="#rect3711" transform="translate(0 99.1133)"/>
<use width="1200" height="600" xlink:href="#rect3711" transform="translate(92.2128 99.1133)"/>
<use width="1200" height="600" xlink:href="#rect3711" transform="translate(46.1066 148.67)"/>
<path fill="#cca300" fill-rule="evenodd" stroke="#cca300" stroke-width=".5" d="m645.564,146.8484c-.1536,.1849-.5163-2.1736-.6384-2.5649-.159-.6342-.488-1.7524-.8721-3.2198 1.1578,1.765 1.7483,3.96 1.5105,5.7846z"/>
</svg>
