<?xml version="1.0" encoding="utf-8"?>
<!-- Generator: Adobe Illustrator 25.2.3, SVG Export Plug-In . SVG Version: 6.00 Build 0)  -->
<svg version="1.1" id="Laag_1" xmlns="http://www.w3.org/2000/svg" xmlns:xlink="http://www.w3.org/1999/xlink" x="0px" y="0px"
	 viewBox="0 0 110.8 52.1" style="enable-background:new 0 0 110.8 52.1;" xml:space="preserve">
<style type="text/css">
	.st0{fill:#FFFFFF;}
	.st1{fill:#4A494B;}
	.st2{fill:#C2ADC9;}
</style>
<path class="st0" d="M90.2,38l-2.7,13.2h-7.8L90.9,0.6h9.4l10.4,50.6h-7.8L100.2,38H90.2 M99.4,31.7l-2.1-11.6
	c-0.6-3.3-1.3-8-1.9-11.5h-0.2c-0.5,3.5-1.3,8.3-1.9,11.5l-2.2,11.6H99.4z"/>
<path class="st0" d="M52.1,34.6V1.4c2.8-0.7,6.3-1,9.7-1c5.2,0,9.5,0.9,12.5,3.7c2.8,2.7,3.8,6.1,3.8,10.3c0,5.9-2.9,10.4-8,12.8
	v0.1c3.5,1.3,5.4,4.7,6.4,10.7c1.1,6.2,2.3,11.6,3.1,13.3h-8.3c-0.7-1.4-1.7-6.4-2.6-12.3c-1-6.5-2.9-8.7-6.8-8.7h-1.9v4.7
	c0,11-3.6,16.3-3.6,16.3H48C48,51.2,52.1,45.5,52.1,34.6 M60.1,24h2.1c4.8,0,7.8-3.8,7.8-8.9c0-5-2-8.3-7.2-8.4c-1,0-2,0.1-2.7,0.3
	V24z"/>
<path class="st1" d="M47.6,20.4l-1,1.3c0,10.2,0.2,20.2-5.7,29.5H30.7c-0.2,0.3-0.4,0.6-0.6,0.9h11.5C47.9,42.1,47.6,31.3,47.6,20.4
	"/>
<path class="st2" d="M46.6,21.6c0-0.7,0-1.4,0-2.1l-5.8,7.2l-5.8-7.2c0,11.6,1.1,21.8-5.9,31.6h11.7C46.8,41.8,46.7,31.9,46.6,21.6"
	/>
<path class="st1" d="M43.8,11.3h0.8C44.7,8,45,4.5,41.7,0.5h-0.9C43.9,4.5,43.8,7.9,43.8,11.3"/>
<polygon class="st1" points="40.9,20 40.9,20.1 41.4,20.9 47.2,12.1 46.1,12.1 40.9,20.1 "/>
<path class="st0" d="M35.1,11.3l5.7,8.7l0,0l5.2-7.9l0.5-0.8h-2h-0.8c0-3.4,0.2-6.8-2.9-10.8c-0.1-0.2-0.3-0.3-0.4-0.5h-6.6
	c3.8,4,4.6,7.9,4.6,11.3H35.1"/>
<path class="st0" d="M30.7,25.2c0,19.1-6.7,26.6-15.6,26.6C5,51.8,0,41,0,25.8C0,10.7,5.7,0,15.8,0C26.5,0,30.7,11.6,30.7,25.2
	 M8.3,25.9c0,11,2.1,18.9,7.2,18.9c5.2,0,6.8-9.1,6.8-19.2c0-9.2-1.5-18.6-6.9-18.6C10.4,7,8.3,15.3,8.3,25.9"/>
</svg>
