<?xml version="1.0" encoding="utf-8"?>
<!-- Generator: Adobe Illustrator 21.1.0, SVG Export Plug-In . SVG Version: 6.00 Build 0)  -->
<svg version="1.1" id="Daimler_Logotype" xmlns="http://www.w3.org/2000/svg" xmlns:xlink="http://www.w3.org/1999/xlink" x="0px"
	 y="0px" viewBox="0 0 284 36" style="enable-background:new 0 0 284 36;" xml:space="preserve">
<g>
	<path d="M4,2.7H1.6C1.2,0.5,1.4,0,8.7,0h10.4c14.7,0,21.1,6.6,21.1,17.5c0,10.5-6,17.5-20.6,17.5H0.4c-0.2-0.5-0.2-1.3,0-2
		c5.5-0.3,6.4-0.7,6.4-4.1V5C6.8,3,6.3,2.7,4,2.7z M33.3,18.6c0-9.8-5.1-15.5-14.9-15.5h-5.3v25.7c0,3.1,1.1,3.6,5.9,3.6
		C27.8,32.3,33.3,29.5,33.3,18.6z"/>
	<path d="M64.7,0.4c0.2,1.1,0.5,2,1.3,3.8l11.8,26.9c0.6,1.3,1.1,1.8,3.7,1.8h1.2c0.3,1.5,0,2.3-1.3,2.3H64.9c-0.2-0.5-0.2-1.3,0-2
		c5.6-0.2,6.1-0.6,5.6-1.9l-3.2-7.7H54.1L52,29.1c-1.2,3-1.2,3.8,1.6,3.8H58c0.4,1.5,0,2.3-1.3,2.3H42.2c-0.2-0.5-0.2-1.3,0-2
		c3.9-0.5,4.4-0.8,5.8-4.1l10-24c1.7-3.9,2.3-4.7,4.7-4.7C62.7,0.4,64.7,0.4,64.7,0.4z M66.1,20.7L60.5,7.4l-5.3,13.3H66.1z"/>
	<path d="M102.9,1.1c0.2,0.5,0.2,1.5,0,2c-4.4,0.3-5.1,1.3-5.1,3.4v24.2c0,1.8,0.5,2.1,2.7,2.1h2.8c0.4,1.5,0.2,2.3-1.3,2.3H86.4
		c-0.2-0.5-0.2-1.3,0-2c4.1-0.7,5-1.2,5-3.3V5.5c0-1.8-0.5-2.1-2.8-2.1h-2.4c-0.3-1.3,0-2.3,2.1-2.3C88.3,1.1,102.9,1.1,102.9,1.1z"
		/>
	<path d="M161.6,1.1c0.2,0.7,0.2,1.3,0,2c-4.7,0.3-5,1.1-4.9,2.6l2.4,24.9c0.2,1.6,1,1.8,4.9,2.3c0.2,1.5,0,2.3-1.4,2.3h-18
		c-0.2-0.7-0.2-1.3,0-2l2.8-0.2c4.3-0.3,5-0.8,4.7-3.3l-2.3-22.2l-12.2,25.7c-0.9,1.8-1.3,2.1-2.5,2.1l-14-27.9l-1.6,22.9
		c-0.2,2-0.2,2.5,5.3,2.5h2.8c0.4,1.5,0.2,2.3-1.3,2.3h-16.7c-0.2-0.7-0.2-1.3,0-2c5.6-0.3,6.1-1.3,6.2-3.5l2.1-24
		c0.2-1.6-0.2-2.2-5.2-2.3c-0.3-1.2,0-2.3,2.1-2.3H125l12.8,24.5L149.6,1h12V1.1z"/>
	<path d="M189.8,1.1c0.2,0.5,0.2,1.5,0,2c-5.4,0.3-6.4,0.8-6.4,4.1v22.5c0,1.7,0.9,2.1,2.3,2.1h3.3c3.8,0,4.3-0.3,6.4-4.8l1.4-3.2
		c1.5-0.1,2.2,0.6,1.7,2.1c-1.1,3.1-2,6-2.7,9.2H171c-0.1-0.7-0.2-1.3,0-2c4.9-0.3,6.1-1,6.1-4.3V5.5c0-1.8-0.7-2.1-2.8-2.1h-2.4
		c-0.3-1.3,0-2.3,2.1-2.3C174,1.1,189.8,1.1,189.8,1.1z"/>
	<path d="M231.3,1.1c0.2,2.3,0.5,4.7,0.8,6.9c0.3,1.6-0.4,2.4-2,2.3L229.4,8c-0.9-3.1-1.9-3.9-4.7-3.9h-8.2v13.1h5.4
		c1.5,0,1.8-0.5,2-1.8l0.4-2.6h0.6c1,0,1.6,0.4,1.5,1.9c-0.2,3.2-0.2,6.7,0,10c-0.5,0.2-1.2,0.3-1.8,0c-0.7-4-1.3-4.4-2.7-4.4h-5.4
		v9c0,1.8,0.5,2.6,3.9,2.6h4.4c3.8,0,4.3-0.3,6.4-4.8l1.4-3.2c1.5-0.1,2.2,0.6,1.7,2.1c-1,2.9-2,6-2.7,9.2h-28.2
		c-0.2-0.7-0.2-1.3,0-2c5.4-0.3,6.4-0.7,6.4-4.1V5.5c0-1.8-0.5-2.1-2.8-2.1h-2.4c-0.2-1.3,0-2.3,2.2-2.3
		C206.8,1.1,231.3,1.1,231.3,1.1z"/>
	<path d="M243.9,3.4h-2.4c-0.4-1.3,0-2.3,2.1-2.4c2.4-0.2,5.5-0.2,12.7-0.2c9.8,0,15.2,4.6,15.2,11.6c0,4.3-2.7,7.8-6.9,9.5
		c0,0,3.8,3.5,5.8,5.1c6.7,5.4,9,5.9,13.4,5.9c0.5,1.8-0.8,3.1-6.2,3.1c-4.7,0-7.9-1-11.6-4.3c-1.7-1.5-3.5-3.5-4.8-5.9
		c-1.3-2.3-1.4-2.4-4.5-2.4H253v7.5c0,1.5,0.5,2,3.1,2h2.6c0.2,1.5,0,2.3-1.5,2.3h-16.1c-0.1-0.6-0.2-1.3,0-2
		c4.4-0.3,5.5-0.8,5.5-3.9V5.7C246.7,3.7,246,3.4,243.9,3.4z M255.5,20.4c5,0,9.1-0.8,9.1-7.7s-4.1-9-9.8-9H253v16.7
		C253,20.4,255.5,20.4,255.5,20.4z"/>
</g>
</svg>
