<?xml version="1.0" encoding="utf-8"?>
<!-- Generator: Adobe Illustrator 18.1.0, SVG Export Plug-In . SVG Version: 6.00 Build 0)  -->
<!DOCTYPE svg PUBLIC "-//W3C//DTD SVG 1.1//EN" "http://www.w3.org/Graphics/SVG/1.1/DTD/svg11.dtd">
<svg version="1.1" id="Laag_1" xmlns="http://www.w3.org/2000/svg" xmlns:xlink="http://www.w3.org/1999/xlink" x="0px" y="0px"
	 width="608.1px" height="543.6px" viewBox="-335 129.4 608.1 543.6" enable-background="new -335 129.4 608.1 543.6"
	 xml:space="preserve">
<g opacity="5.000000e-02">
	<g>
		<path fill="#FFFFFF" d="M-140.6,259.2l10.8-14.3l17.3-4.6l-10.8-4l10.4-13.6l-16.8,11.3l-9.9-3.7l-0.3,10.6l-16.8,11.3l16.6-4.5
			L-140.6,259.2z M-195.5,290.9l-8.4-5.5l-2.3,12.7l-17.4,11.6l15.9-3.5l-2.5,13.8l12.5-16l16.7-3.6l-9.1-6l12-15.2L-195.5,290.9z
			 M-261,398.7l15-19.4l17.5-2.4l-8.5-9.2l14.2-18.3l-19.2,12.9l-7.7-8.4l-4,16.3l-19.2,12.9l16.6-2.4L-261,398.7z M-250.9,451
			l16.9-23.3l-22.5,15.1l-8.4-12.8l-5.3,22l-22.5,15l19-0.8l-6,24.6l18-25l20.2-0.6L-250.9,451z M-216.6,515.7l-11.9-18.5l-4.7,29.6
			l-27,18.1l23.9,1.4l-5.5,34l20.7-33.1l25.9,1.8l-13.7-21.2l19.2-30.2L-216.6,515.7z M-73.2,522.7L-105,544l-19.6-23l0.2,36
			l-31.8,21.3l31.8,2.8l0.2,42.6l20.4-40.7l35.2,3.4l-23.2-27.2L-73.2,522.7z M82.3,465.3L48.4,488L19,466.6l8.7,35.3l-33.9,22.7
			l39.6,1l10.3,42.2l15.5-41.5l44.2,1.4l-35.2-25.5L82.3,465.3z M188.9,347l-31.8,21.3l-33.2-13.9l13.8,26.9L106,402.6l40.9-3.3
			l16.3,31.8l10.2-33.8l45.4-3.4l-39.4-16.3L188.9,347z M153.9,267.4l-27,18.1l35.3-6.3l14.4,20.7l8.2-24.7l38.5-6.6l-33.6-7.9
			l7.8-22.6l-27,18.1l-29.2-6.9L153.9,267.4z M106.5,211.1l9.6,14.2l8.2-18.5l30-7.2l-25-3.8l7.9-17.2l-22.5,15.1l-22.3-3.4
			l8.6,12.6L78.5,218L106.5,211.1z M24.5,192.2l5.3,11.4l8.8-15.3l23.6-6.5l-18.3-2.6l8.5-14.4l-19.2,12.9l-16.6-2.4l4.8,10.3
			L2.2,198.4L24.5,192.2z M-34.1,182.7l-17.4,11.7l-12.6-2.7l1.9,9.8l-17.4,11.6l18.6-5.3l2.1,10.7l9.7-14.1l19.5-5.5l-13.7-2.9
			L-34.1,182.7z"/>
	</g>
</g>
</svg>
