<?xml version="1.0" encoding="utf-8"?>
<!-- Generator: Adobe Illustrator 18.1.1, SVG Export Plug-In . SVG Version: 6.00 Build 0)  -->
<svg version="1.1" id="Laag_1" xmlns="http://www.w3.org/2000/svg" xmlns:xlink="http://www.w3.org/1999/xlink" x="0px" y="0px"
	 viewBox="0 135.3 512 241.4" enable-background="new 0 135.3 512 241.4" xml:space="preserve">
<g>
	<g>
		<path fill="#FFFFFF" d="M72.3,135.8C26.2,135.8,0,184.6,0,253.7c0,69.7,23.1,118.9,69.2,118.9c40.9,0,71.3-34.6,71.3-121.6
			C140.4,188.8,121.6,135.8,72.3,135.8z M71.3,340.7c-23.6,0-33-36.2-33-86.4c0-48.2,9.4-86.4,32.5-86.4c24.6,0,31.4,43.5,31.4,85.4
			C102.2,299.3,94.8,340.7,71.3,340.7z M459.5,138.5h-43L365.2,370c-3.7-7.9-9.4-32.5-14.1-60.8c-4.7-27.2-13.1-43-29.3-48.7V260
			c23.6-10.5,36.7-31.4,36.7-58.7c0-19.4-4.7-34.6-17.3-47.2c-13.6-12.6-33.5-16.8-57.6-16.8c-15.7,0-31.4,1.6-44.5,4.7
			c0,0,0,106.9,0,152.5c0,49.8-18.9,75.4-18.9,75.4h38.2c0,0,16.8-24.6,16.8-74.9c0-13.1,0-21.5,0-21.5h8.4
			c18.3,0,26.7,10,31.4,39.8c4.2,27.2,8.9,49.8,12.1,56.6h73.9l12.6-60.3h46.1l12.1,60.3h35.6L459.5,138.5z M285,245.4h-9.4v-77.5
			c2.6-1,7.3-1.6,12.1-1.6c24.1,0.5,33,15.7,33,38.2C320.6,228.6,307,245.4,285,245.4z M417.6,281l10.5-53.4
			c2.6-14.7,6.3-36.7,8.4-52.4h1c2.6,16.2,5.8,37.2,8.4,52.4l9.4,53.4H417.6z M187,258.4l-26.2-33c0,52.9,5.2,100.1-26.7,144.6h53.4
			c28.8-45.6,26.2-94.8,26.2-144.6L187,258.4z M160.8,187.2L187,227l26.2-39.8h-13.1c0-16.2,1-32.5-15.2-51.9h-30.4
			c17.3,18.3,21,36.2,21,51.9H160.8z"/>
	</g>
</g>
<g>
	<defs>
		<rect id="SVGID_1_" y="135.3" width="510.5" height="240.1"/>
	</defs>
	<clipPath id="SVGID_2_">
		<use xlink:href="#SVGID_1_"  overflow="visible"/>
	</clipPath>
	<g clip-path="url(#SVGID_2_)">
		<path fill="#174291" d="M415.8,310.3l-12.4,60.9h-36l51.9-233.1h43.2l48.1,233.1h-36l-12.5-60.9H415.8z M458.3,281.6l-9.7-53.6
			c-2.8-15.2-5.9-36.7-8.6-52.9h-1c-2.4,16.3-5.9,38.4-8.6,52.9l-10.4,53.6H458.3z"/>
	</g>
	<g clip-path="url(#SVGID_2_)">
		<path fill="#174291" d="M240.2,295V141.5c12.8-3.1,29-4.5,44.6-4.5c23.9,0,43.9,4.1,57.7,16.9c12.8,12.4,17.6,28,17.6,47.4
			c0,27-13.1,48.1-36.7,58.8v0.7c16.3,5.9,24.9,21.4,29.4,49.1c5.2,28.4,10.7,53.3,14.5,61.2h-38.4c-3.1-6.6-8-29.4-12.1-56.7
			c-4.5-30.1-13.1-40.1-31.5-40.1h-8.6V296c0,50.6-16.7,75.1-16.7,75.1h-38.7C221.5,371.1,240.2,345,240.2,295 M276.9,245.9h9.7
			c22.1,0,36-17.3,36-41.2c0-22.8-9-38.4-33.2-38.7c-4.5,0-9.3,0.3-12.4,1.4V245.9z"/>
	</g>
	<g clip-path="url(#SVGID_2_)">
		<path fill="#565655" d="M219.5,229.2l-4.4,5.9c0.2,47.1,0.8,93.1-26.5,136h-47.1c-0.9,1.4-1.9,2.8-2.9,4.3h53.1
			C220.8,329.5,219.5,279.6,219.5,229.2"/>
	</g>
	<g clip-path="url(#SVGID_2_)">
		<path fill="#A996BB" d="M215,235.1c0-3.2,0-6.4,0-9.7l-26.6,33.2l-26.6-33.2c0,53.3,5.1,100.5-27.1,145.7h6.7h47.1
			C215.9,328.2,215.2,282.1,215,235.1"/>
	</g>
	<g clip-path="url(#SVGID_2_)">
		<path fill="#565655" d="M201.7,187.4h3.8c0.3-15.4,1.7-31.6-13.2-49.7h-3.9C202.6,156.2,201.7,171.6,201.7,187.4"/>
	</g>
	<g clip-path="url(#SVGID_2_)">
		<polygon fill="#565655" points="188.4,227.6 188.4,227.7 190.9,231.5 217.5,191.2 212.5,191.2 188.4,227.7 		"/>
	</g>
	<g clip-path="url(#SVGID_2_)">
		<path fill="#174291" d="M161.9,187.4l26.5,40.2l0.1,0.1l24.1-36.6l2.5-3.7l-9.4,0h-3.8c0-15.8,0.8-31.2-13.3-49.7
			c-0.6-0.8-1.2-1.6-1.9-2.4H156c17.5,18.3,21.1,36.3,21.1,52.1H161.9z"/>
	</g>
	<g clip-path="url(#SVGID_2_)">
		<path fill="#174291" d="M141.4,251.5c0,87.8-30.8,122.4-71.9,122.4C23.2,373.9,0,324.4,0,254.2c0-69.9,26.3-118.9,73-118.9
			C122.1,135.3,141.4,188.9,141.4,251.5 M38.4,254.6c0,50.8,9.7,87.1,33.2,87.1c23.9,0,31.5-41.8,31.5-88.5
			c0-42.2-6.9-85.8-31.8-85.8C48.1,167.5,38.4,205.8,38.4,254.6"/>
	</g>
</g>
</svg>
