<?xml version="1.0" encoding="utf-8"?>
<!-- Generator: Adobe Illustrator 22.1.0, SVG Export Plug-In . SVG Version: 6.00 Build 0)  -->
<svg version="1.1" id="Laag_1" xmlns="http://www.w3.org/2000/svg" xmlns:xlink="http://www.w3.org/1999/xlink" x="0px" y="0px"
	 viewBox="0 0 608.1 543.6" style="enable-background:new 0 0 608.1 543.6;" xml:space="preserve">
<style type="text/css">
	.st0{opacity:0.3;}
	.st1{fill:#FFFFFF;}
</style>
<g class="st0">
	<g>
		<path class="st1" d="M194.4,129.8l10.8-14.3l17.3-4.6l-10.8-4l10.4-13.6l-16.8,11.3l-9.9-3.7l-0.3,10.6l-16.8,11.3l16.6-4.5
			L194.4,129.8z M139.5,161.5l-8.4-5.5l-2.3,12.7l-17.4,11.6l15.9-3.5l-2.5,13.8l12.5-16L154,171l-9.1-6l12-15.2L139.5,161.5z
			 M74,269.3l15-19.4l17.5-2.4l-8.5-9.2l14.2-18.3L93,232.9l-7.7-8.4l-4,16.3l-19.2,12.9l16.6-2.4L74,269.3z M84.1,321.6l16.9-23.3
			l-22.5,15.1l-8.4-12.8l-5.3,22l-22.5,15l19-0.8l-6,24.6l18-25l20.2-0.6L84.1,321.6z M118.4,386.3l-11.9-18.5l-4.7,29.6l-27,18.1
			l23.9,1.4l-5.5,34l20.7-33.1l25.9,1.8l-13.7-21.2l19.2-30.2L118.4,386.3z M261.8,393.3L230,414.6l-19.6-23l0.2,36l-31.8,21.3
			l31.8,2.8l0.2,42.6l20.4-40.7l35.2,3.4l-23.2-27.2L261.8,393.3z M417.3,335.9l-33.9,22.7L354,337.2l8.7,35.3l-33.9,22.7l39.6,1
			l10.3,42.2l15.5-41.5l44.2,1.4l-35.2-25.5L417.3,335.9z M523.9,217.6l-31.8,21.3L458.9,225l13.8,26.9L441,273.2l40.9-3.3
			l16.3,31.8l10.2-33.8l45.4-3.4l-39.4-16.3L523.9,217.6z M488.9,138l-27,18.1l35.3-6.3l14.4,20.7l8.2-24.7l38.5-6.6l-33.6-7.9
			l7.8-22.6l-27,18.1l-29.2-6.9L488.9,138z M441.5,81.7l9.6,14.2l8.2-18.5l30-7.2l-25-3.8l7.9-17.2l-22.5,15.1l-22.3-3.4l8.6,12.6
			l-22.5,15.1L441.5,81.7z M359.5,62.8l5.3,11.4l8.8-15.3l23.6-6.5l-18.3-2.6l8.5-14.4l-19.2,12.9l-16.6-2.4l4.8,10.3L337.2,69
			L359.5,62.8z M300.9,53.3L283.5,65l-12.6-2.7l1.9,9.8l-17.4,11.6l18.6-5.3l2.1,10.7l9.7-14.1l19.5-5.5l-13.7-2.9L300.9,53.3z"/>
	</g>
</g>
</svg>
